<?xml version="1.0" encoding="UTF-8"?>
<svg xmlns="http://www.w3.org/2000/svg" xmlns:xlink="http://www.w3.org/1999/xlink" width="1099px" height="726px" viewBox="0 0 1099 726" version="1.1">
<defs>
<filter id="alpha" filterUnits="objectBoundingBox" x="0%" y="0%" width="100%" height="100%">
  <feColorMatrix type="matrix" in="SourceGraphic" values="0 0 0 0 1 0 0 0 0 1 0 0 0 0 1 0 0 0 1 0"/>
</filter>
<mask id="mask0">
  <g filter="url(#alpha)">
<rect x="0" y="0" width="1099" height="726" style="fill:rgb(0%,0%,0%);fill-opacity:0.101961;stroke:none;"/>
  </g>
</mask>
<clipPath id="clip1">
  <rect x="0" y="0" width="1099" height="726"/>
</clipPath>
<g id="surface5" clip-path="url(#clip1)">
<path style=" stroke:none;fill-rule:nonzero;fill:rgb(14.509804%,13.333333%,13.72549%);fill-opacity:1;" d="M 986.878906 616.140625 C 978.683594 620.054688 970.101562 623.433594 961.640625 626.746094 C 930.351562 638.976562 898.578125 651.332031 864.976562 655.53125 C 801.832031 663.367188 736.6875 642.046875 674.660156 655.351562 C 622.703125 666.460938 579.730469 700.5 528.96875 715.660156 C 505.367188 722.707031 480.808594 725.46875 456.035156 725.46875 L 452.835938 725.46875 C 449.785156 725.46875 446.746094 725.359375 443.695312 725.253906 C 418.574219 724.378906 393.351562 720.988281 368.722656 716.542969 C 290.964844 702.683594 211.824219 677.28125 152.375 630.511719 C 325.476562 601.203125 682.046875 556.238281 986.878906 616.140625 Z M 986.878906 616.140625 "/>
</g>
<mask id="mask1">
  <g filter="url(#alpha)">
<rect x="0" y="0" width="1099" height="726" style="fill:rgb(0%,0%,0%);fill-opacity:0.301961;stroke:none;"/>
  </g>
</mask>
<clipPath id="clip2">
  <rect x="0" y="0" width="1099" height="726"/>
</clipPath>
<g id="surface8" clip-path="url(#clip2)">
<path style=" stroke:none;fill-rule:nonzero;fill:rgb(29.411765%,50.196078%,52.156863%);fill-opacity:1;" d="M 1047.214844 265.453125 L 1047.214844 197.226562 L 1003.484375 197.226562 L 1003.484375 265.453125 L 951.699219 265.453125 L 951.699219 159.910156 L 913.722656 159.910156 L 913.722656 81.023438 L 882.652344 81.023438 L 882.652344 0 L 818.207031 0 L 818.207031 81.023438 L 787.136719 81.023438 L 787.136719 159.910156 L 750.3125 159.910156 L 750.3125 65.03125 L 729.597656 65.03125 L 729.597656 17.058594 L 716.9375 17.058594 L 716.9375 65.03125 L 643.289062 65.03125 L 643.289062 367.796875 L 586.902344 367.796875 L 586.902344 335.816406 L 552.378906 335.816406 L 552.378906 367.796875 L 495.988281 367.796875 L 495.988281 265.453125 L 394.71875 265.453125 L 394.71875 197.226562 L 350.988281 197.226562 L 350.988281 265.453125 L 348.6875 265.453125 L 348.6875 396.582031 L 302.65625 396.582031 L 302.65625 319.824219 L 247.417969 319.824219 L 247.417969 396.582031 L 201.386719 396.582031 L 201.386719 159.910156 L 165.714844 159.910156 L 165.714844 81.023438 L 34.523438 81.023438 L 34.523438 159.910156 L 0 159.910156 L 0 576.75 L 1099 576.75 L 1099 265.453125 Z M 1047.214844 265.453125 "/>
</g>
<mask id="mask2">
  <g filter="url(#alpha)">
<rect x="0" y="0" width="1099" height="726" style="fill:rgb(0%,0%,0%);fill-opacity:0.4;stroke:none;"/>
  </g>
</mask>
<clipPath id="clip3">
  <rect x="0" y="0" width="1099" height="726"/>
</clipPath>
<g id="surface11" clip-path="url(#clip3)">
<path style=" stroke:none;fill-rule:nonzero;fill:rgb(100%,100%,100%);fill-opacity:1;" d="M 21.863281 184.433594 L 70.199219 184.433594 L 70.199219 210.019531 L 21.863281 210.019531 Z M 21.863281 184.433594 "/>
</g>
<mask id="mask3">
  <g filter="url(#alpha)">
<rect x="0" y="0" width="1099" height="726" style="fill:rgb(0%,0%,0%);fill-opacity:0.4;stroke:none;"/>
  </g>
</mask>
<clipPath id="clip4">
  <rect x="0" y="0" width="1099" height="726"/>
</clipPath>
<g id="surface14" clip-path="url(#clip4)">
<path style=" stroke:none;fill-rule:nonzero;fill:rgb(100%,100%,100%);fill-opacity:1;" d="M 178.371094 210.019531 L 130.039062 210.019531 L 130.039062 184.433594 L 178.371094 184.433594 Z M 178.371094 210.019531 "/>
</g>
<mask id="mask4">
  <g filter="url(#alpha)">
<rect x="0" y="0" width="1099" height="726" style="fill:rgb(0%,0%,0%);fill-opacity:0.4;stroke:none;"/>
  </g>
</mask>
<clipPath id="clip5">
  <rect x="0" y="0" width="1099" height="726"/>
</clipPath>
<g id="surface17" clip-path="url(#clip5)">
<path style=" stroke:none;fill-rule:nonzero;fill:rgb(100%,100%,100%);fill-opacity:1;" d="M 21.863281 234.539062 L 70.199219 234.539062 L 70.199219 260.125 L 21.863281 260.125 Z M 21.863281 234.539062 "/>
</g>
<mask id="mask5">
  <g filter="url(#alpha)">
<rect x="0" y="0" width="1099" height="726" style="fill:rgb(0%,0%,0%);fill-opacity:0.4;stroke:none;"/>
  </g>
</mask>
<clipPath id="clip6">
  <rect x="0" y="0" width="1099" height="726"/>
</clipPath>
<g id="surface20" clip-path="url(#clip6)">
<path style=" stroke:none;fill-rule:nonzero;fill:rgb(100%,100%,100%);fill-opacity:1;" d="M 178.371094 260.125 L 130.039062 260.125 L 130.039062 234.539062 L 178.371094 234.539062 Z M 178.371094 260.125 "/>
</g>
<mask id="mask6">
  <g filter="url(#alpha)">
<rect x="0" y="0" width="1099" height="726" style="fill:rgb(0%,0%,0%);fill-opacity:0.4;stroke:none;"/>
  </g>
</mask>
<clipPath id="clip7">
  <rect x="0" y="0" width="1099" height="726"/>
</clipPath>
<g id="surface23" clip-path="url(#clip7)">
<path style=" stroke:none;fill-rule:nonzero;fill:rgb(100%,100%,100%);fill-opacity:1;" d="M 21.863281 284.644531 L 70.199219 284.644531 L 70.199219 310.230469 L 21.863281 310.230469 Z M 21.863281 284.644531 "/>
</g>
<mask id="mask7">
  <g filter="url(#alpha)">
<rect x="0" y="0" width="1099" height="726" style="fill:rgb(0%,0%,0%);fill-opacity:0.4;stroke:none;"/>
  </g>
</mask>
<clipPath id="clip8">
  <rect x="0" y="0" width="1099" height="726"/>
</clipPath>
<g id="surface26" clip-path="url(#clip8)">
<path style=" stroke:none;fill-rule:nonzero;fill:rgb(100%,100%,100%);fill-opacity:1;" d="M 178.371094 310.230469 L 130.039062 310.230469 L 130.039062 284.644531 L 178.371094 284.644531 Z M 178.371094 310.230469 "/>
</g>
<mask id="mask8">
  <g filter="url(#alpha)">
<rect x="0" y="0" width="1099" height="726" style="fill:rgb(0%,0%,0%);fill-opacity:0.4;stroke:none;"/>
  </g>
</mask>
<clipPath id="clip9">
  <rect x="0" y="0" width="1099" height="726"/>
</clipPath>
<g id="surface29" clip-path="url(#clip9)">
<path style=" stroke:none;fill-rule:nonzero;fill:rgb(100%,100%,100%);fill-opacity:1;" d="M 21.863281 334.75 L 70.199219 334.75 L 70.199219 360.335938 L 21.863281 360.335938 Z M 21.863281 334.75 "/>
</g>
<mask id="mask9">
  <g filter="url(#alpha)">
<rect x="0" y="0" width="1099" height="726" style="fill:rgb(0%,0%,0%);fill-opacity:0.4;stroke:none;"/>
  </g>
</mask>
<clipPath id="clip10">
  <rect x="0" y="0" width="1099" height="726"/>
</clipPath>
<g id="surface32" clip-path="url(#clip10)">
<path style=" stroke:none;fill-rule:nonzero;fill:rgb(100%,100%,100%);fill-opacity:1;" d="M 178.371094 360.335938 L 130.039062 360.335938 L 130.039062 334.75 L 178.371094 334.75 Z M 178.371094 360.335938 "/>
</g>
<mask id="mask10">
  <g filter="url(#alpha)">
<rect x="0" y="0" width="1099" height="726" style="fill:rgb(0%,0%,0%);fill-opacity:0.4;stroke:none;"/>
  </g>
</mask>
<clipPath id="clip11">
  <rect x="0" y="0" width="1099" height="726"/>
</clipPath>
<g id="surface35" clip-path="url(#clip11)">
<path style=" stroke:none;fill-rule:nonzero;fill:rgb(100%,100%,100%);fill-opacity:1;" d="M 21.863281 384.855469 L 70.199219 384.855469 L 70.199219 410.441406 L 21.863281 410.441406 Z M 21.863281 384.855469 "/>
</g>
<mask id="mask11">
  <g filter="url(#alpha)">
<rect x="0" y="0" width="1099" height="726" style="fill:rgb(0%,0%,0%);fill-opacity:0.4;stroke:none;"/>
  </g>
</mask>
<clipPath id="clip12">
  <rect x="0" y="0" width="1099" height="726"/>
</clipPath>
<g id="surface38" clip-path="url(#clip12)">
<path style=" stroke:none;fill-rule:nonzero;fill:rgb(100%,100%,100%);fill-opacity:1;" d="M 178.371094 410.441406 L 130.039062 410.441406 L 130.039062 384.855469 L 178.371094 384.855469 Z M 178.371094 410.441406 "/>
</g>
<mask id="mask12">
  <g filter="url(#alpha)">
<rect x="0" y="0" width="1099" height="726" style="fill:rgb(0%,0%,0%);fill-opacity:0.4;stroke:none;"/>
  </g>
</mask>
<clipPath id="clip13">
  <rect x="0" y="0" width="1099" height="726"/>
</clipPath>
<g id="surface41" clip-path="url(#clip13)">
<path style=" stroke:none;fill-rule:nonzero;fill:rgb(100%,100%,100%);fill-opacity:1;" d="M 21.863281 434.960938 L 70.199219 434.960938 L 70.199219 460.546875 L 21.863281 460.546875 Z M 21.863281 434.960938 "/>
</g>
<mask id="mask13">
  <g filter="url(#alpha)">
<rect x="0" y="0" width="1099" height="726" style="fill:rgb(0%,0%,0%);fill-opacity:0.4;stroke:none;"/>
  </g>
</mask>
<clipPath id="clip14">
  <rect x="0" y="0" width="1099" height="726"/>
</clipPath>
<g id="surface44" clip-path="url(#clip14)">
<path style=" stroke:none;fill-rule:nonzero;fill:rgb(100%,100%,100%);fill-opacity:1;" d="M 178.371094 460.546875 L 130.039062 460.546875 L 130.039062 434.960938 L 178.371094 434.960938 Z M 178.371094 460.546875 "/>
</g>
<mask id="mask14">
  <g filter="url(#alpha)">
<rect x="0" y="0" width="1099" height="726" style="fill:rgb(0%,0%,0%);fill-opacity:0.4;stroke:none;"/>
  </g>
</mask>
<clipPath id="clip15">
  <rect x="0" y="0" width="1099" height="726"/>
</clipPath>
<g id="surface47" clip-path="url(#clip15)">
<path style=" stroke:none;fill-rule:nonzero;fill:rgb(100%,100%,100%);fill-opacity:1;" d="M 21.863281 485.066406 L 70.199219 485.066406 L 70.199219 510.652344 L 21.863281 510.652344 Z M 21.863281 485.066406 "/>
</g>
<mask id="mask15">
  <g filter="url(#alpha)">
<rect x="0" y="0" width="1099" height="726" style="fill:rgb(0%,0%,0%);fill-opacity:0.4;stroke:none;"/>
  </g>
</mask>
<clipPath id="clip16">
  <rect x="0" y="0" width="1099" height="726"/>
</clipPath>
<g id="surface50" clip-path="url(#clip16)">
<path style=" stroke:none;fill-rule:nonzero;fill:rgb(100%,100%,100%);fill-opacity:1;" d="M 178.371094 510.652344 L 130.039062 510.652344 L 130.039062 485.066406 L 178.371094 485.066406 Z M 178.371094 510.652344 "/>
</g>
<mask id="mask16">
  <g filter="url(#alpha)">
<rect x="0" y="0" width="1099" height="726" style="fill:rgb(0%,0%,0%);fill-opacity:0.4;stroke:none;"/>
  </g>
</mask>
<clipPath id="clip17">
  <rect x="0" y="0" width="1099" height="726"/>
</clipPath>
<g id="surface53" clip-path="url(#clip17)">
<path style=" stroke:none;fill-rule:nonzero;fill:rgb(100%,100%,100%);fill-opacity:1;" d="M 218.648438 422.167969 L 331.425781 422.167969 L 331.425781 434.960938 L 218.648438 434.960938 Z M 218.648438 422.167969 "/>
</g>
<mask id="mask17">
  <g filter="url(#alpha)">
<rect x="0" y="0" width="1099" height="726" style="fill:rgb(0%,0%,0%);fill-opacity:0.4;stroke:none;"/>
  </g>
</mask>
<clipPath id="clip18">
  <rect x="0" y="0" width="1099" height="726"/>
</clipPath>
<g id="surface56" clip-path="url(#clip18)">
<path style=" stroke:none;fill-rule:nonzero;fill:rgb(100%,100%,100%);fill-opacity:1;" d="M 218.648438 441.355469 L 331.425781 441.355469 L 331.425781 454.148438 L 218.648438 454.148438 Z M 218.648438 441.355469 "/>
</g>
<mask id="mask18">
  <g filter="url(#alpha)">
<rect x="0" y="0" width="1099" height="726" style="fill:rgb(0%,0%,0%);fill-opacity:0.4;stroke:none;"/>
  </g>
</mask>
<clipPath id="clip19">
  <rect x="0" y="0" width="1099" height="726"/>
</clipPath>
<g id="surface59" clip-path="url(#clip19)">
<path style=" stroke:none;fill-rule:nonzero;fill:rgb(100%,100%,100%);fill-opacity:1;" d="M 218.648438 460.546875 L 331.425781 460.546875 L 331.425781 473.339844 L 218.648438 473.339844 Z M 218.648438 460.546875 "/>
</g>
<mask id="mask19">
  <g filter="url(#alpha)">
<rect x="0" y="0" width="1099" height="726" style="fill:rgb(0%,0%,0%);fill-opacity:0.4;stroke:none;"/>
  </g>
</mask>
<clipPath id="clip20">
  <rect x="0" y="0" width="1099" height="726"/>
</clipPath>
<g id="surface62" clip-path="url(#clip20)">
<path style=" stroke:none;fill-rule:nonzero;fill:rgb(100%,100%,100%);fill-opacity:1;" d="M 513.25 428.5625 L 626.027344 428.5625 L 626.027344 441.355469 L 513.25 441.355469 Z M 513.25 428.5625 "/>
</g>
<mask id="mask20">
  <g filter="url(#alpha)">
<rect x="0" y="0" width="1099" height="726" style="fill:rgb(0%,0%,0%);fill-opacity:0.4;stroke:none;"/>
  </g>
</mask>
<clipPath id="clip21">
  <rect x="0" y="0" width="1099" height="726"/>
</clipPath>
<g id="surface65" clip-path="url(#clip21)">
<path style=" stroke:none;fill-rule:nonzero;fill:rgb(100%,100%,100%);fill-opacity:1;" d="M 513.25 447.753906 L 626.027344 447.753906 L 626.027344 460.546875 L 513.25 460.546875 Z M 513.25 447.753906 "/>
</g>
<mask id="mask21">
  <g filter="url(#alpha)">
<rect x="0" y="0" width="1099" height="726" style="fill:rgb(0%,0%,0%);fill-opacity:0.4;stroke:none;"/>
  </g>
</mask>
<clipPath id="clip22">
  <rect x="0" y="0" width="1099" height="726"/>
</clipPath>
<g id="surface68" clip-path="url(#clip22)">
<path style=" stroke:none;fill-rule:nonzero;fill:rgb(100%,100%,100%);fill-opacity:1;" d="M 513.25 466.941406 L 626.027344 466.941406 L 626.027344 479.734375 L 513.25 479.734375 Z M 513.25 466.941406 "/>
</g>
<mask id="mask22">
  <g filter="url(#alpha)">
<rect x="0" y="0" width="1099" height="726" style="fill:rgb(0%,0%,0%);fill-opacity:0.4;stroke:none;"/>
  </g>
</mask>
<clipPath id="clip23">
  <rect x="0" y="0" width="1099" height="726"/>
</clipPath>
<g id="surface71" clip-path="url(#clip23)">
<path style=" stroke:none;fill-rule:nonzero;fill:rgb(100%,100%,100%);fill-opacity:1;" d="M 218.648438 479.734375 L 331.425781 479.734375 L 331.425781 492.527344 L 218.648438 492.527344 Z M 218.648438 479.734375 "/>
</g>
<mask id="mask23">
  <g filter="url(#alpha)">
<rect x="0" y="0" width="1099" height="726" style="fill:rgb(0%,0%,0%);fill-opacity:0.4;stroke:none;"/>
  </g>
</mask>
<clipPath id="clip24">
  <rect x="0" y="0" width="1099" height="726"/>
</clipPath>
<g id="surface74" clip-path="url(#clip24)">
<path style=" stroke:none;fill-rule:nonzero;fill:rgb(100%,100%,100%);fill-opacity:1;" d="M 218.648438 498.925781 L 331.425781 498.925781 L 331.425781 511.71875 L 218.648438 511.71875 Z M 218.648438 498.925781 "/>
</g>
<mask id="mask24">
  <g filter="url(#alpha)">
<rect x="0" y="0" width="1099" height="726" style="fill:rgb(0%,0%,0%);fill-opacity:0.4;stroke:none;"/>
  </g>
</mask>
<clipPath id="clip25">
  <rect x="0" y="0" width="1099" height="726"/>
</clipPath>
<g id="surface77" clip-path="url(#clip25)">
<path style=" stroke:none;fill-rule:nonzero;fill:rgb(100%,100%,100%);fill-opacity:1;" d="M 218.648438 518.113281 L 331.425781 518.113281 L 331.425781 530.90625 L 218.648438 530.90625 Z M 218.648438 518.113281 "/>
</g>
<mask id="mask25">
  <g filter="url(#alpha)">
<rect x="0" y="0" width="1099" height="726" style="fill:rgb(0%,0%,0%);fill-opacity:0.4;stroke:none;"/>
  </g>
</mask>
<clipPath id="clip26">
  <rect x="0" y="0" width="1099" height="726"/>
</clipPath>
<g id="surface80" clip-path="url(#clip26)">
<path style=" stroke:none;fill-rule:nonzero;fill:rgb(100%,100%,100%);fill-opacity:1;" d="M 372.855469 289.972656 L 403.925781 289.972656 L 403.925781 327.285156 L 372.855469 327.285156 Z M 372.855469 289.972656 "/>
</g>
<mask id="mask26">
  <g filter="url(#alpha)">
<rect x="0" y="0" width="1099" height="726" style="fill:rgb(0%,0%,0%);fill-opacity:0.4;stroke:none;"/>
  </g>
</mask>
<clipPath id="clip27">
  <rect x="0" y="0" width="1099" height="726"/>
</clipPath>
<g id="surface83" clip-path="url(#clip27)">
<path style=" stroke:none;fill-rule:nonzero;fill:rgb(100%,100%,100%);fill-opacity:1;" d="M 471.820312 327.285156 L 440.75 327.285156 L 440.75 289.972656 L 471.820312 289.972656 Z M 471.820312 327.285156 "/>
</g>
<mask id="mask27">
  <g filter="url(#alpha)">
<rect x="0" y="0" width="1099" height="726" style="fill:rgb(0%,0%,0%);fill-opacity:0.4;stroke:none;"/>
  </g>
</mask>
<clipPath id="clip28">
  <rect x="0" y="0" width="1099" height="726"/>
</clipPath>
<g id="surface86" clip-path="url(#clip28)">
<path style=" stroke:none;fill-rule:nonzero;fill:rgb(100%,100%,100%);fill-opacity:1;" d="M 372.855469 349.675781 L 403.925781 349.675781 L 403.925781 386.988281 L 372.855469 386.988281 Z M 372.855469 349.675781 "/>
</g>
<mask id="mask28">
  <g filter="url(#alpha)">
<rect x="0" y="0" width="1099" height="726" style="fill:rgb(0%,0%,0%);fill-opacity:0.4;stroke:none;"/>
  </g>
</mask>
<clipPath id="clip29">
  <rect x="0" y="0" width="1099" height="726"/>
</clipPath>
<g id="surface89" clip-path="url(#clip29)">
<path style=" stroke:none;fill-rule:nonzero;fill:rgb(100%,100%,100%);fill-opacity:1;" d="M 471.820312 386.988281 L 440.75 386.988281 L 440.75 349.675781 L 471.820312 349.675781 Z M 471.820312 386.988281 "/>
</g>
<mask id="mask29">
  <g filter="url(#alpha)">
<rect x="0" y="0" width="1099" height="726" style="fill:rgb(0%,0%,0%);fill-opacity:0.4;stroke:none;"/>
  </g>
</mask>
<clipPath id="clip30">
  <rect x="0" y="0" width="1099" height="726"/>
</clipPath>
<g id="surface92" clip-path="url(#clip30)">
<path style=" stroke:none;fill-rule:nonzero;fill:rgb(100%,100%,100%);fill-opacity:1;" d="M 372.855469 409.375 L 403.925781 409.375 L 403.925781 446.6875 L 372.855469 446.6875 Z M 372.855469 409.375 "/>
</g>
<mask id="mask30">
  <g filter="url(#alpha)">
<rect x="0" y="0" width="1099" height="726" style="fill:rgb(0%,0%,0%);fill-opacity:0.4;stroke:none;"/>
  </g>
</mask>
<clipPath id="clip31">
  <rect x="0" y="0" width="1099" height="726"/>
</clipPath>
<g id="surface95" clip-path="url(#clip31)">
<path style=" stroke:none;fill-rule:nonzero;fill:rgb(100%,100%,100%);fill-opacity:1;" d="M 471.820312 446.6875 L 440.75 446.6875 L 440.75 409.375 L 471.820312 409.375 Z M 471.820312 446.6875 "/>
</g>
<mask id="mask31">
  <g filter="url(#alpha)">
<rect x="0" y="0" width="1099" height="726" style="fill:rgb(0%,0%,0%);fill-opacity:0.4;stroke:none;"/>
  </g>
</mask>
<clipPath id="clip32">
  <rect x="0" y="0" width="1099" height="726"/>
</clipPath>
<g id="surface98" clip-path="url(#clip32)">
<path style=" stroke:none;fill-rule:nonzero;fill:rgb(100%,100%,100%);fill-opacity:1;" d="M 372.855469 469.074219 L 403.925781 469.074219 L 403.925781 506.386719 L 372.855469 506.386719 Z M 372.855469 469.074219 "/>
</g>
<mask id="mask32">
  <g filter="url(#alpha)">
<rect x="0" y="0" width="1099" height="726" style="fill:rgb(0%,0%,0%);fill-opacity:0.4;stroke:none;"/>
  </g>
</mask>
<clipPath id="clip33">
  <rect x="0" y="0" width="1099" height="726"/>
</clipPath>
<g id="surface101" clip-path="url(#clip33)">
<path style=" stroke:none;fill-rule:nonzero;fill:rgb(100%,100%,100%);fill-opacity:1;" d="M 471.820312 506.386719 L 440.75 506.386719 L 440.75 469.074219 L 471.820312 469.074219 Z M 471.820312 506.386719 "/>
</g>
<mask id="mask33">
  <g filter="url(#alpha)">
<rect x="0" y="0" width="1099" height="726" style="fill:rgb(0%,0%,0%);fill-opacity:0.4;stroke:none;"/>
  </g>
</mask>
<clipPath id="clip34">
  <rect x="0" y="0" width="1099" height="726"/>
</clipPath>
<g id="surface104" clip-path="url(#clip34)">
<path style=" stroke:none;fill-rule:nonzero;fill:rgb(100%,100%,100%);fill-opacity:1;" d="M 643.289062 89.550781 L 684.71875 89.550781 L 684.71875 138.589844 L 643.289062 138.589844 Z M 643.289062 89.550781 "/>
</g>
<mask id="mask34">
  <g filter="url(#alpha)">
<rect x="0" y="0" width="1099" height="726" style="fill:rgb(0%,0%,0%);fill-opacity:0.4;stroke:none;"/>
  </g>
</mask>
<clipPath id="clip35">
  <rect x="0" y="0" width="1099" height="726"/>
</clipPath>
<g id="surface107" clip-path="url(#clip35)">
<path style=" stroke:none;fill-rule:nonzero;fill:rgb(100%,100%,100%);fill-opacity:1;" d="M 643.289062 159.910156 L 684.71875 159.910156 L 684.71875 208.953125 L 643.289062 208.953125 Z M 643.289062 159.910156 "/>
</g>
<mask id="mask35">
  <g filter="url(#alpha)">
<rect x="0" y="0" width="1099" height="726" style="fill:rgb(0%,0%,0%);fill-opacity:0.4;stroke:none;"/>
  </g>
</mask>
<clipPath id="clip36">
  <rect x="0" y="0" width="1099" height="726"/>
</clipPath>
<g id="surface110" clip-path="url(#clip36)">
<path style=" stroke:none;fill-rule:nonzero;fill:rgb(100%,100%,100%);fill-opacity:1;" d="M 643.289062 230.273438 L 684.71875 230.273438 L 684.71875 279.3125 L 643.289062 279.3125 Z M 643.289062 230.273438 "/>
</g>
<mask id="mask36">
  <g filter="url(#alpha)">
<rect x="0" y="0" width="1099" height="726" style="fill:rgb(0%,0%,0%);fill-opacity:0.4;stroke:none;"/>
  </g>
</mask>
<clipPath id="clip37">
  <rect x="0" y="0" width="1099" height="726"/>
</clipPath>
<g id="surface113" clip-path="url(#clip37)">
<path style=" stroke:none;fill-rule:nonzero;fill:rgb(100%,100%,100%);fill-opacity:1;" d="M 643.289062 300.632812 L 684.71875 300.632812 L 684.71875 349.675781 L 643.289062 349.675781 Z M 643.289062 300.632812 "/>
</g>
<mask id="mask37">
  <g filter="url(#alpha)">
<rect x="0" y="0" width="1099" height="726" style="fill:rgb(0%,0%,0%);fill-opacity:0.4;stroke:none;"/>
  </g>
</mask>
<clipPath id="clip38">
  <rect x="0" y="0" width="1099" height="726"/>
</clipPath>
<g id="surface116" clip-path="url(#clip38)">
<path style=" stroke:none;fill-rule:nonzero;fill:rgb(100%,100%,100%);fill-opacity:1;" d="M 643.289062 370.996094 L 684.71875 370.996094 L 684.71875 420.035156 L 643.289062 420.035156 Z M 643.289062 370.996094 "/>
</g>
<mask id="mask38">
  <g filter="url(#alpha)">
<rect x="0" y="0" width="1099" height="726" style="fill:rgb(0%,0%,0%);fill-opacity:0.4;stroke:none;"/>
  </g>
</mask>
<clipPath id="clip39">
  <rect x="0" y="0" width="1099" height="726"/>
</clipPath>
<g id="surface119" clip-path="url(#clip39)">
<path style=" stroke:none;fill-rule:nonzero;fill:rgb(100%,100%,100%);fill-opacity:1;" d="M 643.289062 441.355469 L 684.71875 441.355469 L 684.71875 490.394531 L 643.289062 490.394531 Z M 643.289062 441.355469 "/>
</g>
<mask id="mask39">
  <g filter="url(#alpha)">
<rect x="0" y="0" width="1099" height="726" style="fill:rgb(0%,0%,0%);fill-opacity:0.4;stroke:none;"/>
  </g>
</mask>
<clipPath id="clip40">
  <rect x="0" y="0" width="1099" height="726"/>
</clipPath>
<g id="surface122" clip-path="url(#clip40)">
<path style=" stroke:none;fill-rule:nonzero;fill:rgb(100%,100%,100%);fill-opacity:1;" d="M 773.902344 189.761719 L 928.109375 189.761719 L 928.109375 231.339844 L 773.902344 231.339844 Z M 773.902344 189.761719 "/>
</g>
<mask id="mask40">
  <g filter="url(#alpha)">
<rect x="0" y="0" width="1099" height="726" style="fill:rgb(0%,0%,0%);fill-opacity:0.4;stroke:none;"/>
  </g>
</mask>
<clipPath id="clip41">
  <rect x="0" y="0" width="1099" height="726"/>
</clipPath>
<g id="surface125" clip-path="url(#clip41)">
<path style=" stroke:none;fill-rule:nonzero;fill:rgb(100%,100%,100%);fill-opacity:1;" d="M 774.480469 279.3125 L 928.683594 279.3125 L 928.683594 320.890625 L 774.480469 320.890625 Z M 774.480469 279.3125 "/>
</g>
<mask id="mask41">
  <g filter="url(#alpha)">
<rect x="0" y="0" width="1099" height="726" style="fill:rgb(0%,0%,0%);fill-opacity:0.4;stroke:none;"/>
  </g>
</mask>
<clipPath id="clip42">
  <rect x="0" y="0" width="1099" height="726"/>
</clipPath>
<g id="surface128" clip-path="url(#clip42)">
<path style=" stroke:none;fill-rule:nonzero;fill:rgb(100%,100%,100%);fill-opacity:1;" d="M 775.054688 368.863281 L 929.257812 368.863281 L 929.257812 410.441406 L 775.054688 410.441406 Z M 775.054688 368.863281 "/>
</g>
<mask id="mask42">
  <g filter="url(#alpha)">
<rect x="0" y="0" width="1099" height="726" style="fill:rgb(0%,0%,0%);fill-opacity:0.4;stroke:none;"/>
  </g>
</mask>
<clipPath id="clip43">
  <rect x="0" y="0" width="1099" height="726"/>
</clipPath>
<g id="surface131" clip-path="url(#clip43)">
<path style=" stroke:none;fill-rule:nonzero;fill:rgb(100%,100%,100%);fill-opacity:1;" d="M 775.628906 458.414062 L 929.835938 458.414062 L 929.835938 499.992188 L 775.628906 499.992188 Z M 775.628906 458.414062 "/>
</g>
<mask id="mask43">
  <g filter="url(#alpha)">
<rect x="0" y="0" width="1099" height="726" style="fill:rgb(0%,0%,0%);fill-opacity:0.4;stroke:none;"/>
  </g>
</mask>
<clipPath id="clip44">
  <rect x="0" y="0" width="1099" height="726"/>
</clipPath>
<g id="surface134" clip-path="url(#clip44)">
<path style=" stroke:none;fill-rule:nonzero;fill:rgb(100%,100%,100%);fill-opacity:1;" d="M 34.523438 103.410156 L 55.238281 103.410156 L 55.238281 143.921875 L 34.523438 143.921875 Z M 34.523438 103.410156 "/>
</g>
<mask id="mask44">
  <g filter="url(#alpha)">
<rect x="0" y="0" width="1099" height="726" style="fill:rgb(0%,0%,0%);fill-opacity:0.4;stroke:none;"/>
  </g>
</mask>
<clipPath id="clip45">
  <rect x="0" y="0" width="1099" height="726"/>
</clipPath>
<g id="surface137" clip-path="url(#clip45)">
<path style=" stroke:none;fill-rule:nonzero;fill:rgb(100%,100%,100%);fill-opacity:1;" d="M 1047.214844 289.972656 L 1099 289.972656 L 1099 351.804688 L 1047.214844 351.804688 Z M 1047.214844 289.972656 "/>
</g>
<mask id="mask45">
  <g filter="url(#alpha)">
<rect x="0" y="0" width="1099" height="726" style="fill:rgb(0%,0%,0%);fill-opacity:0.4;stroke:none;"/>
  </g>
</mask>
<clipPath id="clip46">
  <rect x="0" y="0" width="1099" height="726"/>
</clipPath>
<g id="surface140" clip-path="url(#clip46)">
<path style=" stroke:none;fill-rule:nonzero;fill:rgb(100%,100%,100%);fill-opacity:1;" d="M 1047.214844 379.523438 L 1099 379.523438 L 1099 441.355469 L 1047.214844 441.355469 Z M 1047.214844 379.523438 "/>
</g>
<mask id="mask46">
  <g filter="url(#alpha)">
<rect x="0" y="0" width="1099" height="726" style="fill:rgb(0%,0%,0%);fill-opacity:0.4;stroke:none;"/>
  </g>
</mask>
<clipPath id="clip47">
  <rect x="0" y="0" width="1099" height="726"/>
</clipPath>
<g id="surface143" clip-path="url(#clip47)">
<path style=" stroke:none;fill-rule:nonzero;fill:rgb(100%,100%,100%);fill-opacity:1;" d="M 1047.214844 469.074219 L 1099 469.074219 L 1099 530.90625 L 1047.214844 530.90625 Z M 1047.214844 469.074219 "/>
</g>
<mask id="mask47">
  <g filter="url(#alpha)">
<rect x="0" y="0" width="1099" height="726" style="fill:rgb(0%,0%,0%);fill-opacity:0.25098;stroke:none;"/>
  </g>
</mask>
<clipPath id="clip48">
  <rect x="0" y="0" width="1099" height="726"/>
</clipPath>
<g id="surface146" clip-path="url(#clip48)">
<path style=" stroke:none;fill-rule:nonzero;fill:rgb(0%,0%,0%);fill-opacity:1;" d="M 162.835938 316.15625 C 162.835938 327.09375 141.453125 358.800781 141.453125 358.800781 C 141.453125 358.800781 120.0625 327.0625 120.0625 316.15625 C 119.882812 308.96875 123.917969 302.253906 130.609375 298.609375 C 137.300781 294.96875 145.597656 294.96875 152.289062 298.609375 C 158.980469 302.253906 163.015625 308.96875 162.835938 316.15625 Z M 162.835938 316.15625 "/>
</g>
<mask id="mask48">
  <g filter="url(#alpha)">
<rect x="0" y="0" width="1099" height="726" style="fill:rgb(0%,0%,0%);fill-opacity:0.25098;stroke:none;"/>
  </g>
</mask>
<clipPath id="clip49">
  <rect x="0" y="0" width="1099" height="726"/>
</clipPath>
<g id="surface149" clip-path="url(#clip49)">
<path style=" stroke:none;fill-rule:nonzero;fill:rgb(0%,0%,0%);fill-opacity:1;" d="M 198.234375 376.773438 C 191.8125 385.964844 155.242188 401.828125 155.242188 401.828125 C 155.242188 401.828125 155.898438 364.417969 162.316406 355.238281 C 168.808594 346.21875 181.917969 343.699219 191.746094 349.589844 C 201.570312 355.484375 204.460938 367.59375 198.234375 376.773438 Z M 198.234375 376.773438 "/>
</g>
<mask id="mask49">
  <g filter="url(#alpha)">
<rect x="0" y="0" width="1099" height="726" style="fill:rgb(0%,0%,0%);fill-opacity:0.25098;stroke:none;"/>
  </g>
</mask>
<clipPath id="clip50">
  <rect x="0" y="0" width="1099" height="726"/>
</clipPath>
<g id="surface152" clip-path="url(#clip50)">
<path style=" stroke:none;fill-rule:nonzero;fill:rgb(0%,0%,0%);fill-opacity:1;" d="M 196.679688 480.363281 C 186.140625 485.289062 145.917969 481.878906 145.917969 481.878906 C 145.917969 481.878906 166.875 449.894531 177.429688 444.972656 C 187.949219 440.210938 200.648438 444.175781 205.917969 453.863281 C 211.1875 463.550781 207.070312 475.359375 196.679688 480.363281 Z M 196.679688 480.363281 "/>
</g>
<mask id="mask50">
  <g filter="url(#alpha)">
<rect x="0" y="0" width="1099" height="726" style="fill:rgb(0%,0%,0%);fill-opacity:0.25098;stroke:none;"/>
  </g>
</mask>
<clipPath id="clip51">
  <rect x="0" y="0" width="1099" height="726"/>
</clipPath>
<g id="surface155" clip-path="url(#clip51)">
<path style=" stroke:none;fill-rule:nonzero;fill:rgb(0%,0%,0%);fill-opacity:1;" d="M 176.460938 558.496094 C 166.96875 565 126.714844 567.941406 126.714844 567.941406 C 126.714844 567.941406 141.523438 533.136719 151.027344 526.632812 C 160.53125 520.386719 173.683594 522.335938 180.609375 531.011719 C 187.539062 539.691406 185.691406 551.910156 176.460938 558.496094 Z M 176.460938 558.496094 "/>
</g>
<mask id="mask51">
  <g filter="url(#alpha)">
<rect x="0" y="0" width="1099" height="726" style="fill:rgb(0%,0%,0%);fill-opacity:0.25098;stroke:none;"/>
  </g>
</mask>
<clipPath id="clip52">
  <rect x="0" y="0" width="1099" height="726"/>
</clipPath>
<g id="surface158" clip-path="url(#clip52)">
<path style=" stroke:none;fill-rule:nonzero;fill:rgb(0%,0%,0%);fill-opacity:1;" d="M 110.324219 403.949219 C 118.796875 411.570312 158.277344 419.46875 158.277344 419.46875 C 158.277344 419.46875 148.613281 383.148438 140.132812 375.527344 C 131.660156 367.902344 118.117188 368.082031 109.886719 375.929688 C 101.65625 383.78125 101.855469 396.324219 110.324219 403.949219 Z M 110.324219 403.949219 "/>
</g>
<mask id="mask52">
  <g filter="url(#alpha)">
<rect x="0" y="0" width="1099" height="726" style="fill:rgb(0%,0%,0%);fill-opacity:0.25098;stroke:none;"/>
  </g>
</mask>
<clipPath id="clip53">
  <rect x="0" y="0" width="1099" height="726"/>
</clipPath>
<g id="surface161" clip-path="url(#clip53)">
<path style=" stroke:none;fill-rule:nonzero;fill:rgb(0%,0%,0%);fill-opacity:1;" d="M 87.929688 495.597656 C 98.472656 500.535156 138.691406 497.125 138.691406 497.125 C 138.691406 497.125 117.738281 465.140625 107.195312 460.214844 C 100.351562 456.859375 92.082031 457.1875 85.578125 461.082031 C 79.070312 464.972656 75.34375 471.820312 75.832031 478.980469 C 76.320312 486.140625 80.949219 492.496094 87.929688 495.597656 Z M 87.929688 495.597656 "/>
</g>
<mask id="mask53">
  <g filter="url(#alpha)">
<rect x="0" y="0" width="1099" height="726" style="fill:rgb(0%,0%,0%);fill-opacity:0.25098;stroke:none;"/>
  </g>
</mask>
<clipPath id="clip54">
  <rect x="0" y="0" width="1099" height="726"/>
</clipPath>
<g id="surface164" clip-path="url(#clip54)">
<path style=" stroke:none;fill-rule:nonzero;fill:rgb(0%,0%,0%);fill-opacity:1;" d="M 79.359375 587.453125 C 88.851562 593.957031 129.117188 596.898438 129.117188 596.898438 C 129.117188 596.898438 114.296875 562.089844 104.789062 555.585938 C 95.289062 549.339844 82.136719 551.289062 75.210938 559.96875 C 68.28125 568.648438 70.125 580.867188 79.359375 587.453125 Z M 79.359375 587.453125 "/>
</g>
<mask id="mask54">
  <g filter="url(#alpha)">
<rect x="0" y="0" width="1099" height="726" style="fill:rgb(0%,0%,0%);fill-opacity:0.101961;stroke:none;"/>
  </g>
</mask>
<clipPath id="clip55">
  <rect x="0" y="0" width="1099" height="726"/>
</clipPath>
<g id="surface167" clip-path="url(#clip55)">
<path style=" stroke:none;fill-rule:nonzero;fill:rgb(14.509804%,13.333333%,13.72549%);fill-opacity:1;" d="M 304.589844 50.832031 L 296.671875 50.832031 C 298.710938 50.917969 300.636719 49.957031 301.6875 48.335938 C 302.734375 46.710938 302.734375 44.683594 301.6875 43.0625 C 300.636719 41.4375 298.710938 40.476562 296.671875 40.5625 L 232.539062 40.5625 C 230.5 40.476562 228.574219 41.4375 227.527344 43.0625 C 226.476562 44.683594 226.476562 46.710938 227.527344 48.335938 C 228.574219 49.957031 230.5 50.917969 232.539062 50.832031 L 240.457031 50.832031 C 237.394531 50.832031 234.910156 53.132812 234.910156 55.96875 C 234.910156 58.808594 237.394531 61.109375 240.457031 61.109375 L 229.375 61.109375 C 227.335938 61.023438 225.410156 61.980469 224.359375 63.605469 C 223.3125 65.226562 223.3125 67.253906 224.359375 68.878906 C 225.410156 70.5 227.335938 71.460938 229.375 71.375 L 293.507812 71.375 C 295.546875 71.460938 297.472656 70.5 298.519531 68.878906 C 299.570312 67.253906 299.570312 65.226562 298.519531 63.605469 C 297.472656 61.980469 295.546875 61.023438 293.507812 61.109375 L 304.589844 61.109375 C 307.652344 61.109375 310.136719 58.808594 310.136719 55.96875 C 310.136719 53.132812 307.652344 50.832031 304.589844 50.832031 Z M 304.589844 50.832031 "/>
</g>
<mask id="mask55">
  <g filter="url(#alpha)">
<rect x="0" y="0" width="1099" height="726" style="fill:rgb(0%,0%,0%);fill-opacity:0.101961;stroke:none;"/>
  </g>
</mask>
<clipPath id="clip56">
  <rect x="0" y="0" width="1099" height="726"/>
</clipPath>
<g id="surface170" clip-path="url(#clip56)">
<path style=" stroke:none;fill-rule:nonzero;fill:rgb(14.509804%,13.333333%,13.72549%);fill-opacity:1;" d="M 587.683594 179.828125 L 579.765625 179.828125 C 581.804688 179.914062 583.730469 178.953125 584.777344 177.328125 C 585.828125 175.707031 585.828125 173.679688 584.777344 172.054688 C 583.730469 170.433594 581.804688 169.472656 579.765625 169.558594 L 515.632812 169.558594 C 513.59375 169.472656 511.667969 170.433594 510.617188 172.054688 C 509.570312 173.679688 509.570312 175.707031 510.617188 177.328125 C 511.667969 178.953125 513.59375 179.914062 515.632812 179.828125 L 523.550781 179.828125 C 520.488281 179.828125 518.003906 182.125 518.003906 184.964844 C 518.003906 187.800781 520.488281 190.101562 523.550781 190.101562 L 512.46875 190.101562 C 510.429688 190.015625 508.5 190.976562 507.453125 192.601562 C 506.40625 194.222656 506.40625 196.25 507.453125 197.871094 C 508.5 199.496094 510.429688 200.457031 512.46875 200.371094 L 576.601562 200.371094 C 578.640625 200.457031 580.566406 199.496094 581.613281 197.871094 C 582.664062 196.25 582.664062 194.222656 581.613281 192.601562 C 580.566406 190.976562 578.640625 190.015625 576.601562 190.101562 L 587.683594 190.101562 C 590.746094 190.101562 593.230469 187.800781 593.230469 184.964844 C 593.230469 182.125 590.746094 179.828125 587.683594 179.828125 Z M 587.683594 179.828125 "/>
</g>
<mask id="mask56">
  <g filter="url(#alpha)">
<rect x="0" y="0" width="1099" height="726" style="fill:rgb(0%,0%,0%);fill-opacity:0.101961;stroke:none;"/>
  </g>
</mask>
<clipPath id="clip57">
  <rect x="0" y="0" width="1099" height="726"/>
</clipPath>
<g id="surface173" clip-path="url(#clip57)">
<path style=" stroke:none;fill-rule:nonzero;fill:rgb(14.509804%,13.333333%,13.72549%);fill-opacity:1;" d="M 1069.863281 11.386719 L 1061.945312 11.386719 C 1063.984375 11.472656 1065.910156 10.511719 1066.957031 8.890625 C 1068.007812 7.265625 1068.007812 5.238281 1066.957031 3.617188 C 1065.910156 1.992188 1063.984375 1.035156 1061.945312 1.121094 L 997.8125 1.121094 C 995.773438 1.035156 993.84375 1.992188 992.796875 3.617188 C 991.75 5.238281 991.75 7.265625 992.796875 8.890625 C 993.84375 10.511719 995.773438 11.472656 997.8125 11.386719 L 1005.730469 11.386719 C 1002.664062 11.386719 1000.183594 13.6875 1000.183594 16.523438 C 1000.183594 19.363281 1002.664062 21.664062 1005.730469 21.664062 L 994.648438 21.664062 C 992.605469 21.578125 990.679688 22.535156 989.632812 24.160156 C 988.585938 25.78125 988.585938 27.808594 989.632812 29.433594 C 990.679688 31.054688 992.605469 32.015625 994.648438 31.929688 L 1058.78125 31.929688 C 1060.820312 32.015625 1062.746094 31.054688 1063.792969 29.433594 C 1064.839844 27.808594 1064.839844 25.78125 1063.792969 24.160156 C 1062.746094 22.535156 1060.820312 21.578125 1058.78125 21.664062 L 1069.863281 21.664062 C 1072.925781 21.664062 1075.410156 19.363281 1075.410156 16.523438 C 1075.410156 13.6875 1072.925781 11.386719 1069.863281 11.386719 Z M 1069.863281 11.386719 "/>
</g>
<mask id="mask57">
  <g filter="url(#alpha)">
<rect x="0" y="0" width="1099" height="726" style="fill:rgb(0%,0%,0%);fill-opacity:0.501961;stroke:none;"/>
  </g>
</mask>
<linearGradient id="linear0" gradientUnits="userSpaceOnUse" x1="380.51" y1="452.69" x2="687.26" y2="452.69" gradientTransform="matrix(1.136046,0.170079,-0.183592,1.052425,-57.401173,-169.314714)">
<stop offset="0" style="stop-color:rgb(50.196078%,50.196078%,50.196078%);stop-opacity:0.25098;"/>
<stop offset="0.54" style="stop-color:rgb(50.196078%,50.196078%,50.196078%);stop-opacity:0.121569;"/>
<stop offset="1" style="stop-color:rgb(50.196078%,50.196078%,50.196078%);stop-opacity:0.101961;"/>
</linearGradient>
<clipPath id="clip58">
  <rect x="0" y="0" width="1099" height="726"/>
</clipPath>
<g id="surface176" clip-path="url(#clip58)">
<path style=" stroke:none;fill-rule:nonzero;fill:url(#linear0);" d="M 600.746094 472.285156 L 584.023438 399.363281 L 585.738281 399.363281 L 585.472656 398.128906 L 585.957031 398.128906 L 577.304688 358.683594 C 577.304688 358.683594 577.742188 317.476562 579.847656 301.539062 C 581.386719 289.910156 583.828125 275.089844 582.042969 262.617188 C 582.289062 262.273438 582.515625 261.917969 582.722656 261.550781 C 583.460938 260.226562 583.90625 258.777344 584.035156 257.289062 C 584.679688 253.800781 584.175781 250.214844 582.585938 247 L 599.972656 236.9375 C 600.363281 236.9375 600.765625 237.011719 601.125 237.03125 C 601.125 236.882812 600.964844 236.648438 600.835938 236.339844 C 617.71875 237.160156 633.222656 227.726562 639.113281 213.046875 C 640.644531 215.175781 642.535156 217.0625 644.714844 218.632812 C 649.398438 221.882812 656.777344 222.609375 660.675781 218.566406 C 662.097656 216.953125 663.058594 215.039062 663.472656 212.992188 C 663.703125 212.074219 663.863281 211.136719 664.003906 210.210938 C 666.210938 199.3125 661.367188 188.078125 655.117188 178.527344 C 647.304688 166.597656 636.9375 155.796875 623.761719 149.015625 C 610.582031 142.234375 594.414062 139.804688 580.15625 144.324219 C 565.898438 148.847656 551.535156 161.117188 550.238281 175.027344 C 549.59375 182.140625 550.511719 185.433594 548.925781 192.417969 C 548.128906 195.890625 549.84375 202.660156 549.820312 206.5 C 549.683594 207.203125 549.589844 207.917969 549.546875 208.632812 C 549.316406 212.894531 551.144531 216.925781 552.480469 221.019531 C 533.675781 221.894531 484.226562 225.421875 469.945312 238.875 C 452.179688 255.601562 408.609375 261.582031 408.609375 261.582031 L 336.050781 275.113281 L 310.734375 285.070312 L 311.023438 286.136719 L 310.515625 286.339844 C 310.515625 286.339844 311.414062 289.441406 312.703125 293.535156 C 307.054688 298.269531 303.355469 304.675781 302.242188 311.65625 C 300.839844 318.894531 301.585938 328.214844 306.535156 340.101562 C 306.535156 340.101562 331.519531 382.605469 333.246094 399.746094 L 364.777344 458.050781 C 362.070312 463.050781 335.050781 513.582031 330.402344 541.867188 C 330.035156 543.902344 329.785156 545.957031 329.652344 548.019531 C 329.652344 548.019531 329.480469 549.511719 329.054688 551.996094 C 327.203125 562.472656 321.34375 588.242188 307.042969 600.289062 L 307.226562 600.4375 L 306.8125 600.808594 L 307.132812 601.066406 C 302.839844 608.667969 309.042969 618.964844 309.042969 618.964844 L 316.097656 648.15625 L 323.992188 649.339844 L 332.300781 646.203125 L 336.902344 654.402344 C 336.902344 654.402344 372.75 659.734375 382.933594 659.421875 C 393.121094 659.113281 374.304688 643.121094 367.710938 638.378906 C 364.050781 635.757812 361.183594 624.976562 359.367188 615.90625 C 360.328125 615.183594 361.1875 614.359375 361.933594 613.441406 C 361.933594 613.441406 357.550781 592.121094 370.75 562.867188 C 376.375 550.417969 382.429688 536.097656 387.550781 523.765625 C 390.300781 540.332031 393.1875 557.398438 395.316406 569.050781 C 398.414062 585.929688 398.011719 596.226562 397.054688 602.035156 C 396.878906 604.0625 396.363281 606.050781 395.523438 607.933594 C 395.566406 607.984375 395.605469 608.042969 395.640625 608.101562 C 395.578125 608.253906 395.507812 608.398438 395.421875 608.539062 C 395.492188 608.644531 395.558594 608.742188 395.617188 608.847656 C 388.414062 616.480469 395.917969 628.933594 395.917969 628.933594 L 402.96875 658.039062 L 410.863281 659.222656 L 419.171875 656.085938 L 423.777344 664.285156 C 423.777344 664.285156 459.625 669.613281 469.808594 669.304688 C 479.992188 668.996094 461.175781 653.003906 454.570312 648.261719 C 449.425781 644.5625 445.859375 624.699219 444.535156 616.183594 C 445.492188 616.097656 446.019531 616.035156 446.019531 616.035156 L 445.917969 615.449219 L 446.136719 615.449219 L 441.625 591.011719 C 433.914062 584.863281 434.984375 497.476562 434.984375 497.476562 C 434.984375 497.476562 430.96875 506.613281 430.84375 505.875 C 431.234375 504.40625 432.683594 500.246094 436.042969 491.386719 C 438.019531 486.308594 439.476562 481.070312 440.40625 475.738281 C 444.054688 454.9375 437.253906 442.21875 437.253906 442.21875 C 437.703125 438.042969 432.949219 421.804688 427.332031 404.511719 L 444.972656 372.660156 C 447.425781 373.515625 450.089844 373.71875 452.660156 373.246094 L 466.023438 350.855469 C 466.023438 350.855469 493.640625 335.613281 501.546875 336.796875 C 508.898438 337.863281 531.9375 333.191406 540.847656 324.300781 C 541.488281 323.652344 542.070312 322.957031 542.59375 322.222656 C 549.765625 312.042969 546.820312 375.378906 546.820312 375.378906 L 542.988281 397.316406 L 542.78125 398.53125 L 554.207031 398.746094 L 581.136719 484.308594 C 581.136719 484.308594 582.828125 513.328125 613.425781 519.777344 C 644.027344 526.226562 600.746094 472.285156 600.746094 472.285156 Z M 416.8125 373.394531 C 415.15625 368.660156 413.707031 364.578125 412.613281 361.519531 L 418.308594 357.402344 C 418.308594 357.402344 419.023438 357.957031 420.230469 358.84375 Z M 416.8125 373.394531 "/>
</g>
<mask id="mask58">
  <g filter="url(#alpha)">
<rect x="0" y="0" width="1099" height="726" style="fill:rgb(0%,0%,0%);fill-opacity:0.101961;stroke:none;"/>
  </g>
</mask>
<clipPath id="clip59">
  <rect x="0" y="0" width="1099" height="726"/>
</clipPath>
<g id="surface179" clip-path="url(#clip59)">
<path style=" stroke:none;fill-rule:nonzero;fill:rgb(0%,0%,0%);fill-opacity:1;" d="M 411.796875 357.308594 C 411.796875 357.308594 438.898438 432.027344 437.875 441.625 C 437.875 441.625 447.804688 460.171875 436.851562 489.011719 C 425.894531 517.847656 435.699219 495.546875 435.699219 495.546875 C 435.699219 495.546875 434.664062 580.714844 442.167969 586.714844 L 446.5625 610.53125 C 446.5625 610.53125 404.304688 615.179688 397.195312 603.144531 C 397.195312 603.144531 402.695312 594.222656 397.308594 564.765625 C 391.921875 535.308594 381.542969 470.40625 381.542969 470.40625 L 353.417969 322.359375 Z M 411.796875 357.308594 "/>
</g>
<mask id="mask59">
  <g filter="url(#alpha)">
<rect x="0" y="0" width="1099" height="726" style="fill:rgb(0%,0%,0%);fill-opacity:0.101961;stroke:none;"/>
  </g>
</mask>
<clipPath id="clip60">
  <rect x="0" y="0" width="1099" height="726"/>
</clipPath>
<g id="surface182" clip-path="url(#clip60)">
<path style=" stroke:none;fill-rule:nonzero;fill:rgb(0%,0%,0%);fill-opacity:1;" d="M 360.496094 325.644531 L 388.054688 470.78125 C 388.054688 470.78125 398.414062 535.714844 403.832031 565.171875 C 409.253906 594.628906 403.71875 603.550781 403.71875 603.550781 C 405.789062 607.058594 410.820312 609.136719 416.917969 610.339844 C 408.355469 609.414062 400.632812 607.25 397.941406 602.6875 C 397.941406 602.6875 403.453125 593.761719 398.066406 564.308594 C 392.683594 534.851562 382.289062 469.917969 382.289062 469.917969 L 354.164062 321.859375 Z M 360.496094 325.644531 "/>
</g>
<mask id="mask60">
  <g filter="url(#alpha)">
<rect x="0" y="0" width="1099" height="726" style="fill:rgb(0%,0%,0%);fill-opacity:0.101961;stroke:none;"/>
  </g>
</mask>
<clipPath id="clip61">
  <rect x="0" y="0" width="1099" height="726"/>
</clipPath>
<g id="surface185" clip-path="url(#clip61)">
<path style=" stroke:none;fill-rule:nonzero;fill:rgb(0%,0%,0%);fill-opacity:1;" d="M 411.796875 357.308594 C 411.796875 357.308594 438.898438 432.027344 437.875 441.625 C 437.875 441.625 447.804688 460.171875 436.851562 489.011719 C 425.894531 517.847656 435.699219 495.546875 435.699219 495.546875 C 435.699219 495.546875 434.664062 580.714844 442.167969 586.714844 L 446.5625 610.53125 C 446.5625 610.53125 404.304688 615.179688 397.195312 603.144531 C 397.195312 603.144531 402.695312 594.222656 397.308594 564.765625 C 391.921875 535.308594 381.542969 470.40625 381.542969 470.40625 L 353.417969 322.359375 Z M 411.796875 357.308594 "/>
</g>
<mask id="mask61">
  <g filter="url(#alpha)">
<rect x="0" y="0" width="1099" height="726" style="fill:rgb(0%,0%,0%);fill-opacity:0.101961;stroke:none;"/>
  </g>
</mask>
<clipPath id="clip62">
  <rect x="0" y="0" width="1099" height="726"/>
</clipPath>
<g id="surface188" clip-path="url(#clip62)">
<path style=" stroke:none;fill-rule:nonzero;fill:rgb(0%,0%,0%);fill-opacity:1;" d="M 325.914062 291.421875 C 325.914062 291.421875 295.75 302.148438 311.976562 341.144531 C 311.976562 341.144531 336.339844 382.574219 338.03125 399.289062 L 368.871094 456.324219 C 368.871094 456.324219 335.984375 516.621094 334.523438 543.828125 C 334.523438 543.828125 330.125 580.351562 312.378906 595.363281 C 312.378906 595.363281 350.550781 625.457031 364.765625 608.082031 C 364.765625 608.082031 360.496094 587.335938 373.371094 558.785156 C 386.25 530.234375 401.519531 491.730469 401.519531 491.730469 C 401.519531 491.730469 438.449219 468.605469 413.84375 421.039062 L 386.226562 315.121094 L 385.777344 291.285156 L 364.59375 284.460938 Z M 325.914062 291.421875 "/>
</g>
<mask id="mask62">
  <g filter="url(#alpha)">
<rect x="0" y="0" width="1099" height="726" style="fill:rgb(0%,0%,0%);fill-opacity:0.101961;stroke:none;"/>
  </g>
</mask>
<clipPath id="clip63">
  <rect x="0" y="0" width="1099" height="726"/>
</clipPath>
<g id="surface191" clip-path="url(#clip63)">
<path style=" stroke:none;fill-rule:nonzero;fill:rgb(0%,0%,0%);fill-opacity:1;" d="M 324.53125 291.816406 C 324.53125 291.816406 294.371094 302.542969 310.597656 341.539062 C 310.597656 341.539062 334.949219 382.976562 336.640625 399.695312 L 367.480469 456.730469 C 367.480469 456.730469 334.589844 517.015625 333.152344 544.234375 C 333.152344 544.234375 328.757812 580.746094 311 595.769531 C 311 595.769531 349.171875 625.863281 363.394531 608.484375 C 363.394531 608.484375 359.113281 587.730469 371.992188 559.191406 C 384.867188 530.652344 400.140625 492.089844 400.140625 492.089844 C 400.140625 492.089844 437.078125 468.96875 412.476562 421.398438 L 384.855469 315.484375 L 384.410156 291.648438 L 363.234375 284.824219 Z M 324.53125 291.816406 "/>
</g>
<mask id="mask63">
  <g filter="url(#alpha)">
<rect x="0" y="0" width="1099" height="726" style="fill:rgb(0%,0%,0%);fill-opacity:0.101961;stroke:none;"/>
  </g>
</mask>
<clipPath id="clip64">
  <rect x="0" y="0" width="1099" height="726"/>
</clipPath>
<g id="surface194" clip-path="url(#clip64)">
<path style=" stroke:none;fill-rule:nonzero;fill:rgb(0%,0%,0%);fill-opacity:1;" d="M 324.636719 291.230469 L 363.359375 284.226562 L 368.414062 285.859375 L 332.335938 292.371094 C 332.335938 292.371094 302.171875 303.097656 318.398438 342.09375 C 318.398438 342.09375 336.28125 372.53125 342.460938 391.753906 C 345.15625 400.007812 348.621094 408.03125 352.820312 415.726562 L 375.292969 457.304688 C 375.292969 457.304688 342.359375 517.582031 340.941406 544.789062 C 340.941406 544.789062 336.535156 581.3125 318.789062 596.320312 C 318.789062 596.320312 335.234375 609.285156 350.550781 613.285156 C 333.660156 612.964844 311.09375 595.160156 311.09375 595.160156 C 328.847656 580.148438 333.246094 543.625 333.246094 543.625 C 334.695312 516.417969 367.582031 456.121094 367.582031 456.121094 L 345.121094 414.546875 C 340.921875 406.847656 337.457031 398.824219 334.761719 390.570312 C 328.59375 371.378906 310.699219 340.910156 310.699219 340.910156 C 294.472656 301.96875 324.636719 291.230469 324.636719 291.230469 Z M 324.636719 291.230469 "/>
</g>
<mask id="mask64">
  <g filter="url(#alpha)">
<rect x="0" y="0" width="1099" height="726" style="fill:rgb(0%,0%,0%);fill-opacity:0.101961;stroke:none;"/>
  </g>
</mask>
<clipPath id="clip65">
  <rect x="0" y="0" width="1099" height="726"/>
</clipPath>
<g id="surface197" clip-path="url(#clip65)">
<path style=" stroke:none;fill-rule:nonzero;fill:rgb(0%,0%,0%);fill-opacity:1;" d="M 561.007812 244.941406 L 564.460938 226.871094 C 564.460938 226.871094 487 227.769531 469.679688 244.066406 C 452.363281 260.367188 409.898438 266.210938 409.898438 266.210938 L 339.171875 279.386719 L 314.441406 289.097656 C 314.441406 289.097656 321.414062 313.300781 324.40625 314.972656 C 327.398438 316.648438 360.792969 291.15625 360.792969 291.15625 L 373.453125 294.269531 L 332.230469 334.417969 L 408.308594 403.714844 L 409.714844 365.527344 L 419.460938 358.46875 C 419.460938 358.46875 442.625 376.59375 452.960938 373.84375 L 465.988281 352.019531 C 465.988281 352.019531 492.914062 337.160156 500.613281 338.308594 C 507.785156 339.375 530.246094 334.800781 538.925781 326.136719 C 539.53125 325.527344 540.085938 324.875 540.582031 324.183594 C 547.578125 314.257812 544.703125 375.996094 544.703125 375.996094 L 540.765625 398.5625 L 582.734375 399.363281 L 574.3125 360.921875 C 574.3125 360.921875 574.738281 320.761719 576.785156 305.21875 C 578.832031 289.675781 582.539062 268.300781 575.023438 254.972656 L 560.25 268 L 534.539062 306.230469 L 544.296875 272.949219 Z M 561.007812 244.941406 "/>
</g>
<mask id="mask65">
  <g filter="url(#alpha)">
<rect x="0" y="0" width="1099" height="726" style="fill:rgb(0%,0%,0%);fill-opacity:0.101961;stroke:none;"/>
  </g>
</mask>
<clipPath id="clip66">
  <rect x="0" y="0" width="1099" height="726"/>
</clipPath>
<g id="surface200" clip-path="url(#clip66)">
<path style=" stroke:none;fill-rule:nonzero;fill:rgb(0%,0%,0%);fill-opacity:1;" d="M 472.558594 267.351562 C 472.558594 267.351562 430.660156 300.089844 426.273438 317.722656 "/>
</g>
<mask id="mask66">
  <g filter="url(#alpha)">
<rect x="0" y="0" width="1099" height="726" style="fill:rgb(0%,0%,0%);fill-opacity:0.101961;stroke:none;"/>
  </g>
</mask>
<clipPath id="clip67">
  <rect x="0" y="0" width="1099" height="726"/>
</clipPath>
<g id="surface203" clip-path="url(#clip67)">
<path style=" stroke:none;fill-rule:nonzero;fill:rgb(0%,0%,0%);fill-opacity:1;" d="M 518.300781 295.570312 C 518.300781 295.570312 486.082031 318.171875 480.328125 332.542969 "/>
</g>
<mask id="mask67">
  <g filter="url(#alpha)">
<rect x="0" y="0" width="1099" height="726" style="fill:rgb(0%,0%,0%);fill-opacity:0.101961;stroke:none;"/>
  </g>
</mask>
<clipPath id="clip68">
  <rect x="0" y="0" width="1099" height="726"/>
</clipPath>
<g id="surface206" clip-path="url(#clip68)">
<path style=" stroke:none;fill-rule:nonzero;fill:rgb(0%,0%,0%);fill-opacity:1;" d="M 424.203125 329.601562 C 424.203125 329.601562 421.175781 343.160156 420.578125 350.386719 "/>
</g>
<mask id="mask68">
  <g filter="url(#alpha)">
<rect x="0" y="0" width="1099" height="726" style="fill:rgb(0%,0%,0%);fill-opacity:0.101961;stroke:none;"/>
  </g>
</mask>
<clipPath id="clip69">
  <rect x="0" y="0" width="1099" height="726"/>
</clipPath>
<g id="surface209" clip-path="url(#clip69)">
<path style=" stroke:none;fill-rule:nonzero;fill:rgb(0%,0%,0%);fill-opacity:1;" d="M 408.886719 360.824219 C 408.886719 360.824219 360.621094 320.6875 353.867188 321.507812 "/>
</g>
<mask id="mask69">
  <g filter="url(#alpha)">
<rect x="0" y="0" width="1099" height="726" style="fill:rgb(0%,0%,0%);fill-opacity:0.101961;stroke:none;"/>
  </g>
</mask>
<clipPath id="clip70">
  <rect x="0" y="0" width="1099" height="726"/>
</clipPath>
<g id="surface212" clip-path="url(#clip70)">
<path style=" stroke:none;fill-rule:nonzero;fill:rgb(0%,0%,0%);fill-opacity:1;" d="M 579.421875 218.441406 C 583.34375 206.777344 596.601562 238.398438 597.71875 241.113281 C 596.457031 241.050781 595.199219 240.921875 593.953125 240.730469 C 583.78125 239.222656 574.726562 233.90625 568.914062 226.03125 C 574.082031 224.527344 578.199219 222.148438 579.421875 218.441406 Z M 579.421875 218.441406 "/>
</g>
<mask id="mask70">
  <g filter="url(#alpha)">
<rect x="0" y="0" width="1099" height="726" style="fill:rgb(0%,0%,0%);fill-opacity:0.101961;stroke:none;"/>
  </g>
</mask>
<clipPath id="clip71">
  <rect x="0" y="0" width="1099" height="726"/>
</clipPath>
<g id="surface215" clip-path="url(#clip71)">
<path style=" stroke:none;fill-rule:nonzero;fill:rgb(0%,0%,0%);fill-opacity:1;" d="M 630.054688 210.625 C 633.011719 215.136719 635.707031 220.027344 640.273438 223.183594 C 644.84375 226.339844 652.035156 227.054688 655.832031 223.121094 C 657.214844 221.546875 658.148438 219.675781 658.546875 217.683594 C 661.332031 206.691406 656.464844 195.296875 650.148438 185.605469 C 642.53125 173.972656 632.414062 163.453125 619.582031 156.820312 C 606.75 150.1875 590.972656 147.832031 577.074219 152.246094 C 563.171875 156.660156 551.753906 168.453125 550.605469 182.011719 C 549.972656 188.941406 551.859375 196.007812 550.304688 202.820312 C 549.5 206.371094 547.761719 209.75 547.566406 213.375 C 547.199219 220.101562 552.167969 226.359375 551.722656 233.085938 C 551.445312 237.234375 549.15625 240.996094 547.75 244.953125 C 544.296875 254.484375 546.164062 264.855469 545.449219 274.878906 C 544.734375 284.898438 540.007812 296.136719 529.648438 299.097656 C 541.097656 304.429688 556.886719 298.820312 561.546875 287.757812 C 562.964844 284.375 563.480469 280.625 565.632812 277.597656 C 569.269531 272.480469 576.832031 270.453125 579.878906 265.015625 C 582.929688 259.578125 580.285156 252.960938 576.945312 247.683594 C 573.609375 242.40625 569.441406 237.097656 569.375 230.988281 C 569.425781 224.878906 573.546875 219.4375 579.730469 217.320312 C 582.871094 216.308594 586.269531 216.253906 589.570312 215.914062 C 597.765625 214.9375 605.589844 212.171875 612.402344 207.84375 C 621.25 202.480469 623.621094 200.816406 630.054688 210.625 Z M 630.054688 210.625 "/>
</g>
<mask id="mask71">
  <g filter="url(#alpha)">
<rect x="0" y="0" width="1099" height="726" style="fill:rgb(0%,0%,0%);fill-opacity:0.101961;stroke:none;"/>
  </g>
</mask>
<clipPath id="clip72">
  <rect x="0" y="0" width="1099" height="726"/>
</clipPath>
<g id="surface218" clip-path="url(#clip72)">
<path style=" stroke:none;fill-rule:nonzero;fill:rgb(0%,0%,0%);fill-opacity:1;" d="M 562.367188 557.6875 C 563.515625 558.753906 563.148438 559.714844 563.515625 561.226562 L 615.300781 548.65625 C 612.515625 546.664062 609.054688 544.308594 607.914062 541.195312 C 601.722656 545.621094 589.445312 553.101562 562.367188 557.6875 Z M 562.367188 557.6875 "/>
</g>
<mask id="mask72">
  <g filter="url(#alpha)">
<rect x="0" y="0" width="1099" height="726" style="fill:rgb(0%,0%,0%);fill-opacity:0.101961;stroke:none;"/>
  </g>
</mask>
<clipPath id="clip73">
  <rect x="0" y="0" width="1099" height="726"/>
</clipPath>
<g id="surface221" clip-path="url(#clip73)">
<path style=" stroke:none;fill-rule:nonzero;fill:rgb(0%,0%,0%);fill-opacity:1;" d="M 606.039062 542.441406 C 606.039062 542.441406 590.238281 553.453125 563.757812 556.867188 "/>
</g>
<mask id="mask73">
  <g filter="url(#alpha)">
<rect x="0" y="0" width="1099" height="726" style="fill:rgb(0%,0%,0%);fill-opacity:0.101961;stroke:none;"/>
  </g>
</mask>
<clipPath id="clip74">
  <rect x="0" y="0" width="1099" height="726"/>
</clipPath>
<g id="surface224" clip-path="url(#clip74)">
<path style=" stroke:none;fill-rule:nonzero;fill:rgb(0%,0%,0%);fill-opacity:1;" d="M 566.542969 542.199219 C 566.542969 542.199219 540.074219 549.949219 533.101562 525.417969 Z M 566.542969 542.199219 "/>
</g>
<mask id="mask74">
  <g filter="url(#alpha)">
<rect x="0" y="0" width="1099" height="726" style="fill:rgb(0%,0%,0%);fill-opacity:0.101961;stroke:none;"/>
  </g>
</mask>
<clipPath id="clip75">
  <rect x="0" y="0" width="1099" height="726"/>
</clipPath>
<g id="surface227" clip-path="url(#clip75)">
<path style=" stroke:none;fill-rule:nonzero;fill:rgb(0%,0%,0%);fill-opacity:1;" d="M 730.289062 613.847656 L 724.71875 572.539062 C 724.71875 572.539062 741.441406 597.058594 730.289062 613.847656 "/>
</g>
</defs>
<g id="surface1">
<use xlink:href="#surface5" mask="url(#mask0)"/>
<use xlink:href="#surface8" mask="url(#mask1)"/>
<use xlink:href="#surface11" mask="url(#mask2)"/>
<use xlink:href="#surface14" mask="url(#mask3)"/>
<use xlink:href="#surface17" mask="url(#mask4)"/>
<use xlink:href="#surface20" mask="url(#mask5)"/>
<use xlink:href="#surface23" mask="url(#mask6)"/>
<use xlink:href="#surface26" mask="url(#mask7)"/>
<use xlink:href="#surface29" mask="url(#mask8)"/>
<use xlink:href="#surface32" mask="url(#mask9)"/>
<use xlink:href="#surface35" mask="url(#mask10)"/>
<use xlink:href="#surface38" mask="url(#mask11)"/>
<use xlink:href="#surface41" mask="url(#mask12)"/>
<use xlink:href="#surface44" mask="url(#mask13)"/>
<use xlink:href="#surface47" mask="url(#mask14)"/>
<use xlink:href="#surface50" mask="url(#mask15)"/>
<use xlink:href="#surface53" mask="url(#mask16)"/>
<use xlink:href="#surface56" mask="url(#mask17)"/>
<use xlink:href="#surface59" mask="url(#mask18)"/>
<use xlink:href="#surface62" mask="url(#mask19)"/>
<use xlink:href="#surface65" mask="url(#mask20)"/>
<use xlink:href="#surface68" mask="url(#mask21)"/>
<use xlink:href="#surface71" mask="url(#mask22)"/>
<use xlink:href="#surface74" mask="url(#mask23)"/>
<use xlink:href="#surface77" mask="url(#mask24)"/>
<use xlink:href="#surface80" mask="url(#mask25)"/>
<use xlink:href="#surface83" mask="url(#mask26)"/>
<use xlink:href="#surface86" mask="url(#mask27)"/>
<use xlink:href="#surface89" mask="url(#mask28)"/>
<use xlink:href="#surface92" mask="url(#mask29)"/>
<use xlink:href="#surface95" mask="url(#mask30)"/>
<use xlink:href="#surface98" mask="url(#mask31)"/>
<use xlink:href="#surface101" mask="url(#mask32)"/>
<use xlink:href="#surface104" mask="url(#mask33)"/>
<use xlink:href="#surface107" mask="url(#mask34)"/>
<use xlink:href="#surface110" mask="url(#mask35)"/>
<use xlink:href="#surface113" mask="url(#mask36)"/>
<use xlink:href="#surface116" mask="url(#mask37)"/>
<use xlink:href="#surface119" mask="url(#mask38)"/>
<use xlink:href="#surface122" mask="url(#mask39)"/>
<use xlink:href="#surface125" mask="url(#mask40)"/>
<use xlink:href="#surface128" mask="url(#mask41)"/>
<use xlink:href="#surface131" mask="url(#mask42)"/>
<use xlink:href="#surface134" mask="url(#mask43)"/>
<use xlink:href="#surface137" mask="url(#mask44)"/>
<use xlink:href="#surface140" mask="url(#mask45)"/>
<use xlink:href="#surface143" mask="url(#mask46)"/>
<path style=" stroke:none;fill-rule:nonzero;fill:rgb(29.411765%,50.196078%,52.156863%);fill-opacity:1;" d="M 57.160156 511.238281 C 57.160156 511.238281 -33.441406 561.878906 133.570312 639.839844 C 133.570312 639.839844 170.398438 576.558594 129.683594 524.957031 C 113.335938 504.136719 82.761719 497.929688 58.515625 510.511719 Z M 57.160156 511.238281 "/>
<path style="fill:none;stroke-width:1;stroke-linecap:butt;stroke-linejoin:miter;stroke:rgb(32.54902%,32.941176%,38.039216%);stroke-opacity:1;stroke-miterlimit:10;" d="M 173.080268 588.299651 C 173.080268 588.299651 240.449343 639.850255 238.568834 709.930349 " transform="matrix(1.150785,0,0,1.066079,-140.971204,-117.002203)"/>
<path style="fill:none;stroke-width:2;stroke-linecap:butt;stroke-linejoin:miter;stroke:rgb(32.54902%,32.941176%,38.039216%);stroke-opacity:1;stroke-miterlimit:10;" d="M 242.231414 712.630811 C 242.231414 712.630811 217.560762 628.868866 246.861405 567.219928 C 259.149209 541.351191 263.229303 512.298328 257.550436 484.220122 C 254.838294 470.886364 250.90416 457.831079 245.798951 445.219154 " transform="matrix(1.150785,0,0,1.066079,-140.971204,-117.002203)"/>
<path style=" stroke:none;fill-rule:nonzero;fill:rgb(29.411765%,50.196078%,52.156863%);fill-opacity:1;" d="M 162.835938 316.15625 C 162.835938 327.09375 141.453125 358.800781 141.453125 358.800781 C 141.453125 358.800781 120.0625 327.0625 120.0625 316.15625 C 119.882812 308.96875 123.917969 302.253906 130.609375 298.609375 C 137.300781 294.96875 145.597656 294.96875 152.289062 298.609375 C 158.980469 302.253906 163.015625 308.96875 162.835938 316.15625 Z M 162.835938 316.15625 "/>
<path style=" stroke:none;fill-rule:nonzero;fill:rgb(29.411765%,50.196078%,52.156863%);fill-opacity:1;" d="M 198.234375 376.773438 C 191.8125 385.964844 155.242188 401.828125 155.242188 401.828125 C 155.242188 401.828125 155.898438 364.417969 162.316406 355.238281 C 168.808594 346.21875 181.917969 343.699219 191.746094 349.589844 C 201.570312 355.484375 204.460938 367.59375 198.234375 376.773438 Z M 198.234375 376.773438 "/>
<path style=" stroke:none;fill-rule:nonzero;fill:rgb(29.411765%,50.196078%,52.156863%);fill-opacity:1;" d="M 196.679688 480.363281 C 186.140625 485.289062 145.917969 481.878906 145.917969 481.878906 C 145.917969 481.878906 166.875 449.894531 177.429688 444.972656 C 187.949219 440.210938 200.648438 444.175781 205.917969 453.863281 C 211.1875 463.550781 207.070312 475.359375 196.679688 480.363281 Z M 196.679688 480.363281 "/>
<path style=" stroke:none;fill-rule:nonzero;fill:rgb(29.411765%,50.196078%,52.156863%);fill-opacity:1;" d="M 176.460938 558.496094 C 166.96875 565 126.714844 567.941406 126.714844 567.941406 C 126.714844 567.941406 141.523438 533.136719 151.027344 526.632812 C 160.53125 520.386719 173.683594 522.335938 180.609375 531.011719 C 187.539062 539.691406 185.691406 551.910156 176.460938 558.496094 Z M 176.460938 558.496094 "/>
<path style=" stroke:none;fill-rule:nonzero;fill:rgb(29.411765%,50.196078%,52.156863%);fill-opacity:1;" d="M 110.324219 403.949219 C 118.796875 411.570312 158.277344 419.46875 158.277344 419.46875 C 158.277344 419.46875 148.613281 383.148438 140.132812 375.527344 C 131.660156 367.902344 118.117188 368.082031 109.886719 375.929688 C 101.65625 383.78125 101.855469 396.324219 110.324219 403.949219 Z M 110.324219 403.949219 "/>
<path style=" stroke:none;fill-rule:nonzero;fill:rgb(29.411765%,50.196078%,52.156863%);fill-opacity:1;" d="M 87.929688 495.597656 C 98.472656 500.535156 138.691406 497.125 138.691406 497.125 C 138.691406 497.125 117.738281 465.140625 107.195312 460.214844 C 100.351562 456.859375 92.082031 457.1875 85.578125 461.082031 C 79.070312 464.972656 75.34375 471.820312 75.832031 478.980469 C 76.320312 486.140625 80.949219 492.496094 87.929688 495.597656 Z M 87.929688 495.597656 "/>
<path style=" stroke:none;fill-rule:nonzero;fill:rgb(29.411765%,50.196078%,52.156863%);fill-opacity:1;" d="M 79.359375 587.453125 C 88.851562 593.957031 129.117188 596.898438 129.117188 596.898438 C 129.117188 596.898438 114.296875 562.089844 104.789062 555.585938 C 95.289062 549.339844 82.136719 551.289062 75.210938 559.96875 C 68.28125 568.648438 70.125 580.867188 79.359375 587.453125 Z M 79.359375 587.453125 "/>
<use xlink:href="#surface146" mask="url(#mask47)"/>
<use xlink:href="#surface149" mask="url(#mask48)"/>
<use xlink:href="#surface152" mask="url(#mask49)"/>
<use xlink:href="#surface155" mask="url(#mask50)"/>
<use xlink:href="#surface158" mask="url(#mask51)"/>
<use xlink:href="#surface161" mask="url(#mask52)"/>
<use xlink:href="#surface164" mask="url(#mask53)"/>
<path style="fill:none;stroke-width:2;stroke-linecap:butt;stroke-linejoin:miter;stroke:rgb(32.54902%,32.941176%,38.039216%);stroke-opacity:1;stroke-miterlimit:10;" d="M 1012.279594 691.001469 C 1012.279594 691.001469 987.608941 607.239524 1016.909584 545.590586 C 1029.200783 519.718185 1033.29106 490.668986 1027.608799 462.59078 C 1024.886473 449.260686 1020.955734 436.205401 1015.860708 423.589811 " transform="matrix(1.150785,0,0,1.066079,-140.971204,-117.002203)"/>
<path style=" stroke:none;fill-rule:nonzero;fill:rgb(29.411765%,50.196078%,52.156863%);fill-opacity:1;" d="M 1049.042969 293.097656 C 1049.042969 304.035156 1027.652344 335.742188 1027.652344 335.742188 C 1027.652344 335.742188 1006.257812 304.003906 1006.257812 293.097656 C 1006.257812 282.152344 1015.835938 273.277344 1027.652344 273.277344 C 1039.464844 273.277344 1049.042969 282.152344 1049.042969 293.097656 Z M 1049.042969 293.097656 "/>
<path style=" stroke:none;fill-rule:nonzero;fill:rgb(29.411765%,50.196078%,52.156863%);fill-opacity:1;" d="M 1084.398438 353.714844 C 1077.976562 362.902344 1041.402344 378.765625 1041.402344 378.765625 C 1041.402344 378.765625 1042.070312 341.359375 1048.492188 332.179688 C 1054.910156 322.996094 1068.152344 320.371094 1078.066406 326.316406 C 1087.980469 332.261719 1090.816406 344.53125 1084.398438 353.714844 Z M 1084.398438 353.714844 "/>
<path style=" stroke:none;fill-rule:nonzero;fill:rgb(29.411765%,50.196078%,52.156863%);fill-opacity:1;" d="M 1082.855469 457.304688 C 1072.300781 462.230469 1032.082031 458.820312 1032.082031 458.820312 C 1032.082031 458.820312 1053.050781 426.835938 1063.589844 421.910156 C 1074.140625 416.984375 1087.003906 420.910156 1092.324219 430.683594 C 1097.644531 440.460938 1093.40625 452.378906 1082.855469 457.304688 Z M 1082.855469 457.304688 "/>
<path style=" stroke:none;fill-rule:nonzero;fill:rgb(29.411765%,50.196078%,52.156863%);fill-opacity:1;" d="M 1062.636719 535.4375 C 1053.128906 541.941406 1012.875 544.882812 1012.875 544.882812 C 1012.875 544.882812 1027.699219 510.078125 1037.191406 503.574219 C 1046.691406 497.171875 1059.988281 499.0625 1066.976562 507.8125 C 1073.960938 516.5625 1072.023438 528.894531 1062.636719 535.4375 Z M 1062.636719 535.4375 "/>
<path style=" stroke:none;fill-rule:nonzero;fill:rgb(29.411765%,50.196078%,52.156863%);fill-opacity:1;" d="M 996.488281 380.855469 C 1004.96875 388.480469 1044.441406 396.378906 1044.441406 396.378906 C 1044.441406 396.378906 1034.773438 360.058594 1026.304688 352.433594 C 1020.847656 347.382812 1012.878906 345.445312 1005.445312 347.359375 C 998.015625 349.277344 992.273438 354.75 990.417969 361.6875 C 988.5625 368.625 990.882812 375.949219 996.488281 380.855469 Z M 996.488281 380.855469 "/>
<path style=" stroke:none;fill-rule:nonzero;fill:rgb(29.411765%,50.196078%,52.156863%);fill-opacity:1;" d="M 974.140625 472.539062 C 984.691406 477.476562 1024.914062 474.0625 1024.914062 474.0625 C 1024.914062 474.0625 1003.957031 442.082031 993.402344 437.15625 C 986.558594 433.796875 978.292969 434.128906 971.785156 438.023438 C 965.28125 441.914062 961.550781 448.757812 962.039062 455.921875 C 962.527344 463.082031 967.15625 469.4375 974.140625 472.539062 Z M 974.140625 472.539062 "/>
<path style=" stroke:none;fill-rule:nonzero;fill:rgb(29.411765%,50.196078%,52.156863%);fill-opacity:1;" d="M 965.519531 564.394531 C 975.027344 570.894531 1015.28125 573.839844 1015.28125 573.839844 C 1015.28125 573.839844 1000.457031 539.042969 990.964844 532.527344 C 981.464844 526.125 968.167969 528.019531 961.179688 536.769531 C 954.195312 545.519531 956.132812 557.851562 965.519531 564.394531 Z M 965.519531 564.394531 "/>
<path style="fill:none;stroke-width:2;stroke-linecap:butt;stroke-linejoin:miter;stroke:rgb(32.54902%,32.941176%,38.039216%);stroke-opacity:1;stroke-miterlimit:10;" d="M 901.000288 682.848786 C 901.000288 682.848786 887.741679 637.849642 903.488399 604.711276 C 910.175408 590.857212 912.195089 575.207725 909.238548 560.111522 C 907.775552 552.951818 905.660828 545.942342 902.92153 539.171036 " transform="matrix(1.150785,0,0,1.066079,-140.971204,-117.002203)"/>
<path style=" stroke:none;fill-rule:nonzero;fill:rgb(29.411765%,50.196078%,52.156863%);fill-opacity:1;" d="M 909.375 435.472656 C 909.375 441.355469 897.867188 458.414062 897.867188 458.414062 C 897.867188 458.414062 886.359375 441.355469 886.359375 435.472656 C 886.359375 429.585938 891.511719 424.8125 897.867188 424.8125 C 904.222656 424.8125 909.375 429.585938 909.375 435.472656 Z M 909.375 435.472656 "/>
<path style=" stroke:none;fill-rule:nonzero;fill:rgb(29.411765%,50.196078%,52.156863%);fill-opacity:1;" d="M 928.375 468.050781 C 924.921875 472.988281 905.265625 481.515625 905.265625 481.515625 C 905.265625 481.515625 905.621094 461.410156 909.074219 456.472656 C 912.648438 451.835938 919.53125 450.625 924.695312 453.722656 C 929.859375 456.820312 931.480469 463.132812 928.375 468.050781 Z M 928.375 468.050781 "/>
<path style=" stroke:none;fill-rule:nonzero;fill:rgb(29.411765%,50.196078%,52.156863%);fill-opacity:1;" d="M 927.542969 523.710938 C 921.871094 526.355469 900.257812 524.523438 900.257812 524.523438 C 900.257812 524.523438 911.527344 507.335938 917.1875 504.691406 C 922.804688 502.339844 929.425781 504.507812 932.199219 509.605469 C 934.976562 514.703125 932.921875 520.921875 927.542969 523.710938 Z M 927.542969 523.710938 "/>
<path style=" stroke:none;fill-rule:nonzero;fill:rgb(29.411765%,50.196078%,52.156863%);fill-opacity:1;" d="M 916.667969 565.703125 C 911.570312 569.199219 889.9375 570.777344 889.9375 570.777344 C 889.9375 570.777344 897.898438 552.078125 903.007812 548.582031 C 906.292969 546.066406 910.808594 545.441406 914.746094 546.949219 C 918.679688 548.460938 921.394531 551.863281 921.796875 555.789062 C 922.203125 559.71875 920.226562 563.535156 916.667969 565.703125 Z M 916.667969 565.703125 "/>
<path style=" stroke:none;fill-rule:nonzero;fill:rgb(29.411765%,50.196078%,52.156863%);fill-opacity:1;" d="M 881.132812 482.65625 C 885.738281 486.75 906.898438 490.992188 906.898438 490.992188 C 906.898438 490.992188 901.710938 471.472656 897.152344 467.378906 C 894.253906 464.511719 889.886719 463.355469 885.789062 464.367188 C 881.691406 465.378906 878.527344 468.398438 877.554688 472.222656 C 876.582031 476.046875 877.957031 480.054688 881.132812 482.65625 Z M 881.132812 482.65625 "/>
<path style=" stroke:none;fill-rule:nonzero;fill:rgb(29.411765%,50.196078%,52.156863%);fill-opacity:1;" d="M 869.097656 531.910156 C 874.769531 534.554688 896.382812 532.730469 896.382812 532.730469 C 896.382812 532.730469 885.113281 515.546875 879.441406 512.890625 C 873.824219 510.539062 867.207031 512.707031 864.429688 517.804688 C 861.652344 522.902344 863.707031 529.121094 869.085938 531.910156 Z M 869.097656 531.910156 "/>
<path style=" stroke:none;fill-rule:nonzero;fill:rgb(29.411765%,50.196078%,52.156863%);fill-opacity:1;" d="M 864.492188 581.28125 C 869.589844 584.777344 891.226562 586.355469 891.226562 586.355469 C 891.226562 586.355469 883.226562 567.644531 878.164062 564.148438 C 873.054688 560.929688 866.113281 562.023438 862.4375 566.625 C 858.765625 571.230469 859.671875 577.699219 864.492188 581.28125 Z M 864.492188 581.28125 "/>
<use xlink:href="#surface167" mask="url(#mask54)"/>
<use xlink:href="#surface170" mask="url(#mask55)"/>
<use xlink:href="#surface173" mask="url(#mask56)"/>
<path style=" stroke:none;fill-rule:nonzero;fill:rgb(32.54902%,32.941176%,38.039216%);fill-opacity:1;" d="M 811.878906 563.785156 C 812.832031 563.785156 813.605469 563.070312 813.605469 562.1875 C 813.605469 561.304688 812.832031 560.585938 811.878906 560.585938 C 810.925781 560.585938 810.152344 561.304688 810.152344 562.1875 C 810.152344 563.070312 810.925781 563.785156 811.878906 563.785156 Z M 811.878906 563.785156 "/>
<use xlink:href="#surface176" mask="url(#mask57)"/>
<path style=" stroke:none;fill-rule:nonzero;fill:rgb(22.745098%,21.960784%,30.196078%);fill-opacity:1;" d="M 444.582031 606.929688 C 444.582031 606.929688 448.484375 637.375 454.941406 642.003906 C 461.394531 646.628906 479.714844 662.164062 469.785156 662.503906 C 459.855469 662.84375 424.90625 657.621094 424.90625 657.621094 L 420.382812 649.625 L 412.328125 652.675781 L 404.628906 651.523438 L 397.722656 623.070312 C 397.722656 623.070312 388.035156 606.992188 401.671875 600.5 C 415.308594 594.007812 444.582031 606.929688 444.582031 606.929688 Z M 444.582031 606.929688 "/>
<use xlink:href="#surface179" mask="url(#mask58)"/>
<path style=" stroke:none;fill-rule:nonzero;fill:rgb(74.509804%,78.039216%,87.058824%);fill-opacity:1;" d="M 411.902344 356.710938 C 411.902344 356.710938 439 431.472656 437.976562 441.070312 C 437.976562 441.070312 447.910156 459.617188 436.953125 488.457031 C 425.996094 517.292969 435.800781 494.992188 435.800781 494.992188 C 435.800781 494.992188 434.765625 580.171875 442.269531 586.164062 L 446.664062 609.988281 C 446.664062 609.988281 404.410156 614.625 397.296875 602.589844 C 397.296875 602.589844 402.796875 593.667969 397.414062 564.210938 C 392.027344 534.757812 381.636719 469.820312 381.636719 469.820312 L 353.519531 321.765625 Z M 411.902344 356.710938 "/>
<use xlink:href="#surface182" mask="url(#mask59)"/>
<path style=" stroke:none;fill-rule:nonzero;fill:rgb(22.745098%,21.960784%,30.196078%);fill-opacity:1;" d="M 360.070312 597.324219 C 360.070312 597.324219 363.957031 627.769531 370.425781 632.398438 C 376.894531 637.023438 395.203125 652.558594 385.269531 652.898438 C 375.339844 653.238281 340.390625 648.015625 340.390625 648.015625 L 335.867188 640.019531 L 327.8125 643.082031 L 320.113281 641.917969 L 313.210938 613.464844 C 313.210938 613.464844 303.519531 597.386719 317.144531 590.894531 C 330.769531 584.402344 360.070312 597.324219 360.070312 597.324219 Z M 360.070312 597.324219 "/>
<use xlink:href="#surface185" mask="url(#mask60)"/>
<use xlink:href="#surface188" mask="url(#mask61)"/>
<use xlink:href="#surface191" mask="url(#mask62)"/>
<path style=" stroke:none;fill-rule:nonzero;fill:rgb(74.509804%,78.039216%,87.058824%);fill-opacity:1;" d="M 324.636719 291.230469 C 324.636719 291.230469 294.472656 301.96875 310.699219 340.953125 C 310.699219 340.953125 328.59375 371.390625 334.761719 390.613281 C 337.457031 398.867188 340.921875 406.890625 345.121094 414.585938 L 367.582031 456.164062 C 367.582031 456.164062 334.695312 516.460938 333.246094 543.667969 C 333.246094 543.667969 328.847656 580.191406 311.09375 595.203125 C 311.09375 595.203125 349.261719 625.296875 363.488281 607.921875 C 363.488281 607.921875 359.207031 587.175781 372.082031 558.625 C 384.960938 530.074219 400.230469 491.527344 400.230469 491.527344 C 400.230469 491.527344 437.171875 468.402344 412.566406 420.835938 L 384.949219 314.917969 L 384.5 291.082031 L 363.324219 284.257812 Z M 324.636719 291.230469 "/>
<use xlink:href="#surface194" mask="url(#mask63)"/>
<path style=" stroke:none;fill-rule:nonzero;fill:rgb(74.509804%,48.627451%,36.862745%);fill-opacity:1;" d="M 448.910156 367.125 L 424.894531 410.460938 C 424.894531 410.460938 431.9375 468.199219 418.484375 469.84375 C 405.03125 471.484375 410.425781 406.476562 410.425781 406.476562 L 423.375 351.113281 Z M 448.910156 367.125 "/>
<path style=" stroke:none;fill-rule:nonzero;fill:rgb(74.509804%,48.627451%,36.862745%);fill-opacity:1;" d="M 580.179688 395.3125 L 597.351562 470.40625 C 597.351562 470.40625 639.492188 523.039062 609.664062 516.75 C 579.835938 510.460938 578.1875 482.132812 578.1875 482.132812 L 549.417969 390.664062 Z M 580.179688 395.3125 "/>
<path style=" stroke:none;fill-rule:nonzero;fill:rgb(74.509804%,48.627451%,36.862745%);fill-opacity:1;" d="M 597.292969 240.613281 L 554.828125 265.347656 L 539.671875 227.726562 C 539.671875 227.726562 574.816406 229.941406 578.914062 217.757812 C 583.011719 205.570312 597.292969 240.613281 597.292969 240.613281 Z M 597.292969 240.613281 "/>
<path style=" stroke:none;fill-rule:nonzero;fill:rgb(74.509804%,48.627451%,36.862745%);fill-opacity:1;" d="M 575.484375 256.253906 L 572.769531 245.476562 L 530.914062 247.746094 L 514.054688 310.441406 L 545.460938 311.488281 L 563.042969 286.082031 L 572.628906 261.308594 Z M 575.484375 256.253906 "/>
<use xlink:href="#surface197" mask="url(#mask64)"/>
<path style=" stroke:none;fill-rule:nonzero;fill:rgb(49.803922%,68.627451%,94.901961%);fill-opacity:1;" d="M 561.226562 243.75 L 557.554688 225.210938 C 557.554688 225.210938 487.253906 226.574219 469.933594 242.875 C 452.617188 259.175781 410.09375 265.007812 410.09375 265.007812 L 339.367188 278.195312 L 314.738281 287.917969 C 314.738281 287.917969 321.714844 312.117188 324.707031 313.777344 C 327.699219 315.441406 361.105469 289.972656 361.105469 289.972656 L 373.761719 293.085938 L 332.542969 333.234375 L 408.621094 402.53125 L 410.023438 364.332031 L 419.804688 357.265625 C 419.804688 357.265625 442.972656 375.386719 453.304688 372.648438 L 466.332031 350.824219 C 466.332031 350.824219 493.113281 335.964844 500.855469 337.148438 C 508.027344 338.214844 530.488281 333.628906 539.164062 324.960938 C 539.773438 324.355469 540.328125 323.703125 540.824219 323.011719 C 547.820312 313.085938 544.941406 374.832031 544.941406 374.832031 L 541.007812 397.402344 L 582.976562 398.203125 L 574.550781 359.757812 C 574.550781 359.757812 574.976562 319.589844 577.027344 304.054688 C 579.074219 288.523438 582.78125 267.128906 575.265625 253.8125 L 560.488281 266.785156 L 534.746094 304.984375 L 544.503906 271.699219 Z M 561.226562 243.75 "/>
<use xlink:href="#surface200" mask="url(#mask65)"/>
<use xlink:href="#surface203" mask="url(#mask66)"/>
<use xlink:href="#surface206" mask="url(#mask67)"/>
<use xlink:href="#surface209" mask="url(#mask68)"/>
<use xlink:href="#surface212" mask="url(#mask69)"/>
<path style=" stroke:none;fill-rule:nonzero;fill:rgb(74.509804%,48.627451%,36.862745%);fill-opacity:1;" d="M 637.132812 205.59375 C 637.132812 224.871094 620.265625 240.496094 599.457031 240.496094 C 578.648438 240.496094 561.777344 224.871094 561.777344 205.59375 C 561.777344 186.316406 578.648438 170.691406 599.457031 170.691406 C 620.265625 170.691406 637.132812 186.316406 637.132812 205.59375 Z M 637.132812 205.59375 "/>
<use xlink:href="#surface215" mask="url(#mask70)"/>
<path style=" stroke:none;fill-rule:nonzero;fill:rgb(44.705882%,21.176471%,27.843137%);fill-opacity:1;" d="M 630.296875 209.101562 C 633.253906 213.621094 635.945312 218.503906 640.515625 221.667969 C 645.085938 224.835938 652.277344 225.539062 656.074219 221.605469 C 657.453125 220.03125 658.386719 218.160156 658.789062 216.167969 C 661.574219 205.175781 656.707031 193.78125 650.390625 184.089844 C 642.769531 172.449219 632.65625 161.9375 619.824219 155.304688 C 606.992188 148.675781 591.214844 146.328125 577.316406 150.734375 C 563.414062 155.136719 549.417969 167.109375 548.1875 180.667969 C 547.554688 187.597656 548.464844 190.808594 546.910156 197.609375 C 546.105469 201.160156 547.980469 208.269531 547.785156 211.871094 C 547.417969 218.597656 552.386719 224.859375 551.941406 231.585938 C 551.664062 235.730469 549.375 239.496094 547.96875 243.4375 C 544.515625 252.980469 546.382812 263.355469 545.667969 273.375 C 544.953125 283.394531 540.226562 294.621094 529.867188 297.585938 C 541.316406 302.914062 557.105469 297.308594 561.765625 286.242188 C 563.183594 282.875 563.699219 279.121094 565.851562 276.09375 C 569.488281 270.976562 577.050781 268.949219 580.097656 263.511719 C 583.148438 258.078125 580.503906 251.445312 577.175781 246.167969 C 573.851562 240.890625 569.660156 235.59375 569.59375 229.472656 C 569.648438 223.371094 573.769531 217.933594 579.949219 215.816406 C 583.089844 214.804688 586.484375 214.75 589.789062 214.410156 C 597.980469 213.429688 605.804688 210.664062 612.621094 206.339844 C 621.515625 200.957031 623.886719 199.304688 630.296875 209.101562 Z M 630.296875 209.101562 "/>
<path style=" stroke:none;fill-rule:nonzero;fill:rgb(14.509804%,16.470588%,38.431373%);fill-opacity:1;" d="M 568.089844 231.699219 L 552.105469 229.304688 C 550.863281 229.121094 550.019531 228.039062 550.21875 226.890625 C 550.421875 225.742188 551.589844 224.960938 552.832031 225.148438 L 568.816406 227.542969 C 570.058594 227.726562 570.902344 228.808594 570.703125 229.957031 C 570.503906 231.105469 569.332031 231.882812 568.089844 231.699219 Z M 568.089844 231.699219 "/>
<path style=" stroke:none;fill-rule:nonzero;fill:rgb(95.294118%,67.843137%,33.333333%);fill-opacity:1;" d="M 519.164062 523.925781 C 519.429688 540.621094 534.632812 553.773438 552.652344 553.773438 L 555.160156 553.773438 C 557.378906 553.769531 559.507812 554.5625 561.101562 555.992188 C 562.308594 557.039062 563.144531 558.398438 563.503906 559.894531 C 563.675781 560.496094 563.761719 561.117188 563.757812 561.738281 L 563.757812 591.214844 C 563.746094 596.882812 565.496094 602.433594 568.796875 607.207031 C 573.605469 613.964844 576.207031 621.863281 576.300781 629.957031 C 576.300781 633.773438 577.957031 637.429688 580.894531 640.105469 C 583.835938 642.777344 587.808594 644.246094 591.929688 644.179688 C 600.351562 644.039062 606.957031 637.324219 606.957031 629.507812 L 606.957031 622.140625 L 611.148438 622.589844 L 611.148438 629.976562 C 611.148438 633.789062 612.804688 637.441406 615.742188 640.113281 C 618.679688 642.78125 622.648438 644.246094 626.765625 644.179688 C 635.199219 644.039062 641.804688 637.324219 641.804688 629.507812 L 641.804688 625.777344 C 645.980469 627.398438 669.675781 627.398438 676.246094 625.777344 L 678.03125 625.648438 L 678.03125 629.914062 C 678.019531 633.738281 679.667969 637.40625 682.609375 640.089844 C 685.546875 642.773438 689.53125 644.246094 693.660156 644.179688 C 702.082031 644.039062 708.6875 637.324219 708.6875 629.507812 L 708.6875 623.390625 L 710.082031 623.273438 L 710.082031 629.988281 C 710.089844 633.800781 711.75 637.449219 714.6875 640.117188 C 717.625 642.785156 721.59375 644.246094 725.707031 644.179688 C 733.382812 643.9375 739.726562 638.5625 740.667969 631.503906 C 740.753906 630.839844 740.800781 630.175781 740.804688 629.507812 L 740.804688 598.679688 C 740.820312 588.085938 736.988281 577.800781 729.929688 569.46875 C 727.421875 566.441406 727.316406 562.257812 729.667969 559.125 C 737.46875 548.539062 749.011719 530.671875 748.632812 518.007812 C 748.710938 514.574219 747.410156 511.234375 744.984375 508.636719 C 744.835938 508.476562 744.671875 508.328125 744.523438 508.179688 C 733.292969 497.285156 713.519531 505.855469 715.234375 520.832031 C 715.820312 525.847656 715.429688 530.921875 714.085938 535.8125 C 713.304688 538.570312 712.253906 541.257812 710.945312 543.839844 C 708.25 549.148438 702.195312 552.269531 695.902344 551.589844 C 693.816406 551.351562 691.71875 551.234375 689.621094 551.238281 L 625.175781 551.238281 C 617.417969 551.242188 610.523438 546.664062 608.027344 539.863281 C 607.375 538.125 607.042969 536.296875 607.050781 534.457031 L 607.050781 487.976562 C 607.050781 485.53125 605.984375 483.1875 604.085938 481.484375 C 602.191406 479.78125 599.632812 478.859375 596.992188 478.9375 C 594.417969 479.023438 591.988281 480.074219 590.261719 481.847656 C 588.515625 483.628906 587.546875 485.945312 587.546875 488.347656 C 587.546875 489.621094 587.003906 490.839844 586.035156 491.738281 C 585.066406 492.636719 583.75 493.140625 582.378906 493.136719 L 551.917969 493.136719 C 543.144531 493.136719 534.742188 496.394531 528.585938 502.179688 C 522.429688 507.96875 519.035156 515.800781 519.164062 523.925781 Z M 519.164062 523.925781 "/>
<path style=" stroke:none;fill-rule:nonzero;fill:rgb(98.431373%,86.27451%,63.921569%);fill-opacity:1;" d="M 710.609375 633.519531 C 712.386719 639.890625 718.652344 644.300781 725.753906 644.179688 C 733.429688 643.9375 739.773438 638.5625 740.714844 631.503906 C 731.324219 629.1875 718.457031 627.589844 710.609375 633.519531 Z M 710.609375 633.519531 "/>
<path style=" stroke:none;fill-rule:nonzero;fill:rgb(98.431373%,86.27451%,63.921569%);fill-opacity:1;" d="M 678.503906 633.519531 C 680.285156 639.890625 686.554688 644.300781 693.660156 644.179688 C 701.308594 643.910156 707.617188 638.542969 708.550781 631.503906 C 699.273438 629.1875 686.445312 627.589844 678.503906 633.519531 Z M 678.503906 633.519531 "/>
<path style=" stroke:none;fill-rule:nonzero;fill:rgb(98.431373%,86.27451%,63.921569%);fill-opacity:1;" d="M 611.640625 633.519531 C 613.417969 639.890625 619.683594 644.300781 626.785156 644.179688 C 634.460938 643.9375 640.804688 638.5625 641.746094 631.503906 C 632.355469 629.1875 619.515625 627.589844 611.640625 633.519531 Z M 611.640625 633.519531 "/>
<path style=" stroke:none;fill-rule:nonzero;fill:rgb(98.431373%,86.27451%,63.921569%);fill-opacity:1;" d="M 576.773438 633.519531 C 578.550781 639.894531 584.824219 644.304688 591.929688 644.179688 C 599.578125 643.910156 605.886719 638.542969 606.820312 631.503906 C 597.546875 629.1875 584.679688 627.589844 576.773438 633.519531 Z M 576.773438 633.519531 "/>
<path style=" stroke:none;fill-rule:nonzero;fill:rgb(98.431373%,86.27451%,63.921569%);fill-opacity:1;" d="M 713.992188 535.8125 C 724.820312 531.78125 738.03125 524.40625 748.515625 518.007812 C 748.597656 514.574219 747.296875 511.234375 744.867188 508.636719 C 744.71875 508.476562 744.558594 508.328125 744.410156 508.179688 C 733.175781 497.285156 713.40625 505.855469 715.121094 520.832031 C 715.710938 525.847656 715.328125 530.921875 713.992188 535.8125 Z M 713.992188 535.8125 "/>
<path style=" stroke:none;fill-rule:nonzero;fill:rgb(98.431373%,86.27451%,63.921569%);fill-opacity:1;" d="M 700.886719 551.324219 C 700.886719 551.324219 671.070312 586.097656 622.289062 551.238281 "/>
<path style=" stroke:none;fill-rule:nonzero;fill:rgb(98.431373%,86.27451%,63.921569%);fill-opacity:1;" d="M 606.957031 486.6875 C 606.957031 486.6875 588.84375 508.636719 606.957031 535.726562 "/>
<path style=" stroke:none;fill-rule:nonzero;fill:rgb(98.431373%,86.27451%,63.921569%);fill-opacity:1;" d="M 563.757812 561.566406 C 563.757812 561.566406 579.71875 579.925781 563.964844 594.53125 "/>
<use xlink:href="#surface218" mask="url(#mask71)"/>
<path style=" stroke:none;fill-rule:nonzero;fill:rgb(21.960784%,24.705882%,30.196078%);fill-opacity:1;" d="M 561.101562 556.035156 C 562.308594 557.082031 563.144531 558.441406 563.503906 559.9375 L 614.011719 547.742188 C 611.195312 545.726562 609.078125 542.984375 607.9375 539.863281 C 601.722656 544.328125 588.179688 551.429688 561.101562 556.035156 Z M 561.101562 556.035156 "/>
<use xlink:href="#surface221" mask="url(#mask72)"/>
<path style=" stroke:none;fill-rule:nonzero;fill:rgb(95.294118%,67.843137%,33.333333%);fill-opacity:1;" d="M 606.039062 541.152344 C 606.039062 541.152344 590.238281 552.164062 563.757812 555.578125 "/>
<use xlink:href="#surface224" mask="url(#mask73)"/>
<path style=" stroke:none;fill-rule:nonzero;fill:rgb(98.431373%,86.27451%,63.921569%);fill-opacity:1;" d="M 566.542969 540.90625 C 566.542969 540.90625 540.074219 548.65625 533.101562 524.128906 Z M 566.542969 540.90625 "/>
<path style=" stroke:none;fill-rule:nonzero;fill:rgb(21.960784%,24.705882%,30.196078%);fill-opacity:1;" d="M 521.949219 520.898438 C 521.949219 518.402344 520.703125 516.375 519.164062 516.375 C 517.628906 516.375 516.378906 518.402344 516.378906 520.898438 C 516.378906 523.394531 517.628906 525.417969 519.164062 525.417969 C 520.703125 525.417969 521.949219 523.394531 521.949219 520.898438 Z M 521.949219 520.898438 "/>
<use xlink:href="#surface227" mask="url(#mask74)"/>
<path style=" stroke:none;fill-rule:nonzero;fill:rgb(98.431373%,86.27451%,63.921569%);fill-opacity:1;" d="M 723.324219 572.539062 C 723.324219 572.539062 740.046875 597.058594 728.894531 613.847656 Z M 723.324219 572.539062 "/>
</g>
</svg>
