<?xml version="1.0" encoding="UTF-8"?>
<svg xmlns="http://www.w3.org/2000/svg" xmlns:xlink="http://www.w3.org/1999/xlink" width="1099px" height="726px" viewBox="0 0 1099 726" version="1.1">
<g id="surface1">
<path style=" stroke:none;fill-rule:nonzero;fill:rgb(94.901961%,94.901961%,94.901961%);fill-opacity:1;" d="M 1024.914062 625.386719 L 1026.792969 588.917969 C 1046.382812 579.878906 1068.230469 575.105469 1090.441406 575.011719 C 1059.871094 596.582031 1063.691406 638.167969 1042.96875 667.179688 C 1029.710938 685.417969 1007.5625 697.46875 982.777344 699.917969 L 957.199219 713.4375 C 950.09375 679.253906 960.6875 644.097656 986.1875 617.234375 C 993.339844 609.847656 1001.542969 603.269531 1010.601562 597.652344 C 1016.730469 611.597656 1024.914062 625.386719 1024.914062 625.386719 Z M 1024.914062 625.386719 "/>
<path style=" stroke:none;fill-rule:nonzero;fill:rgb(94.901961%,94.901961%,94.901961%);fill-opacity:1;" d="M 636.996094 722.515625 C 623.964844 721.714844 620.566406 723.933594 600.855469 722.515625 L 564.714844 722.515625 L 569.414062 647.863281 L 626.308594 667.542969 L 909.050781 673.53125 L 908.882812 673.945312 C 908.757812 674.265625 896.203125 705.960938 906.015625 717.960938 L 906.421875 718.457031 L 905.628906 718.464844 L 646.257812 720.519531 C 643.425781 720.539062 639.804688 722.6875 636.996094 722.515625 Z M 636.996094 722.515625 "/>
<path style=" stroke:none;fill-rule:nonzero;fill:rgb(80%,80%,80%);fill-opacity:1;" d="M 651.660156 723.492188 C 626.488281 721.945312 600.425781 730.390625 578.675781 720.855469 L 561.289062 721.765625 L 561.238281 721.640625 C 561.105469 721.292969 552.890625 665.507812 569.496094 643.878906 L 570.226562 642.925781 L 570.796875 648.050781 L 565.324219 717.542969 L 577.457031 714.046875 C 606.921875 726.019531 641.964844 718.113281 675.691406 718 L 905.207031 717.269531 C 910.015625 717.253906 914.019531 720.089844 914.148438 723.589844 L 914.160156 723.933594 L 665.523438 723.917969 C 660.886719 723.917969 656.265625 723.773438 651.660156 723.492188 Z M 651.660156 723.492188 "/>
<path style=" stroke:none;fill-rule:nonzero;fill:rgb(90.196078%,90.196078%,90.196078%);fill-opacity:1;" d="M 893.109375 688.589844 L 634.824219 684.15625 L 634.558594 684.070312 L 573.535156 664.332031 L 574.691406 661.675781 L 635.449219 681.332031 L 893.175781 685.753906 Z M 893.109375 688.589844 "/>
<path style=" stroke:none;fill-rule:nonzero;fill:rgb(90.196078%,90.196078%,90.196078%);fill-opacity:1;" d="M 891.730469 700.527344 L 633.445312 696.09375 L 633.183594 696.011719 L 572.160156 676.269531 L 573.3125 673.613281 L 634.074219 693.269531 L 891.796875 697.691406 Z M 891.730469 700.527344 "/>
<path style=" stroke:none;fill-rule:nonzero;fill:rgb(90.196078%,90.196078%,90.196078%);fill-opacity:1;" d="M 890.351562 712.464844 L 632.066406 708.03125 L 631.804688 707.949219 L 570.78125 688.207031 L 571.933594 685.550781 L 632.695312 705.207031 L 890.417969 709.628906 Z M 890.351562 712.464844 "/>
<path style=" stroke:none;fill-rule:nonzero;fill:rgb(90.196078%,90.196078%,90.196078%);fill-opacity:1;" d="M 653.445312 674.304688 C 629.496094 672.90625 606.148438 667.21875 584.886719 657.605469 L 566.984375 649.410156 L 567.453125 645.359375 C 567.722656 644.125 569.023438 643.269531 570.472656 643.371094 L 572.050781 643.386719 L 812.925781 646.445312 C 828.691406 646.617188 844.3125 649.0625 859.140625 653.6875 L 911.621094 670.132812 L 911.59375 670.371094 C 911.15625 674.191406 906.695312 677.140625 901.441406 677.085938 L 664.175781 674.6875 C 660.585938 674.652344 657.007812 674.523438 653.445312 674.304688 Z M 653.445312 674.304688 "/>
<path style=" stroke:none;fill-rule:nonzero;fill:rgb(80%,80%,80%);fill-opacity:1;" d="M 911.117188 671.011719 L 911.0625 671.007812 L 622.214844 665.296875 L 622.011719 665.214844 L 569.933594 644.398438 L 570.464844 643.703125 L 572.046875 643.71875 L 622.695312 663.976562 L 908.871094 669.632812 L 911.164062 669.679688 Z M 911.117188 671.011719 "/>
<path style=" stroke:none;fill-rule:nonzero;fill:rgb(80%,80%,80%);fill-opacity:1;" d="M 686.5625 645.175781 L 682.894531 645.132812 L 600.113281 644.074219 L 596.191406 644.027344 C 615.105469 661.410156 656.929688 665.757812 718.230469 659.023438 Z M 686.5625 645.175781 "/>
<path style=" stroke:none;fill-rule:nonzero;fill:rgb(100%,71.372549%,71.372549%);fill-opacity:1;" d="M 919.304688 229.445312 L 924.355469 239.585938 L 916.101562 275.597656 L 831.902344 265.492188 L 832.574219 221.582031 L 834.265625 211.964844 Z M 919.304688 229.445312 "/>
<path style=" stroke:none;fill-rule:nonzero;fill:rgb(100%,71.372549%,71.372549%);fill-opacity:1;" d="M 962.804688 696.140625 L 944.230469 696.140625 L 935.386719 634.296875 L 962.804688 634.296875 Z M 962.804688 696.140625 "/>
<path style=" stroke:none;fill-rule:nonzero;fill:rgb(18.431373%,18.039216%,25.490196%);fill-opacity:1;" d="M 907.550781 717.074219 C 907.554688 720.855469 911.105469 723.921875 915.488281 723.925781 L 950.828125 723.925781 L 956.917969 713.070312 L 959.285156 723.925781 L 972.605469 723.925781 L 968.859375 685.152344 L 962.804688 684.847656 L 942.460938 683.800781 L 939.183594 683.625 L 939.183594 694.609375 L 910.976562 711.429688 C 908.832031 712.710938 907.550781 714.820312 907.550781 717.074219 Z M 907.550781 717.074219 "/>
<path style=" stroke:none;fill-rule:nonzero;fill:rgb(100%,71.372549%,71.372549%);fill-opacity:1;" d="M 791.109375 625.242188 L 772.53125 625.242188 L 761.605469 534.191406 L 796.507812 532.390625 Z M 791.109375 625.242188 "/>
<path style=" stroke:none;fill-rule:nonzero;fill:rgb(18.431373%,18.039216%,25.490196%);fill-opacity:1;" d="M 735.851562 646.175781 C 735.855469 649.957031 739.40625 653.023438 743.789062 653.027344 L 779.128906 653.027344 L 785.222656 642.171875 L 787.585938 653.027344 L 800.90625 653.027344 L 797.164062 614.253906 L 791.761719 613.980469 L 771.0625 612.902344 L 767.484375 612.726562 L 767.484375 623.710938 L 739.28125 640.53125 C 737.132812 641.8125 735.851562 643.921875 735.851562 646.175781 Z M 735.851562 646.175781 "/>
<path style=" stroke:none;fill-rule:nonzero;fill:rgb(18.431373%,18.039216%,25.490196%);fill-opacity:1;" d="M 970.691406 642.808594 L 970.617188 642.808594 L 967.046875 542.25 C 971.742188 534.429688 971.59375 525.101562 966.648438 517.398438 L 966.136719 516.601562 L 967.460938 511.292969 C 969.164062 504.476562 968.382812 497.371094 965.222656 490.953125 L 961.890625 397.148438 C 973.796875 330.539062 917.054688 287.101562 917.054688 287.101562 L 922.269531 252.191406 L 830.488281 253.992188 L 832.046875 287.101562 L 813.800781 341.222656 C 804.195312 421.988281 739.554688 472.757812 749.382812 549.992188 C 749.402344 550.214844 749.363281 550.4375 749.269531 550.644531 C 747.253906 555.933594 747.921875 561.714844 751.113281 566.554688 C 751.523438 567.167969 751.804688 567.835938 751.945312 568.53125 C 753.96875 582.070312 754.234375 564.941406 756.914062 578.363281 L 756.394531 578.589844 C 754.515625 579.152344 753.707031 581.398438 754.59375 583.609375 C 755.476562 585.824219 757.71875 587.164062 759.597656 586.601562 L 808.660156 587.054688 C 810.539062 586.496094 811.347656 584.25 810.460938 582.035156 C 809.578125 579.824219 807.335938 578.484375 805.457031 579.042969 L 802.40625 580.375 L 807.511719 565.953125 L 809.300781 564.511719 C 811.039062 563.113281 811.941406 561.101562 811.746094 559.058594 C 811.554688 557.011719 810.289062 555.15625 808.3125 554.015625 L 813.398438 530.582031 L 812.675781 512.855469 L 814.164062 492.75 L 878.542969 412.230469 L 904.589844 523.453125 L 931.195312 643.929688 C 929.929688 644.910156 929.351562 646.390625 929.667969 647.832031 C 930.171875 649.875 932.285156 651.320312 934.703125 651.285156 L 970.820312 651.285156 C 972.355469 651.28125 973.800781 650.664062 974.730469 649.609375 C 975.660156 648.554688 975.964844 647.183594 975.558594 645.90625 C 974.933594 644.046875 972.9375 642.777344 970.691406 642.808594 Z M 970.691406 642.808594 "/>
<path style=" stroke:none;fill-rule:nonzero;fill:rgb(18.431373%,18.039216%,25.490196%);fill-opacity:1;" d="M 938.574219 58.335938 C 938.582031 76 924.90625 91.492188 905.171875 96.171875 C 885.4375 100.851562 864.515625 93.570312 854.0625 78.382812 C 843.613281 63.195312 846.210938 43.847656 860.414062 31.128906 L 860.632812 30.941406 C 860.996094 30.613281 861.359375 30.28125 861.742188 29.96875 C 861.746094 29.96875 861.75 29.96875 861.753906 29.964844 C 861.757812 29.960938 861.757812 29.957031 861.757812 29.953125 C 862.28125 29.625 862.761719 29.25 863.195312 28.839844 C 869.328125 21.441406 876.285156 15.238281 893.132812 19.113281 C 917.386719 24.691406 938.574219 36.667969 938.574219 58.335938 Z M 938.574219 58.335938 "/>
<path style=" stroke:none;fill-rule:nonzero;fill:rgb(100%,71.372549%,71.372549%);fill-opacity:1;" d="M 688.957031 41.542969 C 688.746094 45.792969 690.730469 49.902344 694.367188 52.769531 C 698.007812 55.632812 702.929688 56.960938 707.8125 56.390625 L 825.003906 139.40625 L 842.902344 112.25 L 722.082031 39.1875 C 720.390625 32.015625 712.753906 27.066406 704.304688 27.667969 C 695.855469 28.269531 689.257812 34.230469 688.957031 41.542969 Z M 688.957031 41.542969 "/>
<path style=" stroke:none;fill-rule:nonzero;fill:rgb(29.411765%,50.196078%,52.156863%);fill-opacity:1;" d="M 874.484375 163.890625 C 874.484375 163.890625 874.449219 160.902344 855.820312 161.015625 C 832.695312 161.160156 769.007812 132.5 774.578125 105.511719 C 769.136719 107.636719 762.722656 106.308594 758.988281 102.285156 L 789.996094 76.519531 C 799.722656 77.085938 799.824219 82.707031 798.988281 85.933594 L 823.90625 94.480469 L 888.804688 126.664062 L 877.347656 158.992188 Z M 874.484375 163.890625 "/>
<path style=" stroke:none;fill-rule:nonzero;fill:rgb(100%,71.764706%,71.764706%);fill-opacity:1;" d="M 920.039062 67.410156 C 920.039062 85.574219 902.980469 100.300781 881.9375 100.300781 C 860.890625 100.300781 843.832031 85.574219 843.832031 67.410156 C 843.832031 49.246094 860.890625 34.519531 881.9375 34.519531 C 902.980469 34.519531 920.039062 49.246094 920.039062 67.410156 Z M 920.039062 67.410156 "/>
<path style=" stroke:none;fill-rule:nonzero;fill:rgb(29.411765%,50.196078%,52.156863%);fill-opacity:1;" d="M 829.566406 231.003906 C 825.226562 236 825.539062 242.9375 830.3125 247.632812 C 830.328125 248.597656 830.496094 249.527344 832.082031 252.988281 C 832.289062 253.320312 832.53125 253.640625 832.808594 253.933594 C 832.859375 254.007812 832.914062 254.078125 832.976562 254.144531 C 834.644531 256.007812 836.960938 257.355469 839.589844 257.988281 L 909.339844 274.792969 L 918.5625 277.011719 L 920.179688 277.398438 L 921.074219 266.527344 C 925.359375 263.460938 926.414062 258.152344 923.554688 254.03125 L 922.269531 252.199219 L 929.757812 234.816406 L 930.484375 233.09375 L 949.578125 188.726562 L 949.597656 185.769531 L 949.636719 182.714844 L 949.820312 161.390625 C 949.839844 147.765625 942.460938 134.921875 929.886719 126.6875 C 924.238281 122.960938 917.726562 120.332031 910.792969 118.96875 L 910.644531 118.953125 L 903.097656 110.191406 L 872.488281 112.828125 L 869.957031 117.3125 L 866.882812 122.71875 L 844.695312 134.117188 L 837.109375 149.332031 L 831.988281 159.621094 C 824.050781 164.542969 819.320312 170.863281 817.960938 178.386719 C 815.054688 194.371094 828.019531 210.371094 829.566406 212.207031 L 829.957031 230.554688 Z M 829.566406 231.003906 "/>
<path style=" stroke:none;fill-rule:nonzero;fill:rgb(18.431373%,18.039216%,25.490196%);fill-opacity:1;" d="M 921.816406 76.035156 C 921.46875 75.984375 921.125 75.921875 920.777344 75.875 C 914.835938 74.964844 908.890625 74.070312 902.964844 73.144531 L 902.421875 61.550781 L 895.242188 71.9375 C 878.863281 76.628906 863.539062 73.976562 849.125 68.125 C 844.371094 66.175781 839.757812 63.980469 835.3125 61.550781 C 833.847656 41.945312 843.03125 29.390625 860.125 30.707031 C 860.746094 30.753906 861.195312 30.203125 861.742188 29.96875 C 861.746094 29.96875 861.75 29.96875 861.753906 29.964844 C 861.757812 29.960938 861.757812 29.957031 861.757812 29.953125 C 862.6875 29.578125 863.632812 29.214844 864.578125 28.886719 C 879.679688 23.792969 896.832031 26.664062 908.636719 36.261719 C 920.269531 45.847656 925.503906 61.675781 921.816406 76.035156 Z M 921.816406 76.035156 "/>
<path style=" stroke:none;fill-rule:nonzero;fill:rgb(99.215686%,39.607843%,51.764706%);fill-opacity:1;" d="M 920.777344 75.875 C 920.777344 75.875 909.492188 39.507812 861.105469 31.113281 C 861.050781 31.097656 860.867188 31.035156 860.632812 30.941406 C 860.488281 30.863281 860.304688 30.785156 860.125 30.707031 C 860.667969 30.441406 861.195312 30.203125 861.742188 29.96875 C 861.746094 29.96875 861.75 29.96875 861.753906 29.964844 C 861.757812 29.960938 861.757812 29.957031 861.757812 29.953125 C 862.230469 29.578125 862.703125 29.199219 863.195312 28.839844 L 864.578125 28.886719 C 864.578125 28.886719 913.125 22.25 920.777344 75.875 Z M 920.777344 75.875 "/>
<path style=" stroke:none;fill-rule:nonzero;fill:rgb(18.431373%,18.039216%,25.490196%);fill-opacity:1;" d="M 939.394531 305.128906 C 937.566406 306.476562 935.019531 306.832031 932.796875 306.050781 C 930.621094 305.257812 928.695312 304.039062 927.15625 302.492188 C 920.890625 296.816406 916.410156 289.851562 914.148438 282.257812 L 916.242188 279.046875 C 914.550781 270.890625 919.667969 262.820312 928.539062 259.65625 C 930.988281 258.757812 933.703125 258.554688 936.292969 259.074219 C 938.914062 259.636719 940.964844 261.390625 941.640625 263.644531 C 942.445312 267.078125 939.132812 270.179688 935.777344 272.148438 C 929.929688 275.574219 923.171875 277.660156 916.136719 278.214844 C 924.742188 282.402344 932.183594 288.164062 937.933594 295.101562 C 939.261719 296.546875 940.242188 298.207031 940.816406 299.988281 C 941.378906 301.800781 940.84375 303.734375 939.394531 305.128906 Z M 939.394531 305.128906 "/>
<path style=" stroke:none;fill-rule:nonzero;fill:rgb(80%,80%,80%);fill-opacity:1;" d="M 457.746094 725.089844 L 1097.238281 725.089844 C 1098.371094 725.089844 1099.289062 724.300781 1099.289062 723.324219 C 1099.289062 722.347656 1098.371094 721.554688 1097.238281 721.554688 L 457.746094 721.554688 C 456.617188 721.554688 455.699219 722.347656 455.699219 723.324219 C 455.699219 724.300781 456.617188 725.089844 457.746094 725.089844 Z M 457.746094 725.089844 "/>
<path style=" stroke:none;fill-rule:nonzero;fill:rgb(100%,100%,100%);fill-opacity:1;" d="M 627.582031 270.503906 L 627.582031 271.429688 C 625.28125 269.097656 622.929688 266.789062 620.601562 264.480469 C 619.625 263.515625 618.648438 262.550781 617.671875 261.585938 C 613.527344 257.53125 609.363281 253.488281 605.175781 249.457031 C 600.964844 245.441406 596.753906 241.421875 592.496094 237.425781 C 591.46875 236.460938 590.445312 235.5 589.398438 234.535156 C 588.5625 233.722656 587.652344 232.972656 586.675781 232.285156 C 585.695312 231.578125 584.566406 231.039062 583.351562 230.699219 C 581.953125 230.363281 580.476562 230.347656 579.070312 230.65625 C 577.464844 230.980469 575.925781 231.480469 574.367188 231.902344 C 572.761719 232.363281 571.179688 232.808594 569.574219 233.25 C 566.363281 234.152344 563.175781 235.054688 559.964844 235.960938 C 559.804688 236.015625 559.617188 235.949219 559.550781 235.808594 L 559.546875 235.800781 C 559.507812 235.722656 559.515625 235.636719 559.558594 235.5625 C 559.605469 235.488281 559.683594 235.433594 559.78125 235.417969 C 560.570312 235.195312 561.386719 234.976562 562.199219 234.753906 C 565.433594 233.832031 568.644531 232.925781 571.878906 232.023438 C 573.484375 231.5625 575.089844 231.121094 576.695312 230.679688 C 578.183594 230.191406 579.757812 229.917969 581.347656 229.875 C 583.949219 230.035156 586.386719 231.023438 588.191406 232.644531 C 589.191406 233.449219 590.097656 234.292969 591.003906 235.15625 C 592.074219 236.160156 593.144531 237.164062 594.214844 238.167969 C 598.519531 242.226562 602.792969 246.296875 607.035156 250.378906 C 611.296875 254.476562 615.515625 258.582031 619.695312 262.691406 C 619.996094 262.992188 620.300781 263.292969 620.601562 263.597656 C 622.953125 265.886719 625.257812 268.195312 627.582031 270.503906 Z M 627.582031 270.503906 "/>
<path style=" stroke:none;fill-rule:nonzero;fill:rgb(100%,100%,100%);fill-opacity:1;" d="M 586.316406 235.984375 C 585.4375 235.007812 584.265625 234.257812 582.929688 233.8125 L 581.605469 233.851562 C 591.988281 247.800781 605.59375 259.75 621.570312 268.957031 C 609.820312 257.964844 598.066406 246.976562 586.316406 235.984375 Z M 586.316406 235.984375 "/>
<path style=" stroke:none;fill-rule:nonzero;fill:rgb(80%,80%,80%);fill-opacity:1;" d="M 803.042969 380.945312 L 750.332031 137.324219 C 748.476562 129.050781 740.234375 122.992188 730.476562 122.722656 C 730.050781 122.714844 729.625 122.714844 729.199219 122.722656 L 693.289062 123.832031 L 689.425781 123.957031 L 671.503906 124.511719 L 667.640625 124.625 L 656.113281 124.984375 L 423.667969 132.1875 C 423.316406 132.207031 422.957031 132.207031 422.605469 132.195312 L 370.519531 131.257812 L 351.242188 130.914062 L 350.628906 130.90625 L 336.402344 130.644531 L 212.429688 128.417969 L 179.5625 127.824219 L 163.355469 127.535156 L 159.472656 127.464844 L 140.992188 127.136719 L 137.117188 127.0625 L 118.210938 126.726562 L 114.335938 126.652344 L 93.566406 126.277344 L 90.304688 126.21875 L 71.777344 125.886719 L 68.851562 125.835938 L 68.425781 125.835938 C 58.269531 125.871094 49.621094 132.21875 47.945312 140.863281 L 0.273438 393.664062 C -0.707031 398.847656 1 404.140625 4.941406 408.144531 C 8.882812 412.144531 14.660156 414.449219 20.742188 414.449219 L 294.523438 414.449219 C 298.554688 414.457031 302.476562 415.574219 305.722656 417.636719 L 310.910156 420.957031 C 314.488281 423.230469 318.8125 424.460938 323.253906 424.472656 C 376.132812 412.425781 431.722656 412.425781 484.601562 424.472656 C 490.109375 424.484375 495.390625 422.59375 499.273438 419.222656 C 502.558594 416.386719 506.945312 414.703125 511.585938 414.492188 L 783.738281 402.113281 C 789.710938 401.84375 795.257812 399.363281 798.953125 395.308594 C 802.652344 391.253906 804.144531 386.015625 803.042969 380.945312 Z M 803.042969 380.945312 "/>
<path style=" stroke:none;fill-rule:nonzero;fill:rgb(94.901961%,94.901961%,94.901961%);fill-opacity:1;" d="M 728.460938 342.953125 C 727.734375 360.144531 711.007812 373.574219 691.089844 372.957031 C 675.285156 372.476562 656.429688 372.234375 635.960938 372.605469 C 569.117188 373.835938 485.136719 381.777344 434.625 410.335938 C 428.273438 413.933594 420.773438 415.710938 413.1875 415.410156 C 412.628906 415.382812 412.085938 415.355469 411.527344 415.3125 C 403.660156 414.691406 396.25 411.855469 390.433594 407.246094 C 362.605469 385.265625 298.785156 358.652344 152.695312 356.777344 C 152.085938 356.777344 151.496094 356.75 150.90625 356.722656 C 131.003906 355.640625 115.890625 340.832031 117.164062 323.65625 L 131.519531 126.96875 L 133.671875 97.488281 L 137.449219 45.917969 C 138.242188 35.140625 148.59375 26.742188 161.105469 26.734375 L 161.253906 26.734375 L 248.285156 27.171875 C 284.953125 28.605469 315.320312 32.636719 339.394531 39.265625 C 347.617188 41.46875 355.617188 44.246094 363.3125 47.578125 C 373.824219 51.976562 383.269531 58.0625 391.140625 65.515625 C 396.042969 70.273438 402.730469 73.390625 410.03125 74.320312 C 411.164062 74.464844 412.304688 74.554688 413.449219 74.589844 C 420.179688 74.828125 426.824219 73.1875 432.390625 69.910156 C 489.246094 37.027344 605.109375 34.53125 669.09375 35.949219 C 687.632812 36.324219 702.816406 48.785156 704.183594 64.75 L 706.777344 94.085938 L 709.355469 123.339844 L 724.242188 292.402344 L 728.378906 339.4375 C 728.480469 340.605469 728.507812 341.78125 728.460938 342.953125 Z M 728.460938 342.953125 "/>
<path style=" stroke:none;fill-rule:nonzero;fill:rgb(24.705882%,23.921569%,33.72549%);fill-opacity:1;" d="M 174.347656 95.945312 C 226.796875 81.5 285.308594 85.324219 334.996094 105.671875 C 349.171875 111.449219 362.5625 118.566406 374.917969 126.894531 C 378.414062 129.261719 383.386719 125.027344 379.851562 122.636719 C 334.214844 92.082031 276.875 77.566406 219.347656 82.007812 C 203.433594 83.238281 187.722656 85.960938 172.492188 90.132812 C 168.226562 91.308594 170.050781 97.125 174.347656 95.945312 Z M 174.347656 95.945312 "/>
<path style=" stroke:none;fill-rule:nonzero;fill:rgb(24.705882%,23.921569%,33.72549%);fill-opacity:1;" d="M 462.953125 129.234375 C 511.714844 107.109375 570.109375 102.285156 623.125 114.84375 C 638.242188 118.414062 652.847656 123.429688 666.679688 129.789062 C 670.640625 131.617188 674.171875 126.414062 670.203125 124.585938 C 619.671875 101.3125 559.015625 95.957031 503.832031 108.929688 C 488.441406 112.554688 473.550781 117.621094 459.429688 124.03125 C 455.449219 125.835938 458.976562 131.039062 462.953125 129.234375 Z M 462.953125 129.234375 "/>
<path style=" stroke:none;fill-rule:nonzero;fill:rgb(24.705882%,23.921569%,33.72549%);fill-opacity:1;" d="M 462.953125 169.402344 C 511.714844 147.277344 570.109375 142.453125 623.125 155.011719 C 638.242188 158.582031 652.847656 163.597656 666.679688 169.960938 C 670.640625 171.785156 674.171875 166.585938 670.203125 164.757812 C 619.671875 141.484375 559.015625 136.125 503.832031 149.097656 C 488.441406 152.722656 473.550781 157.789062 459.429688 164.199219 C 455.449219 166.003906 458.976562 171.207031 462.953125 169.402344 Z M 462.953125 169.402344 "/>
<path style=" stroke:none;fill-rule:nonzero;fill:rgb(24.705882%,23.921569%,33.72549%);fill-opacity:1;" d="M 671.910156 207.414062 C 671.984375 206.355469 671.304688 205.367188 670.191406 204.917969 C 629.710938 186.621094 583.8125 179.199219 538.40625 183.609375 C 538.121094 183.628906 537.859375 183.667969 537.550781 183.6875 L 537.539062 183.6875 C 537.261719 183.710938 536.980469 183.746094 536.707031 183.796875 C 509.699219 186.480469 483.5 193.449219 459.429688 204.355469 C 458.363281 204.90625 457.707031 205.898438 457.710938 206.972656 L 457.710938 281.90625 C 457.726562 282.839844 458.242188 283.714844 459.105469 284.28125 C 459.96875 284.84375 461.082031 285.035156 462.128906 284.796875 C 463.199219 284.53125 464.269531 284.277344 465.363281 284.03125 C 489.699219 278.34375 514.679688 274.972656 539.863281 273.972656 C 540.398438 273.953125 540.933594 273.933594 541.492188 273.914062 C 562.003906 273.152344 582.550781 273.789062 602.949219 275.820312 C 603.375 275.839844 603.800781 275.878906 604.222656 275.9375 C 605.269531 276.035156 606.34375 276.144531 607.390625 276.261719 C 607.8125 276.300781 608.210938 276.339844 608.597656 276.398438 C 612.675781 276.84375 616.71875 277.34375 620.773438 277.886719 C 626.628906 278.691406 632.484375 279.589844 638.339844 280.578125 C 638.703125 280.636719 639.082031 280.714844 639.457031 280.777344 C 648.855469 282.386719 658.207031 284.257812 667.511719 286.320312 C 668.5625 286.554688 669.679688 286.359375 670.542969 285.792969 C 671.402344 285.222656 671.917969 284.347656 671.933594 283.410156 L 671.933594 207.53125 C 671.9375 207.492188 671.929688 207.453125 671.910156 207.414062 Z M 671.910156 207.414062 "/>
<path style=" stroke:none;fill-rule:nonzero;fill:rgb(100%,39.607843%,50.980392%);fill-opacity:1;" d="M 543.878906 187.695312 C 541.320312 186.617188 538.390625 186.394531 535.652344 187.074219 C 533.210938 187.863281 531.238281 189.464844 530.175781 191.519531 C 529.226562 193.472656 528.617188 195.53125 528.371094 197.636719 C 528.226562 198.464844 528.21875 199.511719 529.183594 199.898438 C 529.894531 200.121094 530.691406 199.984375 531.253906 199.542969 C 531.75 199.117188 532.160156 198.625 532.464844 198.082031 C 535.871094 193.511719 541.738281 190.757812 548.03125 190.777344 L 550.605469 191.664062 C 548.578125 190.089844 546.316406 188.753906 543.878906 187.695312 Z M 543.878906 187.695312 "/>
<path style=" stroke:none;fill-rule:nonzero;fill:rgb(100%,100%,100%);fill-opacity:1;" d="M 571.769531 204.96875 C 569.769531 202.425781 567.398438 199.714844 563.6875 198.882812 C 559.390625 197.921875 554.976562 199.832031 551.230469 201.714844 C 540.09375 207.3125 529.308594 213.417969 518.921875 220.003906 L 518.933594 220.101562 L 543.042969 218.824219 C 548.847656 218.515625 554.855469 218.167969 559.984375 216.058594 C 561.828125 215.058594 563.886719 214.398438 566.035156 214.113281 C 568.730469 214.238281 571.253906 215.289062 573.046875 217.027344 C 584.15625 226.117188 587.371094 240.019531 599.835938 248.003906 C 591.902344 233 582.515625 218.605469 571.769531 204.96875 Z M 571.769531 204.96875 "/>
<path style=" stroke:none;fill-rule:nonzero;fill:rgb(100%,100%,100%);fill-opacity:1;" d="M 541.496094 273.910156 C 540.9375 273.929688 540.402344 273.953125 539.867188 273.972656 C 535.980469 272.765625 532.003906 271.703125 527.976562 270.777344 C 525.371094 270.175781 522.71875 269.632812 520.066406 269.171875 C 517.066406 268.609375 514.039062 268.167969 511.015625 267.785156 C 505.257812 267.0625 499.453125 266.640625 493.632812 266.519531 C 493.511719 266.53125 493.394531 266.484375 493.332031 266.394531 C 493.269531 266.304688 493.269531 266.191406 493.332031 266.105469 C 493.394531 266.015625 493.511719 265.964844 493.632812 265.976562 C 494.378906 265.976562 495.121094 266 495.84375 266.039062 C 501.675781 266.222656 507.488281 266.714844 513.25 267.503906 C 516.25 267.925781 519.253906 268.429688 522.230469 268.992188 C 524.929688 269.511719 527.628906 270.09375 530.28125 270.738281 C 534.074219 271.660156 537.8125 272.71875 541.496094 273.910156 Z M 541.496094 273.910156 "/>
<path style=" stroke:none;fill-rule:nonzero;fill:rgb(100%,100%,100%);fill-opacity:1;" d="M 608.601562 276.402344 C 608.207031 276.339844 607.808594 276.300781 607.390625 276.261719 C 605.785156 275.117188 604.15625 274.03125 602.457031 272.96875 C 600.339844 271.640625 598.152344 270.398438 595.921875 269.230469 C 590.972656 266.640625 585.808594 264.371094 580.46875 262.441406 C 572.03125 259.410156 563.292969 257.03125 554.363281 255.332031 C 544.179688 253.40625 533.867188 252.011719 523.488281 251.15625 C 513.109375 250.230469 502.683594 249.667969 492.261719 249.105469 C 491.820312 249.085938 491.796875 248.523438 492.261719 248.542969 C 493.5625 248.625 494.867188 248.683594 496.191406 248.765625 C 506.734375 249.328125 517.273438 249.972656 527.746094 250.996094 C 538.125 251.957031 548.425781 253.5 558.574219 255.613281 C 567.238281 257.457031 575.695312 259.964844 583.84375 263.105469 C 588.53125 264.921875 593.070312 267.011719 597.433594 269.351562 C 600.203125 270.859375 602.878906 272.464844 605.4375 274.171875 C 606.507812 274.894531 607.578125 275.617188 608.601562 276.402344 Z M 608.601562 276.402344 "/>
<path style=" stroke:none;fill-rule:nonzero;fill:rgb(100%,100%,100%);fill-opacity:1;" d="M 604.226562 275.941406 C 603.804688 275.878906 603.375 275.839844 602.949219 275.820312 C 602.457031 275.476562 601.945312 275.15625 601.433594 274.835938 C 597.851562 272.621094 594.113281 270.601562 590.242188 268.789062 C 586.726562 267.140625 583.113281 265.644531 579.421875 264.3125 C 570.984375 261.269531 562.25 258.886719 553.316406 257.203125 C 543.128906 255.273438 532.820312 253.878906 522.441406 253.023438 C 512.0625 252.101562 501.636719 251.539062 491.214844 250.976562 C 490.773438 250.933594 490.773438 250.390625 491.214844 250.414062 C 492.539062 250.492188 493.84375 250.554688 495.144531 250.632812 C 505.6875 251.195312 516.226562 251.839844 526.699219 252.863281 C 537.078125 253.824219 547.378906 255.367188 557.527344 257.480469 C 566.195312 259.320312 574.652344 261.828125 582.796875 264.972656 C 585.867188 266.179688 588.871094 267.484375 591.800781 268.910156 C 596.148438 270.96875 600.304688 273.320312 604.226562 275.941406 Z M 604.226562 275.941406 "/>
<path style=" stroke:none;fill-rule:nonzero;fill:rgb(100%,100%,100%);fill-opacity:1;" d="M 639.453125 280.78125 C 639.082031 280.71875 638.710938 280.640625 638.339844 280.578125 C 637.917969 280.199219 637.523438 279.796875 637.128906 279.394531 C 635.128906 277.40625 633.148438 275.398438 631.195312 273.367188 C 623.492188 265.457031 616.1875 257.300781 609.300781 248.988281 C 603.390625 241.875 597.78125 234.625 592.476562 227.234375 C 589.941406 223.742188 587.496094 220.207031 585.101562 216.628906 C 583.238281 213.859375 581.425781 211.082031 579.65625 208.296875 C 579.144531 207.492188 578.65625 206.6875 578.167969 205.886719 C 577.027344 203.996094 575.886719 202.089844 574.675781 200.222656 C 573.363281 197.933594 571.429688 195.949219 569.046875 194.4375 C 567.855469 193.75 566.472656 193.339844 565.042969 193.253906 C 563.027344 193.257812 561.042969 193.699219 559.273438 194.539062 C 546.253906 199.769531 533.976562 206.273438 522.671875 213.917969 C 511.632812 221.332031 501.652344 229.84375 492.9375 239.285156 C 492.65625 239.566406 492.050781 239.304688 492.308594 239.003906 C 493.355469 237.878906 494.425781 236.753906 495.496094 235.652344 C 503.871094 227.097656 513.304688 219.359375 523.625 212.574219 C 523.648438 212.554688 523.695312 212.535156 523.71875 212.515625 C 524.625 211.890625 525.535156 211.289062 526.464844 210.707031 C 532.226562 207.042969 538.226562 203.664062 544.429688 200.582031 C 547.59375 198.996094 550.828125 197.492188 554.128906 196.066406 C 554.945312 195.703125 555.78125 195.339844 556.621094 195 C 557.457031 194.640625 558.296875 194.296875 559.132812 193.957031 C 560.792969 193.226562 562.605469 192.796875 564.460938 192.691406 C 570.929688 192.609375 574.257812 198.234375 576.5625 202.03125 C 577.28125 203.214844 578.027344 204.398438 578.75 205.585938 C 581.539062 210.0625 584.449219 214.523438 587.472656 218.921875 C 589.3125 221.652344 591.21875 224.363281 593.152344 227.054688 C 595.921875 230.890625 598.757812 234.6875 601.714844 238.460938 C 601.714844 238.472656 601.722656 238.484375 601.738281 238.484375 C 605.15625 242.941406 608.71875 247.320312 612.394531 251.679688 C 618.699219 259.128906 625.308594 266.414062 632.21875 273.53125 C 634.59375 275.980469 637.003906 278.398438 639.453125 280.78125 Z M 639.453125 280.78125 "/>
<path style=" stroke:none;fill-rule:nonzero;fill:rgb(100%,39.607843%,50.980392%);fill-opacity:1;" d="M 556.441406 192.078125 L 555.796875 192.320312 C 552.804688 187.957031 547.480469 185.175781 541.609375 184.90625 C 532.085938 184.324219 523.714844 189.804688 522.957031 197.121094 C 522.648438 200.136719 523.65625 203.140625 525.789062 205.542969 L 525.191406 205.847656 C 522.972656 203.34375 521.917969 200.214844 522.242188 197.078125 C 523.03125 189.457031 531.746094 183.75 541.667969 184.359375 C 547.777344 184.636719 553.324219 187.535156 556.441406 192.078125 Z M 556.441406 192.078125 "/>
<path style=" stroke:none;fill-rule:nonzero;fill:rgb(100%,100%,100%);fill-opacity:1;" d="M 509.371094 206.886719 C 504.296875 204.980469 498.472656 205.300781 493.722656 207.746094 C 502.273438 208.878906 510.75 210.398438 519.113281 212.296875 C 515.648438 210.738281 512.941406 208.296875 509.371094 206.886719 Z M 509.371094 206.886719 "/>
<path style=" stroke:none;fill-rule:nonzero;fill:rgb(100%,100%,100%);fill-opacity:1;" d="M 493.675781 207.738281 L 492.734375 208.328125 C 493.050781 208.121094 493.382812 207.929688 493.722656 207.746094 Z M 493.675781 207.738281 "/>
<path style=" stroke:none;fill-rule:nonzero;fill:rgb(100%,100%,100%);fill-opacity:1;" d="M 522.027344 211.148438 C 521.652344 210.828125 521.28125 210.507812 520.902344 210.183594 C 518.003906 207.464844 514.515625 205.261719 510.636719 203.699219 C 508.660156 202.984375 506.542969 202.605469 504.398438 202.589844 C 502.183594 202.632812 499.992188 203 497.917969 203.675781 C 496.945312 203.976562 495.988281 204.316406 495.050781 204.675781 C 493.976562 205.089844 492.921875 205.535156 491.875 205.980469 C 489.902344 206.816406 487.960938 207.691406 486.039062 208.601562 C 482.222656 210.414062 478.523438 212.367188 474.945312 214.457031 C 473.089844 215.539062 471.273438 216.660156 469.496094 217.8125 C 467.84375 218.886719 466.222656 219.988281 464.632812 221.117188 C 464.292969 221.359375 463.789062 220.96875 464.125 220.730469 C 464.546875 220.429688 464.96875 220.132812 465.390625 219.839844 C 466.585938 219.007812 467.800781 218.195312 469.035156 217.394531 C 471.285156 215.9375 473.589844 214.535156 475.957031 213.1875 C 479.636719 211.09375 483.441406 209.144531 487.375 207.335938 C 489.339844 206.429688 491.332031 205.566406 493.351562 204.738281 C 493.960938 204.488281 494.578125 204.242188 495.203125 204.011719 C 496.625 203.460938 498.097656 203 499.601562 202.636719 C 501.757812 202.101562 504.011719 201.933594 506.242188 202.132812 C 508.378906 202.371094 510.453125 202.921875 512.371094 203.761719 C 516.175781 205.605469 519.609375 207.964844 522.535156 210.757812 C 522.839844 211.023438 522.335938 211.414062 522.027344 211.148438 Z M 522.027344 211.148438 "/>
<path style=" stroke:none;fill-rule:nonzero;fill:rgb(24.705882%,23.921569%,33.72549%);fill-opacity:1;" d="M 174.347656 136.113281 C 226.796875 121.667969 285.308594 125.492188 334.996094 145.839844 C 349.171875 151.617188 362.5625 158.734375 374.917969 167.0625 C 378.414062 169.433594 383.386719 165.195312 379.851562 162.804688 C 334.214844 132.25 276.875 117.734375 219.347656 122.175781 C 203.433594 123.40625 187.722656 126.128906 172.492188 130.300781 C 168.226562 131.476562 170.050781 137.296875 174.347656 136.113281 Z M 174.347656 136.113281 "/>
<path style=" stroke:none;fill-rule:nonzero;fill:rgb(24.705882%,23.921569%,33.72549%);fill-opacity:1;" d="M 174.347656 176.28125 C 226.796875 161.835938 285.308594 165.660156 334.996094 186.007812 C 349.171875 191.785156 362.5625 198.902344 374.917969 207.234375 C 378.414062 209.601562 383.386719 205.367188 379.851562 202.972656 C 334.214844 172.417969 276.875 157.902344 219.347656 162.34375 C 203.433594 163.574219 187.722656 166.296875 172.492188 170.46875 C 168.226562 171.644531 170.050781 177.464844 174.347656 176.28125 Z M 174.347656 176.28125 "/>
<path style=" stroke:none;fill-rule:nonzero;fill:rgb(24.705882%,23.921569%,33.72549%);fill-opacity:1;" d="M 174.347656 216.449219 C 226.796875 202.003906 285.308594 205.828125 334.996094 226.175781 C 349.171875 231.953125 362.5625 239.070312 374.917969 247.402344 C 378.414062 249.769531 383.386719 245.535156 379.851562 243.140625 C 334.214844 212.585938 276.875 198.074219 219.347656 202.511719 C 203.433594 203.742188 187.722656 206.46875 172.492188 210.640625 C 168.226562 211.8125 170.050781 217.632812 174.347656 216.449219 Z M 174.347656 216.449219 "/>
<path style=" stroke:none;fill-rule:nonzero;fill:rgb(24.705882%,23.921569%,33.72549%);fill-opacity:1;" d="M 174.347656 256.617188 C 226.796875 242.175781 285.308594 245.996094 334.996094 266.347656 C 349.171875 272.121094 362.5625 279.238281 374.917969 287.570312 C 378.414062 289.9375 383.386719 285.703125 379.851562 283.308594 C 334.214844 252.753906 276.875 238.242188 219.347656 242.683594 C 203.433594 243.910156 187.722656 246.636719 172.492188 250.808594 C 168.226562 251.980469 170.050781 257.800781 174.347656 256.617188 Z M 174.347656 256.617188 "/>
<path style=" stroke:none;fill-rule:nonzero;fill:rgb(24.705882%,23.921569%,33.72549%);fill-opacity:1;" d="M 174.347656 296.785156 C 226.796875 282.34375 285.308594 286.167969 334.996094 306.515625 C 349.171875 312.289062 362.5625 319.410156 374.917969 327.738281 C 378.414062 330.105469 383.386719 325.871094 379.851562 323.476562 C 334.214844 292.925781 276.875 278.410156 219.347656 282.851562 C 203.433594 284.078125 187.722656 286.804688 172.492188 290.976562 C 168.226562 292.148438 170.050781 297.96875 174.347656 296.785156 Z M 174.347656 296.785156 "/>
<path style=" stroke:none;fill-rule:nonzero;fill:rgb(29.411765%,50.196078%,52.156863%);fill-opacity:1;" d="M 363.3125 47.578125 L 363.3125 143.898438 C 363.3125 145.8125 359.433594 147.414062 354.210938 147.855469 C 354.167969 147.851562 354.121094 147.859375 354.078125 147.871094 C 353.210938 147.925781 352.289062 147.96875 351.351562 147.96875 C 348.472656 148.015625 345.605469 147.609375 342.894531 146.777344 C 342.644531 146.691406 342.398438 146.59375 342.152344 146.507812 C 341.921875 146.394531 341.675781 146.296875 341.445312 146.183594 C 340.148438 145.515625 339.394531 144.734375 339.394531 143.898438 L 339.394531 39.265625 C 347.617188 41.46875 355.617188 44.246094 363.3125 47.578125 Z M 363.3125 47.578125 "/>
<path style=" stroke:none;fill-rule:nonzero;fill:rgb(90.196078%,90.196078%,90.196078%);fill-opacity:1;" d="M 410.027344 69.917969 L 413.445312 69.917969 L 413.445312 413.398438 L 410.027344 413.398438 Z M 410.027344 69.917969 "/>
<path style=" stroke:none;fill-rule:nonzero;fill:rgb(100%,71.372549%,71.372549%);fill-opacity:1;" d="M 785.070312 305.054688 C 789.976562 304.667969 794.433594 302.425781 797.238281 298.929688 C 800.042969 295.433594 800.910156 291.046875 799.605469 286.945312 L 870.539062 258.367188 L 913.238281 198.742188 L 879.675781 187.042969 L 850.867188 235.089844 L 777.953125 277.03125 C 769.941406 279.429688 765.277344 286.621094 767.09375 293.769531 C 768.90625 300.921875 776.632812 305.769531 785.070312 305.054688 Z M 785.070312 305.054688 "/>
<path style=" stroke:none;fill-rule:nonzero;fill:rgb(29.411765%,50.196078%,52.156863%);fill-opacity:1;" d="M 939.582031 141.621094 C 939.582031 141.621094 947.941406 143.976562 938.765625 157.972656 C 931.421875 169.179688 895.640625 233.71875 881.035156 246.390625 C 884.195312 250.761719 883.527344 256.425781 879.40625 260.15625 L 845.691406 237.0625 C 845.046875 228.664062 851.484375 227.832031 855.300781 228.113281 L 863.058594 204.386719 L 890.109375 145.855469 L 933.574219 139.828125 Z M 939.582031 141.621094 "/>
<path style=" stroke:none;fill-rule:nonzero;fill:rgb(18.431373%,18.039216%,25.490196%);fill-opacity:1;" d="M 940.308594 31.914062 C 941.902344 26.351562 953.46875 22.246094 933.660156 14.480469 C 928.851562 12.59375 929.050781 6.101562 924.984375 3.195312 C 920.917969 0.289062 914.960938 -1.058594 910.234375 0.972656 C 906.015625 2.789062 903.636719 6.894531 903.128906 10.941406 C 902.886719 15.011719 903.429688 19.089844 904.742188 23.011719 L 904.355469 23.492188 C 912.203125 28.675781 920.050781 33.859375 927.898438 39.042969 C 930.78125 40.945312 934.550781 42.941406 937.78125 41.511719 C 941.441406 39.894531 939.324219 35.359375 940.308594 31.914062 Z M 940.308594 31.914062 "/>
</g>
</svg>
