<?xml version="1.0" encoding="UTF-8"?>
<svg xmlns="http://www.w3.org/2000/svg" xmlns:xlink="http://www.w3.org/1999/xlink" width="1099px" height="726px" viewBox="0 0 1099 726" version="1.1">
<defs>
<filter id="alpha" filterUnits="objectBoundingBox" x="0%" y="0%" width="100%" height="100%">
  <feColorMatrix type="matrix" in="SourceGraphic" values="0 0 0 0 1 0 0 0 0 1 0 0 0 0 1 0 0 0 1 0"/>
</filter>
<mask id="mask0">
  <g filter="url(#alpha)">
<rect x="0" y="0" width="1099" height="726" style="fill:rgb(0%,0%,0%);fill-opacity:0.0509804;stroke:none;"/>
  </g>
</mask>
<clipPath id="clip1">
  <rect x="0" y="0" width="1099" height="726"/>
</clipPath>
<g id="surface5" clip-path="url(#clip1)">
<path style=" stroke:none;fill-rule:nonzero;fill:rgb(0%,0%,0%);fill-opacity:1;" d="M 656.25 220.578125 C 657.171875 222.632812 658.28125 224.835938 657.558594 226.960938 C 656.21875 231.171875 649.367188 232.027344 646.375 235.589844 C 645.847656 236.082031 645.671875 236.78125 645.917969 237.414062 C 646.0625 237.621094 646.25 237.804688 646.46875 237.957031 C 652.050781 242.082031 660.121094 242.4375 667.523438 242.367188 C 678.308594 242.28125 689.828125 241.503906 698.378906 235.953125 C 700.765625 234.402344 703.015625 231.8125 701.792969 229.472656 C 700.847656 227.683594 698.359375 227.011719 696.292969 226.128906 C 691.667969 224.152344 688.355469 220.390625 686.523438 216.273438 C 684.695312 212.152344 684.226562 207.707031 684.144531 203.324219 C 684.226562 202.574219 684.035156 201.820312 683.597656 201.164062 C 682.882812 200.300781 681.5625 200.171875 680.3125 200.101562 C 673.34375 199.707031 666.347656 199.945312 659.441406 200.8125 C 657.488281 201.054688 653.769531 201.277344 652.394531 202.632812 C 651.023438 203.988281 651.816406 205.59375 652.082031 207.070312 C 652.90625 211.683594 654.300781 216.214844 656.25 220.578125 Z M 656.25 220.578125 "/>
</g>
<mask id="mask1">
  <g filter="url(#alpha)">
<rect x="0" y="0" width="1099" height="726" style="fill:rgb(0%,0%,0%);fill-opacity:0.101961;stroke:none;"/>
  </g>
</mask>
<clipPath id="clip2">
  <rect x="0" y="0" width="1099" height="726"/>
</clipPath>
<g id="surface8" clip-path="url(#clip2)">
<path style=" stroke:none;fill-rule:nonzero;fill:rgb(0%,0%,0%);fill-opacity:1;" d="M 694.199219 646.582031 C 692.140625 647.347656 690.167969 648.277344 688.3125 649.359375 C 692.972656 651.859375 698.785156 652.246094 703.847656 650.394531 C 705.820312 649.609375 707.589844 648.496094 709.480469 647.589844 C 704.273438 646.210938 699.160156 645.007812 694.199219 646.582031 Z M 694.199219 646.582031 "/>
</g>
<mask id="mask2">
  <g filter="url(#alpha)">
<rect x="0" y="0" width="1099" height="726" style="fill:rgb(0%,0%,0%);fill-opacity:0.101961;stroke:none;"/>
  </g>
</mask>
<clipPath id="clip3">
  <rect x="0" y="0" width="1099" height="726"/>
</clipPath>
<g id="surface11" clip-path="url(#clip3)">
<path style=" stroke:none;fill-rule:nonzero;fill:rgb(0%,0%,0%);fill-opacity:1;" d="M 577.550781 642.359375 C 573.148438 644.273438 568.949219 646.613281 564.402344 648.210938 C 568.53125 650.300781 574.050781 650.394531 578.800781 649.230469 C 584.695312 647.773438 589.839844 644.734375 595.300781 642.324219 C 607.214844 637.144531 620.351562 635.117188 633.789062 634.554688 C 614.3125 634.003906 594.679688 634.882812 577.550781 642.359375 Z M 577.550781 642.359375 "/>
</g>
<mask id="mask3">
  <g filter="url(#alpha)">
<rect x="0" y="0" width="1099" height="726" style="fill:rgb(0%,0%,0%);fill-opacity:0.101961;stroke:none;"/>
  </g>
</mask>
<clipPath id="clip4">
  <rect x="0" y="0" width="1099" height="726"/>
</clipPath>
<g id="surface14" clip-path="url(#clip4)">
<path style=" stroke:none;fill-rule:nonzero;fill:rgb(0%,0%,0%);fill-opacity:1;" d="M 825.703125 582.164062 C 814.226562 575.257812 811.136719 561.445312 804.121094 551.085938 C 799.496094 544.230469 794.816406 537.273438 792.5625 529.617188 C 790.933594 524.09375 790.609375 518.34375 789.003906 512.808594 C 786.785156 505.179688 782.203125 498.230469 778.5625 491.003906 C 764.125 462.378906 764.601562 429.710938 751.386719 400.664062 C 747.65625 392.480469 742.867188 384.652344 739.5625 376.335938 C 735.222656 365.390625 733.464844 353.789062 729.121094 342.859375 C 724.78125 331.929688 716.921875 321.199219 704.46875 316.496094 C 699.152344 314.476562 693.285156 313.691406 687.46875 313.363281 C 682.5625 313.085938 677.640625 313.160156 672.75 313.578125 C 677.570312 313.921875 682.292969 314.910156 686.746094 316.511719 C 699.171875 321.21875 707.011719 331.949219 711.402344 342.878906 C 715.792969 353.804688 717.5 365.410156 721.84375 376.355469 C 725.148438 384.667969 729.976562 392.496094 733.65625 400.679688 C 746.871094 429.730469 746.394531 462.394531 760.832031 491.019531 C 764.480469 498.246094 769.066406 505.195312 771.28125 512.828125 C 772.890625 518.359375 773.214844 524.109375 774.839844 529.632812 C 777.097656 537.292969 781.773438 544.25 786.398438 551.105469 C 793.40625 561.464844 796.503906 575.222656 807.984375 582.179688 C 823.589844 591.621094 837.242188 603.1875 848.394531 616.417969 L 806.710938 636.410156 C 803.226562 638.183594 799.570312 639.703125 795.785156 640.953125 C 798.734375 641.804688 801.820312 642.273438 804.933594 642.339844 C 811.9375 642.339844 818.402344 639.335938 824.503906 636.410156 L 866.1875 616.417969 C 855.019531 603.175781 841.335938 591.601562 825.703125 582.164062 Z M 825.703125 582.164062 "/>
</g>
<mask id="mask4">
  <g filter="url(#alpha)">
<rect x="0" y="0" width="1099" height="726" style="fill:rgb(0%,0%,0%);fill-opacity:0.101961;stroke:none;"/>
  </g>
</mask>
<clipPath id="clip5">
  <rect x="0" y="0" width="1099" height="726"/>
</clipPath>
<g id="surface17" clip-path="url(#clip5)">
<path style=" stroke:none;fill-rule:nonzero;fill:rgb(0%,0%,0%);fill-opacity:1;" d="M 759.816406 637.207031 C 749.070312 637.535156 740.398438 645.191406 730.535156 648.425781 C 733.523438 649.285156 736.644531 649.777344 739.796875 649.886719 C 750.835938 649.886719 759.683594 641.953125 769.859375 638.613281 C 766.628906 637.660156 763.234375 637.183594 759.816406 637.207031 Z M 759.816406 637.207031 "/>
</g>
<mask id="mask5">
  <g filter="url(#alpha)">
<rect x="0" y="0" width="1099" height="726" style="fill:rgb(0%,0%,0%);fill-opacity:0.101961;stroke:none;"/>
  </g>
</mask>
<clipPath id="clip6">
  <rect x="0" y="0" width="1099" height="726"/>
</clipPath>
<g id="surface20" clip-path="url(#clip6)">
<path style=" stroke:none;fill-rule:nonzero;fill:rgb(0%,0%,0%);fill-opacity:1;" d="M 656.554688 244.519531 C 656.578125 245.730469 656.207031 246.925781 655.476562 247.972656 L 656.554688 250.5625 C 667.207031 252.898438 661.6875 261.273438 661.289062 264.625 C 661.304688 265.460938 660.863281 266.257812 660.089844 266.785156 C 659.320312 267.308594 658.308594 267.503906 657.347656 267.308594 C 660.894531 275.679688 656.554688 285.730469 656.554688 285.730469 C 656.890625 289.183594 655.222656 297.6875 654.722656 300.136719 L 658.28125 300.136719 C 658.78125 297.6875 660.457031 289.15625 660.121094 285.730469 C 660.121094 285.730469 664.453125 275.679688 660.90625 267.308594 C 661.867188 267.503906 662.878906 267.308594 663.648438 266.785156 C 664.421875 266.257812 664.863281 265.460938 664.847656 264.625 C 665.246094 261.273438 670.765625 252.898438 660.121094 250.5625 L 659.035156 247.972656 C 659.769531 246.929688 660.144531 245.734375 660.121094 244.519531 C 660.121094 241.746094 658.351562 239.492188 656.175781 239.492188 C 655.53125 239.503906 654.902344 239.695312 654.398438 240.039062 C 655.867188 241.183594 656.660156 242.824219 656.554688 244.519531 Z M 656.554688 244.519531 "/>
</g>
<mask id="mask6">
  <g filter="url(#alpha)">
<rect x="0" y="0" width="1099" height="726" style="fill:rgb(0%,0%,0%);fill-opacity:0.101961;stroke:none;"/>
  </g>
</mask>
<clipPath id="clip7">
  <rect x="0" y="0" width="1099" height="726"/>
</clipPath>
<g id="surface23" clip-path="url(#clip7)">
<path style=" stroke:none;fill-rule:nonzero;fill:rgb(0%,0%,0%);fill-opacity:1;" d="M 667.605469 316.4375 L 667.605469 300.136719 L 664.054688 300.136719 L 664.054688 316.4375 C 669.992188 317.402344 673.917969 319.027344 673.917969 320.898438 C 673.917969 323.722656 664.972656 326.027344 653.585938 326.242188 L 655.363281 326.242188 C 667.5625 326.242188 677.457031 323.84375 677.457031 320.882812 C 677.464844 319.042969 673.53125 317.402344 667.605469 316.4375 Z M 667.605469 316.4375 "/>
</g>
<mask id="mask7">
  <g filter="url(#alpha)">
<rect x="0" y="0" width="1099" height="726" style="fill:rgb(0%,0%,0%);fill-opacity:0.0509804;stroke:none;"/>
  </g>
</mask>
<clipPath id="clip8">
  <rect x="0" y="0" width="1099" height="726"/>
</clipPath>
<g id="surface26" clip-path="url(#clip8)">
<path style=" stroke:none;fill-rule:nonzero;fill:rgb(0%,0%,0%);fill-opacity:1;" d="M 694.757812 185.980469 C 693.851562 185.3125 692.539062 185.21875 691.515625 185.757812 C 691.492188 187.589844 691.257812 189.417969 690.816406 191.210938 C 691.261719 189.996094 693.621094 189.71875 694.757812 190.667969 C 694.988281 190.859375 695.183594 191.078125 695.339844 191.316406 C 695.480469 190.921875 695.601562 190.519531 695.695312 190.117188 C 696.039062 188.683594 695.988281 187.007812 694.757812 185.980469 Z M 694.757812 185.980469 "/>
</g>
<mask id="mask8">
  <g filter="url(#alpha)">
<rect x="0" y="0" width="1099" height="726" style="fill:rgb(0%,0%,0%);fill-opacity:0.0509804;stroke:none;"/>
  </g>
</mask>
<clipPath id="clip9">
  <rect x="0" y="0" width="1099" height="726"/>
</clipPath>
<g id="surface29" clip-path="url(#clip9)">
<path style=" stroke:none;fill-rule:nonzero;fill:rgb(0%,0%,0%);fill-opacity:1;" d="M 705.046875 184.417969 C 705.058594 184.761719 705.089844 185.105469 705.140625 185.445312 C 705.4375 183.085938 705.5 180.710938 705.332031 178.339844 C 705.105469 180.359375 705.011719 182.390625 705.046875 184.417969 Z M 705.046875 184.417969 "/>
</g>
<mask id="mask9">
  <g filter="url(#alpha)">
<rect x="0" y="0" width="1099" height="726" style="fill:rgb(0%,0%,0%);fill-opacity:0.0509804;stroke:none;"/>
  </g>
</mask>
<clipPath id="clip10">
  <rect x="0" y="0" width="1099" height="726"/>
</clipPath>
<g id="surface32" clip-path="url(#clip10)">
<path style=" stroke:none;fill-rule:nonzero;fill:rgb(0%,0%,0%);fill-opacity:1;" d="M 690.816406 191.210938 C 690.785156 191.304688 690.765625 191.398438 690.753906 191.496094 Z M 690.816406 191.210938 "/>
</g>
<mask id="mask10">
  <g filter="url(#alpha)">
<rect x="0" y="0" width="1099" height="726" style="fill:rgb(0%,0%,0%);fill-opacity:0.0509804;stroke:none;"/>
  </g>
</mask>
<clipPath id="clip11">
  <rect x="0" y="0" width="1099" height="726"/>
</clipPath>
<g id="surface35" clip-path="url(#clip11)">
<path style=" stroke:none;fill-rule:nonzero;fill:rgb(0%,0%,0%);fill-opacity:1;" d="M 707.761719 214.699219 C 708.15625 212.941406 708.699219 211.210938 709.390625 209.519531 C 710.617188 206.363281 711.796875 202.832031 710.996094 199.6875 C 710.617188 201.449219 710.082031 203.179688 709.390625 204.867188 C 708.160156 207.992188 706.957031 211.542969 707.761719 214.699219 Z M 707.761719 214.699219 "/>
</g>
<mask id="mask11">
  <g filter="url(#alpha)">
<rect x="0" y="0" width="1099" height="726" style="fill:rgb(0%,0%,0%);fill-opacity:0.0509804;stroke:none;"/>
  </g>
</mask>
<clipPath id="clip12">
  <rect x="0" y="0" width="1099" height="726"/>
</clipPath>
<g id="surface38" clip-path="url(#clip12)">
<path style=" stroke:none;fill-rule:nonzero;fill:rgb(0%,0%,0%);fill-opacity:1;" d="M 690.96875 181.351562 C 691.148438 182.027344 691.28125 182.710938 691.375 183.398438 C 691.667969 181.152344 691.527344 178.878906 690.96875 176.664062 C 690.164062 173.289062 687.871094 170.296875 684.5625 168.300781 C 680.992188 166.296875 676.429688 165.902344 672.210938 166.210938 C 670.398438 166.351562 668.40625 166.6875 667.328125 167.9375 C 666.777344 168.664062 666.445312 169.496094 666.363281 170.355469 C 665.742188 174.238281 666.261719 178.804688 662.816406 181.414062 C 660.640625 183.078125 657.480469 183.382812 654.917969 184.582031 C 651.277344 186.308594 649.101562 189.761719 648.703125 193.214844 C 648.574219 194.460938 648.628906 195.71875 648.867188 196.953125 C 649.429688 193.730469 651.667969 190.898438 654.96875 189.234375 C 657.53125 188.035156 660.691406 187.734375 662.867188 186.074219 C 666.3125 183.484375 665.792969 178.894531 666.414062 175.015625 C 666.496094 174.152344 666.828125 173.320312 667.378906 172.589844 C 668.457031 171.347656 670.429688 171.011719 672.261719 170.863281 C 676.519531 170.554688 681.042969 170.941406 684.613281 172.953125 C 687.910156 174.964844 690.183594 177.96875 690.96875 181.351562 Z M 690.96875 181.351562 "/>
</g>
<mask id="mask12">
  <g filter="url(#alpha)">
<rect x="0" y="0" width="1099" height="726" style="fill:rgb(0%,0%,0%);fill-opacity:0.0509804;stroke:none;"/>
  </g>
</mask>
<clipPath id="clip13">
  <rect x="0" y="0" width="1099" height="726"/>
</clipPath>
<g id="surface41" clip-path="url(#clip13)">
<path style=" stroke:none;fill-rule:nonzero;fill:rgb(0%,0%,0%);fill-opacity:1;" d="M 715.601562 227.667969 C 714.367188 228.832031 712.582031 229.464844 710.742188 229.394531 C 707.496094 229.179688 704.824219 227.253906 702.363281 225.457031 C 699.902344 223.660156 697.109375 221.804688 693.863281 221.769531 C 693.039062 221.832031 692.207031 221.796875 691.394531 221.667969 C 690.601562 221.417969 689.898438 220.996094 689.359375 220.441406 C 687.105469 218.34375 685.628906 215.730469 685.109375 212.921875 C 684.269531 217.328125 685.832031 221.820312 689.359375 225.128906 C 689.894531 225.683594 690.597656 226.109375 691.394531 226.355469 C 692.207031 226.488281 693.039062 226.523438 693.863281 226.457031 C 697.109375 226.457031 699.894531 228.347656 702.363281 230.144531 C 704.835938 231.941406 707.445312 233.863281 710.742188 234.082031 C 714.035156 234.296875 717.582031 231.777344 716.605469 229.144531 C 716.390625 228.597656 716.050781 228.097656 715.601562 227.667969 Z M 715.601562 227.667969 "/>
</g>
<mask id="mask13">
  <g filter="url(#alpha)">
<rect x="0" y="0" width="1099" height="726" style="fill:rgb(0%,0%,0%);fill-opacity:0.0509804;stroke:none;"/>
  </g>
</mask>
<clipPath id="clip14">
  <rect x="0" y="0" width="1099" height="726"/>
</clipPath>
<g id="surface44" clip-path="url(#clip14)">
<path style=" stroke:none;fill-rule:nonzero;fill:rgb(0%,0%,0%);fill-opacity:1;" d="M 632.195312 204.808594 C 632.636719 203.542969 632.71875 202.210938 632.4375 200.914062 C 631.980469 199.007812 630.640625 197.347656 629.652344 195.597656 C 629.449219 195.238281 629.265625 194.878906 629.105469 194.507812 C 629.105469 194.5625 629.03125 194.613281 629.003906 194.671875 C 627.984375 196.398438 628.65625 198.53125 629.652344 200.285156 C 630.621094 201.742188 631.472656 203.25 632.195312 204.808594 Z M 632.195312 204.808594 "/>
</g>
<mask id="mask14">
  <g filter="url(#alpha)">
<rect x="0" y="0" width="1099" height="726" style="fill:rgb(0%,0%,0%);fill-opacity:0.0509804;stroke:none;"/>
  </g>
</mask>
<clipPath id="clip15">
  <rect x="0" y="0" width="1099" height="726"/>
</clipPath>
<g id="surface47" clip-path="url(#clip15)">
<path style=" stroke:none;fill-rule:nonzero;fill:rgb(0%,0%,0%);fill-opacity:1;" d="M 654.398438 213.5625 C 654.226562 214.328125 654.023438 215.089844 653.859375 215.859375 C 653.320312 218.449219 653.289062 221.039062 652.71875 223.628906 C 652.152344 226.214844 650.941406 228.804688 648.574219 230.429688 C 645.125 232.839844 640.175781 232.726562 635.730469 232.328125 C 632.957031 232.085938 629.816406 231.585938 628.320312 229.582031 C 627.78125 228.839844 627.527344 227.976562 627.019531 227.21875 C 626.003906 225.628906 623.898438 224.628906 622.851562 223.058594 C 622.78125 222.953125 622.71875 222.832031 622.660156 222.71875 C 621.875 224.34375 621.945312 226.175781 622.851562 227.753906 C 623.867188 229.351562 625.960938 230.34375 627.019531 231.914062 C 627.527344 232.664062 627.78125 233.539062 628.320312 234.269531 C 629.816406 236.28125 632.957031 236.773438 635.730469 237.015625 C 640.175781 237.414062 645.125 237.535156 648.574219 235.117188 C 650.941406 233.460938 652.140625 230.878906 652.71875 228.316406 C 653.300781 225.75 653.320312 223.136719 653.859375 220.546875 C 654.246094 218.699219 654.875 216.851562 654.691406 214.984375 C 654.640625 214.503906 654.542969 214.027344 654.398438 213.5625 Z M 654.398438 213.5625 "/>
</g>
<mask id="mask15">
  <g filter="url(#alpha)">
<rect x="0" y="0" width="1099" height="726" style="fill:rgb(0%,0%,0%);fill-opacity:0.101961;stroke:none;"/>
  </g>
</mask>
<clipPath id="clip16">
  <rect x="0" y="0" width="1099" height="726"/>
</clipPath>
<g id="surface50" clip-path="url(#clip16)">
<path style=" stroke:none;fill-rule:nonzero;fill:rgb(0%,0%,0%);fill-opacity:1;" d="M 427.5 234.589844 C 427.121094 235.714844 426.503906 236.773438 425.683594 237.714844 C 424.832031 238.488281 423.828125 239.128906 422.714844 239.605469 C 419.132812 241.320312 415.347656 242.703125 411.417969 243.722656 C 410.402344 245.449219 412.046875 247.390625 413.613281 248.789062 L 418.210938 252.917969 C 420.894531 255.316406 423.578125 257.71875 426.476562 259.925781 C 432.078125 264.195312 438.433594 267.691406 445.3125 270.285156 C 448.914062 271.640625 453.558594 272.609375 456.445312 270.335938 C 459.332031 268.066406 458.613281 264.078125 460.359375 261.117188 C 460.808594 260.761719 461.03125 260.246094 460.964844 259.726562 C 460.898438 259.207031 460.550781 258.746094 460.023438 258.476562 C 457.664062 256.5 457.1875 253.375 457.6875 250.59375 C 458.183594 247.816406 459.515625 245.191406 460.277344 242.453125 C 461.042969 239.71875 461.183594 236.664062 459.464844 234.253906 C 458.453125 232.972656 457.148438 231.878906 455.621094 231.042969 C 452.285156 229.03125 448.5625 227.523438 444.621094 226.589844 C 442.589844 226.113281 440.554688 225.792969 438.523438 225.285156 C 437.261719 224.957031 433.847656 222.953125 432.769531 223.117188 C 430.550781 223.429688 428.285156 232.578125 427.5 234.589844 Z M 427.5 234.589844 "/>
</g>
<mask id="mask16">
  <g filter="url(#alpha)">
<rect x="0" y="0" width="1099" height="726" style="fill:rgb(0%,0%,0%);fill-opacity:0.101961;stroke:none;"/>
  </g>
</mask>
<clipPath id="clip17">
  <rect x="0" y="0" width="1099" height="726"/>
</clipPath>
<g id="surface53" clip-path="url(#clip17)">
<path style=" stroke:none;fill-rule:nonzero;fill:rgb(0%,0%,0%);fill-opacity:1;" d="M 333.777344 190.996094 C 332.925781 192.257812 331.679688 193.296875 330.179688 193.992188 L 329.425781 197.203125 C 338.699219 205.152344 326.976562 210.894531 324.148438 214.140625 C 323.558594 215.011719 322.527344 215.597656 321.355469 215.734375 C 320.1875 215.871094 319.003906 215.542969 318.160156 214.839844 C 315.773438 225.300781 304.058594 233.382812 304.058594 233.382812 C 301.933594 237.085938 294.066406 244.992188 291.789062 247.246094 L 295.4375 249.09375 C 297.714844 246.839844 305.605469 238.925781 307.710938 235.230469 C 307.710938 235.230469 319.421875 227.148438 321.8125 216.6875 C 321.8125 216.6875 324.984375 219.222656 327.808594 215.980469 C 330.636719 212.734375 342.347656 207 333.085938 199.050781 L 333.828125 195.832031 C 335.332031 195.140625 336.578125 194.105469 337.425781 192.84375 C 339.460938 189.996094 339.234375 186.800781 337 185.625 C 336.328125 185.300781 335.550781 185.171875 334.785156 185.253906 C 335.476562 187.199219 335.109375 189.308594 333.777344 190.996094 Z M 333.777344 190.996094 "/>
</g>
<mask id="mask17">
  <g filter="url(#alpha)">
<rect x="0" y="0" width="1099" height="726" style="fill:rgb(0%,0%,0%);fill-opacity:0.101961;stroke:none;"/>
  </g>
</mask>
<clipPath id="clip18">
  <rect x="0" y="0" width="1099" height="726"/>
</clipPath>
<g id="surface56" clip-path="url(#clip18)">
<path style=" stroke:none;fill-rule:nonzero;fill:rgb(0%,0%,0%);fill-opacity:1;" d="M 293.304688 270.734375 L 305.066406 253.960938 L 301.4375 252.113281 L 289.675781 268.886719 C 295.09375 272.972656 297.941406 276.65625 296.597656 278.609375 C 294.566406 281.5 283.695312 279.222656 271.84375 273.539062 C 272.441406 273.851562 273.042969 274.171875 273.664062 274.480469 C 286.207031 280.828125 298.113281 283.503906 300.246094 280.457031 C 301.539062 278.539062 298.691406 274.808594 293.304688 270.734375 Z M 293.304688 270.734375 "/>
</g>
</defs>
<g id="surface1">
<path style=" stroke:none;fill-rule:nonzero;fill:rgb(94.901961%,94.901961%,94.901961%);fill-opacity:1;" d="M 995.972656 595.0625 C 985.644531 585.730469 961.742188 577.734375 929.726562 572.445312 L 929.726562 452.175781 L 928.261719 452.175781 L 928.261719 450.929688 L 901.832031 450.929688 L 901.832031 452.175781 L 860.300781 452.175781 C 864.019531 433.976562 876.433594 370.527344 873.933594 345.042969 C 873.933594 345.042969 906.203125 270.3125 879.800781 208.027344 C 879.800781 208.027344 906.234375 213.007812 909.140625 188.09375 C 911.507812 167.980469 938.703125 123.539062 907.472656 97.972656 C 900.144531 91.445312 889.246094 86.050781 873.507812 82.433594 L 865.871094 64.304688 C 870.851562 57.613281 873.933594 48.585938 873.933594 38.628906 C 873.933594 25.222656 868.382812 13.476562 860.066406 6.878906 C 855.277344 2.5625 849.433594 -0.0273438 843.117188 -0.0273438 C 838.3125 0.0351562 833.664062 1.453125 829.902344 3.996094 C 830.453125 4.351562 830.980469 4.730469 831.507812 5.128906 C 821.859375 11.25 815.242188 23.929688 815.242188 38.585938 C 815.242188 49.679688 819.054688 59.617188 825.082031 66.460938 L 821.109375 88.414062 C 821.109375 88.414062 738.964844 71.003906 774.179688 188.09375 C 774.179688 188.09375 782.984375 208.027344 797.65625 208.027344 C 797.65625 208.027344 788.851562 297.710938 803.519531 330.101562 C 803.519531 330.101562 797.65625 409.824219 809.398438 427.261719 L 809.398438 452.175781 L 736.035156 452.175781 L 736.035156 575.535156 C 698.480469 582.835938 674.414062 594.050781 674.414062 606.613281 C 674.414062 628.632812 747.980469 646.476562 838.726562 646.476562 C 929.472656 646.476562 1003.027344 628.667969 1003.027344 606.636719 C 1003.027344 602.613281 1000.546875 598.730469 995.972656 595.0625 Z M 995.972656 595.0625 "/>
<path style=" stroke:none;fill-rule:nonzero;fill:rgb(94.901961%,94.901961%,94.901961%);fill-opacity:1;" d="M 417.761719 608.128906 C 408.175781 599.445312 385.910156 592.015625 356.070312 587.085938 L 356.070312 475.164062 L 354.710938 475.164062 L 354.710938 474.007812 L 330.136719 474.007812 L 330.136719 475.164062 L 291.503906 475.164062 C 294.972656 458.234375 306.519531 399.195312 304.191406 375.472656 C 304.191406 375.472656 334.222656 305.921875 309.652344 247.960938 C 309.652344 247.960938 334.222656 252.597656 336.957031 229.417969 C 339.164062 210.703125 364.46875 169.34375 335.402344 145.554688 C 328.582031 139.511719 318.445312 134.460938 303.804688 131.113281 L 296.6875 114.210938 C 301.335938 107.976562 304.191406 99.585938 304.191406 90.3125 C 304.191406 77.839844 299.039062 66.910156 291.289062 60.773438 C 286.839844 56.75 281.398438 54.386719 275.523438 54.386719 C 271.054688 54.445312 266.734375 55.761719 263.242188 58.132812 C 263.75 58.460938 264.257812 58.8125 264.734375 59.175781 C 255.757812 64.875 249.585938 76.675781 249.585938 90.3125 C 249.585938 100.671875 253.144531 109.882812 258.738281 116.210938 L 255.039062 136.636719 C 255.039062 136.636719 178.59375 120.40625 211.320312 229.375 C 211.320312 229.375 219.515625 247.917969 233.167969 247.917969 C 233.167969 247.917969 224.976562 331.378906 238.628906 361.523438 C 238.628906 361.523438 233.167969 435.710938 244.085938 451.941406 L 244.085938 475.121094 L 175.871094 475.121094 L 175.871094 589.933594 C 140.929688 596.726562 118.53125 607.199219 118.53125 618.878906 C 118.53125 639.363281 186.992188 656 271.4375 656 C 355.878906 656 424.328125 639.390625 424.328125 618.878906 C 424.328125 615.15625 422.023438 611.539062 417.761719 608.128906 Z M 417.761719 608.128906 "/>
<path style=" stroke:none;fill-rule:nonzero;fill:rgb(94.901961%,94.901961%,94.901961%);fill-opacity:1;" d="M 642.714844 602.285156 C 635.601562 595.8125 618.988281 590.277344 596.765625 586.609375 L 596.765625 503.253906 L 595.746094 503.253906 L 595.746094 502.390625 L 577.449219 502.390625 L 577.449219 503.253906 L 548.675781 503.253906 C 551.257812 490.640625 559.859375 446.660156 558.132812 429.011719 C 558.132812 429.011719 580.496094 377.21875 562.199219 334.054688 C 562.199219 334.054688 580.496094 337.507812 582.53125 320.242188 C 584.179688 306.300781 603.027344 275.5 581.371094 257.777344 C 576.289062 253.253906 568.746094 249.515625 557.835938 247.019531 L 552.550781 234.410156 C 556.328125 229.03125 558.261719 222.867188 558.140625 216.609375 C 558.140625 207.320312 554.296875 199.179688 548.523438 194.605469 C 545.210938 191.609375 541.164062 189.847656 536.792969 189.847656 C 533.460938 189.894531 530.242188 190.878906 527.640625 192.644531 C 528.027344 192.886719 528.394531 193.144531 528.761719 193.421875 C 522.070312 197.660156 517.476562 206.449219 517.476562 216.609375 C 517.476562 224.300781 520.128906 231.1875 524.308594 235.929688 L 521.542969 251.148438 C 521.542969 251.148438 464.609375 239.0625 489.007812 320.207031 C 489.007812 320.207031 495.109375 334.019531 505.277344 334.019531 C 505.277344 334.019531 499.175781 396.175781 509.34375 418.621094 C 509.34375 418.621094 505.277344 473.867188 513.410156 485.953125 L 513.410156 503.21875 L 462.578125 503.21875 L 462.578125 588.679688 C 436.550781 593.742188 419.878906 601.519531 419.878906 610.261719 C 419.878906 625.527344 470.863281 637.886719 533.742188 637.886719 C 596.621094 637.886719 647.605469 625.515625 647.605469 610.261719 C 647.605469 607.519531 645.890625 604.824219 642.714844 602.285156 Z M 642.714844 602.285156 "/>
<path style=" stroke:none;fill-rule:nonzero;fill:rgb(94.901961%,94.901961%,94.901961%);fill-opacity:1;" d="M 1057.480469 616.425781 C 1053.269531 612.609375 1043.5 609.347656 1030.40625 607.179688 L 1030.40625 558.0625 L 1029.808594 558.0625 L 1029.808594 557.550781 L 1019.019531 557.550781 L 1019.019531 558.0625 L 1002.0625 558.0625 C 1003.585938 550.628906 1008.660156 524.707031 1007.632812 514.304688 C 1007.632812 514.304688 1020.851562 483.769531 1010.03125 458.328125 C 1010.03125 458.328125 1020.820312 460.367188 1022.019531 450.1875 C 1023.035156 441.980469 1034.097656 423.824219 1021.339844 413.378906 C 1018.339844 410.710938 1013.886719 408.511719 1007.460938 407.042969 L 1004.339844 399.621094 C 1006.570312 396.453125 1007.710938 392.820312 1007.632812 389.128906 C 1007.632812 383.65625 1005.367188 378.859375 1001.972656 376.183594 C 1000.230469 374.460938 997.71875 373.445312 995.046875 373.375 C 993.085938 373.40625 991.191406 373.984375 989.660156 375.023438 C 989.886719 375.167969 990.101562 375.320312 990.308594 375.484375 C 986.375 377.976562 983.671875 383.15625 983.671875 389.148438 C 983.574219 393.214844 985 397.199219 987.738281 400.535156 L 986.109375 409.503906 C 986.109375 409.503906 952.5625 402.382812 966.9375 450.207031 C 966.9375 450.207031 970.535156 458.347656 976.523438 458.347656 C 976.523438 458.347656 972.933594 494.984375 978.921875 508.207031 C 978.921875 508.207031 976.523438 540.78125 981.324219 547.917969 L 981.324219 558.097656 L 951.3125 558.097656 L 951.3125 608.484375 C 935.96875 611.464844 926.140625 616.046875 926.140625 621.183594 C 926.140625 630.179688 956.191406 637.472656 993.238281 637.472656 C 1030.285156 637.472656 1060.335938 630.179688 1060.335938 621.183594 C 1060.367188 619.507812 1059.351562 617.921875 1057.480469 616.425781 Z M 1057.480469 616.425781 "/>
<path style=" stroke:none;fill-rule:nonzero;fill:rgb(94.901961%,94.901961%,94.901961%);fill-opacity:1;" d="M 183.160156 616.425781 C 178.949219 612.609375 169.179688 609.347656 156.085938 607.179688 L 156.085938 558.0625 L 155.488281 558.0625 L 155.488281 557.550781 L 144.699219 557.550781 L 144.699219 558.0625 L 127.742188 558.0625 C 129.265625 550.628906 134.339844 524.707031 133.3125 514.304688 C 133.3125 514.304688 146.53125 483.769531 135.710938 458.328125 C 135.710938 458.328125 146.5 460.367188 147.699219 450.1875 C 148.664062 441.980469 159.777344 423.824219 147.019531 413.378906 C 143.96875 410.710938 139.566406 408.511719 133.140625 407.042969 L 130.019531 399.621094 C 132.25 396.453125 133.390625 392.820312 133.3125 389.128906 C 133.3125 383.65625 131.046875 378.859375 127.652344 376.183594 C 125.910156 374.460938 123.398438 373.445312 120.726562 373.375 C 118.765625 373.40625 116.871094 373.984375 115.339844 375.023438 C 115.566406 375.167969 115.78125 375.320312 115.988281 375.484375 C 112.054688 377.976562 109.351562 383.15625 109.351562 389.148438 C 109.242188 393.203125 110.644531 397.179688 113.355469 400.515625 L 111.730469 409.488281 C 111.730469 409.488281 78.179688 402.363281 92.554688 450.1875 C 92.554688 450.1875 96.15625 458.328125 102.144531 458.328125 C 102.144531 458.328125 98.554688 494.964844 104.542969 508.191406 C 104.542969 508.191406 102.144531 540.761719 106.941406 547.902344 L 106.941406 558.078125 L 76.992188 558.078125 L 76.992188 608.46875 C 61.648438 611.445312 51.820312 616.03125 51.820312 621.164062 C 51.820312 630.160156 81.871094 637.457031 118.917969 637.457031 C 155.964844 637.457031 186.015625 630.160156 186.015625 621.164062 C 186.046875 619.507812 185.03125 617.921875 183.160156 616.425781 Z M 183.160156 616.425781 "/>
<path style=" stroke:none;fill-rule:nonzero;fill:rgb(18.431373%,18.039216%,25.490196%);fill-opacity:1;" d="M 0 620.148438 L 1099 620.148438 C 1099 620.148438 1058.332031 714 954.15625 680.574219 C 849.980469 647.148438 787.722656 687.050781 730.546875 705.386719 C 673.367188 723.722656 559.027344 737.757812 529.808594 709.703125 C 500.589844 681.644531 473.890625 668.707031 370.996094 679.488281 C 268.101562 690.269531 200.738281 712.929688 188 682.726562 C 175.261719 652.519531 172.75 642.808594 100.332031 648.195312 C 27.917969 653.582031 0 620.148438 0 620.148438 Z M 0 620.148438 "/>
<path style=" stroke:none;fill-rule:nonzero;fill:rgb(24.705882%,23.921569%,33.72549%);fill-opacity:1;" d="M 645.308594 319.363281 C 632.96875 337.179688 631.074219 358.625 626.917969 378.980469 C 620.390625 410.523438 607.601562 440.945312 601.15625 472.503906 C 598.910156 483.546875 597.457031 494.742188 593.886719 505.523438 C 588.988281 520.335938 580.242188 534.011719 572.039062 547.695312 C 558.070312 571.070312 545.394531 595.378906 540.175781 621.21875 C 538.550781 629.273438 539.820312 640.210938 549.214844 641.9375 C 551.898438 642.445312 554.917969 642.039062 557.207031 643.335938 C 558.546875 644.085938 559.402344 645.300781 560.480469 646.3125 C 564.609375 650.179688 571.714844 650.628906 577.609375 649.222656 C 583.507812 647.816406 588.652344 644.722656 594.121094 642.316406 C 615.835938 632.820312 641.578125 633.949219 665.9375 635.296875 C 670.421875 635.539062 675.453125 636.015625 678.289062 638.984375 C 679.722656 640.496094 680.324219 642.4375 681.390625 644.164062 C 685.171875 650.421875 695.15625 653.332031 702.660156 650.363281 C 705.464844 649.246094 707.875 647.460938 710.792969 646.546875 C 719.707031 643.722656 729.089844 649.84375 738.636719 649.886719 C 752.363281 649.9375 762.691406 637.59375 776.40625 637.171875 C 785.757812 636.886719 794.308594 642.296875 803.664062 642.351562 C 810.675781 642.351562 817.144531 639.347656 823.242188 636.417969 L 864.925781 616.425781 C 853.78125 603.191406 840.132812 591.617188 824.535156 582.171875 C 813.058594 575.265625 809.957031 561.453125 802.949219 551.09375 C 798.324219 544.242188 793.648438 537.28125 791.390625 529.625 C 789.765625 524.101562 789.441406 518.351562 787.832031 512.820312 C 785.605469 505.1875 781.023438 498.238281 777.382812 491.011719 C 762.945312 462.386719 763.433594 429.722656 750.207031 400.671875 C 746.488281 392.488281 741.699219 384.660156 738.394531 376.347656 C 734.042969 365.398438 732.34375 353.796875 727.953125 342.867188 C 723.5625 331.941406 715.753906 321.210938 703.300781 316.503906 C 697.894531 314.617188 692.140625 313.558594 686.300781 313.371094 C 671.753906 312.578125 658.808594 314.699219 645.308594 319.363281 Z M 645.308594 319.363281 "/>
<path style=" stroke:none;fill-rule:nonzero;fill:rgb(98.431373%,77.647059%,38.039216%);fill-opacity:1;" d="M 641.566406 174.1875 L 699.558594 174.1875 L 699.558594 239.847656 L 641.566406 239.847656 Z M 641.566406 174.1875 "/>
<path style=" stroke:none;fill-rule:nonzero;fill:rgb(24.705882%,23.921569%,33.72549%);fill-opacity:1;" d="M 697.992188 225.121094 C 695.042969 224.730469 692.035156 225.121094 689.054688 225.121094 C 681.726562 225.042969 679.640625 232.5625 672.332031 233.175781 C 663.414062 233.917969 651.054688 229.125 643.601562 233.355469 C 642.238281 234.160156 640.796875 234.867188 639.289062 235.460938 C 633.191406 237.742188 625.738281 236.894531 620.15625 239.996094 C 614.574219 243.09375 612.53125 249.214844 612.53125 254.875 C 612.390625 256.902344 612.738281 258.933594 613.550781 260.84375 C 614.332031 262.457031 615.632812 263.855469 616.414062 265.46875 C 616.964844 266.609375 617.25 267.824219 617.707031 269 C 618.953125 271.6875 620.667969 274.203125 622.789062 276.457031 L 635.703125 291.710938 C 639.085938 295.71875 637.734375 300.671875 638.285156 305.585938 C 638.691406 309.355469 639.726562 313.085938 639.71875 316.867188 C 639.707031 320.648438 638.488281 324.636719 635.164062 327.226562 C 642.808594 326.828125 650.429688 326.234375 658.027344 325.441406 C 664.289062 324.785156 670.53125 323.996094 676.824219 323.617188 C 690.042969 322.824219 703.320312 323.851562 716.476562 324.878906 C 714.300781 322.582031 713.3125 319.378906 712.773438 316.46875 C 710.984375 306.820312 709.855469 296.710938 713.597656 287.472656 C 714.796875 284.710938 716.207031 282.019531 717.816406 279.410156 L 721.832031 272.546875 C 727.515625 262.84375 732.824219 252.898438 734.03125 242.109375 C 734.484375 239.339844 734.097656 236.515625 732.902344 233.910156 C 731.144531 230.566406 727.34375 228.21875 723.246094 227.078125 C 719.085938 226.074219 714.738281 225.75 710.4375 226.128906 C 706.429688 226.292969 701.996094 225.636719 697.992188 225.121094 Z M 697.992188 225.121094 "/>
<path style=" stroke:none;fill-rule:nonzero;fill:rgb(98.431373%,70.196078%,69.803922%);fill-opacity:1;" d="M 656.25 220.578125 C 657.171875 222.632812 658.28125 224.835938 657.558594 226.960938 C 656.21875 231.171875 649.367188 232.027344 646.375 235.589844 C 645.847656 236.082031 645.671875 236.78125 645.917969 237.414062 C 646.0625 237.621094 646.25 237.804688 646.46875 237.957031 C 652.050781 242.082031 660.121094 242.4375 667.523438 242.367188 C 678.308594 242.28125 689.828125 241.503906 698.378906 235.953125 C 700.765625 234.402344 703.015625 231.8125 701.792969 229.472656 C 700.847656 227.683594 698.359375 227.011719 696.292969 226.128906 C 691.667969 224.152344 688.355469 220.390625 686.523438 216.273438 C 684.695312 212.152344 684.226562 207.707031 684.144531 203.324219 C 684.226562 202.574219 684.035156 201.820312 683.597656 201.164062 C 682.882812 200.300781 681.5625 200.171875 680.3125 200.101562 C 673.34375 199.707031 666.347656 199.945312 659.441406 200.8125 C 657.488281 201.054688 653.769531 201.277344 652.394531 202.632812 C 651.023438 203.988281 651.816406 205.59375 652.082031 207.070312 C 652.90625 211.683594 654.300781 216.214844 656.25 220.578125 Z M 656.25 220.578125 "/>
<use xlink:href="#surface5" mask="url(#mask0)"/>
<path style=" stroke:none;fill-rule:nonzero;fill:rgb(98.431373%,70.196078%,69.803922%);fill-opacity:1;" d="M 695.410156 190.097656 C 695.410156 202.308594 683.753906 212.207031 669.375 212.207031 C 654.992188 212.207031 643.335938 202.308594 643.335938 190.097656 C 643.335938 177.886719 654.992188 167.988281 669.375 167.988281 C 683.753906 167.988281 695.410156 177.886719 695.410156 190.097656 Z M 695.410156 190.097656 "/>
<use xlink:href="#surface8" mask="url(#mask1)"/>
<use xlink:href="#surface11" mask="url(#mask2)"/>
<use xlink:href="#surface14" mask="url(#mask3)"/>
<use xlink:href="#surface17" mask="url(#mask4)"/>
<path style=" stroke:none;fill-rule:nonzero;fill:rgb(29.411765%,50.196078%,52.156863%);fill-opacity:1;" d="M 667.796875 316.609375 L 667.796875 300.300781 L 658.476562 300.300781 C 658.972656 297.859375 660.640625 289.320312 660.304688 285.894531 C 660.304688 285.894531 664.644531 275.84375 661.097656 267.472656 C 662.058594 267.667969 663.070312 267.480469 663.84375 266.957031 C 664.613281 266.433594 665.058594 265.632812 665.042969 264.796875 C 665.429688 261.445312 670.960938 253.074219 660.304688 250.726562 L 659.21875 248.136719 C 659.953125 247.09375 660.328125 245.898438 660.304688 244.683594 C 660.304688 241.910156 658.535156 239.65625 656.359375 239.65625 C 654.183594 239.65625 652.414062 241.910156 652.414062 244.683594 C 652.378906 246.019531 652.839844 247.335938 653.738281 248.4375 L 653.199219 251.425781 C 653.199219 251.425781 642.15625 249.074219 646.894531 264.820312 C 646.894531 264.820312 648.074219 267.496094 650.046875 267.496094 C 650.046875 267.496094 648.867188 279.582031 650.839844 283.898438 C 650.839844 283.898438 650.046875 294.613281 651.621094 296.960938 L 651.621094 300.308594 L 641.761719 300.308594 L 641.761719 316.894531 C 636.679688 317.878906 633.476562 319.386719 633.476562 321.082031 C 633.476562 324.042969 643.367188 326.441406 655.566406 326.441406 C 667.765625 326.441406 677.660156 324.042969 677.660156 321.082031 C 677.660156 319.207031 673.746094 317.566406 667.796875 316.609375 Z M 667.796875 316.609375 "/>
<use xlink:href="#surface20" mask="url(#mask5)"/>
<use xlink:href="#surface23" mask="url(#mask6)"/>
<path style=" stroke:none;fill-rule:nonzero;fill:rgb(98.431373%,77.647059%,38.039216%);fill-opacity:1;" d="M 678.148438 159.054688 C 670.015625 157.328125 661.269531 156.007812 653.523438 158.65625 C 649.96875 159.996094 646.695312 161.824219 643.84375 164.070312 C 641.210938 166.011719 638.648438 168.164062 637.246094 170.882812 C 635.570312 174.164062 635.761719 177.875 635.660156 181.449219 C 635.558594 185.023438 635 188.855469 632.203125 191.523438 C 631.117188 192.558594 629.703125 193.40625 629.003906 194.664062 C 627.984375 196.390625 628.65625 198.523438 629.652344 200.277344 C 630.648438 202.027344 631.980469 203.6875 632.4375 205.601562 C 633.058594 208.253906 631.847656 210.996094 630.128906 213.277344 C 628.414062 215.554688 626.175781 217.523438 624.398438 219.777344 C 622.617188 222.03125 621.234375 225.257812 622.851562 227.734375 C 623.867188 229.332031 625.960938 230.324219 627.019531 231.898438 C 627.527344 232.648438 627.78125 233.519531 628.320312 234.253906 C 629.816406 236.265625 632.957031 236.757812 635.730469 237 C 640.175781 237.394531 645.125 237.515625 648.574219 235.101562 C 650.941406 233.441406 652.140625 230.859375 652.71875 228.296875 C 653.300781 225.734375 653.320312 223.117188 653.859375 220.527344 C 654.246094 218.679688 654.875 216.832031 654.691406 214.96875 C 654.4375 212.480469 652.742188 210.296875 651.410156 208.0625 C 649.402344 204.957031 648.464844 201.4375 648.703125 197.902344 C 649.101562 194.398438 651.277344 190.933594 654.917969 189.269531 C 657.480469 188.070312 660.640625 187.765625 662.816406 186.109375 C 666.261719 183.519531 665.742188 178.925781 666.363281 175.050781 C 666.445312 174.1875 666.777344 173.355469 667.328125 172.625 C 668.40625 171.382812 670.378906 171.046875 672.210938 170.898438 C 676.46875 170.589844 680.992188 170.976562 684.5625 172.988281 C 687.871094 174.980469 690.160156 177.96875 690.96875 181.34375 C 691.75 184.699219 691.675781 188.160156 690.753906 191.488281 C 690.894531 190.027344 693.539062 189.632812 694.757812 190.625 C 695.980469 191.617188 696.039062 193.328125 695.695312 194.757812 C 694.269531 200.800781 687.824219 205.117188 685.660156 210.988281 C 683.914062 215.910156 685.324219 221.246094 689.382812 225.058594 C 689.917969 225.617188 690.617188 226.039062 691.414062 226.285156 C 692.226562 226.421875 693.058594 226.453125 693.886719 226.390625 C 697.128906 226.390625 699.914062 228.28125 702.382812 230.074219 C 704.855469 231.871094 707.46875 233.796875 710.761719 234.011719 C 714.054688 234.226562 717.601562 231.707031 716.628906 229.074219 C 716.273438 228.289062 715.707031 227.582031 714.96875 227.019531 C 712.9375 225.242188 710.273438 223.84375 708.871094 221.667969 C 706.421875 218.015625 707.914062 213.449219 709.460938 209.453125 C 711.003906 205.457031 712.511719 200.878906 710 197.246094 C 708.820312 195.519531 706.847656 194.222656 705.933594 192.394531 C 705.429688 191.335938 705.164062 190.203125 705.148438 189.0625 C 704.9375 184.882812 706.164062 180.628906 705.148438 176.554688 C 703.925781 172.585938 700.875 169.199219 696.679688 167.160156 C 694.574219 166.074219 692.28125 165.261719 689.890625 164.753906 C 688.964844 164.554688 687.5625 164.597656 686.910156 164.011719 C 686.261719 163.421875 686.035156 162.378906 685.210938 161.722656 C 683.21875 160.273438 680.578125 159.566406 678.148438 159.054688 Z M 678.148438 159.054688 "/>
<use xlink:href="#surface26" mask="url(#mask7)"/>
<use xlink:href="#surface29" mask="url(#mask8)"/>
<use xlink:href="#surface32" mask="url(#mask9)"/>
<use xlink:href="#surface35" mask="url(#mask10)"/>
<use xlink:href="#surface38" mask="url(#mask11)"/>
<use xlink:href="#surface41" mask="url(#mask12)"/>
<use xlink:href="#surface44" mask="url(#mask13)"/>
<use xlink:href="#surface47" mask="url(#mask14)"/>
<path style=" stroke:none;fill-rule:nonzero;fill:rgb(98.431373%,70.196078%,69.803922%);fill-opacity:1;" d="M 616.519531 246.363281 C 616.519531 246.363281 611.433594 248.714844 608.230469 270.484375 C 605.03125 292.257812 603.496094 315.375 603.496094 315.375 C 603.496094 315.375 603.496094 334.804688 625.191406 335.46875 C 625.191406 335.46875 633.871094 336.816406 636.636719 338.492188 C 639.402344 340.167969 682.792969 328.773438 662.277344 326.40625 C 641.761719 324.042969 634.269531 325.058594 634.269531 325.058594 C 634.269531 325.058594 623.21875 319.015625 623.21875 313.335938 C 623.21875 307.65625 634.269531 273.867188 634.269531 273.867188 Z M 616.519531 246.363281 "/>
<path style=" stroke:none;fill-rule:nonzero;fill:rgb(24.705882%,23.921569%,33.72549%);fill-opacity:1;" d="M 616.4375 263.441406 C 616.984375 264.578125 617.269531 265.796875 617.726562 266.972656 C 618.972656 269.660156 620.683594 272.175781 622.8125 274.429688 C 625.394531 277.484375 629.539062 284.683594 632.113281 287.742188 C 633.652344 283.257812 635.910156 278.972656 638.824219 275.007812 L 616.539062 244.363281 C 616.539062 244.363281 614.789062 245.15625 612.707031 250.144531 C 612.59375 251.050781 612.53125 251.960938 612.523438 252.847656 C 612.382812 254.875 612.726562 256.902344 613.539062 258.8125 C 614.351562 260.425781 615.652344 261.824219 616.4375 263.441406 Z M 616.4375 263.441406 "/>
<path style=" stroke:none;fill-rule:nonzero;fill:rgb(93.333333%,93.72549%,95.294118%);fill-opacity:1;" d="M 692.847656 201.355469 C 692.847656 200.933594 692.535156 200.554688 692.066406 200.414062 L 692.066406 199.28125 C 692.535156 199.144531 692.851562 198.765625 692.847656 198.34375 C 692.855469 197.824219 692.40625 197.386719 691.800781 197.324219 C 691.195312 197.261719 690.636719 197.597656 690.5 198.101562 C 690.363281 198.605469 690.695312 199.117188 691.273438 199.28125 L 691.273438 200.414062 C 690.796875 200.554688 690.480469 200.933594 690.480469 201.359375 C 690.480469 201.785156 690.796875 202.164062 691.273438 202.304688 L 691.273438 203.425781 C 690.796875 203.566406 690.480469 203.945312 690.480469 204.371094 C 690.480469 204.796875 690.796875 205.175781 691.273438 205.316406 L 691.273438 206.449219 C 690.730469 206.613281 690.410156 207.082031 690.507812 207.5625 C 690.605469 208.042969 691.09375 208.394531 691.667969 208.394531 C 692.242188 208.394531 692.734375 208.042969 692.832031 207.5625 C 692.929688 207.082031 692.605469 206.613281 692.066406 206.449219 L 692.066406 205.316406 C 692.539062 205.175781 692.855469 204.796875 692.855469 204.371094 C 692.855469 203.945312 692.539062 203.566406 692.066406 203.425781 L 692.066406 202.304688 C 692.535156 202.160156 692.851562 201.78125 692.847656 201.355469 Z M 692.847656 201.355469 "/>
<path style=" stroke:none;fill-rule:nonzero;fill:rgb(98.431373%,70.196078%,69.803922%);fill-opacity:1;" d="M 730.921875 232.96875 C 736.984375 241.582031 741.378906 250.972656 743.933594 260.773438 C 747.878906 276.519531 750.644531 279.867188 750.644531 279.867188 C 750.644531 279.867188 768.007812 317.386719 748.671875 319.734375 C 729.335938 322.082031 695.421875 319.734375 695.421875 319.734375 C 695.421875 319.734375 626.777344 329.78125 650.839844 316.382812 C 674.902344 302.984375 693.863281 304.652344 693.863281 304.652344 C 693.863281 304.652344 722.667969 303.988281 726.609375 301.640625 L 734.105469 300.976562 L 716.351562 258.097656 Z M 730.921875 232.96875 "/>
<path style=" stroke:none;fill-rule:nonzero;fill:rgb(24.705882%,23.921569%,33.72549%);fill-opacity:1;" d="M 712.582031 257.585938 L 720.855469 273.988281 C 726.449219 264.414062 732.882812 252.683594 734.074219 242.050781 C 734.183594 240.082031 734.132812 238.105469 733.921875 236.144531 C 733.011719 234.542969 731.816406 233.070312 730.371094 231.785156 Z M 712.582031 257.585938 "/>
<path style=" stroke:none;fill-rule:nonzero;fill:rgb(62.745098%,38.039216%,41.568627%);fill-opacity:1;" d="M 442.210938 446.519531 C 442.210938 446.519531 422.257812 481.792969 436.113281 494.242188 C 449.96875 506.6875 459.332031 445.140625 459.332031 445.140625 Z M 442.210938 446.519531 "/>
<path style=" stroke:none;fill-rule:nonzero;fill:rgb(21.176471%,20.392157%,29.019608%);fill-opacity:1;" d="M 345.683594 611.472656 L 323.316406 635.332031 C 323.316406 635.332031 278.105469 650.550781 319.644531 652.597656 C 319.644531 652.597656 339.976562 651.214844 344.046875 648.789062 C 348.113281 646.363281 350.5625 641.53125 358.703125 644.300781 C 366.847656 647.074219 376.222656 641.53125 376.222656 641.53125 C 376.222656 641.53125 377.441406 614.554688 369.296875 611.445312 C 361.15625 608.339844 345.683594 611.472656 345.683594 611.472656 Z M 345.683594 611.472656 "/>
<path style=" stroke:none;fill-rule:nonzero;fill:rgb(21.176471%,20.392157%,29.019608%);fill-opacity:1;" d="M 429.179688 620.113281 L 423.882812 639.828125 C 423.882812 639.828125 412.070312 663.34375 429.179688 659.882812 C 446.289062 656.421875 454.839844 652.625 456.464844 645.707031 C 458.09375 638.792969 462.566406 631.179688 462.566406 631.179688 C 462.566406 631.179688 457.675781 620.457031 453.203125 620.113281 C 448.730469 619.765625 429.179688 620.113281 429.179688 620.113281 Z M 429.179688 620.113281 "/>
<path style=" stroke:none;fill-rule:nonzero;fill:rgb(24.705882%,23.921569%,33.72549%);fill-opacity:1;" d="M 320.019531 381.828125 C 320.019531 381.828125 305.363281 467.289062 315.546875 513.90625 C 325.734375 560.523438 337.914062 608.320312 337.914062 608.320312 C 337.914062 608.320312 323.679688 635.945312 372.480469 617.660156 C 372.480469 617.660156 369.226562 549.179688 359.445312 522.554688 C 349.667969 495.933594 364.46875 459.988281 368.535156 458.949219 C 368.535156 458.949219 384.800781 528.46875 400.714844 551.320312 C 416.625 574.171875 425.46875 627.382812 425.46875 627.382812 C 425.46875 627.382812 459.6875 631.179688 459.28125 623.574219 C 458.875 615.96875 452.765625 551.640625 432.847656 528.816406 C 432.847656 528.816406 415.738281 490.769531 426.75 451.347656 C 437.761719 411.921875 414.9375 398.429688 414.9375 398.429688 L 378.703125 362.121094 L 342.457031 355.214844 Z M 320.019531 381.828125 "/>
<path style=" stroke:none;fill-rule:nonzero;fill:rgb(62.745098%,38.039216%,41.568627%);fill-opacity:1;" d="M 427.5 234.589844 C 427.121094 235.714844 426.503906 236.773438 425.683594 237.714844 C 424.832031 238.488281 423.828125 239.128906 422.714844 239.605469 C 419.132812 241.320312 415.347656 242.703125 411.417969 243.722656 C 410.402344 245.449219 412.046875 247.390625 413.613281 248.789062 L 418.210938 252.917969 C 420.894531 255.316406 423.578125 257.71875 426.476562 259.925781 C 432.078125 264.195312 438.433594 267.691406 445.3125 270.285156 C 448.914062 271.640625 453.558594 272.609375 456.445312 270.335938 C 459.332031 268.066406 458.613281 264.078125 460.359375 261.117188 C 460.808594 260.761719 461.03125 260.246094 460.964844 259.726562 C 460.898438 259.207031 460.550781 258.746094 460.023438 258.476562 C 457.664062 256.5 457.1875 253.375 457.6875 250.59375 C 458.183594 247.816406 459.515625 245.191406 460.277344 242.453125 C 461.042969 239.71875 461.183594 236.664062 459.464844 234.253906 C 458.453125 232.972656 457.148438 231.878906 455.621094 231.042969 C 452.285156 229.03125 448.5625 227.523438 444.621094 226.589844 C 442.589844 226.113281 440.554688 225.792969 438.523438 225.285156 C 437.261719 224.957031 433.847656 222.953125 432.769531 223.117188 C 430.550781 223.429688 428.285156 232.578125 427.5 234.589844 Z M 427.5 234.589844 "/>
<use xlink:href="#surface50" mask="url(#mask15)"/>
<path style=" stroke:none;fill-rule:nonzero;fill:rgb(93.333333%,93.72549%,95.294118%);fill-opacity:1;" d="M 422.9375 240.796875 C 422.886719 240.113281 422.792969 239.320312 422.113281 238.949219 C 421.714844 238.765625 421.261719 238.683594 420.8125 238.714844 C 411.195312 238.714844 403.398438 245.140625 397.347656 251.476562 C 384.597656 264.8125 374.542969 279.867188 365.832031 295.382812 C 360.472656 304.9375 355.503906 315.683594 358.949219 325.863281 C 360.039062 328.882812 361.660156 331.742188 363.757812 334.347656 C 366.648438 338.074219 370.152344 341.425781 374.167969 344.300781 C 375.675781 345.53125 377.542969 346.398438 379.578125 346.804688 C 382.625 347.21875 385.523438 345.796875 388.125 344.421875 C 393.351562 341.660156 398.554688 338.867188 403.734375 336.050781 C 412.140625 331.472656 420.546875 326.820312 427.960938 321.140625 C 435.371094 315.460938 441.804688 308.675781 445.457031 300.785156 C 447.011719 297.4375 448.046875 293.878906 449.796875 290.632812 C 452.460938 285.636719 456.761719 281.222656 458.285156 275.886719 C 459.007812 273.34375 459.070312 270.710938 459.839844 268.164062 C 460.453125 266.132812 461.507812 264.21875 462.015625 262.171875 C 462.527344 260.125 462.402344 257.855469 460.867188 256.179688 C 458.285156 253.402344 453.265625 253.816406 449.175781 254.53125 C 443.847656 255.464844 434.355469 257.761719 429.28125 255.023438 C 424.941406 252.667969 423.242188 244.800781 422.9375 240.796875 Z M 422.9375 240.796875 "/>
<path style=" stroke:none;fill-rule:nonzero;fill:rgb(24.705882%,23.921569%,33.72549%);fill-opacity:1;" d="M 420.222656 257.328125 L 414.519531 257.675781 L 410.453125 256.285156 L 413.714844 247.988281 C 413.714844 247.988281 425.203125 249.09375 426.382812 252.167969 C 426.382812 252.167969 427.238281 254.28125 428.621094 254.59375 C 430.003906 254.902344 435.738281 254.210938 436.925781 256.628906 C 438.117188 259.046875 437.738281 272.167969 430.003906 270.441406 L 426.34375 262.136719 L 424.707031 260.066406 C 424.707031 260.066406 419.816406 259.402344 420.222656 257.328125 Z M 420.222656 257.328125 "/>
<path style=" stroke:none;fill-rule:nonzero;fill:rgb(24.705882%,23.921569%,33.72549%);fill-opacity:1;" d="M 373.375 334.453125 C 373.375 334.453125 386.003906 263.898438 425.507812 238.628906 C 425.507812 238.628906 425.914062 232.0625 418.992188 232.75 C 412.070312 233.441406 383.15625 228.597656 383.15625 228.597656 L 355.867188 273.566406 C 355.867188 273.566406 349.769531 315.410156 345.273438 322.324219 C 340.78125 329.238281 312.691406 384.234375 312.691406 384.234375 C 312.691406 384.234375 328.582031 429.539062 352.199219 368.699219 C 352.199219 368.699219 333.898438 418.152344 385.59375 422.996094 C 437.292969 427.839844 431.210938 420.226562 431.210938 420.226562 L 437.3125 384.261719 L 437.3125 357.277344 L 448.71875 338.285156 L 495.148438 288.136719 C 495.148438 288.136719 463.632812 251.085938 457.613281 254.394531 C 457.625 254.359375 418.585938 306.785156 373.375 334.453125 Z M 373.375 334.453125 "/>
<path style=" stroke:none;fill-rule:nonzero;fill:rgb(24.705882%,23.921569%,33.72549%);fill-opacity:1;" d="M 389.265625 231.386719 L 383.164062 228.617188 C 383.164062 228.617188 364.429688 234.496094 357.910156 257.328125 C 357.910156 257.328125 342.03125 267.003906 331.480469 274.273438 C 331.480469 274.273438 317.246094 251.828125 317.246094 244.179688 C 317.246094 244.179688 293.617188 257.675781 288.324219 254.210938 C 288.324219 254.210938 302.554688 309.890625 329.464844 305.738281 C 356.375 301.585938 366.503906 288.105469 366.503906 288.105469 Z M 389.265625 231.386719 "/>
<path style=" stroke:none;fill-rule:nonzero;fill:rgb(24.705882%,23.921569%,33.72549%);fill-opacity:1;" d="M 479.6875 290.183594 L 495.160156 288.105469 C 495.160156 288.105469 504.941406 299.171875 487.421875 315.425781 L 476.828125 370.414062 C 476.828125 370.414062 478.050781 388.742188 474.390625 402.582031 C 470.730469 416.417969 465.015625 458.949219 465.015625 458.949219 C 465.015625 458.949219 446.289062 453.074219 436.101562 454.109375 L 451.574219 326.527344 Z M 479.6875 290.183594 "/>
<path style=" stroke:none;fill-rule:nonzero;fill:rgb(62.745098%,38.039216%,41.568627%);fill-opacity:1;" d="M 316.363281 247.972656 C 316.363281 247.972656 307.800781 204.394531 293.140625 220.648438 C 278.480469 236.902344 294.769531 259.382812 294.769531 259.382812 Z M 316.363281 247.972656 "/>
<path style=" stroke:none;fill-rule:nonzero;fill:rgb(62.745098%,38.039216%,41.568627%);fill-opacity:1;" d="M 491.703125 222.226562 C 491.703125 237.699219 476.933594 250.242188 458.714844 250.242188 C 440.492188 250.242188 425.722656 237.699219 425.722656 222.226562 C 425.722656 206.757812 440.492188 194.214844 458.714844 194.214844 C 476.933594 194.214844 491.703125 206.757812 491.703125 222.226562 Z M 491.703125 222.226562 "/>
<path style=" stroke:none;fill-rule:nonzero;fill:rgb(24.705882%,23.921569%,33.72549%);fill-opacity:1;" d="M 485.085938 192.003906 C 484.332031 191.207031 483.652344 190.363281 483.050781 189.476562 C 481.070312 187.007812 477.96875 185.394531 474.917969 183.941406 C 469.335938 181.351562 462.972656 178.917969 456.761719 180.179688 C 452.460938 181.042969 448.8125 183.632812 444.480469 184.375 C 440.148438 185.117188 435.003906 184.296875 432.085938 187.058594 C 429.167969 189.820312 430.460938 194.171875 427.949219 197.03125 C 426.554688 198.609375 423.972656 200.058594 424.675781 201.941406 C 424.96875 202.734375 425.835938 203.296875 426.230469 204.066406 C 426.933594 205.414062 426.070312 206.957031 426.027344 208.433594 C 425.976562 210.617188 427.734375 212.492188 428.976562 214.40625 C 430.214844 216.324219 430.886719 219 428.976562 220.503906 C 435.445312 216.109375 442.535156 212.417969 450.082031 209.511719 C 450.070312 210.398438 449.796875 211.269531 449.289062 212.042969 C 453.375 211.53125 457.417969 210.800781 461.398438 209.859375 L 459.300781 213.269531 L 468.289062 209.9375 C 470.71875 209.03125 473.769531 208.210938 475.84375 209.589844 C 476.800781 210.363281 477.46875 211.355469 477.773438 212.449219 C 478.960938 215.566406 479.664062 218.800781 479.871094 222.074219 C 480.09375 225.769531 479.871094 229.84375 482.6875 232.664062 C 484.296875 234.109375 486.542969 234.925781 488.890625 234.910156 C 491.234375 234.898438 493.46875 234.058594 495.058594 232.597656 C 495.851562 230.007812 494.660156 227.332031 494.601562 224.671875 C 494.507812 220.796875 496.808594 217.152344 497.222656 213.292969 C 497.761719 208.417969 494.367188 205.523438 492.820312 201.207031 C 492.222656 199.550781 492.585938 197.589844 491.4375 196.027344 C 489.953125 194.09375 486.925781 193.664062 485.085938 192.003906 Z M 485.085938 192.003906 "/>
<path style=" stroke:none;fill-rule:nonzero;fill:rgb(29.411765%,50.196078%,52.156863%);fill-opacity:1;" d="M 293.355469 271.011719 L 305.117188 254.238281 L 295.519531 249.386719 C 297.796875 247.125 305.6875 239.21875 307.792969 235.523438 C 307.792969 235.523438 319.503906 227.441406 321.890625 216.980469 C 321.890625 216.980469 325.0625 219.519531 327.890625 216.273438 C 330.714844 213.027344 342.429688 207.292969 333.167969 199.34375 L 333.910156 196.125 C 335.417969 195.433594 336.667969 194.398438 337.519531 193.136719 C 339.550781 190.28125 339.316406 187.09375 337.082031 185.917969 C 334.84375 184.746094 331.398438 186.179688 329.394531 189.035156 C 328.398438 190.390625 327.925781 191.980469 328.054688 193.578125 L 325.378906 196.339844 C 325.378906 196.339844 315.699219 188.179688 309.214844 206.835938 C 309.214844 206.835938 308.503906 210.210938 310.535156 211.238281 C 310.535156 211.238281 300.613281 223.023438 299.503906 228.503906 C 299.503906 228.503906 290.964844 239.121094 290.894531 242.316406 L 288.476562 245.769531 L 278.308594 240.640625 L 266.351562 257.707031 C 260.445312 256.09375 256.035156 255.980469 254.8125 257.707031 C 252.679688 260.753906 261.117188 268.371094 273.671875 274.714844 C 286.226562 281.058594 298.121094 283.726562 300.257812 280.6875 C 301.628906 278.816406 298.773438 275.085938 293.355469 271.011719 Z M 293.355469 271.011719 "/>
<use xlink:href="#surface53" mask="url(#mask16)"/>
<use xlink:href="#surface56" mask="url(#mask17)"/>
</g>
</svg>
