<?xml version="1.0" encoding="UTF-8"?>
<svg xmlns="http://www.w3.org/2000/svg" xmlns:xlink="http://www.w3.org/1999/xlink" width="1099px" height="726px" viewBox="0 0 1099 726" version="1.1">
<defs>
<filter id="alpha" filterUnits="objectBoundingBox" x="0%" y="0%" width="100%" height="100%">
  <feColorMatrix type="matrix" in="SourceGraphic" values="0 0 0 0 1 0 0 0 0 1 0 0 0 0 1 0 0 0 1 0"/>
</filter>
<mask id="mask0">
  <g filter="url(#alpha)">
<rect x="0" y="0" width="1099" height="726" style="fill:rgb(0%,0%,0%);fill-opacity:0.101961;stroke:none;"/>
  </g>
</mask>
<clipPath id="clip1">
  <rect x="0" y="0" width="1099" height="726"/>
</clipPath>
<g id="surface5" clip-path="url(#clip1)">
<path style=" stroke:none;fill-rule:nonzero;fill:rgb(29.411765%,50.196078%,52.156863%);fill-opacity:1;" d="M 1069.976562 673.914062 C 1068.945312 674.761719 1067.882812 675.578125 1066.8125 676.382812 C 1062.867188 679.359375 1058.742188 682.03125 1054.476562 684.382812 C 1032.054688 696.949219 1004.4375 703.082031 977.527344 707.25 C 917.175781 716.613281 855.558594 718.429688 794.195312 720.210938 C 628.417969 725.054688 462.203125 729.878906 296.84375 718.730469 C 231.515625 714.324219 164.726562 706.914062 105.511719 684.363281 C 97.035156 681.132812 88.714844 677.574219 80.550781 673.6875 C 64.058594 665.792969 48.210938 656.203125 35.035156 644.777344 C 22.609375 634.035156 12.613281 621.6875 6.613281 607.660156 C -5.90625 578.425781 0.714844 545.59375 15.003906 516.953125 C 20.976562 505.328125 27.683594 494.203125 35.074219 483.660156 C 46.082031 467.527344 58.226562 451.902344 69.332031 435.792969 C 108.820312 378.421875 134.585938 305.960938 98.136719 247.195312 C 87.625 230.3125 72.515625 215.492188 63.980469 197.867188 C 53.078125 175.3125 53.925781 150.28125 57.394531 125.910156 C 57.835938 122.839844 58.351562 119.789062 58.820312 116.738281 C 64.773438 80.6875 75.859375 41.832031 110.175781 19.320312 C 145.824219 -4.070312 196.425781 -2.890625 240.679688 5.476562 C 309.488281 18.492188 372.960938 45.675781 437.058594 70.226562 C 501.152344 94.777344 568.289062 117.203125 638.777344 119.628906 C 701.007812 121.777344 773.609375 105.808594 814.914062 64.363281 C 855.050781 24.109375 930.453125 21.050781 984.828125 45.363281 C 1022.097656 62.054688 1049.957031 92.113281 1061.699219 125.910156 C 1064.074219 132.679688 1065.789062 139.714844 1066.8125 146.898438 C 1067.765625 153.4375 1068.085938 160.074219 1067.769531 166.691406 C 1067.605469 169.910156 1067.292969 173.1875 1066.8125 176.355469 C 1057.734375 243.082031 992.359375 295.707031 952.621094 355.308594 C 933.203125 384.425781 919.492188 419.394531 932.839844 450.785156 C 953.207031 498.621094 1024.027344 515.621094 1066.8125 551.234375 C 1074.808594 557.640625 1081.894531 565.367188 1087.839844 574.152344 C 1108.527344 605.855469 1100.875 648.640625 1069.976562 673.914062 Z M 1069.976562 673.914062 "/>
</g>
<mask id="mask1">
  <g filter="url(#alpha)">
<rect x="0" y="0" width="1099" height="726" style="fill:rgb(0%,0%,0%);fill-opacity:0.101961;stroke:none;"/>
  </g>
</mask>
<clipPath id="clip2">
  <rect x="0" y="0" width="1099" height="726"/>
</clipPath>
<g id="surface8" clip-path="url(#clip2)">
<path style=" stroke:none;fill-rule:nonzero;fill:rgb(29.411765%,50.196078%,52.156863%);fill-opacity:1;" d="M 771.527344 698.828125 C 771.527344 693.394531 656.160156 688.992188 513.84375 688.992188 C 371.53125 688.992188 256.164062 693.394531 256.164062 698.828125 C 256.164062 704.261719 371.53125 708.667969 513.84375 708.667969 C 656.160156 708.667969 771.527344 704.261719 771.527344 698.828125 Z M 771.527344 698.828125 "/>
</g>
<mask id="mask2">
  <g filter="url(#alpha)">
<rect x="0" y="0" width="1099" height="726" style="fill:rgb(0%,0%,0%);fill-opacity:0.25098;stroke:none;"/>
  </g>
</mask>
<clipPath id="clip3">
  <rect x="0" y="0" width="1099" height="726"/>
</clipPath>
<g id="surface11" clip-path="url(#clip3)">
<path style=" stroke:none;fill-rule:nonzero;fill:rgb(0%,0%,0%);fill-opacity:1;" d="M 814.835938 355.644531 C 810.917969 366.621094 817.214844 406.398438 817.214844 406.398438 C 817.214844 406.398438 846.257812 382.566406 850.175781 371.601562 C 854.097656 360.628906 849.363281 348.160156 839.597656 343.753906 C 829.832031 339.347656 818.738281 344.671875 814.816406 355.644531 Z M 814.835938 355.644531 "/>
</g>
<mask id="mask3">
  <g filter="url(#alpha)">
<rect x="0" y="0" width="1099" height="726" style="fill:rgb(0%,0%,0%);fill-opacity:0.25098;stroke:none;"/>
  </g>
</mask>
<clipPath id="clip4">
  <rect x="0" y="0" width="1099" height="726"/>
</clipPath>
<g id="surface14" clip-path="url(#clip4)">
<path style=" stroke:none;fill-rule:nonzero;fill:rgb(0%,0%,0%);fill-opacity:1;" d="M 763.910156 403.210938 C 765.925781 414.808594 790.457031 444.351562 790.457031 444.351562 C 790.457031 444.351562 803.3125 406.613281 801.296875 395.015625 C 799.175781 383.539062 789.238281 376.113281 779 378.355469 C 768.761719 380.597656 762.035156 391.679688 763.910156 403.210938 Z M 763.910156 403.210938 "/>
</g>
<mask id="mask4">
  <g filter="url(#alpha)">
<rect x="0" y="0" width="1099" height="726" style="fill:rgb(0%,0%,0%);fill-opacity:0.25098;stroke:none;"/>
  </g>
</mask>
<clipPath id="clip5">
  <rect x="0" y="0" width="1099" height="726"/>
</clipPath>
<g id="surface17" clip-path="url(#clip5)">
<path style=" stroke:none;fill-rule:nonzero;fill:rgb(0%,0%,0%);fill-opacity:1;" d="M 728.082031 507.597656 C 735.03125 516.46875 769.472656 528.003906 769.472656 528.003906 C 769.472656 528.003906 763.613281 488.136719 756.667969 479.265625 C 749.71875 470.398438 737.6875 469.535156 729.792969 477.34375 C 721.898438 485.152344 721.132812 498.675781 728.082031 507.542969 Z M 728.082031 507.597656 "/>
</g>
<mask id="mask5">
  <g filter="url(#alpha)">
<rect x="0" y="0" width="1099" height="726" style="fill:rgb(0%,0%,0%);fill-opacity:0.25098;stroke:none;"/>
  </g>
</mask>
<clipPath id="clip6">
  <rect x="0" y="0" width="1099" height="726"/>
</clipPath>
<g id="surface20" clip-path="url(#clip6)">
<path style=" stroke:none;fill-rule:nonzero;fill:rgb(0%,0%,0%);fill-opacity:1;" d="M 716.785156 593.441406 C 722.300781 603.503906 754.515625 621.472656 754.515625 621.472656 C 754.515625 621.472656 754.734375 581.058594 749.222656 570.996094 C 745.679688 564.421875 739.273438 560.488281 732.4375 560.6875 C 725.601562 560.886719 719.386719 565.1875 716.152344 571.957031 C 712.914062 578.726562 713.160156 586.925781 716.785156 593.441406 Z M 716.785156 593.441406 "/>
</g>
<mask id="mask6">
  <g filter="url(#alpha)">
<rect x="0" y="0" width="1099" height="726" style="fill:rgb(0%,0%,0%);fill-opacity:0.25098;stroke:none;"/>
  </g>
</mask>
<clipPath id="clip7">
  <rect x="0" y="0" width="1099" height="726"/>
</clipPath>
<g id="surface23" clip-path="url(#clip7)">
<path style=" stroke:none;fill-rule:nonzero;fill:rgb(0%,0%,0%);fill-opacity:1;" d="M 826.847656 463.234375 C 817.109375 467.710938 781.675781 460.902344 781.675781 460.902344 C 781.675781 460.902344 802.699219 428.105469 812.410156 423.625 C 822.097656 419.359375 833.039062 424.617188 836.984375 435.4375 C 840.929688 446.257812 836.417969 458.632812 826.847656 463.234375 Z M 826.847656 463.234375 "/>
</g>
<mask id="mask7">
  <g filter="url(#alpha)">
<rect x="0" y="0" width="1099" height="726" style="fill:rgb(0%,0%,0%);fill-opacity:0.25098;stroke:none;"/>
  </g>
</mask>
<clipPath id="clip8">
  <rect x="0" y="0" width="1099" height="726"/>
</clipPath>
<g id="surface26" clip-path="url(#clip8)">
<path style=" stroke:none;fill-rule:nonzero;fill:rgb(0%,0%,0%);fill-opacity:1;" d="M 812.515625 563.433594 C 802.003906 564.445312 770.027344 546.023438 770.027344 546.023438 C 770.027344 546.023438 798.800781 521.796875 809.273438 520.785156 C 816.121094 520 822.808594 523.425781 826.777344 529.742188 C 830.742188 536.0625 831.367188 544.292969 828.410156 551.273438 C 825.457031 558.257812 819.378906 562.90625 812.515625 563.433594 Z M 812.515625 563.433594 "/>
</g>
<mask id="mask8">
  <g filter="url(#alpha)">
<rect x="0" y="0" width="1099" height="726" style="fill:rgb(0%,0%,0%);fill-opacity:0.25098;stroke:none;"/>
  </g>
</mask>
<clipPath id="clip9">
  <rect x="0" y="0" width="1099" height="726"/>
</clipPath>
<g id="surface29" clip-path="url(#clip9)">
<path style=" stroke:none;fill-rule:nonzero;fill:rgb(0%,0%,0%);fill-opacity:1;" d="M 786.636719 658.683594 C 776.457031 661.660156 742.148438 649.585938 742.148438 649.585938 C 742.148438 649.585938 766.863281 620.246094 777.039062 617.261719 C 787.09375 614.65625 797.164062 621.523438 799.753906 632.746094 C 802.34375 643.96875 796.511719 655.46875 786.597656 658.683594 Z M 786.636719 658.683594 "/>
</g>
<mask id="mask9">
  <g filter="url(#alpha)">
<rect x="0" y="0" width="1099" height="726" style="fill:rgb(0%,0%,0%);fill-opacity:0.101961;stroke:none;"/>
  </g>
</mask>
<clipPath id="clip10">
  <rect x="0" y="0" width="1099" height="726"/>
</clipPath>
<g id="surface32" clip-path="url(#clip10)">
<path style=" stroke:none;fill-rule:nonzero;fill:rgb(0%,0%,0%);fill-opacity:1;" d="M 581.113281 184.679688 L 695.972656 184.679688 L 695.972656 195.847656 L 581.113281 195.847656 Z M 581.113281 184.679688 "/>
</g>
<mask id="mask10">
  <g filter="url(#alpha)">
<rect x="0" y="0" width="1099" height="726" style="fill:rgb(0%,0%,0%);fill-opacity:0.101961;stroke:none;"/>
  </g>
</mask>
<clipPath id="clip11">
  <rect x="0" y="0" width="1099" height="726"/>
</clipPath>
<g id="surface35" clip-path="url(#clip11)">
<path style=" stroke:none;fill-rule:nonzero;fill:rgb(0%,0%,0%);fill-opacity:1;" d="M 736.722656 220.410156 L 739.292969 220.410156 L 739.292969 289.410156 L 736.722656 289.410156 Z M 736.722656 220.410156 "/>
</g>
<mask id="mask11">
  <g filter="url(#alpha)">
<rect x="0" y="0" width="1099" height="726" style="fill:rgb(0%,0%,0%);fill-opacity:0.101961;stroke:none;"/>
  </g>
</mask>
<clipPath id="clip12">
  <rect x="0" y="0" width="1099" height="726"/>
</clipPath>
<g id="surface38" clip-path="url(#clip12)">
<path style=" stroke:none;fill-rule:nonzero;fill:rgb(0%,0%,0%);fill-opacity:1;" d="M 537.390625 231.566406 L 554.878906 231.566406 L 554.878906 267.300781 L 537.390625 267.300781 Z M 537.390625 231.566406 "/>
</g>
<mask id="mask12">
  <g filter="url(#alpha)">
<rect x="0" y="0" width="1099" height="726" style="fill:rgb(0%,0%,0%);fill-opacity:0.101961;stroke:none;"/>
  </g>
</mask>
<clipPath id="clip13">
  <rect x="0" y="0" width="1099" height="726"/>
</clipPath>
<g id="surface41" clip-path="url(#clip13)">
<path style=" stroke:none;fill-rule:nonzero;fill:rgb(0%,0%,0%);fill-opacity:1;" d="M 683.988281 325.820312 L 599.59375 325.820312 L 600.933594 313.800781 L 681.484375 303.675781 Z M 683.988281 325.820312 "/>
</g>
<mask id="mask13">
  <g filter="url(#alpha)">
<rect x="0" y="0" width="1099" height="726" style="fill:rgb(0%,0%,0%);fill-opacity:0.101961;stroke:none;"/>
  </g>
</mask>
<clipPath id="clip14">
  <rect x="0" y="0" width="1099" height="726"/>
</clipPath>
<g id="surface44" clip-path="url(#clip14)">
<path style=" stroke:none;fill-rule:nonzero;fill:rgb(0%,0%,0%);fill-opacity:1;" d="M 503.609375 231.566406 L 512.753906 231.566406 L 512.753906 267.300781 L 503.609375 267.300781 Z M 503.609375 231.566406 "/>
</g>
<mask id="mask14">
  <g filter="url(#alpha)">
<rect x="0" y="0" width="1099" height="726" style="fill:rgb(0%,0%,0%);fill-opacity:0.501961;stroke:none;"/>
  </g>
</mask>
<clipPath id="clip15">
  <rect x="0" y="0" width="1099" height="726"/>
</clipPath>
<g id="surface47" clip-path="url(#clip15)">
<path style=" stroke:none;fill-rule:nonzero;fill:rgb(29.411765%,50.196078%,52.156863%);fill-opacity:1;" d="M 706.960938 206.929688 C 706.960938 210.34375 704.503906 213.105469 701.46875 213.105469 C 698.433594 213.105469 695.972656 210.34375 695.972656 206.929688 C 695.972656 203.519531 698.433594 200.757812 701.46875 200.757812 C 704.503906 200.757812 706.960938 203.519531 706.960938 206.929688 Z M 706.960938 206.929688 "/>
</g>
<linearGradient id="linear0" gradientUnits="userSpaceOnUse" x1="501.81" y1="766.64" x2="501.81" y2="122.51" gradientTransform="matrix(0.955652,0,0,1.073964,-23.681061,-120.520296)">
<stop offset="0" style="stop-color:rgb(50.196078%,50.196078%,50.196078%);stop-opacity:0.25098;"/>
<stop offset="0.54" style="stop-color:rgb(50.196078%,50.196078%,50.196078%);stop-opacity:0.121569;"/>
<stop offset="1" style="stop-color:rgb(50.196078%,50.196078%,50.196078%);stop-opacity:0.101961;"/>
</linearGradient>
<mask id="mask15">
  <g filter="url(#alpha)">
<rect x="0" y="0" width="1099" height="726" style="fill:rgb(0%,0%,0%);fill-opacity:0.101961;stroke:none;"/>
  </g>
</mask>
<clipPath id="clip16">
  <rect x="0" y="0" width="1099" height="726"/>
</clipPath>
<g id="surface50" clip-path="url(#clip16)">
<path style=" stroke:none;fill-rule:nonzero;fill:rgb(0%,0%,0%);fill-opacity:1;" d="M 399.300781 664.835938 L 399.300781 673.976562 L 369.558594 681.410156 C 369.664062 678.867188 369.90625 676.335938 370.277344 673.828125 Z M 399.300781 664.835938 "/>
</g>
<mask id="mask16">
  <g filter="url(#alpha)">
<rect x="0" y="0" width="1099" height="726" style="fill:rgb(0%,0%,0%);fill-opacity:0.101961;stroke:none;"/>
  </g>
</mask>
<clipPath id="clip17">
  <rect x="0" y="0" width="1099" height="726"/>
</clipPath>
<g id="surface53" clip-path="url(#clip17)">
<path style=" stroke:none;fill-rule:nonzero;fill:rgb(0%,0%,0%);fill-opacity:1;" d="M 399.300781 694.070312 L 399.300781 694.371094 C 399.300781 694.371094 395 703.359375 380.1875 703.769531 C 376.5 704.011719 373.078125 701.613281 371.652344 697.785156 C 378.292969 699.625 389.074219 700.804688 399.300781 694.070312 Z M 399.300781 694.070312 "/>
</g>
<mask id="mask17">
  <g filter="url(#alpha)">
<rect x="0" y="0" width="1099" height="726" style="fill:rgb(0%,0%,0%);fill-opacity:0.101961;stroke:none;"/>
  </g>
</mask>
<clipPath id="clip18">
  <rect x="0" y="0" width="1099" height="726"/>
</clipPath>
<g id="surface56" clip-path="url(#clip18)">
<path style=" stroke:none;fill-rule:nonzero;fill:rgb(0%,0%,0%);fill-opacity:1;" d="M 471.613281 355.6875 L 457.367188 358.328125 L 438.796875 361.765625 L 440.105469 344.257812 L 445.957031 265.828125 L 453.398438 262.285156 L 458.675781 259.78125 L 467.792969 255.441406 L 465.878906 276.566406 Z M 471.613281 355.6875 "/>
</g>
<mask id="mask18">
  <g filter="url(#alpha)">
<rect x="0" y="0" width="1099" height="726" style="fill:rgb(0%,0%,0%);fill-opacity:0.101961;stroke:none;"/>
  </g>
</mask>
<clipPath id="clip19">
  <rect x="0" y="0" width="1099" height="726"/>
</clipPath>
<g id="surface59" clip-path="url(#clip19)">
<path style=" stroke:none;fill-rule:nonzero;fill:rgb(0%,0%,0%);fill-opacity:1;" d="M 402.710938 593.570312 L 358.332031 647.0625 C 350.550781 629.988281 347.207031 595.726562 345.792969 566.804688 C 354.058594 559.074219 362.039062 552.414062 368.078125 549.203125 C 368.078125 549.203125 388.511719 532.589844 392.820312 524.621094 C 395.105469 540.492188 399.386719 569.480469 401.210938 576.40625 C 401.8125 578.683594 402.308594 585.074219 402.710938 593.570312 Z M 402.710938 593.570312 "/>
</g>
<mask id="mask19">
  <g filter="url(#alpha)">
<rect x="0" y="0" width="1099" height="726" style="fill:rgb(0%,0%,0%);fill-opacity:0.101961;stroke:none;"/>
  </g>
</mask>
<clipPath id="clip20">
  <rect x="0" y="0" width="1099" height="726"/>
</clipPath>
<g id="surface62" clip-path="url(#clip20)">
<path style=" stroke:none;fill-rule:nonzero;fill:rgb(0%,0%,0%);fill-opacity:1;" d="M 392.105469 466.410156 L 340.421875 457.679688 L 343.230469 449.324219 L 374.136719 449.324219 Z M 392.105469 466.410156 "/>
</g>
<mask id="mask20">
  <g filter="url(#alpha)">
<rect x="0" y="0" width="1099" height="726" style="fill:rgb(0%,0%,0%);fill-opacity:0.101961;stroke:none;"/>
  </g>
</mask>
<clipPath id="clip21">
  <rect x="0" y="0" width="1099" height="726"/>
</clipPath>
<g id="surface65" clip-path="url(#clip21)">
<path style=" stroke:none;fill-rule:nonzero;fill:rgb(0%,0%,0%);fill-opacity:1;" d="M 402.539062 589.53125 L 357.175781 644.207031 C 350.199219 626.367188 347.113281 594.191406 345.792969 566.816406 C 345.726562 565.429688 345.660156 564.058594 345.601562 562.703125 C 353.945312 554.886719 362.019531 548.164062 368.078125 544.917969 C 368.078125 544.917969 387.144531 529.421875 392.332031 521.183594 C 392.476562 522.257812 392.640625 523.398438 392.820312 524.632812 C 395.105469 540.503906 399.386719 569.492188 401.210938 576.417969 C 401.71875 578.308594 402.136719 583.078125 402.539062 589.53125 Z M 402.539062 589.53125 "/>
</g>
<mask id="mask21">
  <g filter="url(#alpha)">
<rect x="0" y="0" width="1099" height="726" style="fill:rgb(0%,0%,0%);fill-opacity:0.101961;stroke:none;"/>
  </g>
</mask>
<clipPath id="clip22">
  <rect x="0" y="0" width="1099" height="726"/>
</clipPath>
<g id="surface68" clip-path="url(#clip22)">
<path style=" stroke:none;fill-rule:nonzero;fill:rgb(0%,0%,0%);fill-opacity:1;" d="M 346.5 646.710938 C 346.5 646.710938 344.980469 649.277344 342.886719 652.960938 C 335.289062 642.167969 317.277344 617.316406 307.335938 609.90625 L 310.902344 604.964844 Z M 346.5 646.710938 "/>
</g>
<mask id="mask22">
  <g filter="url(#alpha)">
<rect x="0" y="0" width="1099" height="726" style="fill:rgb(0%,0%,0%);fill-opacity:0.101961;stroke:none;"/>
  </g>
</mask>
<clipPath id="clip23">
  <rect x="0" y="0" width="1099" height="726"/>
</clipPath>
<g id="surface71" clip-path="url(#clip23)">
<path style=" stroke:none;fill-rule:nonzero;fill:rgb(0%,0%,0%);fill-opacity:1;" d="M 445.171875 92.414062 C 442.886719 98.183594 441.828125 105.054688 441.464844 111.875 C 429.582031 123.441406 411.730469 122.5625 400.789062 109.878906 C 401.527344 102.082031 401.851562 95.992188 401.851562 95.992188 C 401.851562 95.992188 452.816406 73.082031 445.171875 92.414062 Z M 445.171875 92.414062 "/>
</g>
<mask id="mask23">
  <g filter="url(#alpha)">
<rect x="0" y="0" width="1099" height="726" style="fill:rgb(0%,0%,0%);fill-opacity:0.101961;stroke:none;"/>
  </g>
</mask>
<clipPath id="clip24">
  <rect x="0" y="0" width="1099" height="726"/>
</clipPath>
<g id="surface74" clip-path="url(#clip24)">
<path style=" stroke:none;fill-rule:nonzero;fill:rgb(0%,0%,0%);fill-opacity:1;" d="M 427.65625 143.601562 C 427.65625 143.601562 406.363281 132.503906 405.035156 131.066406 C 403.707031 129.628906 359.535156 257.085938 359.535156 257.085938 L 347.113281 320.449219 C 347.113281 320.449219 413.367188 352.304688 427.703125 348.007812 C 442.035156 343.710938 443.308594 348.007812 443.308594 348.007812 C 443.308594 348.007812 457.96875 255.648438 462.746094 247.421875 C 467.523438 239.195312 458.28125 155.414062 458.28125 155.414062 L 441.722656 131.054688 Z M 427.65625 143.601562 "/>
</g>
<mask id="mask24">
  <g filter="url(#alpha)">
<rect x="0" y="0" width="1099" height="726" style="fill:rgb(0%,0%,0%);fill-opacity:0.101961;stroke:none;"/>
  </g>
</mask>
<clipPath id="clip25">
  <rect x="0" y="0" width="1099" height="726"/>
</clipPath>
<g id="surface77" clip-path="url(#clip25)">
<path style=" stroke:none;fill-rule:nonzero;fill:rgb(0%,0%,0%);fill-opacity:1;" d="M 427.65625 139.304688 C 427.65625 139.304688 406.363281 128.210938 405.035156 126.769531 C 403.707031 125.332031 359.535156 252.789062 359.535156 252.789062 L 347.113281 316.152344 C 347.113281 316.152344 413.367188 348.007812 427.703125 343.710938 C 442.035156 339.414062 443.308594 343.710938 443.308594 343.710938 C 443.308594 343.710938 457.96875 251.351562 462.746094 243.125 C 467.523438 234.898438 458.28125 151.117188 458.28125 151.117188 L 441.722656 126.761719 Z M 427.65625 139.304688 "/>
</g>
<mask id="mask25">
  <g filter="url(#alpha)">
<rect x="0" y="0" width="1099" height="726" style="fill:rgb(0%,0%,0%);fill-opacity:0.101961;stroke:none;"/>
  </g>
</mask>
<clipPath id="clip26">
  <rect x="0" y="0" width="1099" height="726"/>
</clipPath>
<g id="surface80" clip-path="url(#clip26)">
<path style=" stroke:none;fill-rule:nonzero;fill:rgb(0%,0%,0%);fill-opacity:1;" d="M 412.039062 153.984375 C 413.949219 162.242188 409.496094 175.820312 409.496094 175.820312 C 409.496094 175.820312 394.207031 218.070312 389.742188 237.59375 C 385.28125 257.117188 359.753906 296.46875 359.753906 296.46875 C 359.753906 296.46875 356.007812 300.6875 350.761719 306.5625 C 350.179688 307.21875 349.566406 307.894531 348.957031 308.605469 L 359.46875 254.90625 C 359.46875 254.90625 403.753906 127.457031 405.023438 128.898438 C 405.796875 129.765625 414.074219 134.265625 420.382812 137.605469 C 416.433594 141.644531 410.769531 148.519531 412.039062 153.984375 Z M 412.039062 153.984375 "/>
</g>
<mask id="mask26">
  <g filter="url(#alpha)">
<rect x="0" y="0" width="1099" height="726" style="fill:rgb(0%,0%,0%);fill-opacity:0.101961;stroke:none;"/>
  </g>
</mask>
<clipPath id="clip27">
  <rect x="0" y="0" width="1099" height="726"/>
</clipPath>
<g id="surface83" clip-path="url(#clip27)">
<path style=" stroke:none;fill-rule:nonzero;fill:rgb(0%,0%,0%);fill-opacity:1;" d="M 330.492188 337.269531 C 330.492188 337.269531 356.9375 379.152344 375.410156 365.554688 C 393.882812 351.960938 350.5625 316.507812 350.5625 316.507812 Z M 330.492188 337.269531 "/>
</g>
<mask id="mask27">
  <g filter="url(#alpha)">
<rect x="0" y="0" width="1099" height="726" style="fill:rgb(0%,0%,0%);fill-opacity:0.101961;stroke:none;"/>
  </g>
</mask>
<clipPath id="clip28">
  <rect x="0" y="0" width="1099" height="726"/>
</clipPath>
<g id="surface86" clip-path="url(#clip28)">
<path style=" stroke:none;fill-rule:nonzero;fill:rgb(0%,0%,0%);fill-opacity:1;" d="M 457.367188 358.179688 C 459.382812 338.40625 465.230469 308.699219 460.460938 299.691406 C 458.101562 295.222656 456.351562 286.707031 455.070312 277.382812 C 454.382812 272.367188 453.839844 267.117188 453.398438 262.132812 C 452.234375 248.914062 451.859375 237.59375 451.859375 237.59375 C 451.859375 237.59375 440.394531 180.113281 442.621094 168.300781 C 444.015625 160.910156 442.410156 142.398438 441.015625 129.574219 L 441.75 128.917969 L 458.234375 153.265625 C 458.234375 153.265625 467.46875 237.035156 462.6875 245.273438 C 461.734375 246.980469 460.289062 252.285156 458.675781 259.632812 L 467.792969 255.335938 L 465.878906 276.460938 L 471.613281 355.578125 Z M 457.367188 358.179688 "/>
</g>
<mask id="mask28">
  <g filter="url(#alpha)">
<rect x="0" y="0" width="1099" height="726" style="fill:rgb(0%,0%,0%);fill-opacity:0.101961;stroke:none;"/>
  </g>
</mask>
<clipPath id="clip29">
  <rect x="0" y="0" width="1099" height="726"/>
</clipPath>
<g id="surface89" clip-path="url(#clip29)">
<path style=" stroke:none;fill-rule:nonzero;fill:rgb(0%,0%,0%);fill-opacity:1;" d="M 632.308594 230.398438 C 623.792969 227.410156 610.746094 227.324219 608.339844 252.949219 C 604.773438 243.476562 602.539062 235.414062 602.539062 235.414062 L 628.683594 222.976562 C 628.683594 222.976562 630.289062 225.855469 632.308594 230.398438 Z M 632.308594 230.398438 "/>
</g>
<mask id="mask29">
  <g filter="url(#alpha)">
<rect x="0" y="0" width="1099" height="726" style="fill:rgb(0%,0%,0%);fill-opacity:0.101961;stroke:none;"/>
  </g>
</mask>
<clipPath id="clip30">
  <rect x="0" y="0" width="1099" height="726"/>
</clipPath>
<g id="surface92" clip-path="url(#clip30)">
<path style=" stroke:none;fill-rule:nonzero;fill:rgb(0%,0%,0%);fill-opacity:1;" d="M 336.601562 699.902344 C 335.269531 704.082031 331.132812 702.542969 331.132812 702.542969 C 318.117188 700.933594 310.234375 661.476562 313.578125 656.953125 C 316.921875 652.433594 311.496094 641.996094 311.496094 641.996094 L 304.453125 645.078125 L 298 622.804688 L 302.070312 617.164062 C 306.125 625.058594 311.925781 636.410156 313.292969 639.308594 C 315.886719 645.324219 317.117188 651.964844 316.875 658.640625 C 316.65625 665.621094 323.859375 699 336.601562 699.902344 Z M 336.601562 699.902344 "/>
</g>
<mask id="mask30">
  <g filter="url(#alpha)">
<rect x="0" y="0" width="1099" height="726" style="fill:rgb(0%,0%,0%);fill-opacity:0.101961;stroke:none;"/>
  </g>
</mask>
<clipPath id="clip31">
  <rect x="0" y="0" width="1099" height="726"/>
</clipPath>
<g id="surface95" clip-path="url(#clip31)">
<path style=" stroke:none;fill-rule:nonzero;fill:rgb(0%,0%,0%);fill-opacity:1;" d="M 450.867188 77.832031 C 450.21875 77.582031 449.566406 77.292969 448.957031 77.003906 C 446.765625 76.003906 444.464844 74.855469 443.136719 72.707031 C 441.921875 70.710938 441.53125 67.894531 439.636719 66.757812 C 437.460938 65.449219 434.859375 67.21875 432.5 67.832031 C 429.691406 68.574219 426.765625 67.691406 424.03125 66.5625 C 419.960938 64.878906 414.273438 61.773438 410.097656 64.984375 C 406.851562 67.476562 408.109375 72.761719 407.28125 76.53125 C 405.988281 82.382812 400.457031 86.195312 399.414062 92.113281 C 398.945312 94.722656 399.253906 97.914062 397.371094 99.535156 C 396.820312 99.976562 396.195312 100.28125 395.535156 100.4375 C 390.5 88.980469 391.746094 75.292969 398.738281 65.21875 C 405.730469 55.144531 417.238281 50.453125 428.355469 53.152344 C 439.46875 55.851562 448.226562 65.460938 450.894531 77.882812 Z M 450.867188 77.832031 "/>
</g>
<mask id="mask31">
  <g filter="url(#alpha)">
<rect x="0" y="0" width="1099" height="726" style="fill:rgb(0%,0%,0%);fill-opacity:0.101961;stroke:none;"/>
  </g>
</mask>
<clipPath id="clip32">
  <rect x="0" y="0" width="1099" height="726"/>
</clipPath>
<g id="surface98" clip-path="url(#clip32)">
<path style=" stroke:none;fill-rule:nonzero;fill:rgb(0%,0%,0%);fill-opacity:1;" d="M 419.367188 452.902344 C 419.367188 452.902344 449.367188 474.378906 450.324219 482.617188 Z M 419.367188 452.902344 "/>
</g>
<mask id="mask32">
  <g filter="url(#alpha)">
<rect x="0" y="0" width="1099" height="726" style="fill:rgb(0%,0%,0%);fill-opacity:0.101961;stroke:none;"/>
  </g>
</mask>
<clipPath id="clip33">
  <rect x="0" y="0" width="1099" height="726"/>
</clipPath>
<g id="surface101" clip-path="url(#clip33)">
<path style=" stroke:none;fill-rule:nonzero;fill:rgb(0%,0%,0%);fill-opacity:1;" d="M 417.832031 470.085938 C 417.832031 470.085938 452.234375 488.695312 450.324219 495.140625 Z M 417.832031 470.085938 "/>
</g>
<mask id="mask33">
  <g filter="url(#alpha)">
<rect x="0" y="0" width="1099" height="726" style="fill:rgb(0%,0%,0%);fill-opacity:0.101961;stroke:none;"/>
  </g>
</mask>
<clipPath id="clip34">
  <rect x="0" y="0" width="1099" height="726"/>
</clipPath>
<g id="surface104" clip-path="url(#clip34)">
<path style=" stroke:none;fill-rule:nonzero;fill:rgb(0%,0%,0%);fill-opacity:1;" d="M 415.546875 486.550781 C 415.546875 486.550781 434.984375 498.007812 436.253906 504.804688 Z M 415.546875 486.550781 "/>
</g>
<mask id="mask34">
  <g filter="url(#alpha)">
<rect x="0" y="0" width="1099" height="726" style="fill:rgb(0%,0%,0%);fill-opacity:0.101961;stroke:none;"/>
  </g>
</mask>
<clipPath id="clip35">
  <rect x="0" y="0" width="1099" height="726"/>
</clipPath>
<g id="surface107" clip-path="url(#clip35)">
<path style=" stroke:none;fill-rule:nonzero;fill:rgb(0%,0%,0%);fill-opacity:1;" d="M 423.832031 512.324219 C 423.832031 512.324219 436.570312 524.855469 439.121094 521.636719 C 441.671875 518.414062 423.832031 512.324219 423.832031 512.324219 Z M 423.832031 512.324219 "/>
</g>
<mask id="mask35">
  <g filter="url(#alpha)">
<rect x="0" y="0" width="1099" height="726" style="fill:rgb(0%,0%,0%);fill-opacity:0.101961;stroke:none;"/>
  </g>
</mask>
<clipPath id="clip36">
  <rect x="0" y="0" width="1099" height="726"/>
</clipPath>
<g id="surface110" clip-path="url(#clip36)">
<path style=" stroke:none;fill-rule:nonzero;fill:rgb(0%,0%,0%);fill-opacity:1;" d="M 405.988281 520.207031 C 405.988281 520.207031 415.917969 538.097656 411.140625 539.171875 C 406.363281 540.246094 405.988281 520.207031 405.988281 520.207031 Z M 405.988281 520.207031 "/>
</g>
<mask id="mask36">
  <g filter="url(#alpha)">
<rect x="0" y="0" width="1099" height="726" style="fill:rgb(0%,0%,0%);fill-opacity:0.101961;stroke:none;"/>
  </g>
</mask>
<clipPath id="clip37">
  <rect x="0" y="0" width="1099" height="726"/>
</clipPath>
<g id="surface113" clip-path="url(#clip37)">
<path style=" stroke:none;fill-rule:nonzero;fill:rgb(0%,0%,0%);fill-opacity:1;" d="M 362.402344 202.3125 C 362.402344 202.3125 345.515625 213.761719 350.609375 216.628906 C 355.703125 219.496094 362.402344 202.3125 362.402344 202.3125 Z M 362.402344 202.3125 "/>
</g>
<mask id="mask37">
  <g filter="url(#alpha)">
<rect x="0" y="0" width="1099" height="726" style="fill:rgb(0%,0%,0%);fill-opacity:0.101961;stroke:none;"/>
  </g>
</mask>
<clipPath id="clip38">
  <rect x="0" y="0" width="1099" height="726"/>
</clipPath>
<g id="surface116" clip-path="url(#clip38)">
<path style=" stroke:none;fill-rule:nonzero;fill:rgb(0%,0%,0%);fill-opacity:1;" d="M 362.402344 160.0625 C 362.402344 160.0625 345.199219 195.503906 353.160156 193.003906 C 361.121094 190.5 362.402344 160.0625 362.402344 160.0625 Z M 362.402344 160.0625 "/>
</g>
<mask id="mask38">
  <g filter="url(#alpha)">
<rect x="0" y="0" width="1099" height="726" style="fill:rgb(0%,0%,0%);fill-opacity:0.101961;stroke:none;"/>
  </g>
</mask>
<clipPath id="clip39">
  <rect x="0" y="0" width="1099" height="726"/>
</clipPath>
<g id="surface119" clip-path="url(#clip39)">
<path style=" stroke:none;fill-rule:nonzero;fill:rgb(0%,0%,0%);fill-opacity:1;" d="M 545.199219 195.503906 C 545.199219 195.503906 534.6875 209.402344 536.597656 216.984375 Z M 545.199219 195.503906 "/>
</g>
<mask id="mask39">
  <g filter="url(#alpha)">
<rect x="0" y="0" width="1099" height="726" style="fill:rgb(0%,0%,0%);fill-opacity:0.101961;stroke:none;"/>
  </g>
</mask>
<clipPath id="clip40">
  <rect x="0" y="0" width="1099" height="726"/>
</clipPath>
<g id="surface122" clip-path="url(#clip40)">
<path style=" stroke:none;fill-rule:nonzero;fill:rgb(0%,0%,0%);fill-opacity:1;" d="M 572.644531 202.3125 C 572.644531 202.3125 556.867188 218.058594 559.179688 219.851562 Z M 572.644531 202.3125 "/>
</g>
<mask id="mask40">
  <g filter="url(#alpha)">
<rect x="0" y="0" width="1099" height="726" style="fill:rgb(0%,0%,0%);fill-opacity:0.101961;stroke:none;"/>
  </g>
</mask>
<clipPath id="clip41">
  <rect x="0" y="0" width="1099" height="726"/>
</clipPath>
<g id="surface125" clip-path="url(#clip41)">
<path style=" stroke:none;fill-rule:nonzero;fill:rgb(0%,0%,0%);fill-opacity:1;" d="M 582.46875 221.65625 C 582.46875 221.65625 580.875 232.007812 583.425781 232.394531 Z M 582.46875 221.65625 "/>
</g>
<mask id="mask41">
  <g filter="url(#alpha)">
<rect x="0" y="0" width="1099" height="726" style="fill:rgb(0%,0%,0%);fill-opacity:0.0509804;stroke:none;"/>
  </g>
</mask>
<clipPath id="clip42">
  <rect x="0" y="0" width="1099" height="726"/>
</clipPath>
<g id="surface128" clip-path="url(#clip42)">
<path style=" stroke:none;fill-rule:nonzero;fill:rgb(0%,0%,0%);fill-opacity:1;" d="M 410.289062 440.089844 C 406.230469 445.996094 406.230469 456.46875 404.394531 460.761719 C 403.390625 463.125 401.152344 467.207031 399.339844 470.515625 C 398.746094 468.367188 397.597656 467.089844 395.8125 468.214844 C 394.636719 458.367188 392.5625 441.367188 391.894531 437.941406 C 390.9375 433.109375 401.449219 420.222656 401.449219 420.222656 C 401.449219 420.222656 411.722656 422.636719 414.351562 428.542969 C 416.980469 434.449219 414.351562 434.191406 410.289062 440.089844 Z M 410.289062 440.089844 "/>
</g>
<mask id="mask42">
  <g filter="url(#alpha)">
<rect x="0" y="0" width="1099" height="726" style="fill:rgb(0%,0%,0%);fill-opacity:0.101961;stroke:none;"/>
  </g>
</mask>
<clipPath id="clip43">
  <rect x="0" y="0" width="1099" height="726"/>
</clipPath>
<g id="surface131" clip-path="url(#clip43)">
<path style=" stroke:none;fill-rule:nonzero;fill:rgb(0%,0%,0%);fill-opacity:1;" d="M 357.25 315.800781 C 345.785156 317.582031 324.445312 351.949219 324.445312 351.949219 C 324.445312 351.949219 321.644531 347.375 317.753906 340.984375 C 312.863281 332.875 306.285156 321.824219 301.507812 313.449219 L 329.507812 280.992188 L 334.601562 287.15625 C 334.601562 287.15625 344.484375 298.25 344.484375 300.398438 C 344.484375 301.234375 346.394531 303.78125 348.824219 306.5625 C 352.539062 310.890625 357.25 315.800781 357.25 315.800781 Z M 357.25 315.800781 "/>
</g>
<mask id="mask43">
  <g filter="url(#alpha)">
<rect x="0" y="0" width="1099" height="726" style="fill:rgb(0%,0%,0%);fill-opacity:0.101961;stroke:none;"/>
  </g>
</mask>
<clipPath id="clip44">
  <rect x="0" y="0" width="1099" height="726"/>
</clipPath>
<g id="surface134" clip-path="url(#clip44)">
<path style=" stroke:none;fill-rule:nonzero;fill:rgb(0%,0%,0%);fill-opacity:1;" d="M 320.679688 170.460938 C 320.277344 169.546875 319.960938 168.871094 319.722656 168.453125 L 332.070312 169.375 L 338.617188 215.039062 C 333.734375 202.515625 324.175781 178.289062 320.679688 170.460938 Z M 320.679688 170.460938 "/>
</g>
<mask id="mask44">
  <g filter="url(#alpha)">
<rect x="0" y="0" width="1099" height="726" style="fill:rgb(0%,0%,0%);fill-opacity:0.101961;stroke:none;"/>
  </g>
</mask>
<clipPath id="clip45">
  <rect x="0" y="0" width="1099" height="726"/>
</clipPath>
<g id="surface137" clip-path="url(#clip45)">
<path style=" stroke:none;fill-rule:nonzero;fill:rgb(0%,0%,0%);fill-opacity:1;" d="M 346.921875 308.742188 C 336.675781 320.203125 322.273438 336.269531 317.773438 340.960938 C 317.113281 341.660156 316.664062 342.113281 316.472656 342.261719 C 316.066406 342.570312 315.613281 342.792969 315.136719 342.917969 C 310.632812 335.484375 304.210938 324.777344 299.242188 316.066406 L 301.535156 313.40625 L 327.589844 283.289062 L 330.808594 287.1875 C 330.808594 287.1875 340.691406 298.28125 340.691406 300.429688 C 340.691406 301.460938 343.777344 305.199219 346.921875 308.742188 Z M 346.921875 308.742188 "/>
</g>
<mask id="mask45">
  <g filter="url(#alpha)">
<rect x="0" y="0" width="1099" height="726" style="fill:rgb(0%,0%,0%);fill-opacity:0.101961;stroke:none;"/>
  </g>
</mask>
<clipPath id="clip46">
  <rect x="0" y="0" width="1099" height="726"/>
</clipPath>
<g id="surface140" clip-path="url(#clip46)">
<path style=" stroke:none;fill-rule:nonzero;fill:rgb(0%,0%,0%);fill-opacity:1;" d="M 279.261719 240.609375 C 279.261719 240.609375 296.460938 236.679688 296.777344 239.183594 C 297.09375 241.683594 279.261719 240.609375 279.261719 240.609375 Z M 279.261719 240.609375 "/>
</g>
<mask id="mask46">
  <g filter="url(#alpha)">
<rect x="0" y="0" width="1099" height="726" style="fill:rgb(0%,0%,0%);fill-opacity:0.101961;stroke:none;"/>
  </g>
</mask>
<clipPath id="clip47">
  <rect x="0" y="0" width="1099" height="726"/>
</clipPath>
<g id="surface143" clip-path="url(#clip47)">
<path style=" stroke:none;fill-rule:nonzero;fill:rgb(0%,0%,0%);fill-opacity:1;" d="M 293.59375 260.125 C 293.59375 260.125 308.179688 262.273438 307.539062 265.773438 C 306.898438 269.273438 293.59375 260.125 293.59375 260.125 Z M 293.59375 260.125 "/>
</g>
<mask id="mask47">
  <g filter="url(#alpha)">
<rect x="0" y="0" width="1099" height="726" style="fill:rgb(0%,0%,0%);fill-opacity:0.101961;stroke:none;"/>
  </g>
</mask>
<clipPath id="clip48">
  <rect x="0" y="0" width="1099" height="726"/>
</clipPath>
<g id="surface146" clip-path="url(#clip48)">
<path style=" stroke:none;fill-rule:nonzero;fill:rgb(0%,0%,0%);fill-opacity:1;" d="M 305.644531 199.261719 C 305.644531 199.261719 319.664062 221.570312 321.578125 216.953125 Z M 305.644531 199.261719 "/>
</g>
<mask id="mask48">
  <g filter="url(#alpha)">
<rect x="0" y="0" width="1099" height="726" style="fill:rgb(0%,0%,0%);fill-opacity:0.101961;stroke:none;"/>
  </g>
</mask>
<clipPath id="clip49">
  <rect x="0" y="0" width="1099" height="726"/>
</clipPath>
<g id="surface149" clip-path="url(#clip49)">
<path style=" stroke:none;fill-rule:nonzero;fill:rgb(0%,0%,0%);fill-opacity:1;" d="M 389.886719 33.054688 C 389.972656 30.453125 389.683594 27.855469 389.027344 25.355469 C 388.75 24.300781 388.539062 23.222656 388.394531 22.132812 C 388.273438 23.953125 388.488281 25.78125 389.027344 27.503906 C 389.480469 29.316406 389.769531 31.179688 389.886719 33.054688 Z M 389.886719 33.054688 "/>
<path style=" stroke:none;fill-rule:nonzero;fill:rgb(0%,0%,0%);fill-opacity:1;" d="M 456.90625 56.683594 C 457.28125 53.460938 459.25 50.53125 459.429688 47.234375 C 459.457031 46.683594 459.441406 46.132812 459.371094 45.589844 C 459 48.917969 456.945312 51.871094 456.832031 55.253906 C 456.816406 55.734375 456.84375 56.210938 456.90625 56.683594 Z M 456.90625 56.683594 "/>
<path style=" stroke:none;fill-rule:nonzero;fill:rgb(0%,0%,0%);fill-opacity:1;" d="M 459 72.257812 C 457.75 73.761719 455.949219 74.53125 454.125 74.328125 C 452.328125 74.105469 450.574219 73.554688 448.9375 72.695312 C 446.738281 71.699219 444.4375 70.546875 443.105469 68.402344 C 441.894531 66.402344 441.5 63.601562 439.609375 62.449219 C 437.429688 61.140625 434.832031 62.914062 432.472656 63.523438 C 429.660156 64.277344 426.738281 63.394531 424.011719 62.269531 C 419.941406 60.582031 414.246094 57.480469 410.070312 60.679688 C 406.820312 63.171875 408.082031 68.464844 407.25 72.234375 C 405.960938 78.078125 400.429688 81.902344 399.386719 87.816406 C 398.917969 90.429688 399.222656 93.617188 397.339844 95.238281 C 396.613281 95.792969 395.785156 96.160156 394.914062 96.3125 C 391.875 97.066406 388.128906 97.238281 386.3125 94.421875 C 385.789062 93.617188 385.457031 92.675781 385.355469 91.683594 C 385.109375 93.390625 385.453125 95.136719 386.3125 96.570312 C 388.167969 99.382812 391.914062 99.210938 394.914062 98.460938 C 395.785156 98.308594 396.613281 97.941406 397.339844 97.386719 C 399.253906 95.765625 398.917969 92.574219 399.386719 89.964844 C 400.429688 84.058594 405.960938 80.226562 407.25 74.382812 C 408.082031 70.613281 406.820312 65.320312 410.070312 62.828125 C 414.246094 59.605469 419.941406 62.730469 424.011719 64.417969 C 426.71875 65.542969 429.660156 66.425781 432.472656 65.671875 C 434.878906 65.039062 437.429688 63.265625 439.609375 64.597656 C 441.519531 65.75 441.894531 68.550781 443.105469 70.546875 C 444.4375 72.695312 446.738281 73.898438 448.9375 74.84375 C 450.574219 75.703125 452.328125 76.253906 454.125 76.476562 C 455.949219 76.675781 457.75 75.910156 459 74.402344 C 459.9375 72.992188 460.3125 71.207031 460.03125 69.476562 C 459.929688 70.492188 459.574219 71.457031 459 72.257812 Z M 459 72.257812 "/>
<path style=" stroke:none;fill-rule:nonzero;fill:rgb(0%,0%,0%);fill-opacity:1;" d="M 381.9375 64.921875 C 381.621094 62.203125 379.585938 60.195312 378.535156 57.726562 C 378.140625 56.796875 377.886719 55.796875 377.789062 54.773438 C 377.605469 56.515625 377.863281 58.285156 378.535156 59.875 C 379.554688 62.269531 381.488281 64.246094 381.886719 66.832031 C 381.984375 66.203125 382 65.558594 381.9375 64.921875 Z M 381.9375 64.921875 "/>
<path style=" stroke:none;fill-rule:nonzero;fill:rgb(0%,0%,0%);fill-opacity:1;" d="M 387.25 81.695312 C 387.527344 80.527344 387.328125 79.28125 386.703125 78.292969 C 385.625 76.90625 383.570312 77.21875 382.25 76.144531 C 381.542969 75.515625 381.09375 74.59375 381 73.589844 C 380.789062 75.339844 381 77.273438 382.25 78.292969 C 383.503906 79.3125 385.625 79.097656 386.703125 80.441406 C 386.972656 80.804688 387.160156 81.234375 387.25 81.695312 Z M 387.25 81.695312 "/>
</g>
<mask id="mask49">
  <g filter="url(#alpha)">
<rect x="0" y="0" width="1099" height="726" style="fill:rgb(0%,0%,0%);fill-opacity:0.101961;stroke:none;"/>
  </g>
</mask>
<clipPath id="clip50">
  <rect x="0" y="0" width="1099" height="726"/>
</clipPath>
<g id="surface152" clip-path="url(#clip50)">
<path style=" stroke:none;fill-rule:nonzero;fill:rgb(29.411765%,50.196078%,52.156863%);fill-opacity:1;" d="M 161.152344 677.089844 C 161.152344 674.15625 148.625 671.777344 133.171875 671.777344 C 117.714844 671.777344 105.1875 674.15625 105.1875 677.089844 C 105.1875 680.027344 117.714844 682.40625 133.171875 682.40625 C 148.625 682.40625 161.152344 680.027344 161.152344 677.089844 Z M 161.152344 677.089844 "/>
</g>
</defs>
<g id="surface1">
<use xlink:href="#surface5" mask="url(#mask0)"/>
<use xlink:href="#surface8" mask="url(#mask1)"/>
<path style="fill:none;stroke-width:2;stroke-linecap:butt;stroke-linejoin:miter;stroke:rgb(32.54902%,32.941176%,38.039216%);stroke-opacity:1;stroke-miterlimit:10;" d="M 776.700247 756.819841 C 776.700247 756.819841 834.698107 683.351543 830.210007 610.319712 C 828.321572 579.661546 835.871226 549.141595 852.740433 523.470065 C 860.76424 511.310823 869.891678 499.911761 880.000122 489.418369 " transform="matrix(0.955652,0,0,1.073964,-23.681061,-120.520296)"/>
<path style=" stroke:none;fill-rule:nonzero;fill:rgb(29.411765%,50.196078%,52.156863%);fill-opacity:1;" d="M 814.835938 355.644531 C 810.917969 366.621094 817.214844 406.398438 817.214844 406.398438 C 817.214844 406.398438 846.257812 382.566406 850.175781 371.601562 C 854.097656 360.628906 849.363281 348.160156 839.597656 343.753906 C 829.832031 339.347656 818.738281 344.671875 814.816406 355.644531 Z M 814.835938 355.644531 "/>
<path style=" stroke:none;fill-rule:nonzero;fill:rgb(29.411765%,50.196078%,52.156863%);fill-opacity:1;" d="M 763.910156 403.210938 C 765.925781 414.808594 790.457031 444.351562 790.457031 444.351562 C 790.457031 444.351562 803.3125 406.613281 801.296875 395.015625 C 799.175781 383.539062 789.238281 376.113281 779 378.355469 C 768.761719 380.597656 762.035156 391.679688 763.910156 403.210938 Z M 763.910156 403.210938 "/>
<path style=" stroke:none;fill-rule:nonzero;fill:rgb(29.411765%,50.196078%,52.156863%);fill-opacity:1;" d="M 728.082031 507.597656 C 735.03125 516.46875 769.472656 528.003906 769.472656 528.003906 C 769.472656 528.003906 763.613281 488.136719 756.667969 479.265625 C 749.71875 470.398438 737.6875 469.535156 729.792969 477.34375 C 721.898438 485.152344 721.132812 498.675781 728.082031 507.542969 Z M 728.082031 507.597656 "/>
<path style=" stroke:none;fill-rule:nonzero;fill:rgb(29.411765%,50.196078%,52.156863%);fill-opacity:1;" d="M 716.785156 593.441406 C 722.300781 603.503906 754.515625 621.472656 754.515625 621.472656 C 754.515625 621.472656 754.734375 581.058594 749.222656 570.996094 C 745.679688 564.421875 739.273438 560.488281 732.4375 560.6875 C 725.601562 560.886719 719.386719 565.1875 716.152344 571.957031 C 712.914062 578.726562 713.160156 586.925781 716.785156 593.441406 Z M 716.785156 593.441406 "/>
<path style=" stroke:none;fill-rule:nonzero;fill:rgb(29.411765%,50.196078%,52.156863%);fill-opacity:1;" d="M 826.847656 463.234375 C 817.109375 467.710938 781.675781 460.902344 781.675781 460.902344 C 781.675781 460.902344 802.699219 428.105469 812.410156 423.625 C 822.097656 419.359375 833.039062 424.617188 836.984375 435.4375 C 840.929688 446.257812 836.417969 458.632812 826.847656 463.234375 Z M 826.847656 463.234375 "/>
<path style=" stroke:none;fill-rule:nonzero;fill:rgb(29.411765%,50.196078%,52.156863%);fill-opacity:1;" d="M 812.515625 563.433594 C 802.003906 564.445312 770.027344 546.023438 770.027344 546.023438 C 770.027344 546.023438 798.800781 521.796875 809.273438 520.785156 C 816.121094 520 822.808594 523.425781 826.777344 529.742188 C 830.742188 536.0625 831.367188 544.292969 828.410156 551.273438 C 825.457031 558.257812 819.378906 562.90625 812.515625 563.433594 Z M 812.515625 563.433594 "/>
<path style=" stroke:none;fill-rule:nonzero;fill:rgb(29.411765%,50.196078%,52.156863%);fill-opacity:1;" d="M 786.636719 658.683594 C 776.457031 661.660156 742.148438 649.585938 742.148438 649.585938 C 742.148438 649.585938 766.863281 620.246094 777.039062 617.261719 C 787.09375 614.65625 797.164062 621.523438 799.753906 632.746094 C 802.34375 643.96875 796.511719 655.46875 786.597656 658.683594 Z M 786.636719 658.683594 "/>
<use xlink:href="#surface11" mask="url(#mask2)"/>
<use xlink:href="#surface14" mask="url(#mask3)"/>
<use xlink:href="#surface17" mask="url(#mask4)"/>
<use xlink:href="#surface20" mask="url(#mask5)"/>
<use xlink:href="#surface23" mask="url(#mask6)"/>
<use xlink:href="#surface26" mask="url(#mask7)"/>
<use xlink:href="#surface29" mask="url(#mask8)"/>
<path style="fill:none;stroke-width:2;stroke-linecap:butt;stroke-linejoin:miter;stroke:rgb(32.54902%,32.941176%,38.039216%);stroke-opacity:1;stroke-miterlimit:10;" d="M 777.198925 753.750023 C 777.198925 753.750023 859.999873 710.099692 885.48149 641.508912 C 896.178537 612.709368 915.479819 587.870762 941.268 571.241371 C 953.538744 563.374055 966.504366 556.648827 980.001366 551.149343 " transform="matrix(0.955652,0,0,1.073964,-23.681061,-120.520296)"/>
<path style=" stroke:none;fill-rule:nonzero;fill:rgb(29.411765%,50.196078%,52.156863%);fill-opacity:1;" d="M 928.433594 425.054688 C 920.90625 433.289062 912.3125 472.535156 912.3125 472.535156 C 912.3125 472.535156 947.453125 463.941406 954.992188 455.738281 C 962.363281 447.460938 962.445312 434.066406 955.183594 425.671875 C 947.917969 417.28125 936 417.003906 928.433594 425.054688 Z M 928.433594 425.054688 "/>
<path style=" stroke:none;fill-rule:nonzero;fill:rgb(29.411765%,50.196078%,52.156863%);fill-opacity:1;" d="M 864.730469 445.363281 C 862.390625 456.886719 874.164062 495.066406 874.164062 495.066406 C 874.164062 495.066406 899.515625 466.421875 901.878906 454.898438 C 903.550781 447.378906 901.472656 439.433594 896.453125 434.125 C 891.429688 428.8125 884.246094 426.96875 877.667969 429.296875 C 871.09375 431.628906 866.152344 437.773438 864.75 445.363281 Z M 864.730469 445.363281 "/>
<path style=" stroke:none;fill-rule:nonzero;fill:rgb(29.411765%,50.196078%,52.156863%);fill-opacity:1;" d="M 794.355469 524.480469 C 797.511719 535.757812 824.824219 562.070312 824.824219 562.070312 C 824.824219 562.070312 833.84375 522.957031 830.691406 511.679688 C 828.761719 504.226562 823.390625 498.53125 816.65625 496.796875 C 809.925781 495.0625 802.882812 497.5625 798.257812 503.328125 C 793.632812 509.089844 792.148438 517.21875 794.375 524.566406 Z M 794.355469 524.480469 "/>
<path style=" stroke:none;fill-rule:nonzero;fill:rgb(29.411765%,50.196078%,52.156863%);fill-opacity:1;" d="M 753.054688 597.824219 C 754.46875 609.527344 777.433594 640.621094 777.433594 640.621094 C 777.433594 640.621094 792.207031 603.78125 790.8125 592.066406 C 789.398438 580.351562 779.800781 572.144531 769.375 573.734375 C 758.953125 575.324219 751.648438 586.109375 753.0625 597.824219 Z M 753.054688 597.824219 "/>
<path style=" stroke:none;fill-rule:nonzero;fill:rgb(29.411765%,50.196078%,52.156863%);fill-opacity:1;" d="M 900.578125 528.875 C 890.066406 528.539062 860.117188 506.171875 860.117188 506.171875 C 860.117188 506.171875 891.144531 485.765625 901.65625 486.085938 C 912.0625 486.585938 920.183594 496.378906 919.886719 508.078125 C 919.59375 519.777344 910.992188 529.039062 900.578125 528.875 Z M 900.578125 528.875 "/>
<path style=" stroke:none;fill-rule:nonzero;fill:rgb(29.411765%,50.196078%,52.156863%);fill-opacity:1;" d="M 851.34375 613.953125 C 841.402344 610.097656 818.785156 578.695312 818.785156 578.695312 C 818.785156 578.695312 853.816406 569.640625 863.765625 573.496094 C 873.476562 577.535156 878.535156 589.554688 875.15625 600.550781 C 871.78125 611.550781 861.203125 617.503906 851.34375 613.953125 Z M 851.34375 613.953125 "/>
<path style=" stroke:none;fill-rule:nonzero;fill:rgb(29.411765%,50.196078%,52.156863%);fill-opacity:1;" d="M 793.402344 689.25 C 783.023438 687.335938 755.996094 660.679688 755.996094 660.679688 C 755.996094 660.679688 789.175781 645.097656 799.554688 647.011719 C 809.777344 649.101562 816.621094 660.007812 814.941406 671.527344 C 813.261719 683.046875 803.679688 690.929688 793.402344 689.25 Z M 793.402344 689.25 "/>
<path style=" stroke:none;fill-rule:nonzero;fill:rgb(27.45098%,26.27451%,32.54902%);fill-opacity:1;" d="M 725.988281 695.53125 L 717.511719 695.53125 L 655.511719 335.828125 L 647.558594 695.53125 L 638.558594 695.53125 L 628.484375 336.429688 L 568.066406 695.53125 L 558.53125 695.53125 L 599.59375 325.820312 L 600.933594 313.800781 L 681.484375 303.675781 L 683.988281 325.820312 Z M 725.988281 695.53125 "/>
<path style=" stroke:none;fill-rule:nonzero;fill:rgb(27.45098%,26.27451%,32.54902%);fill-opacity:1;" d="M 503.609375 231.566406 L 554.878906 231.566406 L 554.878906 267.300781 L 503.609375 267.300781 Z M 503.609375 231.566406 "/>
<path style=" stroke:none;fill-rule:nonzero;fill:rgb(27.45098%,26.27451%,32.54902%);fill-opacity:1;" d="M 801.09375 215.941406 L 832.097656 201.875 L 838.890625 201.875 C 840.953125 201.875 842.628906 203.753906 842.628906 206.074219 L 842.628906 304.191406 C 842.628906 306.507812 840.953125 308.390625 838.890625 308.390625 L 832.097656 308.390625 L 801.09375 293.878906 Z M 801.09375 215.941406 "/>
<path style=" stroke:none;fill-rule:nonzero;fill:rgb(27.45098%,26.27451%,32.54902%);fill-opacity:1;" d="M 737.707031 220.410156 L 801.09375 220.410156 L 801.09375 289.410156 L 737.707031 289.410156 Z M 737.707031 220.410156 "/>
<path style=" stroke:none;fill-rule:nonzero;fill:rgb(31.764706%,30.588235%,49.803922%);fill-opacity:1;" d="M 627.671875 90.804688 L 668.480469 90.804688 L 668.480469 99.136719 L 627.671875 99.136719 Z M 627.671875 90.804688 "/>
<path style=" stroke:none;fill-rule:nonzero;fill:rgb(31.764706%,30.588235%,49.803922%);fill-opacity:1;" d="M 581.113281 101.597656 L 695.972656 101.597656 L 695.972656 195.835938 L 581.113281 195.835938 Z M 581.113281 101.597656 "/>
<use xlink:href="#surface32" mask="url(#mask9)"/>
<use xlink:href="#surface35" mask="url(#mask10)"/>
<use xlink:href="#surface38" mask="url(#mask11)"/>
<use xlink:href="#surface41" mask="url(#mask12)"/>
<path style=" stroke:none;fill-rule:nonzero;fill:rgb(31.764706%,30.588235%,49.803922%);fill-opacity:1;" d="M 549.203125 186.460938 L 727.472656 186.460938 C 733.117188 186.460938 737.695312 191.605469 737.695312 197.953125 L 737.695312 312.535156 C 737.695312 318.882812 733.117188 324.027344 727.472656 324.027344 L 549.203125 324.027344 C 543.554688 324.027344 538.976562 318.882812 538.976562 312.535156 L 538.976562 197.953125 C 538.976562 191.605469 543.554688 186.460938 549.203125 186.460938 Z M 549.203125 186.460938 "/>
<path style=" stroke:none;fill-rule:nonzero;fill:rgb(31.764706%,30.588235%,49.803922%);fill-opacity:1;" d="M 800.492188 215.941406 L 801.09375 215.941406 L 801.09375 293.878906 L 800.492188 293.878906 C 797.753906 293.878906 795.53125 291.382812 795.53125 288.304688 L 795.53125 221.515625 C 795.53125 218.4375 797.753906 215.941406 800.492188 215.941406 Z M 800.492188 215.941406 "/>
<path style=" stroke:none;fill-rule:nonzero;fill:rgb(31.764706%,30.588235%,49.803922%);fill-opacity:1;" d="M 832.097656 201.90625 L 838.527344 201.90625 C 840.792969 201.90625 842.628906 203.96875 842.628906 206.511719 L 842.628906 303.835938 C 842.628906 306.378906 840.792969 308.441406 838.527344 308.441406 L 832.097656 308.441406 Z M 832.097656 201.90625 "/>
<use xlink:href="#surface44" mask="url(#mask13)"/>
<path style=" stroke:none;fill-rule:nonzero;fill:rgb(31.764706%,30.588235%,49.803922%);fill-opacity:1;" d="M 500.160156 220.410156 L 504.277344 220.410156 C 508.078125 220.410156 511.160156 223.871094 511.160156 228.140625 L 511.160156 273.421875 C 511.160156 277.691406 508.078125 281.152344 504.277344 281.152344 L 500.160156 281.152344 C 496.359375 281.152344 493.277344 277.691406 493.277344 273.421875 L 493.277344 228.140625 C 493.277344 223.871094 496.359375 220.410156 500.160156 220.410156 Z M 500.160156 220.410156 "/>
<path style=" stroke:none;fill-rule:nonzero;fill:rgb(27.45098%,26.27451%,32.54902%);fill-opacity:1;" d="M 638.347656 101.597656 C 638.347656 137.121094 612.722656 165.917969 581.113281 165.917969 C 549.503906 165.917969 523.878906 137.121094 523.878906 101.597656 C 523.878906 66.074219 549.503906 37.277344 581.113281 37.277344 C 612.722656 37.277344 638.347656 66.074219 638.347656 101.597656 Z M 638.347656 101.597656 "/>
<path style=" stroke:none;fill-rule:nonzero;fill:rgb(29.411765%,50.196078%,52.156863%);fill-opacity:1;" d="M 624.039062 101.597656 C 624.039062 128.242188 604.820312 149.839844 581.113281 149.839844 C 557.40625 149.839844 538.183594 128.242188 538.183594 101.597656 C 538.183594 74.953125 557.40625 53.355469 581.113281 53.355469 C 604.820312 53.355469 624.039062 74.953125 624.039062 101.597656 Z M 624.039062 101.597656 "/>
<path style=" stroke:none;fill-rule:nonzero;fill:rgb(27.45098%,26.27451%,32.54902%);fill-opacity:1;" d="M 728.960938 102.941406 C 728.960938 128.839844 710.277344 149.839844 687.230469 149.839844 C 664.179688 149.839844 645.496094 128.839844 645.496094 102.941406 C 645.496094 77.039062 664.179688 56.039062 687.230469 56.039062 C 710.277344 56.039062 728.960938 77.039062 728.960938 102.941406 Z M 728.960938 102.941406 "/>
<path style=" stroke:none;fill-rule:nonzero;fill:rgb(29.411765%,50.196078%,52.156863%);fill-opacity:1;" d="M 718.527344 102.941406 C 718.527344 122.363281 704.515625 138.113281 687.230469 138.113281 C 669.945312 138.113281 655.929688 122.363281 655.929688 102.941406 C 655.929688 83.515625 669.945312 67.765625 687.230469 67.765625 C 704.515625 67.765625 718.527344 83.515625 718.527344 102.941406 Z M 718.527344 102.941406 "/>
<path style=" stroke:none;fill-rule:nonzero;fill:rgb(29.411765%,50.196078%,52.156863%);fill-opacity:1;" d="M 689.484375 206.929688 C 689.484375 210.34375 687.023438 213.105469 683.988281 213.105469 C 680.953125 213.105469 678.492188 210.34375 678.492188 206.929688 C 678.492188 203.519531 680.953125 200.757812 683.988281 200.757812 C 687.023438 200.757812 689.484375 203.519531 689.484375 206.929688 Z M 689.484375 206.929688 "/>
<use xlink:href="#surface47" mask="url(#mask14)"/>
<path style=" stroke:none;fill-rule:nonzero;fill:url(#linear0);" d="M 632.308594 228.238281 L 631.914062 227.367188 C 634.339844 228.273438 636.664062 229.476562 638.851562 230.957031 C 637.898438 221.625 606.046875 195.417969 600.3125 195.417969 C 594.578125 195.417969 588.203125 184.292969 588.203125 184.292969 C 588.203125 184.292969 571.640625 181.425781 569.089844 178.386719 C 566.539062 175.347656 549.335938 177.117188 545.199219 178.191406 C 541.0625 179.265625 534.6875 175.324219 534.6875 175.324219 C 534.6875 175.324219 531.179688 168.882812 526.726562 168.882812 C 522.273438 168.882812 517.503906 161.707031 517.503906 161.707031 C 517.503906 161.707031 513.347656 157.410156 509.523438 156.679688 C 505.703125 155.949219 500.925781 151.3125 498.6875 147.714844 C 496.453125 144.117188 485.308594 142.34375 478.945312 143.417969 C 472.578125 144.492188 455.367188 141.957031 455.367188 141.957031 C 462.375 138.371094 464.066406 129.757812 464.066406 129.757812 C 457.796875 129.390625 441.320312 113.839844 441.320312 113.839844 C 441.320312 113.839844 442 118.867188 442.78125 125.878906 L 441.722656 124.34375 L 441.578125 124.472656 C 441.242188 119.46875 441.195312 114.445312 441.433594 109.4375 C 441.433594 109.050781 441.492188 108.664062 441.511719 108.265625 C 449.828125 100.078125 453.417969 87.386719 450.839844 75.304688 C 450.667969 74.488281 450.464844 73.695312 450.238281 72.910156 C 451.457031 73.480469 452.746094 73.84375 454.058594 73.984375 L 454.738281 73.984375 C 456.335938 73.996094 457.863281 73.238281 458.933594 71.902344 C 459.113281 71.648438 459.269531 71.375 459.402344 71.085938 C 459.433594 71.03125 459.460938 70.972656 459.488281 70.914062 C 459.601562 70.648438 459.695312 70.378906 459.773438 70.097656 C 459.800781 70 459.824219 69.898438 459.839844 69.796875 C 459.890625 69.578125 459.925781 69.355469 459.957031 69.132812 C 459.957031 68.949219 459.957031 68.753906 459.957031 68.5625 C 459.957031 68.367188 459.957031 68.28125 459.957031 68.144531 C 459.914062 66.492188 459.589844 64.863281 459 63.351562 C 457.996094 60.582031 456.554688 57.84375 456.660156 54.847656 C 456.660156 54.601562 456.707031 54.363281 456.734375 54.128906 C 457.003906 51.777344 458.101562 49.59375 458.761719 47.328125 L 458.761719 47.234375 C 458.855469 46.898438 458.933594 46.566406 459 46.234375 C 459.03125 46.136719 459.054688 46.035156 459.078125 45.933594 C 459.148438 45.539062 459.195312 45.140625 459.21875 44.742188 C 459.21875 44.742188 459.21875 44.6875 459.21875 44.65625 C 459.46875 40.167969 456.246094 36.246094 452.597656 34.429688 C 449.328125 32.800781 445.59375 32.359375 442.601562 30.136719 C 439.1875 27.613281 437.316406 23.242188 434.792969 19.621094 C 431.125 14.359375 425.378906 10.429688 419.503906 11.179688 C 415.878906 11.640625 412.59375 13.777344 408.992188 14.605469 C 403.515625 15.882812 397.722656 14.027344 392.277344 15.453125 C 390.953125 15.703125 389.75 16.460938 388.875 17.601562 C 388.507812 18.179688 388.273438 18.84375 388.1875 19.546875 C 388.109375 20.195312 388.109375 20.851562 388.1875 21.5 L 388.1875 21.554688 C 388.246094 22.171875 388.347656 22.785156 388.480469 23.390625 L 388.566406 23.765625 C 388.566406 23.894531 388.617188 24.015625 388.644531 24.144531 C 388.671875 24.273438 388.769531 24.648438 388.828125 24.894531 C 388.929688 25.3125 389.015625 25.730469 389.113281 26.160156 L 389.113281 26.3125 C 389.199219 26.753906 389.285156 27.191406 389.351562 27.644531 C 389.507812 28.574219 389.609375 29.511719 389.65625 30.457031 C 389.882812 33.113281 389.371094 35.785156 388.195312 38.105469 C 385.804688 42.398438 380.730469 44.300781 378.523438 48.78125 C 378.003906 49.859375 377.679688 51.046875 377.570312 52.269531 C 377.527344 52.675781 377.511719 53.085938 377.519531 53.496094 L 377.519531 53.65625 C 377.519531 54.007812 377.519531 54.363281 377.605469 54.730469 C 377.601562 54.816406 377.601562 54.902344 377.605469 54.988281 C 377.65625 55.304688 377.71875 55.621094 377.796875 55.933594 C 377.796875 56.039062 377.847656 56.136719 377.875 56.234375 C 377.980469 56.601562 378.109375 56.960938 378.257812 57.308594 C 379.277344 59.703125 381.210938 61.679688 381.609375 64.277344 C 381.609375 64.351562 381.609375 64.425781 381.660156 64.511719 C 381.878906 66.46875 381.160156 68.378906 380.789062 70.300781 C 380.738281 70.535156 380.703125 70.773438 380.675781 71.011719 C 380.675781 71.085938 380.675781 71.160156 380.675781 71.234375 C 380.675781 71.3125 380.675781 71.558594 380.675781 71.730469 C 380.675781 71.902344 380.675781 71.914062 380.675781 72.007812 C 380.675781 72.105469 380.675781 72.300781 380.675781 72.4375 C 380.667969 72.539062 380.667969 72.640625 380.675781 72.738281 C 380.675781 72.878906 380.675781 73.019531 380.675781 73.148438 C 380.675781 73.277344 380.675781 73.339844 380.675781 73.4375 C 380.675781 73.535156 380.730469 73.707031 380.769531 73.835938 L 380.835938 74.105469 C 380.882812 74.230469 380.933594 74.355469 380.988281 74.480469 L 381.09375 74.714844 C 381.164062 74.847656 381.242188 74.972656 381.324219 75.089844 C 381.359375 75.152344 381.398438 75.207031 381.4375 75.261719 C 381.570312 75.4375 381.714844 75.589844 381.878906 75.726562 C 383.199219 76.800781 385.253906 76.519531 386.332031 77.875 C 386.453125 78.035156 386.554688 78.21875 386.636719 78.410156 L 386.695312 78.539062 C 386.773438 78.726562 386.835938 78.925781 386.875 79.128906 C 387.03125 79.9375 387.03125 80.769531 386.875 81.578125 C 386.496094 83.726562 385.683594 85.679688 385.253906 87.785156 C 385.167969 88.214844 385.109375 88.65625 385.0625 89.097656 C 385.0625 89.300781 385.0625 89.492188 385.011719 89.6875 L 385.011719 89.816406 C 385.011719 90 385.011719 90.191406 385.011719 90.375 C 385.011719 90.558594 385.011719 90.472656 385.011719 90.523438 C 385.011719 90.792969 385.011719 91.070312 385.070312 91.339844 C 385.128906 91.609375 385.070312 91.597656 385.128906 91.714844 L 385.183594 92.027344 C 385.183594 92.167969 385.253906 92.308594 385.289062 92.445312 L 385.375 92.714844 C 385.425781 92.867188 385.492188 93.015625 385.546875 93.167969 C 385.578125 93.238281 385.609375 93.304688 385.644531 93.371094 C 385.738281 93.589844 385.855469 93.800781 385.988281 93.992188 C 387.144531 95.753906 389.046875 96.34375 391.054688 96.355469 C 392.191406 96.347656 393.324219 96.203125 394.4375 95.925781 C 394.683594 96.582031 394.941406 97.238281 395.21875 97.871094 C 396.605469 101.003906 398.421875 103.875 400.601562 106.375 C 400.601562 106.710938 400.542969 107.03125 400.503906 107.375 C 400.285156 109.824219 400.015625 112.453125 399.710938 115.109375 C 397.234375 113.828125 395.324219 113.335938 394.570312 114.257812 C 391.367188 118.210938 394.570312 131.851562 394.570312 131.851562 C 394.570312 131.851562 378.945312 131.851562 375.121094 135.792969 C 371.300781 139.734375 364.292969 135.792969 364.292969 135.792969 C 364.292969 135.792969 349.960938 137.597656 350.914062 140.828125 C 351.871094 144.0625 343.269531 140.828125 343.269531 140.828125 C 343.269531 140.828125 337.210938 141.546875 337.535156 146.199219 C 337.859375 150.847656 328.296875 153.007812 329.566406 156.242188 C 330.835938 159.472656 323.832031 161.609375 323.832031 161.609375 C 323.832031 161.609375 316.828125 161.253906 319.378906 165.90625 C 319.378906 165.90625 315.554688 175.957031 312.375 176.644531 C 309.191406 177.332031 305.042969 185.613281 305.042969 185.613281 C 305.042969 185.613281 292.773438 188.125 293.328125 192.433594 C 293.882812 196.738281 274.464844 227.550781 274.464844 227.550781 C 274.464844 227.550781 268.089844 242.320312 272.550781 253.089844 C 277.015625 263.863281 280.195312 271.035156 281.152344 274.976562 C 282.109375 278.917969 293.691406 296.273438 293.59375 299.507812 C 293.59375 300.515625 296.460938 305.949219 300.371094 312.847656 L 299.222656 314.175781 L 296.710938 317.089844 C 296.710938 317.089844 288.742188 339.339844 298.296875 340.414062 C 306.371094 341.316406 312.171875 341.972656 315.117188 341.070312 C 315.59375 340.945312 316.046875 340.722656 316.453125 340.414062 L 316.570312 340.316406 C 320.046875 346.085938 322.511719 350.113281 322.511719 350.113281 C 322.511719 350.113281 322.859375 349.542969 323.46875 348.566406 L 324.425781 350.101562 C 324.425781 350.101562 325.1875 348.878906 326.488281 346.878906 C 326.070312 356.640625 326.011719 366.265625 326.011719 366.265625 C 326.011719 366.265625 330.160156 365.546875 328.246094 387.078125 C 326.335938 408.609375 339.714844 426.191406 339.714844 426.191406 L 339.714844 458.140625 C 339.714844 458.140625 339.714844 458.949219 339.847656 460.289062 C 340.203125 464.875 341.367188 475.691406 344.808594 482.84375 C 349.273438 492.164062 344.808594 516.578125 344.808594 516.578125 C 344.808594 516.578125 344.511719 536.488281 345.582031 561.316406 C 345.582031 561.996094 345.648438 562.691406 345.679688 563.378906 C 326.355469 581.53125 305.628906 605.585938 305.628906 605.585938 C 306.640625 605.90625 307.609375 606.394531 308.492188 607.035156 L 307.335938 608.703125 L 302.070312 615.992188 L 298 621.644531 L 304.453125 643.96875 L 311.496094 640.878906 C 311.496094 640.878906 315.316406 648.320312 314.515625 653.367188 C 314.394531 654.28125 314.0625 655.140625 313.558594 655.871094 C 313.316406 656.238281 313.144531 656.65625 313.0625 657.105469 C 311.21875 665.191406 318.910156 700.0625 331.113281 701.578125 C 331.113281 701.578125 335.253906 703.113281 336.582031 698.925781 C 337.222656 696.90625 337.210938 693.554688 335.777344 688.109375 C 335.777344 688.109375 329.328125 679.367188 333.503906 669.949219 C 335.949219 664.441406 339.992188 657.0625 342.917969 651.851562 L 344.121094 649.707031 C 346.75 653.433594 348.363281 655.828125 348.363281 655.828125 L 357.75 644.484375 C 357.949219 644.96875 358.148438 645.441406 358.359375 645.894531 C 359.0625 647.472656 359.875 648.988281 360.789062 650.425781 L 367.152344 678.789062 L 369.722656 678.144531 C 369.664062 678.832031 369.628906 679.5625 369.589844 680.292969 C 369.378906 685.382812 369.589844 691.988281 371.683594 696.703125 C 373.25 700.3125 375.894531 702.824219 380.214844 702.707031 C 395.027344 702.296875 399.328125 693.285156 399.328125 693.285156 L 399.328125 670.734375 L 404.421875 669.457031 C 404.421875 669.457031 404.050781 619.902344 402.742188 592.269531 C 402.742188 591.65625 402.683594 591.066406 402.65625 590.488281 C 402.65625 590.402344 402.65625 590.316406 402.65625 590.238281 L 435.367188 550.707031 L 437.878906 549.578125 C 458.902344 540.246094 459.230469 516.199219 459.230469 516.199219 C 459.230469 516.199219 459.230469 502.925781 461.769531 491.800781 C 464.3125 480.675781 462.097656 422.882812 457.316406 408.535156 C 452.539062 394.1875 450.945312 378.015625 450.945312 378.015625 C 450.945312 378.015625 455.722656 370.496094 450.945312 364.234375 C 449.59375 362.359375 448.46875 360.296875 447.597656 358.09375 L 453.820312 356.941406 L 457.402344 356.277344 L 459.316406 355.910156 C 458.359375 365.40625 458.195312 372.699219 460.460938 374.4375 C 467.476562 379.808594 491.042969 361.871094 491.042969 361.871094 C 482.441406 361.871094 477.664062 289.734375 479.414062 287.941406 C 481.160156 286.148438 483.769531 249.996094 481.484375 243.554688 C 479.203125 237.109375 489.503906 208.339844 489.503906 208.339844 L 491.089844 205.695312 C 491.089844 205.695312 528.6875 224.136719 532.824219 227.667969 C 536.960938 231.203125 550.027344 219.078125 552.253906 223.769531 C 554.480469 228.464844 568.5 235.457031 568.5 235.457031 C 568.5 235.457031 589.207031 233.105469 591.433594 238.851562 C 593.660156 244.59375 607.050781 258.050781 607.050781 258.050781 C 607.054688 254.898438 607.226562 251.746094 607.554688 248.613281 C 607.832031 249.351562 608.101562 250.105469 608.386719 250.867188 C 614.734375 267.738281 625.292969 289.101562 635.078125 277.609375 C 646.164062 264.550781 637.726562 240.40625 632.308594 228.238281 Z M 348.964844 304.492188 L 348.964844 304.695312 L 348.890625 304.609375 Z M 341.550781 221.710938 L 337.5 269.726562 L 329.539062 278.996094 L 328.582031 280.132812 L 320.355469 270.070312 C 320.355469 270.070312 316.207031 267.921875 320.355469 263.96875 C 324.5 260.015625 313.347656 251.082031 313.347656 251.082031 C 313.347656 251.082031 313.023438 244.636719 317.171875 242.835938 C 321.320312 241.03125 326.726562 229.195312 326.726562 229.195312 L 341.703125 220.601562 Z M 394.835938 467.476562 C 395.128906 467.171875 395.449219 466.910156 395.792969 466.691406 C 397.578125 465.554688 398.726562 466.796875 399.320312 468.988281 C 400.101562 472.660156 399.863281 476.511719 398.640625 480.03125 C 396.414062 485.777344 401.832031 508.746094 401.832031 508.746094 C 401.832031 508.746094 394.816406 512.324219 393.546875 519.15625 C 393.359375 519.992188 393.035156 520.789062 392.589844 521.496094 C 392.503906 520.894531 392.429688 520.3125 392.351562 519.753906 C 391.730469 515.460938 391.398438 512.6875 391.398438 512.6875 C 390.253906 507.160156 390.039062 501.445312 390.757812 495.828125 C 391.769531 488.921875 393.816406 474.894531 394.578125 469.582031 C 394.769531 468.292969 394.875 467.519531 394.886719 467.433594 Z M 394.835938 467.476562 "/>
<path style=" stroke:none;fill-rule:nonzero;fill:rgb(27.45098%,26.27451%,32.54902%);fill-opacity:1;" d="M 439.257812 117.8125 L 441.320312 116.265625 L 447.140625 130.066406 L 444.902344 133.019531 L 438.136719 133.019531 C 438.136719 133.019531 438.375 125.503906 438.539062 125.234375 C 438.703125 124.964844 439.257812 117.8125 439.257812 117.8125 Z M 439.257812 117.8125 "/>
<path style=" stroke:none;fill-rule:nonzero;fill:rgb(24.705882%,23.921569%,33.72549%);fill-opacity:1;" d="M 399.300781 664.835938 L 399.300781 694.371094 C 399.300781 694.371094 395 703.359375 380.1875 703.769531 C 376.5 704.011719 373.078125 701.613281 371.652344 697.785156 C 369.589844 693.082031 369.351562 686.488281 369.558594 681.410156 C 369.664062 678.867188 369.90625 676.335938 370.277344 673.828125 Z M 399.300781 664.835938 "/>
<use xlink:href="#surface50" mask="url(#mask15)"/>
<path style=" stroke:none;fill-rule:nonzero;fill:rgb(31.764706%,30.588235%,49.803922%);fill-opacity:1;" d="M 404.394531 670.5625 L 367.125 679.875 L 360.757812 651.585938 C 359.847656 650.148438 359.035156 648.640625 358.332031 647.0625 C 357.921875 646.160156 357.519531 645.207031 357.136719 644.207031 C 350.199219 626.367188 347.113281 594.191406 345.792969 566.816406 C 345.726562 565.429688 345.660156 564.058594 345.601562 562.703125 C 344.53125 537.9375 344.828125 518.070312 344.828125 518.070312 C 344.828125 518.070312 349.289062 493.722656 344.828125 484.421875 C 341.386719 477.25 340.222656 466.464844 339.867188 461.871094 C 339.773438 460.503906 339.734375 459.722656 339.734375 459.722656 L 340.421875 457.691406 L 343.230469 449.335938 L 374.136719 449.335938 L 392.105469 466.421875 L 394.835938 469.023438 L 394.53125 471.167969 C 393.757812 476.476562 391.710938 490.5 390.707031 497.351562 C 389.988281 502.953125 390.207031 508.660156 391.347656 514.171875 C 391.347656 514.171875 391.722656 516.898438 392.304688 521.226562 C 392.449219 522.300781 392.609375 523.441406 392.792969 524.675781 C 395.074219 540.546875 399.359375 569.535156 401.183594 576.460938 C 401.6875 578.363281 402.136719 583.128906 402.472656 589.585938 C 402.550781 590.875 402.617188 592.214844 402.683594 593.625 C 404.019531 621.136719 404.394531 670.5625 404.394531 670.5625 Z M 404.394531 670.5625 "/>
<use xlink:href="#surface53" mask="url(#mask16)"/>
<path style=" stroke:none;fill-rule:nonzero;fill:rgb(63.137255%,38.039216%,41.568627%);fill-opacity:1;" d="M 635.03125 279.640625 C 625.207031 291.097656 614.695312 269.789062 608.339844 252.960938 C 604.773438 243.488281 602.539062 235.421875 602.539062 235.421875 L 628.683594 222.988281 C 628.683594 222.988281 630.289062 225.855469 632.308594 230.398438 C 637.726562 242.535156 646.164062 266.613281 635.03125 279.640625 Z M 635.03125 279.640625 "/>
<path style=" stroke:none;fill-rule:nonzero;fill:rgb(63.137255%,38.039216%,41.568627%);fill-opacity:1;" d="M 441.464844 111.875 C 441.042969 122.507812 441.753906 133.15625 443.574219 143.601562 C 443.574219 143.601562 390.382812 150.042969 395.164062 140.742188 C 397.960938 135.289062 399.777344 120.886719 400.789062 109.878906 C 401.527344 102.082031 401.851562 95.992188 401.851562 95.992188 C 401.851562 95.992188 452.816406 73.082031 445.171875 92.414062 C 442.886719 98.183594 441.828125 105.011719 441.464844 111.875 Z M 441.464844 111.875 "/>
<path style=" stroke:none;fill-rule:nonzero;fill:rgb(27.45098%,26.27451%,32.54902%);fill-opacity:1;" d="M 445.957031 265.675781 L 438.808594 361.613281 L 471.613281 355.535156 L 465.878906 276.417969 L 467.792969 255.292969 Z M 445.957031 265.675781 "/>
<use xlink:href="#surface56" mask="url(#mask17)"/>
<path style=" stroke:none;fill-rule:nonzero;fill:rgb(24.705882%,23.921569%,33.72549%);fill-opacity:1;" d="M 333.476562 670.992188 C 329.296875 680.390625 335.75 689.109375 335.75 689.109375 C 337.183594 694.554688 337.191406 697.882812 336.550781 699.847656 C 335.222656 704.027344 331.085938 702.492188 331.085938 702.492188 C 318.070312 700.878906 310.1875 661.421875 313.53125 656.902344 C 316.875 652.378906 311.496094 641.996094 311.496094 641.996094 L 304.453125 645.078125 L 298 622.804688 L 302.070312 617.164062 L 307.335938 609.882812 L 310.902344 604.941406 L 346.5 646.6875 C 346.5 646.6875 344.980469 649.253906 342.886719 652.9375 C 339.964844 658.105469 335.921875 665.515625 333.476562 670.992188 Z M 333.476562 670.992188 "/>
<use xlink:href="#surface59" mask="url(#mask18)"/>
<use xlink:href="#surface62" mask="url(#mask19)"/>
<use xlink:href="#surface65" mask="url(#mask20)"/>
<use xlink:href="#surface68" mask="url(#mask21)"/>
<path style=" stroke:none;fill-rule:nonzero;fill:rgb(31.764706%,30.588235%,49.803922%);fill-opacity:1;" d="M 461.734375 493.347656 C 459.191406 504.453125 459.191406 517.695312 459.191406 517.695312 C 459.191406 517.695312 458.867188 541.675781 437.839844 550.988281 L 435.328125 552.0625 L 348.363281 656.910156 C 348.363281 656.910156 316.1875 609.65625 305.675781 606.789062 C 305.675781 606.789062 348.039062 557.742188 368.109375 547.003906 C 368.109375 547.003906 392.324219 527.316406 393.59375 520.519531 C 394.867188 513.71875 401.878906 510.132812 401.878906 510.132812 C 401.878906 510.132812 396.460938 487.226562 398.6875 481.492188 C 399.910156 477.984375 400.148438 474.144531 399.367188 470.480469 C 398.773438 468.335938 397.628906 467.054688 395.839844 468.183594 C 395.496094 468.402344 395.175781 468.664062 394.886719 468.96875 L 339.78125 459.65625 L 339.78125 427.835938 C 339.78125 427.835938 326.402344 410.296875 328.3125 388.816406 C 330.226562 367.339844 326.078125 368.058594 326.078125 368.058594 C 326.078125 368.058594 326.277344 331.78125 329.003906 328.75 C 331.726562 325.722656 357.890625 311.847656 357.890625 311.847656 L 439.925781 328.226562 L 443.308594 345.859375 C 443.308594 345.859375 446.175781 359.886719 450.953125 366.113281 C 455.730469 372.34375 450.953125 379.851562 450.953125 379.851562 C 450.953125 379.851562 452.550781 395.960938 457.328125 410.296875 C 462.105469 424.636719 464.285156 482.253906 461.734375 493.347656 Z M 461.734375 493.347656 "/>
<use xlink:href="#surface71" mask="url(#mask22)"/>
<path style=" stroke:none;fill-rule:nonzero;fill:rgb(63.137255%,38.039216%,41.568627%);fill-opacity:1;" d="M 451.6875 85.679688 C 451.679688 103.304688 439.453125 117.863281 423.796875 118.898438 C 408.144531 119.929688 394.484375 107.070312 392.644531 89.570312 C 390.800781 72.070312 401.414062 55.988281 416.851562 52.886719 C 432.285156 49.785156 447.199219 60.738281 450.867188 77.875 C 451.414062 80.429688 451.691406 83.050781 451.6875 85.679688 Z M 451.6875 85.679688 "/>
<use xlink:href="#surface74" mask="url(#mask23)"/>
<use xlink:href="#surface77" mask="url(#mask24)"/>
<path style=" stroke:none;fill-rule:nonzero;fill:rgb(29.411765%,50.196078%,52.156863%);fill-opacity:1;" d="M 462.6875 245.273438 C 461.734375 246.980469 460.289062 252.285156 458.675781 259.632812 C 457.546875 264.742188 456.324219 270.832031 455.070312 277.382812 C 449.433594 306.949219 443.261719 345.871094 443.261719 345.871094 C 443.261719 345.871094 442.867188 344.558594 440.105469 344.109375 C 437.871094 343.742188 434.066406 343.949219 427.683594 345.871094 C 413.347656 350.167969 347.082031 318.300781 347.082031 318.300781 L 348.996094 308.636719 L 359.507812 254.9375 C 359.507812 254.9375 403.792969 127.492188 405.0625 128.929688 C 405.835938 129.800781 414.113281 134.300781 420.421875 137.640625 C 424.441406 139.789062 427.683594 141.453125 427.683594 141.453125 L 441.0625 129.574219 L 441.796875 128.917969 L 458.28125 153.265625 C 458.28125 153.265625 467.46875 237.035156 462.6875 245.273438 Z M 462.6875 245.273438 "/>
<use xlink:href="#surface80" mask="url(#mask25)"/>
<path style=" stroke:none;fill-rule:nonzero;fill:rgb(27.45098%,26.27451%,32.54902%);fill-opacity:1;" d="M 410.128906 153.984375 C 412.039062 162.242188 407.585938 175.820312 407.585938 175.820312 C 407.585938 175.820312 392.296875 218.070312 387.832031 237.59375 C 383.371094 257.117188 357.84375 296.46875 357.84375 296.46875 C 357.84375 296.46875 354.097656 300.6875 348.851562 306.5625 C 348.230469 307.261719 347.582031 307.980469 346.941406 308.710938 C 336.695312 320.171875 322.292969 336.238281 317.792969 340.929688 C 317.132812 341.628906 316.683594 342.078125 316.492188 342.230469 C 316.085938 342.539062 315.632812 342.757812 315.15625 342.882812 C 312.210938 343.785156 306.410156 343.132812 298.335938 342.230469 C 288.777344 341.15625 296.75 318.96875 296.75 318.96875 L 299.261719 316.058594 L 301.554688 313.394531 L 327.589844 283.289062 L 329.5 281.023438 L 337.460938 271.800781 L 341.511719 223.898438 L 341.609375 222.75 C 341.609375 222.75 340.421875 219.710938 338.597656 215.070312 C 333.734375 202.515625 324.175781 178.289062 320.679688 170.460938 C 320.277344 169.546875 319.960938 168.871094 319.722656 168.453125 C 319.722656 168.398438 319.675781 168.34375 319.648438 168.300781 C 317.09375 163.652344 324.101562 164.003906 324.101562 164.003906 C 324.101562 164.003906 331.113281 161.855469 329.832031 158.636719 C 328.554688 155.414062 338.121094 153.265625 337.804688 148.613281 C 337.488281 143.964844 343.539062 143.246094 343.539062 143.246094 C 343.539062 143.246094 352.140625 146.46875 351.183594 143.246094 C 350.226562 140.023438 364.5625 138.230469 364.5625 138.230469 C 364.5625 138.230469 371.566406 142.171875 375.390625 138.230469 C 379.210938 134.289062 394.894531 134.300781 394.894531 134.300781 C 394.894531 134.300781 391.691406 120.691406 394.894531 116.75 C 398.097656 112.808594 422.101562 134.300781 422.101562 134.300781 C 422.101562 134.300781 408.214844 145.738281 410.128906 153.984375 Z M 410.128906 153.984375 "/>
<use xlink:href="#surface83" mask="url(#mask26)"/>
<path style=" stroke:none;fill-rule:nonzero;fill:rgb(63.137255%,38.039216%,41.568627%);fill-opacity:1;" d="M 330.492188 335.121094 C 330.492188 335.121094 356.9375 377.003906 375.410156 363.40625 C 393.882812 349.8125 350.5625 314.359375 350.5625 314.359375 Z M 330.492188 335.121094 "/>
<use xlink:href="#surface86" mask="url(#mask27)"/>
<path style=" stroke:none;fill-rule:nonzero;fill:rgb(27.45098%,26.27451%,32.54902%);fill-opacity:1;" d="M 441.320312 116.265625 C 441.320312 116.265625 457.796875 131.785156 464.066406 132.140625 C 464.066406 132.140625 462.375 140.730469 455.367188 144.320312 C 455.367188 144.320312 472.570312 146.875 478.945312 145.769531 C 485.320312 144.664062 496.460938 146.46875 498.6875 150.066406 C 500.914062 153.664062 505.75 158.28125 509.574219 158.988281 C 513.394531 159.699219 517.550781 164.003906 517.550781 164.003906 L 489.503906 210.539062 C 489.503906 210.539062 479.308594 239.183594 481.535156 245.625 C 483.761719 252.070312 481.210938 288.230469 479.460938 290.011719 C 477.710938 291.796875 482.488281 363.761719 491.089844 363.761719 C 491.089844 363.761719 467.523438 381.664062 460.507812 376.296875 C 453.496094 370.925781 469.433594 312.933594 462.421875 299.679688 C 455.40625 286.425781 453.820312 237.582031 453.820312 237.582031 C 453.820312 237.582031 442.351562 180.113281 444.589844 168.300781 C 446.824219 156.488281 441.320312 116.265625 441.320312 116.265625 Z M 441.320312 116.265625 "/>
<use xlink:href="#surface89" mask="url(#mask28)"/>
<path style=" stroke:none;fill-rule:nonzero;fill:rgb(27.45098%,26.27451%,32.54902%);fill-opacity:1;" d="M 501.925781 161.855469 L 517.550781 164.003906 C 517.550781 164.003906 522.332031 171.167969 526.773438 171.167969 C 531.21875 171.167969 534.734375 177.613281 534.734375 177.613281 C 534.734375 177.613281 541.109375 181.542969 545.246094 180.46875 C 549.386719 179.394531 566.585938 177.621094 569.136719 180.664062 C 571.691406 183.703125 588.25 186.558594 588.25 186.558594 C 588.25 186.558594 594.625 197.652344 600.359375 197.652344 C 606.09375 197.652344 637.945312 223.792969 638.902344 233.09375 C 638.902344 233.09375 607.363281 210.539062 607.050781 260.125 C 607.050781 260.125 593.671875 246.699219 591.433594 240.976562 C 589.199219 235.25 568.5 237.582031 568.5 237.582031 C 568.5 237.582031 554.488281 230.589844 552.253906 225.941406 C 550.015625 221.289062 536.960938 233.351562 532.824219 229.816406 C 528.6875 226.285156 491.089844 207.898438 491.089844 207.898438 L 479.460938 183.335938 Z M 501.925781 161.855469 "/>
<path style=" stroke:none;fill-rule:nonzero;fill:rgb(24.705882%,23.921569%,33.72549%);fill-opacity:1;" d="M 432.585938 202.3125 C 432.585938 203.992188 431.375 205.351562 429.882812 205.351562 C 428.386719 205.351562 427.175781 203.992188 427.175781 202.3125 C 427.175781 200.636719 428.386719 199.273438 429.882812 199.273438 C 431.375 199.273438 432.585938 200.636719 432.585938 202.3125 Z M 432.585938 202.3125 "/>
<path style=" stroke:none;fill-rule:nonzero;fill:rgb(24.705882%,23.921569%,33.72549%);fill-opacity:1;" d="M 429.882812 265.773438 C 429.882812 267.453125 428.671875 268.8125 427.175781 268.8125 C 425.683594 268.8125 424.472656 267.453125 424.472656 265.773438 C 424.472656 264.09375 425.683594 262.734375 427.175781 262.734375 C 428.671875 262.734375 429.882812 264.09375 429.882812 265.773438 Z M 429.882812 265.773438 "/>
<path style=" stroke:none;fill-rule:nonzero;fill:rgb(24.705882%,23.921569%,33.72549%);fill-opacity:1;" d="M 432.585938 232.375 C 432.585938 234.050781 431.375 235.414062 429.882812 235.414062 C 428.386719 235.414062 427.175781 234.050781 427.175781 232.375 C 427.175781 230.695312 428.386719 229.335938 429.882812 229.335938 C 431.375 229.335938 432.585938 230.695312 432.585938 232.375 Z M 432.585938 232.375 "/>
<path style=" stroke:none;fill-rule:nonzero;fill:rgb(24.705882%,23.921569%,33.72549%);fill-opacity:1;" d="M 424.777344 299.175781 C 424.777344 300.851562 423.566406 302.214844 422.074219 302.214844 C 420.578125 302.214844 419.367188 300.851562 419.367188 299.175781 C 419.367188 297.496094 420.578125 296.136719 422.074219 296.136719 C 423.566406 296.136719 424.777344 297.496094 424.777344 299.175781 Z M 424.777344 299.175781 "/>
<use xlink:href="#surface92" mask="url(#mask29)"/>
<use xlink:href="#surface95" mask="url(#mask30)"/>
<path style=" stroke:none;fill-rule:nonzero;fill:rgb(27.45098%,26.27451%,32.54902%);fill-opacity:1;" d="M 424.011719 64.382812 C 426.71875 65.511719 429.660156 66.390625 432.480469 65.640625 C 434.878906 65.007812 437.429688 63.234375 439.609375 64.566406 C 441.519531 65.714844 441.902344 68.519531 443.105469 70.515625 C 444.4375 72.664062 446.738281 73.867188 448.9375 74.8125 C 450.574219 75.671875 452.328125 76.222656 454.125 76.445312 C 455.949219 76.644531 457.75 75.878906 459 74.371094 C 460.699219 72.0625 460.183594 68.605469 459.171875 65.84375 C 458.160156 63.085938 456.726562 60.335938 456.832031 57.351562 C 456.953125 53.804688 459.238281 50.722656 459.429688 47.191406 C 459.679688 42.710938 456.457031 38.800781 452.808594 36.988281 C 449.539062 35.367188 445.800781 34.914062 442.8125 32.691406 C 439.398438 30.179688 437.527344 25.816406 435.003906 22.210938 C 431.332031 16.957031 425.589844 13.039062 419.710938 13.789062 C 416.089844 14.25 412.804688 16.378906 409.199219 17.203125 C 403.726562 18.484375 397.933594 16.625 392.488281 18.054688 C 391.171875 18.285156 389.96875 19.027344 389.085938 20.148438 C 387.746094 22.167969 388.433594 24.992188 389.027344 27.417969 C 390.085938 31.789062 390.535156 36.742188 388.425781 40.585938 C 386.035156 44.933594 380.960938 46.769531 378.753906 51.238281 C 377.457031 53.898438 377.378906 57.09375 378.535156 59.832031 C 379.585938 62.300781 381.621094 64.308594 381.9375 67.027344 C 382.15625 68.980469 381.4375 70.882812 381.066406 72.792969 C 380.695312 74.703125 380.796875 77.089844 382.203125 78.164062 C 383.609375 79.238281 385.578125 78.96875 386.65625 80.3125 C 387.320312 81.390625 387.503906 82.75 387.164062 84.003906 C 386.78125 86.152344 385.96875 88.097656 385.539062 90.203125 C 384.980469 92.289062 385.25 94.546875 386.273438 96.398438 C 388.128906 99.210938 391.875 99.039062 394.875 98.289062 C 395.742188 98.132812 396.566406 97.769531 397.292969 97.214844 C 399.203125 95.59375 398.871094 92.402344 399.339844 89.792969 C 400.378906 83.886719 405.914062 80.054688 407.203125 74.210938 C 408.035156 70.441406 406.773438 65.148438 410.023438 62.65625 C 414.246094 59.59375 419.941406 62.699219 424.011719 64.382812 Z M 424.011719 64.382812 "/>
<use xlink:href="#surface98" mask="url(#mask31)"/>
<use xlink:href="#surface101" mask="url(#mask32)"/>
<use xlink:href="#surface104" mask="url(#mask33)"/>
<use xlink:href="#surface107" mask="url(#mask34)"/>
<use xlink:href="#surface110" mask="url(#mask35)"/>
<use xlink:href="#surface113" mask="url(#mask36)"/>
<use xlink:href="#surface116" mask="url(#mask37)"/>
<use xlink:href="#surface119" mask="url(#mask38)"/>
<use xlink:href="#surface122" mask="url(#mask39)"/>
<use xlink:href="#surface125" mask="url(#mask40)"/>
<use xlink:href="#surface128" mask="url(#mask41)"/>
<use xlink:href="#surface131" mask="url(#mask42)"/>
<use xlink:href="#surface134" mask="url(#mask43)"/>
<use xlink:href="#surface137" mask="url(#mask44)"/>
<path style=" stroke:none;fill-rule:nonzero;fill:rgb(27.45098%,26.27451%,32.54902%);fill-opacity:1;" d="M 334 169.375 L 319.664062 168.300781 C 319.664062 168.300781 315.84375 178.320312 312.660156 179.039062 C 309.476562 179.761719 305.332031 187.988281 305.332031 187.988281 C 305.332031 187.988281 293.058594 190.5 293.59375 194.796875 C 294.128906 199.089844 274.730469 229.816406 274.730469 229.816406 C 274.730469 229.816406 268.355469 244.550781 272.820312 255.292969 C 277.28125 266.03125 280.464844 273.195312 281.421875 277.125 C 282.375 281.054688 293.691406 298.25 293.59375 301.472656 C 293.5 304.695312 322.511719 351.949219 322.511719 351.949219 C 322.511719 351.949219 343.851562 317.582031 355.320312 315.789062 C 355.320312 315.789062 342.582031 302.546875 342.582031 300.398438 C 342.582031 298.25 332.777344 287.15625 332.777344 287.15625 L 320.355469 272.121094 C 320.355469 272.121094 316.207031 269.972656 320.355469 266.03125 C 324.5 262.089844 313.347656 253.144531 313.347656 253.144531 C 313.347656 253.144531 313.023438 246.699219 317.171875 244.90625 C 321.320312 243.113281 326.726562 231.308594 326.726562 231.308594 L 341.703125 222.71875 Z M 334 169.375 "/>
<use xlink:href="#surface140" mask="url(#mask45)"/>
<use xlink:href="#surface143" mask="url(#mask46)"/>
<use xlink:href="#surface146" mask="url(#mask47)"/>
<use xlink:href="#surface149" mask="url(#mask48)"/>
<path style=" stroke:none;fill-rule:nonzero;fill:rgb(29.411765%,50.196078%,52.156863%);fill-opacity:1;" d="M 160.398438 637.925781 C 160.398438 637.925781 120.871094 635.238281 125.523438 666.375 C 125.523438 666.375 124.570312 671.871094 129.042969 674.375 C 129.042969 674.375 129.109375 672.066406 133.09375 672.847656 C 134.511719 673.113281 135.953125 673.191406 137.382812 673.074219 C 139.324219 672.925781 141.167969 672.074219 142.640625 670.648438 C 142.640625 670.648438 153.753906 665.480469 158.074219 645.078125 C 158.074219 645.078125 161.265625 640.621094 161.140625 639.480469 L 154.453125 642.703125 C 154.453125 642.703125 156.738281 648.074219 154.941406 652.605469 C 154.941406 652.605469 154.71875 642.941406 153.441406 643.121094 C 153.179688 643.175781 149.96875 645 149.96875 645 C 149.96875 645 153.898438 654.421875 150.925781 661.273438 C 150.925781 661.273438 152.054688 649.664062 148.738281 645.679688 L 144.046875 648.761719 C 144.046875 648.761719 148.632812 658.492188 145.515625 666.4375 C 145.515625 666.4375 146.320312 654.257812 143.0625 649.511719 L 138.800781 653.238281 C 138.800781 653.238281 143.109375 662.828125 140.480469 669.421875 C 140.480469 669.421875 140.136719 655.238281 137.882812 654.171875 C 137.882812 654.171875 134.15625 657.855469 133.589844 659.371094 C 133.589844 659.371094 136.535156 666.339844 134.707031 670.015625 C 134.707031 670.015625 133.589844 660.5625 132.664062 660.519531 C 132.664062 660.519531 128.957031 666.78125 128.574219 671.066406 C 128.574219 671.066406 128.734375 664.6875 131.765625 659.917969 C 129.628906 660.378906 127.65625 661.527344 126.089844 663.226562 C 126.089844 663.226562 126.664062 658.800781 132.683594 658.414062 C 132.683594 658.414062 135.75 653.667969 136.570312 653.378906 C 136.570312 653.378906 130.582031 652.820312 126.957031 654.625 C 126.957031 654.625 130.148438 650.457031 137.660156 652.347656 L 141.867188 648.492188 C 141.867188 648.492188 133.992188 647.289062 130.648438 648.621094 C 130.648438 648.621094 134.46875 644.925781 143.003906 647.621094 L 147.570312 644.550781 C 147.570312 644.550781 140.882812 642.917969 136.847656 643.476562 C 136.847656 643.476562 141.074219 640.921875 148.910156 643.691406 L 152.1875 642.039062 C 152.1875 642.039062 147.265625 640.964844 145.824219 640.78125 C 144.378906 640.597656 144.304688 640.15625 144.304688 640.15625 C 147.421875 639.578125 150.617188 639.980469 153.542969 641.316406 C 153.542969 641.316406 160.519531 638.40625 160.398438 637.925781 Z M 160.398438 637.925781 "/>
<use xlink:href="#surface152" mask="url(#mask49)"/>
</g>
</svg>
