<?xml version="1.0" encoding="UTF-8"?>
<svg xmlns="http://www.w3.org/2000/svg" xmlns:xlink="http://www.w3.org/1999/xlink" width="1099px" height="726px" viewBox="0 0 1099 726" version="1.1">
<g id="surface1">
<path style=" stroke:none;fill-rule:nonzero;fill:rgb(100%,39.607843%,51.764706%);fill-opacity:1;" d="M 889.277344 244.734375 C 889.277344 285.082031 835.765625 317.789062 769.757812 317.789062 C 703.75 317.789062 650.238281 285.082031 650.238281 244.734375 C 650.238281 204.390625 703.75 171.683594 769.757812 171.683594 C 835.765625 171.683594 889.277344 204.390625 889.277344 244.734375 Z M 889.277344 244.734375 "/>
<path style=" stroke:none;fill-rule:nonzero;fill:rgb(100%,100%,100%);fill-opacity:1;" d="M 1097.605469 299.203125 C 1097.867188 299.171875 1098.066406 299.0625 1098.375 299.089844 C 1098.238281 298.773438 1098.0625 298.464844 1097.851562 298.164062 C 1097.46875 298.480469 1097.082031 298.804688 1096.742188 299.085938 Z M 1097.605469 299.203125 "/>
<path style=" stroke:none;fill-rule:nonzero;fill:rgb(90.196078%,90.196078%,90.196078%);fill-opacity:1;" d="M 295.972656 417.632812 C 296.671875 433.570312 301.039062 449.371094 308.949219 464.5625 C 309.128906 464.914062 309.316406 465.261719 309.507812 465.617188 L 357.929688 465.617188 C 357.875 465.300781 357.824219 464.949219 357.773438 464.5625 C 354.542969 441.878906 335.929688 303.804688 358.1875 280.195312 C 356.242188 282.109375 292.21875 345.550781 295.972656 417.632812 Z M 295.972656 417.632812 "/>
<path style=" stroke:none;fill-rule:nonzero;fill:rgb(90.196078%,90.196078%,90.196078%);fill-opacity:1;" d="M 299.605469 464.5625 C 300.011719 464.914062 300.433594 465.269531 300.863281 465.617188 L 337.1875 465.617188 C 336.910156 465.316406 336.59375 464.964844 336.222656 464.5625 C 330.222656 457.941406 312.460938 438.152344 295.972656 417.632812 C 278.253906 395.585938 262 372.699219 263.367188 364.417969 C 262.945312 366.285156 250.6875 423.234375 299.605469 464.5625 Z M 299.605469 464.5625 "/>
<path style=" stroke:none;fill-rule:nonzero;fill:rgb(90.196078%,90.196078%,90.196078%);fill-opacity:1;" d="M 677.0625 468.359375 C 676.457031 482.253906 672.648438 496.027344 665.753906 509.273438 C 665.59375 509.578125 665.429688 509.882812 665.265625 510.1875 L 623.050781 510.1875 C 623.097656 509.914062 623.140625 509.605469 623.1875 509.273438 C 626 489.492188 642.230469 369.121094 622.824219 348.535156 C 624.523438 350.207031 680.335938 405.515625 677.0625 468.359375 Z M 677.0625 468.359375 "/>
<path style=" stroke:none;fill-rule:nonzero;fill:rgb(90.196078%,90.196078%,90.196078%);fill-opacity:1;" d="M 673.894531 509.273438 C 673.542969 509.578125 673.175781 509.886719 672.800781 510.1875 L 641.132812 510.1875 C 641.371094 509.929688 641.652344 509.621094 641.972656 509.273438 C 647.207031 503.5 662.691406 486.246094 677.0625 468.359375 C 692.511719 449.136719 706.683594 429.183594 705.488281 421.960938 C 705.855469 423.589844 716.546875 473.238281 673.894531 509.273438 Z M 673.894531 509.273438 "/>
<path style=" stroke:none;fill-rule:nonzero;fill:rgb(24.705882%,23.921569%,33.72549%);fill-opacity:1;" d="M 194.398438 59.292969 L 214.085938 49.671875 C 198.792969 48.640625 192.507812 53.738281 189.9375 57.773438 C 177.988281 54.738281 164.984375 58.714844 164.984375 58.714844 L 204.371094 67.453125 C 202.382812 64.210938 198.925781 61.378906 194.398438 59.292969 Z M 194.398438 59.292969 "/>
<path style=" stroke:none;fill-rule:nonzero;fill:rgb(24.705882%,23.921569%,33.72549%);fill-opacity:1;" d="M 787.328125 9.757812 L 807.011719 0.136719 C 791.71875 -0.898438 785.4375 4.203125 782.863281 8.238281 C 770.917969 5.203125 757.910156 9.179688 757.910156 9.179688 L 797.300781 17.917969 C 795.3125 14.675781 791.851562 11.84375 787.328125 9.757812 Z M 787.328125 9.757812 "/>
<path style=" stroke:none;fill-rule:nonzero;fill:rgb(24.705882%,23.921569%,33.72549%);fill-opacity:1;" d="M 1076.972656 390.324219 C 1076.972656 398.296875 1076.515625 406.207031 1075.609375 414.050781 C 1068.597656 475.929688 1033.492188 535.390625 974.234375 585.75 C 966.492188 592.355469 958.363281 598.777344 949.84375 605.011719 C 927.773438 621.191406 903.269531 636.066406 876.652344 649.449219 L 759.976562 607.605469 L 690.21875 508.089844 C 690.21875 508.089844 794.300781 379.285156 1076.785156 381.621094 C 1076.90625 384.511719 1076.964844 387.410156 1076.972656 390.324219 Z M 1076.972656 390.324219 "/>
<path style=" stroke:none;fill-rule:nonzero;fill:rgb(29.411765%,50.196078%,52.156863%);fill-opacity:1;" d="M 1075.609375 414.050781 C 1064.757812 507.539062 990.410156 593.988281 870.574219 652.464844 L 762.183594 613.59375 L 700.320312 525.335938 C 700.320312 525.335938 800.5625 401.28125 1075.609375 414.050781 Z M 1075.609375 414.050781 "/>
<path style=" stroke:none;fill-rule:nonzero;fill:rgb(24.705882%,23.921569%,33.72549%);fill-opacity:1;" d="M 974.234375 585.75 C 966.492188 592.355469 958.363281 598.777344 949.84375 605.011719 C 892.769531 646.925781 819.839844 679.703125 737.371094 700.511719 C 720.671875 704.722656 703.578125 708.433594 686.09375 711.644531 C 559.84375 732.167969 426.089844 726.976562 305.097656 696.859375 C 185.441406 664.21875 88.746094 606.566406 32.378906 534.265625 C 24.804688 524.53125 17.992188 514.550781 11.941406 504.324219 C 117.4375 457.089844 325.316406 389.449219 551.878906 455.175781 C 614.550781 473.355469 670.511719 489.925781 719.761719 504.890625 C 844.734375 542.753906 927.910156 570.050781 974.234375 585.75 Z M 974.234375 585.75 "/>
<path style=" stroke:none;fill-rule:nonzero;fill:rgb(29.411765%,50.196078%,52.156863%);fill-opacity:1;" d="M 949.84375 605.011719 C 829.949219 692.835938 645.128906 737.296875 459.460938 722.980469 C 273.789062 708.664062 112.828125 637.539062 32.378906 534.265625 C 120.484375 491.679688 323.699219 415.152344 546.710938 479.835938 C 604.066406 496.472656 655.265625 511.640625 700.320312 525.335938 C 831.65625 565.121094 912.558594 592.160156 949.84375 605.011719 Z M 949.84375 605.011719 "/>
<path style=" stroke:none;fill-rule:nonzero;fill:rgb(24.705882%,23.921569%,33.72549%);fill-opacity:1;" d="M 794.335938 683.730469 C 775.886719 689.984375 756.867188 695.585938 737.371094 700.511719 C 671.027344 717.222656 599.953125 725.796875 528.195312 725.742188 C 356.0625 725.699219 193.917969 676.339844 90.152344 592.398438 C 221.21875 583.949219 583.511719 572.558594 794.335938 683.730469 Z M 794.335938 683.730469 "/>
<path style=" stroke:none;fill-rule:nonzero;fill:rgb(29.411765%,50.196078%,52.156863%);fill-opacity:1;" d="M 737.371094 700.511719 C 526.761719 753.441406 284.5625 721.472656 128.464844 620.136719 C 176.136719 615.855469 550.414062 586.460938 737.371094 700.511719 Z M 737.371094 700.511719 "/>
<path style=" stroke:none;fill-rule:nonzero;fill:rgb(90.196078%,90.196078%,90.196078%);fill-opacity:1;" d="M 984.925781 204.320312 L 984.925781 204.332031 C 593.074219 27.25 144.121094 151.890625 140.652344 152.847656 L 140.652344 152.835938 C 243.425781 90.027344 382.859375 54.792969 528.195312 54.90625 C 718.703125 54.90625 886.53125 114.242188 984.925781 204.320312 Z M 984.925781 204.320312 "/>
<path style=" stroke:none;fill-rule:nonzero;fill:rgb(24.705882%,23.921569%,33.72549%);fill-opacity:1;" d="M 247.953125 233.914062 C 223.566406 151.242188 150.058594 90.148438 83.769531 97.453125 C 17.480469 104.757812 -16.488281 177.695312 7.898438 260.367188 C 32.285156 343.035156 105.792969 404.132812 172.082031 396.824219 C 238.371094 389.519531 272.339844 316.582031 247.953125 233.914062 Z M 247.953125 233.914062 "/>
<path style=" stroke:none;fill-rule:nonzero;fill:rgb(29.411765%,50.196078%,52.156863%);fill-opacity:1;" d="M 189.117188 493.375 C 185.1875 311.789062 85.785156 141.382812 84.78125 139.6875 L 75.714844 141.683594 C 76.714844 143.375 175.570312 312.886719 179.480469 493.453125 Z M 189.117188 493.375 "/>
<path style=" stroke:none;fill-rule:nonzero;fill:rgb(29.411765%,50.196078%,52.156863%);fill-opacity:1;" d="M 9.792969 232.203125 L 12.757812 226.597656 L 131.761719 250.121094 L 128.796875 255.726562 Z M 9.792969 232.203125 "/>
<path style=" stroke:none;fill-rule:nonzero;fill:rgb(29.411765%,50.196078%,52.156863%);fill-opacity:1;" d="M 138.5625 267.746094 L 236.613281 220.28125 L 242.597656 224.902344 L 144.546875 272.363281 Z M 138.5625 267.746094 "/>
<path style=" stroke:none;fill-rule:nonzero;fill:rgb(24.705882%,23.921569%,33.72549%);fill-opacity:1;" d="M 622.796875 206.0625 C 622.796875 115.164062 563.710938 41.472656 490.824219 41.472656 C 417.933594 41.472656 358.847656 115.164062 358.847656 206.0625 C 358.847656 296.960938 417.933594 370.648438 490.824219 370.648438 C 563.710938 370.648438 622.796875 296.960938 622.796875 206.0625 Z M 622.796875 206.0625 "/>
<path style=" stroke:none;fill-rule:nonzero;fill:rgb(29.411765%,50.196078%,52.156863%);fill-opacity:1;" d="M 478.636719 475.460938 C 531.492188 281.628906 479.167969 88.496094 478.632812 86.570312 L 468.351562 87.632812 C 468.882812 89.550781 520.90625 281.667969 468.347656 474.417969 Z M 478.636719 475.460938 "/>
<path style=" stroke:none;fill-rule:nonzero;fill:rgb(29.411765%,50.196078%,52.156863%);fill-opacity:1;" d="M 369.710938 176.289062 L 374.632812 170.667969 L 493.972656 209.683594 L 489.050781 215.304688 Z M 369.710938 176.289062 "/>
<path style=" stroke:none;fill-rule:nonzero;fill:rgb(29.411765%,50.196078%,52.156863%);fill-opacity:1;" d="M 495.679688 229.25 L 615.003906 190.214844 L 619.925781 195.835938 L 500.601562 234.871094 Z M 495.679688 229.25 "/>
<path style=" stroke:none;fill-rule:nonzero;fill:rgb(90.196078%,90.196078%,90.196078%);fill-opacity:1;" d="M 1064.078125 317.703125 C 1015.65625 301.089844 965.066406 286.953125 912.828125 275.4375 C 623.980469 211.554688 337.554688 236.175781 225.441406 327.601562 C 312.691406 215.597656 624.011719 180.378906 938.179688 249.859375 C 974.742188 257.941406 1010.527344 267.285156 1045.359375 277.847656 C 1052.945312 290.882812 1059.199219 304.195312 1064.078125 317.703125 Z M 1064.078125 317.703125 "/>
<path style=" stroke:none;fill-rule:nonzero;fill:rgb(24.705882%,23.921569%,33.72549%);fill-opacity:1;" d="M 673.96875 137.46875 L 693.65625 127.84375 C 678.363281 126.8125 672.078125 131.910156 669.507812 135.945312 C 657.558594 132.914062 644.550781 136.886719 644.550781 136.886719 L 683.941406 145.628906 C 681.953125 142.382812 678.496094 139.550781 673.96875 137.46875 Z M 673.96875 137.46875 "/>
</g>
</svg>
