<?xml version="1.0" encoding="UTF-8"?>
<svg xmlns="http://www.w3.org/2000/svg" xmlns:xlink="http://www.w3.org/1999/xlink" width="1099px" height="726px" viewBox="0 0 1099 726" version="1.1">
<defs>
<filter id="alpha" filterUnits="objectBoundingBox" x="0%" y="0%" width="100%" height="100%">
  <feColorMatrix type="matrix" in="SourceGraphic" values="0 0 0 0 1 0 0 0 0 1 0 0 0 0 1 0 0 0 1 0"/>
</filter>
<mask id="mask0">
  <g filter="url(#alpha)">
<rect x="0" y="0" width="1099" height="726" style="fill:rgb(0%,0%,0%);fill-opacity:0.2;stroke:none;"/>
  </g>
</mask>
<clipPath id="clip1">
  <rect x="0" y="0" width="1099" height="726"/>
</clipPath>
<g id="surface5" clip-path="url(#clip1)">
<path style=" stroke:none;fill-rule:nonzero;fill:rgb(96.078431%,96.078431%,96.078431%);fill-opacity:1;" d="M 217.15625 661.90625 C 217.15625 661.90625 242.6875 658.472656 245.011719 677.789062 C 247.339844 697.109375 294.109375 699.792969 294.109375 699.792969 L 293.234375 700.28125 C 254.617188 721.691406 217.703125 713.914062 223.316406 685.519531 C 225.285156 674.929688 225.164062 664.3125 217.15625 661.90625 Z M 217.15625 661.90625 "/>
</g>
<mask id="mask1">
  <g filter="url(#alpha)">
<rect x="0" y="0" width="1099" height="726" style="fill:rgb(0%,0%,0%);fill-opacity:0.101961;stroke:none;"/>
  </g>
</mask>
<clipPath id="clip2">
  <rect x="0" y="0" width="1099" height="726"/>
</clipPath>
<g id="surface8" clip-path="url(#clip2)">
<path style=" stroke:none;fill-rule:nonzero;fill:rgb(29.411765%,50.196078%,52.156863%);fill-opacity:1;" d="M 968.222656 335.851562 C 980.722656 357.519531 972.769531 388.609375 990.464844 406.320312 C 1003.445312 419.308594 1024.988281 419.234375 1039.703125 430.195312 C 1051.152344 438.746094 1056.851562 452.738281 1062.042969 466.023438 L 1087.257812 530.597656 C 1098.738281 560.007812 1108.546875 597.867188 1085.421875 619.425781 C 1071.558594 632.339844 1050.617188 633.804688 1031.683594 632.433594 C 894.65625 622.476562 784.441406 505.78125 647.886719 490.71875 C 551.367188 480.0625 456.007812 521.980469 358.933594 519.667969 C 307.589844 518.441406 257.457031 504.90625 207.914062 491.402344 C 169.808594 481.042969 127.519531 467.417969 109.355469 432.492188 C 101.238281 416.882812 98.714844 398.027344 86.652344 385.195312 C 77.410156 375.351562 64.050781 370.695312 52.570312 363.5625 C 2.554688 332.464844 -3.179688 262.910156 1.179688 204.339844 C 3.59375 171.851562 7.679688 138.585938 22.898438 109.75 C 38.117188 80.910156 66.75 57.066406 99.433594 56.125 C 120.101562 55.523438 139.855469 63.84375 159.964844 68.496094 C 180.078125 73.144531 203.664062 73.28125 218.761719 59.269531 C 231.152344 47.765625 235.039062 29.289062 247.429688 17.757812 C 257.074219 8.800781 270.53125 5.324219 283.542969 3.191406 C 353.515625 -8.265625 428.054688 11.625 482.925781 56.382812 C 496.265625 67.257812 508.96875 79.804688 525.269531 85.386719 C 546.976562 92.8125 570.703125 86.519531 593.65625 86.675781 C 674.628906 87.230469 729.546875 161.234375 786.617188 207.882812 C 819.980469 235.160156 852.25 241.039062 888.453125 259.210938 C 910.859375 270.464844 954.710938 312.429688 968.222656 335.851562 Z M 968.222656 335.851562 "/>
</g>
<linearGradient id="linear0" gradientUnits="userSpaceOnUse" x1="281.77" y1="766.42" x2="281.77" y2="356.78" gradientTransform="matrix(1.092445,0,0,0.92249,0,0)">
<stop offset="0" style="stop-color:rgb(50.196078%,50.196078%,50.196078%);stop-opacity:0.25098;"/>
<stop offset="0.54" style="stop-color:rgb(50.196078%,50.196078%,50.196078%);stop-opacity:0.121569;"/>
<stop offset="1" style="stop-color:rgb(50.196078%,50.196078%,50.196078%);stop-opacity:0.101961;"/>
</linearGradient>
<linearGradient id="linear1" gradientUnits="userSpaceOnUse" x1="282.79" y1="784.76" x2="282.79" y2="753.17" gradientTransform="matrix(1.092445,0,0,0.92249,0,0)">
<stop offset="0" style="stop-color:rgb(50.196078%,50.196078%,50.196078%);stop-opacity:0.25098;"/>
<stop offset="0.54" style="stop-color:rgb(50.196078%,50.196078%,50.196078%);stop-opacity:0.121569;"/>
<stop offset="1" style="stop-color:rgb(50.196078%,50.196078%,50.196078%);stop-opacity:0.101961;"/>
</linearGradient>
<linearGradient id="linear2" gradientUnits="userSpaceOnUse" x1="376" y1="417.12" x2="376" y2="120.14" gradientTransform="matrix(1.092445,0,0,0.92249,-105.726859,-52.212961)">
<stop offset="0" style="stop-color:rgb(50.196078%,50.196078%,50.196078%);stop-opacity:0.25098;"/>
<stop offset="0.54" style="stop-color:rgb(50.196078%,50.196078%,50.196078%);stop-opacity:0.121569;"/>
<stop offset="1" style="stop-color:rgb(50.196078%,50.196078%,50.196078%);stop-opacity:0.101961;"/>
</linearGradient>
<linearGradient id="linear3" gradientUnits="userSpaceOnUse" x1="376" y1="407.73" x2="376" y2="129.53" gradientTransform="matrix(1.092445,0,0,0.92249,-105.726859,-52.212961)">
<stop offset="0" style="stop-color:rgb(50.196078%,50.196078%,50.196078%);stop-opacity:0.25098;"/>
<stop offset="0.54" style="stop-color:rgb(50.196078%,50.196078%,50.196078%);stop-opacity:0.121569;"/>
<stop offset="1" style="stop-color:rgb(50.196078%,50.196078%,50.196078%);stop-opacity:0.101961;"/>
</linearGradient>
<linearGradient id="linear4" gradientUnits="userSpaceOnUse" x1="278.71" y1="332.33" x2="278.71" y2="240.62" gradientTransform="matrix(1.092445,0,0,0.92249,0,0)">
<stop offset="0" style="stop-color:rgb(50.196078%,50.196078%,50.196078%);stop-opacity:0.25098;"/>
<stop offset="0.54" style="stop-color:rgb(50.196078%,50.196078%,50.196078%);stop-opacity:0.121569;"/>
<stop offset="1" style="stop-color:rgb(50.196078%,50.196078%,50.196078%);stop-opacity:0.101961;"/>
</linearGradient>
<linearGradient id="linear5" gradientUnits="userSpaceOnUse" x1="278.71" y1="324.54" x2="278.71" y2="248.4" gradientTransform="matrix(1.092445,0,0,0.92249,0,0)">
<stop offset="0" style="stop-color:rgb(50.196078%,50.196078%,50.196078%);stop-opacity:0.25098;"/>
<stop offset="0.54" style="stop-color:rgb(50.196078%,50.196078%,50.196078%);stop-opacity:0.121569;"/>
<stop offset="1" style="stop-color:rgb(50.196078%,50.196078%,50.196078%);stop-opacity:0.101961;"/>
</linearGradient>
<mask id="mask2">
  <g filter="url(#alpha)">
<rect x="0" y="0" width="1099" height="726" style="fill:rgb(0%,0%,0%);fill-opacity:0.101961;stroke:none;"/>
  </g>
</mask>
<linearGradient id="linear6" gradientUnits="userSpaceOnUse" x1="379.43" y1="528.7" x2="379.43" y2="399.85" gradientTransform="matrix(1.092445,0,0,0.92249,-105.726859,-52.212961)">
<stop offset="0" style="stop-color:rgb(50.196078%,50.196078%,50.196078%);stop-opacity:0.25098;"/>
<stop offset="0.54" style="stop-color:rgb(50.196078%,50.196078%,50.196078%);stop-opacity:0.121569;"/>
<stop offset="1" style="stop-color:rgb(50.196078%,50.196078%,50.196078%);stop-opacity:0.101961;"/>
</linearGradient>
<clipPath id="clip3">
  <rect x="0" y="0" width="1099" height="726"/>
</clipPath>
<g id="surface11" clip-path="url(#clip3)">
<path style=" stroke:none;fill-rule:nonzero;fill:url(#linear6);" d="M 345.769531 435.507812 L 308.550781 381.359375 L 275.535156 433.605469 L 246.894531 378.847656 L 217.089844 434.605469 L 216.054688 434.253906 C 228.070312 404.621094 216.152344 320.628906 216.054688 319.78125 L 215.59375 316.636719 L 246.925781 376.53125 L 273.046875 327.640625 L 308.582031 379.363281 L 341.082031 327.851562 L 368.613281 380.90625 L 395.335938 320.234375 L 402.019531 319.109375 L 401.867188 319.789062 C 401.671875 320.65625 383.414062 401.890625 393.792969 429.4375 L 396.261719 434.199219 L 395.28125 434.632812 C 394.210938 433.09375 393.359375 431.457031 392.746094 429.75 L 368.710938 383.414062 Z M 309.160156 380.351562 L 345.539062 433.3125 L 368.054688 382.195312 L 340.984375 330.03125 Z M 247.460938 377.667969 L 275.535156 431.457031 L 307.851562 380.371094 L 273.101562 329.699219 Z M 217.507812 322.722656 C 219.40625 337.1875 226.800781 398.894531 218.980469 428.671875 L 246.292969 377.667969 Z M 369.269531 382.179688 L 391.195312 424.429688 C 384.53125 394.355469 398.839844 328.386719 400.632812 320.324219 L 396.1875 321.074219 Z M 369.269531 382.179688 "/>
</g>
<mask id="mask3">
  <g filter="url(#alpha)">
<rect x="0" y="0" width="1099" height="726" style="fill:rgb(0%,0%,0%);fill-opacity:0.101961;stroke:none;"/>
  </g>
</mask>
<linearGradient id="linear7" gradientUnits="userSpaceOnUse" x1="372.98" y1="528.83" x2="372.98" y2="406.67" gradientTransform="matrix(1.092445,0,0,0.92249,-105.726859,-52.212961)">
<stop offset="0" style="stop-color:rgb(50.196078%,50.196078%,50.196078%);stop-opacity:0.25098;"/>
<stop offset="0.54" style="stop-color:rgb(50.196078%,50.196078%,50.196078%);stop-opacity:0.121569;"/>
<stop offset="1" style="stop-color:rgb(50.196078%,50.196078%,50.196078%);stop-opacity:0.101961;"/>
</linearGradient>
<clipPath id="clip4">
  <rect x="0" y="0" width="1099" height="726"/>
</clipPath>
<g id="surface14" clip-path="url(#clip4)">
<path style=" stroke:none;fill-rule:nonzero;fill:url(#linear7);" d="M 248.792969 435.628906 L 221.175781 377.242188 L 222.214844 376.894531 L 248.847656 433.164062 L 275.535156 381.734375 L 239.957031 326.535156 L 240.929688 326.082031 L 276.09375 380.648438 L 302.761719 329.28125 L 303.089844 329.28125 L 382.269531 322.964844 L 308.921875 433.507812 L 276.226562 382.769531 Z M 276.792969 381.691406 L 308.933594 431.558594 L 380.28125 324.042969 L 303.546875 330.167969 Z M 276.792969 381.691406 "/>
</g>
<mask id="mask4">
  <g filter="url(#alpha)">
<rect x="0" y="0" width="1099" height="726" style="fill:rgb(0%,0%,0%);fill-opacity:0.101961;stroke:none;"/>
  </g>
</mask>
<linearGradient id="linear8" gradientUnits="userSpaceOnUse" x1="317.13" y1="469.09" x2="317.13" y2="351.45" gradientTransform="matrix(1.092445,0,0,0.92249,0,0)">
<stop offset="0" style="stop-color:rgb(50.196078%,50.196078%,50.196078%);stop-opacity:0.25098;"/>
<stop offset="0.54" style="stop-color:rgb(50.196078%,50.196078%,50.196078%);stop-opacity:0.121569;"/>
<stop offset="1" style="stop-color:rgb(50.196078%,50.196078%,50.196078%);stop-opacity:0.101961;"/>
</linearGradient>
<clipPath id="clip5">
  <rect x="0" y="0" width="1099" height="726"/>
</clipPath>
<g id="surface17" clip-path="url(#clip5)">
<path style=" stroke:none;fill-rule:nonzero;fill:url(#linear8);" d="M 366.886719 432.730469 L 366.320312 431.808594 L 300.640625 324.644531 L 301.636719 324.210938 L 366.746094 430.441406 L 391.214844 376.902344 L 392.253906 377.242188 Z M 366.886719 432.730469 "/>
</g>
<linearGradient id="linear9" gradientUnits="userSpaceOnUse" x1="377.53" y1="416.44" x2="377.53" y2="387.91" gradientTransform="matrix(1.092445,0,0,0.92249,-105.726859,-52.212961)">
<stop offset="0" style="stop-color:rgb(50.196078%,50.196078%,50.196078%);stop-opacity:0.25098;"/>
<stop offset="0.54" style="stop-color:rgb(50.196078%,50.196078%,50.196078%);stop-opacity:0.121569;"/>
<stop offset="1" style="stop-color:rgb(50.196078%,50.196078%,50.196078%);stop-opacity:0.101961;"/>
</linearGradient>
<mask id="mask5">
  <g filter="url(#alpha)">
<rect x="0" y="0" width="1099" height="726" style="fill:rgb(0%,0%,0%);fill-opacity:0.2;stroke:none;"/>
  </g>
</mask>
<linearGradient id="linear10" gradientUnits="userSpaceOnUse" x1="377.53" y1="416.44" x2="377.53" y2="387.91" gradientTransform="matrix(1.092445,0,0,0.92249,-105.726859,-52.212961)">
<stop offset="0" style="stop-color:rgb(50.196078%,50.196078%,50.196078%);stop-opacity:0.25098;"/>
<stop offset="0.54" style="stop-color:rgb(50.196078%,50.196078%,50.196078%);stop-opacity:0.121569;"/>
<stop offset="1" style="stop-color:rgb(50.196078%,50.196078%,50.196078%);stop-opacity:0.101961;"/>
</linearGradient>
<clipPath id="clip6">
  <rect x="0" y="0" width="1099" height="726"/>
</clipPath>
<g id="surface20" clip-path="url(#clip6)">
<path style=" stroke:none;fill-rule:nonzero;fill:url(#linear10);" d="M 306.703125 305.628906 C 254.441406 305.628906 212.085938 311.523438 212.085938 318.792969 C 212.085938 326.0625 254.453125 331.957031 306.703125 331.957031 C 358.957031 331.957031 401.320312 326.0625 401.320312 318.792969 C 401.320312 311.523438 358.957031 305.628906 306.703125 305.628906 Z M 306.703125 326.3125 C 258.746094 326.3125 219.875 322.519531 219.875 317.851562 C 219.875 313.183594 258.746094 309.402344 306.703125 309.402344 C 354.664062 309.402344 393.519531 313.175781 393.519531 317.851562 C 393.519531 322.53125 354.652344 326.3125 306.703125 326.3125 Z M 306.703125 326.3125 "/>
</g>
<linearGradient id="linear11" gradientUnits="userSpaceOnUse" x1="377.53" y1="413.39" x2="377.53" y2="384.86" gradientTransform="matrix(1.092445,0,0,0.92249,-105.726859,-52.212961)">
<stop offset="0" style="stop-color:rgb(50.196078%,50.196078%,50.196078%);stop-opacity:0.25098;"/>
<stop offset="0.54" style="stop-color:rgb(50.196078%,50.196078%,50.196078%);stop-opacity:0.121569;"/>
<stop offset="1" style="stop-color:rgb(50.196078%,50.196078%,50.196078%);stop-opacity:0.101961;"/>
</linearGradient>
<mask id="mask6">
  <g filter="url(#alpha)">
<rect x="0" y="0" width="1099" height="726" style="fill:rgb(0%,0%,0%);fill-opacity:0.101961;stroke:none;"/>
  </g>
</mask>
<clipPath id="clip7">
  <rect x="0" y="0" width="1099" height="726"/>
</clipPath>
<g id="surface23" clip-path="url(#clip7)">
<path style=" stroke:none;fill-rule:nonzero;fill:rgb(0%,0%,0%);fill-opacity:1;" d="M 345.015625 434.6875 L 308.484375 381.515625 L 276.027344 432.8125 L 247.917969 379.078125 L 218.730469 433.800781 L 217.714844 433.460938 C 229.554688 404.375 217.8125 321.949219 217.714844 321.117188 L 217.265625 318.027344 L 248.019531 376.808594 L 273.65625 328.839844 L 308.527344 379.578125 L 340.503906 329.023438 L 367.519531 381.089844 L 393.738281 321.542969 L 400.292969 320.4375 L 400.140625 321.109375 C 399.945312 321.96875 382.027344 401.679688 392.21875 428.71875 L 394.644531 433.386719 L 393.671875 433.808594 C 392.625 432.300781 391.789062 430.695312 391.183594 429.023438 L 367.585938 383.542969 Z M 309.097656 380.554688 L 344.796875 432.527344 L 366.886719 382.371094 L 340.328125 331.175781 Z M 248.53125 377.953125 L 276.125 430.71875 L 307.808594 380.582031 L 273.667969 330.878906 Z M 219.132812 324.035156 C 221 338.222656 228.253906 398.753906 220.574219 428.007812 L 247.328125 377.953125 Z M 368.066406 382.34375 L 389.578125 423.792969 C 383.023438 394.273438 397.070312 329.542969 398.839844 321.636719 L 394.472656 322.375 Z M 368.066406 382.34375 "/>
</g>
<mask id="mask7">
  <g filter="url(#alpha)">
<rect x="0" y="0" width="1099" height="726" style="fill:rgb(0%,0%,0%);fill-opacity:0.101961;stroke:none;"/>
  </g>
</mask>
<clipPath id="clip8">
  <rect x="0" y="0" width="1099" height="726"/>
</clipPath>
<g id="surface26" clip-path="url(#clip8)">
<path style=" stroke:none;fill-rule:nonzero;fill:rgb(0%,0%,0%);fill-opacity:1;" d="M 249.84375 434.808594 L 222.738281 377.511719 L 223.753906 377.167969 L 249.898438 432.417969 L 276.117188 381.921875 L 241.15625 327.75 L 242.117188 327.308594 L 276.628906 380.8125 L 302.847656 330.410156 L 303.164062 330.410156 L 380.871094 324.210938 L 308.84375 432.722656 L 276.761719 382.90625 Z M 277.316406 381.875 L 308.855469 430.8125 L 378.882812 325.296875 L 303.578125 331.304688 Z M 277.316406 381.875 "/>
</g>
<mask id="mask8">
  <g filter="url(#alpha)">
<rect x="0" y="0" width="1099" height="726" style="fill:rgb(0%,0%,0%);fill-opacity:0.101961;stroke:none;"/>
  </g>
</mask>
<clipPath id="clip9">
  <rect x="0" y="0" width="1099" height="726"/>
</clipPath>
<g id="surface29" clip-path="url(#clip9)">
<path style=" stroke:none;fill-rule:nonzero;fill:rgb(0%,0%,0%);fill-opacity:1;" d="M 365.738281 431.964844 L 365.171875 431.050781 L 300.71875 325.886719 L 301.691406 325.464844 L 365.585938 429.714844 L 389.609375 377.167969 L 390.625 377.5 Z M 365.738281 431.964844 "/>
</g>
<mask id="mask9">
  <g filter="url(#alpha)">
<rect x="0" y="0" width="1099" height="726" style="fill:rgb(0%,0%,0%);fill-opacity:0.2;stroke:none;"/>
  </g>
</mask>
<clipPath id="clip10">
  <rect x="0" y="0" width="1099" height="726"/>
</clipPath>
<g id="surface32" clip-path="url(#clip10)">
<path style=" stroke:none;fill-rule:nonzero;fill:rgb(0%,0%,0%);fill-opacity:1;" d="M 306.671875 307.226562 C 255.390625 307.226562 213.8125 313.011719 213.8125 320.140625 C 213.8125 327.273438 255.390625 333.054688 306.671875 333.054688 C 357.949219 333.054688 399.527344 327.273438 399.527344 320.140625 C 399.527344 313.011719 357.949219 307.226562 306.671875 307.226562 Z M 306.671875 327.519531 C 259.609375 327.519531 221.460938 323.832031 221.460938 319.21875 C 221.460938 314.605469 259.609375 310.917969 306.671875 310.917969 C 353.734375 310.917969 391.882812 314.605469 391.882812 319.21875 C 391.882812 323.832031 353.734375 327.519531 306.671875 327.519531 Z M 306.671875 327.519531 "/>
</g>
<mask id="mask10">
  <g filter="url(#alpha)">
<rect x="0" y="0" width="1099" height="726" style="fill:rgb(0%,0%,0%);fill-opacity:0.101961;stroke:none;"/>
  </g>
</mask>
<clipPath id="clip11">
  <rect x="0" y="0" width="1099" height="726"/>
</clipPath>
<g id="surface35" clip-path="url(#clip11)">
<path style=" stroke:none;fill-rule:nonzero;fill:rgb(29.411765%,50.196078%,52.156863%);fill-opacity:1;" d="M 646.0625 679.320312 C 616.46875 686.34375 583.855469 679.164062 554.710938 687.414062 C 552.144531 688.023438 549.746094 689.058594 547.652344 690.457031 C 540.683594 695.59375 543.4375 705.621094 549.664062 711.398438 C 559.617188 720.621094 575.261719 723.5 589.953125 724.734375 C 661.726562 730.761719 733.511719 708.839844 805.371094 713.453125 C 816.058594 714.144531 828.511719 714.894531 835.675781 708.167969 C 840.964844 703.214844 841.324219 695.578125 838.714844 689.285156 C 833.917969 677.734375 820.667969 669.847656 806.714844 666.535156 C 792.765625 663.222656 777.984375 663.769531 763.5 664.3125 C 743.835938 665.070312 724.007812 664.855469 704.398438 665.957031 C 683.433594 667.171875 665.921875 674.644531 646.0625 679.320312 Z M 646.0625 679.320312 "/>
</g>
<linearGradient id="linear12" gradientUnits="userSpaceOnUse" x1="685.33" y1="676.36" x2="685.33" y2="279.53" gradientTransform="matrix(1.092445,0,0,0.92249,-105.726859,-52.212961)">
<stop offset="0" style="stop-color:rgb(50.196078%,50.196078%,50.196078%);stop-opacity:0.25098;"/>
<stop offset="0.54" style="stop-color:rgb(50.196078%,50.196078%,50.196078%);stop-opacity:0.121569;"/>
<stop offset="1" style="stop-color:rgb(50.196078%,50.196078%,50.196078%);stop-opacity:0.101961;"/>
</linearGradient>
<mask id="mask11">
  <g filter="url(#alpha)">
<rect x="0" y="0" width="1099" height="726" style="fill:rgb(0%,0%,0%);fill-opacity:0.101961;stroke:none;"/>
  </g>
</mask>
<clipPath id="clip12">
  <rect x="0" y="0" width="1099" height="726"/>
</clipPath>
<g id="surface38" clip-path="url(#clip12)">
<path style=" stroke:none;fill-rule:nonzero;fill:rgb(0%,0%,0%);fill-opacity:1;" d="M 639.59375 284.996094 C 635.113281 291.753906 625.929688 295.253906 616.957031 293.621094 C 616.957031 291.082031 616.550781 288.558594 615.757812 286.109375 L 638.765625 277.070312 C 638.363281 279.730469 638.648438 282.433594 639.59375 284.996094 Z M 639.59375 284.996094 "/>
</g>
<mask id="mask12">
  <g filter="url(#alpha)">
<rect x="0" y="0" width="1099" height="726" style="fill:rgb(0%,0%,0%);fill-opacity:0.101961;stroke:none;"/>
  </g>
</mask>
<clipPath id="clip13">
  <rect x="0" y="0" width="1099" height="726"/>
</clipPath>
<g id="surface41" clip-path="url(#clip13)">
<path style=" stroke:none;fill-rule:nonzero;fill:rgb(0%,0%,0%);fill-opacity:1;" d="M 608.042969 266.121094 C 610.0625 266.46875 611.839844 267.460938 613.015625 268.886719 C 614.390625 270.734375 614.359375 273.261719 616.292969 274.699219 C 617.75 275.609375 619.574219 276 621.371094 275.789062 C 623.148438 275.570312 624.945312 275.515625 626.734375 275.632812 C 629.632812 276.027344 632 277.835938 633.605469 279.902344 C 635.066406 282.042969 636.367188 284.261719 637.496094 286.542969 C 637.957031 287.449219 638.617188 288.273438 639.441406 288.96875 C 640.285156 289.671875 641.472656 289.996094 642.640625 289.835938 C 644.136719 287.070312 642.847656 283.710938 644.28125 280.953125 C 645.054688 279.785156 645.910156 278.65625 646.847656 277.578125 C 649.03125 274.449219 648.738281 270.539062 648.09375 266.949219 C 647.40625 263.085938 646.355469 259.144531 643.722656 255.9375 C 641.089844 252.726562 636.558594 250.402344 631.96875 250.871094 C 628.320312 251.277344 625.117188 253.390625 621.449219 253.574219 C 618.859375 253.703125 616.359375 252.84375 613.890625 252.171875 C 611.234375 251.449219 608.511719 250.925781 605.75 250.605469 C 603.914062 250.390625 601.761719 250.355469 600.527344 251.527344 C 600.039062 252.035156 599.667969 252.617188 599.4375 253.242188 L 597.066406 258.777344 C 596.816406 259.160156 596.816406 259.621094 597.066406 260.003906 C 597.285156 260.226562 597.65625 260.289062 597.9375 260.457031 C 599.816406 261.480469 597.292969 264.007812 598.847656 265.253906 C 600.398438 266.5 605.871094 265.6875 608.042969 266.121094 Z M 608.042969 266.121094 "/>
</g>
<mask id="mask13">
  <g filter="url(#alpha)">
<rect x="0" y="0" width="1099" height="726" style="fill:rgb(0%,0%,0%);fill-opacity:0.101961;stroke:none;"/>
  </g>
</mask>
<clipPath id="clip14">
  <rect x="0" y="0" width="1099" height="726"/>
</clipPath>
<g id="surface44" clip-path="url(#clip14)">
<path style=" stroke:none;fill-rule:nonzero;fill:rgb(0%,0%,0%);fill-opacity:1;" d="M 671.964844 327.125 C 670.171875 329.992188 668.902344 333.070312 668.195312 336.257812 L 643.503906 300.933594 C 644.09375 300.246094 644.609375 299.515625 645.046875 298.75 C 645.675781 297.667969 646.175781 296.53125 646.53125 295.363281 L 650.101562 296.046875 L 659.769531 297.890625 L 663.125 298.527344 C 663.125 298.601562 663.058594 298.675781 663.039062 298.75 C 658.535156 309.910156 667.023438 321.597656 671.964844 327.125 Z M 671.964844 327.125 "/>
</g>
<mask id="mask14">
  <g filter="url(#alpha)">
<rect x="0" y="0" width="1099" height="726" style="fill:rgb(0%,0%,0%);fill-opacity:0.101961;stroke:none;"/>
  </g>
</mask>
<clipPath id="clip15">
  <rect x="0" y="0" width="1099" height="726"/>
</clipPath>
<g id="surface47" clip-path="url(#clip15)">
<path style=" stroke:none;fill-rule:nonzero;fill:rgb(0%,0%,0%);fill-opacity:1;" d="M 600.242188 304.183594 L 597.03125 328.167969 L 589.8125 328.507812 C 592.882812 323.894531 594.96875 311.683594 595.917969 305.050781 C 597.332031 304.671875 598.777344 304.382812 600.242188 304.183594 Z M 600.242188 304.183594 "/>
</g>
<mask id="mask15">
  <g filter="url(#alpha)">
<rect x="0" y="0" width="1099" height="726" style="fill:rgb(0%,0%,0%);fill-opacity:0.301961;stroke:none;"/>
  </g>
</mask>
<clipPath id="clip16">
  <rect x="0" y="0" width="1099" height="726"/>
</clipPath>
<g id="surface50" clip-path="url(#clip16)">
<path style=" stroke:none;fill-rule:nonzero;fill:rgb(100%,100%,100%);fill-opacity:1;" d="M 602.175781 300.945312 C 602.175781 306.929688 600.484375 326.773438 590.085938 329.644531 L 590.085938 329.484375 C 590.195312 329.375 590.304688 329.253906 590.402344 329.125 C 595.023438 323.589844 597.578125 300.527344 597.578125 300.527344 C 599.101562 300.738281 600.636719 300.878906 602.175781 300.945312 Z M 602.175781 300.945312 "/>
</g>
<mask id="mask16">
  <g filter="url(#alpha)">
<rect x="0" y="0" width="1099" height="726" style="fill:rgb(0%,0%,0%);fill-opacity:0.301961;stroke:none;"/>
  </g>
</mask>
<clipPath id="clip17">
  <rect x="0" y="0" width="1099" height="726"/>
</clipPath>
<g id="surface53" clip-path="url(#clip17)">
<path style=" stroke:none;fill-rule:nonzero;fill:rgb(100%,100%,100%);fill-opacity:1;" d="M 673.875 330.195312 C 654.296875 329.347656 656.613281 307.722656 658.691406 297.910156 L 662.042969 298.546875 C 656.023438 312.9375 671.863281 328.332031 673.875 330.195312 Z M 673.875 330.195312 "/>
</g>
<mask id="mask17">
  <g filter="url(#alpha)">
<rect x="0" y="0" width="1099" height="726" style="fill:rgb(0%,0%,0%);fill-opacity:0.101961;stroke:none;"/>
  </g>
</mask>
<clipPath id="clip18">
  <rect x="0" y="0" width="1099" height="726"/>
</clipPath>
<g id="surface56" clip-path="url(#clip18)">
<path style=" stroke:none;fill-rule:nonzero;fill:rgb(0%,0%,0%);fill-opacity:1;" d="M 674.082031 330.84375 C 674.070312 330.746094 673.988281 330.667969 673.875 330.648438 C 669.503906 329.726562 674.355469 331.0625 669.503906 329.726562 C 669.320312 329.671875 669.765625 329.050781 669.765625 329.050781 C 669.914062 334.011719 668.511719 338.917969 665.703125 343.277344 C 657.675781 355.765625 653.542969 369.769531 653.6875 383.976562 L 653.6875 385.96875 C 653.6875 385.96875 659.574219 399.519531 653.6875 399.519531 C 647.796875 399.519531 648.332031 406.300781 640.851562 407.65625 C 633.988281 408.902344 611.429688 416.957031 601.523438 415.175781 C 602.132812 415.554688 602.757812 415.914062 603.402344 416.238281 C 611.429688 420.304688 637.648438 410.8125 645.132812 409.457031 C 652.617188 408.101562 652.089844 401.320312 657.96875 401.320312 C 663.847656 401.320312 657.96875 387.769531 657.96875 387.769531 L 657.96875 385.765625 C 657.824219 371.558594 661.957031 357.554688 669.984375 345.066406 C 672.808594 340.710938 674.21875 335.804688 674.082031 330.84375 Z M 674.082031 330.84375 "/>
<path style=" stroke:none;fill-rule:nonzero;fill:rgb(0%,0%,0%);fill-opacity:1;" d="M 617.582031 301.671875 C 617.328125 301.523438 617.066406 301.367188 616.828125 301.210938 L 616.257812 301.210938 C 616.695312 301.394531 617.144531 301.535156 617.582031 301.671875 Z M 617.582031 301.671875 "/>
</g>
<mask id="mask18">
  <g filter="url(#alpha)">
<rect x="0" y="0" width="1099" height="726" style="fill:rgb(0%,0%,0%);fill-opacity:0.101961;stroke:none;"/>
  </g>
</mask>
<clipPath id="clip19">
  <rect x="0" y="0" width="1099" height="726"/>
</clipPath>
<g id="surface59" clip-path="url(#clip19)">
<path style=" stroke:none;fill-rule:nonzero;fill:rgb(0%,0%,0%);fill-opacity:1;" d="M 783.21875 524.011719 L 782.964844 523.890625 L 783.121094 523.890625 Z M 783.21875 524.011719 "/>
</g>
<mask id="mask19">
  <g filter="url(#alpha)">
<rect x="0" y="0" width="1099" height="726" style="fill:rgb(0%,0%,0%);fill-opacity:0.101961;stroke:none;"/>
  </g>
</mask>
<clipPath id="clip20">
  <rect x="0" y="0" width="1099" height="726"/>
</clipPath>
<g id="surface62" clip-path="url(#clip20)">
<path style=" stroke:none;fill-rule:nonzero;fill:rgb(0%,0%,0%);fill-opacity:1;" d="M 786.441406 527.832031 L 780.027344 540.027344 C 778.195312 537.484375 776.191406 535.035156 774.019531 532.691406 C 775.003906 533.484375 780.496094 537.710938 782.257812 533.855469 C 782.929688 532.28125 783.707031 530.742188 784.582031 529.242188 C 785.125 528.441406 785.402344 527.535156 785.378906 526.613281 Z M 786.441406 527.832031 "/>
</g>
<mask id="mask20">
  <g filter="url(#alpha)">
<rect x="0" y="0" width="1099" height="726" style="fill:rgb(0%,0%,0%);fill-opacity:0.101961;stroke:none;"/>
  </g>
</mask>
<clipPath id="clip21">
  <rect x="0" y="0" width="1099" height="726"/>
</clipPath>
<g id="surface65" clip-path="url(#clip21)">
<path style=" stroke:none;fill-rule:nonzero;fill:rgb(0%,0%,0%);fill-opacity:1;" d="M 785.917969 527.027344 L 783.730469 524.453125 L 783.632812 524.324219 L 769.835938 507.949219 C 764.515625 500.199219 758.203125 492.960938 751.011719 486.375 C 746.457031 482.160156 741.40625 478.347656 735.9375 475 C 730.445312 471.429688 725.476562 467.324219 721.132812 462.765625 L 711.5625 451.46875 L 705.109375 443.835938 L 704.167969 444.632812 L 709.949219 451.46875 L 719.550781 462.8125 C 723.898438 467.359375 728.871094 471.453125 734.363281 475.007812 C 739.832031 478.359375 744.882812 482.167969 749.4375 486.382812 C 756.621094 492.96875 762.921875 500.203125 768.230469 507.949219 L 782.050781 524.34375 L 782.148438 524.472656 L 784.332031 527.046875 L 785.425781 528.300781 L 779.679688 539.222656 C 780.277344 540.027344 780.617188 540.496094 780.617188 540.496094 L 787.042969 528.300781 Z M 785.917969 527.027344 "/>
</g>
<mask id="mask21">
  <g filter="url(#alpha)">
<rect x="0" y="0" width="1099" height="726" style="fill:rgb(0%,0%,0%);fill-opacity:0.101961;stroke:none;"/>
  </g>
</mask>
<clipPath id="clip22">
  <rect x="0" y="0" width="1099" height="726"/>
</clipPath>
<g id="surface68" clip-path="url(#clip22)">
<path style=" stroke:none;fill-rule:nonzero;fill:rgb(0%,0%,0%);fill-opacity:1;" d="M 650.539062 529.1875 L 641.976562 546.355469 L 635.027344 540.027344 L 632.164062 534.953125 L 640.378906 539.566406 C 648.453125 535.304688 645.339844 524.40625 644.96875 523.191406 C 645.550781 523.4375 646.167969 523.628906 646.804688 523.753906 Z M 650.539062 529.1875 "/>
</g>
<mask id="mask22">
  <g filter="url(#alpha)">
<rect x="0" y="0" width="1099" height="726" style="fill:rgb(0%,0%,0%);fill-opacity:0.101961;stroke:none;"/>
  </g>
</mask>
<clipPath id="clip23">
  <rect x="0" y="0" width="1099" height="726"/>
</clipPath>
<g id="surface71" clip-path="url(#clip23)">
<path style=" stroke:none;fill-rule:nonzero;fill:rgb(0%,0%,0%);fill-opacity:1;" d="M 658.035156 400.878906 C 652.144531 400.878906 652.679688 407.65625 645.199219 409.015625 C 637.714844 410.371094 611.484375 419.851562 603.46875 415.792969 C 595.449219 411.734375 590.09375 403.148438 590.09375 403.148438 L 590.09375 402.222656 C 603.46875 408.101562 620.0625 402.222656 620.0625 402.222656 C 631.882812 404.144531 652.210938 391.054688 658.046875 387.078125 L 658.046875 387.308594 C 658.046875 387.308594 663.910156 400.878906 658.035156 400.878906 Z M 658.035156 400.878906 "/>
</g>
<mask id="mask23">
  <g filter="url(#alpha)">
<rect x="0" y="0" width="1099" height="726" style="fill:rgb(0%,0%,0%);fill-opacity:0.101961;stroke:none;"/>
  </g>
</mask>
<clipPath id="clip24">
  <rect x="0" y="0" width="1099" height="726"/>
</clipPath>
<g id="surface74" clip-path="url(#clip24)">
<path style=" stroke:none;fill-rule:nonzero;fill:rgb(0%,0%,0%);fill-opacity:1;" d="M 591.679688 485.8125 L 620.082031 483.097656 L 618.664062 489.878906 C 609.867188 493.328125 597.207031 494.390625 591.066406 494.714844 Z M 591.679688 485.8125 "/>
</g>
<mask id="mask24">
  <g filter="url(#alpha)">
<rect x="0" y="0" width="1099" height="726" style="fill:rgb(0%,0%,0%);fill-opacity:0.101961;stroke:none;"/>
  </g>
</mask>
<clipPath id="clip25">
  <rect x="0" y="0" width="1099" height="726"/>
</clipPath>
<g id="surface77" clip-path="url(#clip25)">
<path style=" stroke:none;fill-rule:nonzero;fill:rgb(0%,0%,0%);fill-opacity:1;" d="M 711.027344 450.96875 C 709.683594 459.269531 698.695312 466.402344 691.222656 470.339844 L 682.636719 461.882812 L 704.574219 443.359375 Z M 711.027344 450.96875 "/>
</g>
<mask id="mask25">
  <g filter="url(#alpha)">
<rect x="0" y="0" width="1099" height="726" style="fill:rgb(0%,0%,0%);fill-opacity:0.101961;stroke:none;"/>
  </g>
</mask>
<clipPath id="clip26">
  <rect x="0" y="0" width="1099" height="726"/>
</clipPath>
<g id="surface80" clip-path="url(#clip26)">
<path style=" stroke:none;fill-rule:nonzero;fill:rgb(0%,0%,0%);fill-opacity:1;" d="M 684.253906 472.683594 L 667.132812 456.871094 L 638.226562 451.46875 C 638.292969 451.667969 638.347656 451.882812 638.402344 452.101562 C 638.492188 452.535156 638.542969 452.972656 638.554688 453.414062 C 639.003906 462.8125 627 483.097656 627 483.097656 C 620.574219 493.496094 587.40625 493.9375 587.40625 493.9375 C 587.40625 493.9375 583.605469 462.777344 585.792969 455.09375 C 587.976562 447.40625 587.398438 433.875 587.398438 433.875 L 589.976562 404.289062 L 590.074219 403.15625 C 593.808594 404.746094 597.910156 405.625 602.089844 405.738281 C 608.011719 405.882812 613.910156 405.074219 619.472656 403.351562 L 620.039062 403.15625 C 620.351562 403.207031 620.671875 403.246094 621 403.277344 C 632.492188 404.347656 650.921875 392.777344 657.335938 388.46875 C 658.789062 387.492188 659.628906 386.890625 659.628906 386.890625 L 671.40625 407.1875 L 710.996094 446.496094 C 711.082031 446.945312 711.132812 447.402344 711.148438 447.859375 C 711.835938 461.695312 684.253906 472.683594 684.253906 472.683594 Z M 684.253906 472.683594 "/>
</g>
<mask id="mask26">
  <g filter="url(#alpha)">
<rect x="0" y="0" width="1099" height="726" style="fill:rgb(0%,0%,0%);fill-opacity:0.301961;stroke:none;"/>
  </g>
</mask>
<clipPath id="clip27">
  <rect x="0" y="0" width="1099" height="726"/>
</clipPath>
<g id="surface83" clip-path="url(#clip27)">
<path style=" stroke:none;fill-rule:nonzero;fill:rgb(100%,100%,100%);fill-opacity:1;" d="M 649.023438 296.054688 C 637.101562 314.238281 619.527344 304.171875 614.652344 300.832031 L 616.292969 300.75 C 620.914062 303.804688 627.214844 304.246094 630.339844 304.246094 C 631.4375 304.25 632.53125 304.316406 633.617188 304.449219 C 642.652344 305.519531 645.40625 295.382812 645.40625 295.382812 Z M 649.023438 296.054688 "/>
</g>
<mask id="mask27">
  <g filter="url(#alpha)">
<rect x="0" y="0" width="1099" height="726" style="fill:rgb(0%,0%,0%);fill-opacity:0.101961;stroke:none;"/>
  </g>
</mask>
<clipPath id="clip28">
  <rect x="0" y="0" width="1099" height="726"/>
</clipPath>
<g id="surface86" clip-path="url(#clip28)">
<path style=" stroke:none;fill-rule:nonzero;fill:rgb(0%,0%,0%);fill-opacity:1;" d="M 616.523438 403.238281 C 610.929688 404.613281 599.675781 406.449219 590.085938 402.234375 L 589.910156 404.253906 C 601.542969 407.824219 614.414062 403.929688 616.523438 403.238281 Z M 616.523438 403.238281 "/>
</g>
<mask id="mask28">
  <g filter="url(#alpha)">
<rect x="0" y="0" width="1099" height="726" style="fill:rgb(0%,0%,0%);fill-opacity:0.101961;stroke:none;"/>
  </g>
</mask>
<clipPath id="clip29">
  <rect x="0" y="0" width="1099" height="726"/>
</clipPath>
<g id="surface89" clip-path="url(#clip29)">
<path style=" stroke:none;fill-rule:nonzero;fill:rgb(0%,0%,0%);fill-opacity:1;" d="M 628.679688 401.652344 C 625.894531 402.414062 622.9375 402.625 620.039062 402.269531 C 620.039062 402.269531 618.859375 402.683594 616.894531 403.191406 C 620.3125 403.683594 624.417969 402.972656 628.679688 401.652344 Z M 628.679688 401.652344 "/>
</g>
<mask id="mask29">
  <g filter="url(#alpha)">
<rect x="0" y="0" width="1099" height="726" style="fill:rgb(0%,0%,0%);fill-opacity:0.101961;stroke:none;"/>
  </g>
</mask>
<clipPath id="clip30">
  <rect x="0" y="0" width="1099" height="726"/>
</clipPath>
<g id="surface92" clip-path="url(#clip30)">
<path style=" stroke:none;fill-rule:nonzero;fill:rgb(0%,0%,0%);fill-opacity:1;" d="M 711.160156 447.867188 C 710.648438 461.273438 684.253906 471.808594 684.253906 471.808594 L 683.882812 471.464844 C 691.191406 468.082031 709.957031 458.183594 707.796875 446.503906 L 668.195312 407.1875 L 657.335938 388.433594 C 658.789062 387.457031 659.628906 386.855469 659.628906 386.855469 L 671.40625 407.152344 L 710.996094 446.457031 C 711.085938 446.925781 711.140625 447.394531 711.160156 447.867188 Z M 711.160156 447.867188 "/>
</g>
<mask id="mask30">
  <g filter="url(#alpha)">
<rect x="0" y="0" width="1099" height="726" style="fill:rgb(0%,0%,0%);fill-opacity:0.101961;stroke:none;"/>
  </g>
</mask>
<clipPath id="clip31">
  <rect x="0" y="0" width="1099" height="726"/>
</clipPath>
<g id="surface95" clip-path="url(#clip31)">
<path style=" stroke:none;fill-rule:nonzero;fill:rgb(0%,0%,0%);fill-opacity:1;" d="M 635.027344 451.46875 C 637.703125 459.601562 623.785156 483.089844 623.785156 483.089844 C 621.886719 486.160156 617.65625 488.367188 612.632812 489.945312 C 619.011719 488.339844 624.703125 485.894531 627 482.1875 C 627 482.1875 639.34375 461.335938 638.535156 452.121094 Z M 635.027344 451.46875 "/>
</g>
<mask id="mask31">
  <g filter="url(#alpha)">
<rect x="0" y="0" width="1099" height="726" style="fill:rgb(0%,0%,0%);fill-opacity:0.301961;stroke:none;"/>
  </g>
</mask>
<clipPath id="clip32">
  <rect x="0" y="0" width="1099" height="726"/>
</clipPath>
<g id="surface98" clip-path="url(#clip32)">
<path style=" stroke:none;fill-rule:nonzero;fill:rgb(100%,100%,100%);fill-opacity:1;" d="M 625.925781 334.226562 C 618.390625 334.226562 612.28125 341.609375 612.28125 350.722656 C 612.28125 359.835938 618.390625 367.214844 625.925781 367.214844 C 633.464844 367.214844 639.570312 359.835938 639.570312 350.722656 C 639.570312 341.609375 633.464844 334.226562 625.925781 334.226562 Z M 625.925781 360.433594 C 621.492188 360.433594 617.886719 356.089844 617.886719 350.722656 C 617.886719 345.351562 621.480469 341.007812 625.925781 341.007812 C 630.375 341.007812 633.96875 345.351562 633.96875 350.722656 C 633.96875 356.089844 630.363281 360.433594 625.925781 360.433594 Z M 625.925781 360.433594 "/>
</g>
<mask id="mask32">
  <g filter="url(#alpha)">
<rect x="0" y="0" width="1099" height="726" style="fill:rgb(0%,0%,0%);fill-opacity:0.501961;stroke:none;"/>
  </g>
</mask>
<clipPath id="clip33">
  <rect x="0" y="0" width="1099" height="726"/>
</clipPath>
<g id="surface101" clip-path="url(#clip33)">
<path style=" stroke:none;fill-rule:nonzero;fill:rgb(100%,100%,100%);fill-opacity:1;" d="M 713.269531 207.929688 C 711.191406 208.449219 709.035156 208.714844 706.867188 208.714844 L 705.644531 208.714844 C 705.117188 208.714844 704.605469 208.65625 704.113281 208.601562 C 699.863281 208.171875 695.792969 206.910156 692.226562 204.914062 C 682.691406 196.703125 673.351562 193.898438 668.304688 192.921875 L 669.484375 192.429688 C 674.441406 193.492188 682.496094 196.121094 690.875 202.761719 C 693.035156 204.488281 695.582031 205.832031 698.367188 206.710938 C 700.28125 207.308594 702.273438 207.714844 704.300781 207.921875 C 704.738281 207.921875 705.164062 207.992188 705.589844 208.023438 L 706.453125 208.023438 C 708.667969 208.074219 710.875 207.835938 713.007812 207.320312 C 713.082031 207.550781 713.179688 207.753906 713.269531 207.929688 Z M 713.269531 207.929688 "/>
</g>
<mask id="mask33">
  <g filter="url(#alpha)">
<rect x="0" y="0" width="1099" height="726" style="fill:rgb(0%,0%,0%);fill-opacity:0.501961;stroke:none;"/>
  </g>
</mask>
<clipPath id="clip34">
  <rect x="0" y="0" width="1099" height="726"/>
</clipPath>
<g id="surface104" clip-path="url(#clip34)">
<path style=" stroke:none;fill-rule:nonzero;fill:rgb(100%,100%,100%);fill-opacity:1;" d="M 715.300781 219.414062 C 715.300781 219.699219 715.300781 219.984375 715.222656 220.261719 C 712.429688 218.753906 709.441406 217.515625 706.320312 216.574219 L 705.5 216.324219 C 698.054688 214.210938 690.367188 212.777344 682.558594 212.042969 C 664.207031 210.070312 655.050781 211.914062 650.691406 213.667969 L 650.867188 212.746094 C 655.585938 210.992188 664.882812 209.394531 682.667969 211.304688 C 690.46875 212.042969 698.15625 213.460938 705.609375 215.539062 L 706.429688 215.789062 C 709.535156 216.722656 712.507812 217.9375 715.300781 219.414062 Z M 715.300781 219.414062 "/>
</g>
<mask id="mask34">
  <g filter="url(#alpha)">
<rect x="0" y="0" width="1099" height="726" style="fill:rgb(0%,0%,0%);fill-opacity:0.501961;stroke:none;"/>
  </g>
</mask>
<clipPath id="clip35">
  <rect x="0" y="0" width="1099" height="726"/>
</clipPath>
<g id="surface107" clip-path="url(#clip35)">
<path style=" stroke:none;fill-rule:nonzero;fill:rgb(100%,100%,100%);fill-opacity:1;" d="M 706.429688 215.855469 C 706.429688 216.101562 706.363281 216.351562 706.332031 216.609375 C 706.140625 217.871094 705.871094 219.191406 705.523438 220.566406 C 705.253906 221.605469 704.953125 222.605469 704.628906 223.566406 C 704.539062 223.816406 704.453125 224.0625 704.363281 224.304688 C 700.214844 235.53125 691.769531 241.222656 685.09375 244.0625 C 683.675781 244.671875 682.21875 245.207031 680.722656 245.667969 L 678.714844 245.503906 C 680.8125 244.953125 682.851562 244.253906 684.808594 243.417969 C 691.363281 240.648438 699.65625 234.996094 703.699219 223.878906 C 703.785156 223.65625 703.863281 223.425781 703.9375 223.195312 C 704.246094 222.304688 704.523438 221.382812 704.769531 220.429688 C 705.125 219.046875 705.398438 217.691406 705.589844 216.371094 C 705.589844 216.121094 705.652344 215.863281 705.6875 215.613281 C 705.964844 213.324219 705.964844 211.019531 705.6875 208.730469 C 705.6875 208.492188 705.632812 208.253906 705.589844 208.023438 C 704.921875 203.050781 702.371094 198.398438 698.3125 194.757812 C 696.988281 193.582031 695.523438 192.53125 693.941406 191.609375 C 694.972656 191.933594 695.984375 192.304688 696.96875 192.71875 C 697.609375 193.191406 698.242188 193.707031 698.871094 194.265625 C 703.046875 198.058594 705.65625 202.890625 706.308594 208.039062 C 706.308594 208.269531 706.375 208.511719 706.40625 208.742188 C 706.707031 211.105469 706.714844 213.488281 706.429688 215.855469 Z M 706.429688 215.855469 "/>
</g>
<mask id="mask35">
  <g filter="url(#alpha)">
<rect x="0" y="0" width="1099" height="726" style="fill:rgb(0%,0%,0%);fill-opacity:0.501961;stroke:none;"/>
  </g>
</mask>
<clipPath id="clip36">
  <rect x="0" y="0" width="1099" height="726"/>
</clipPath>
<g id="surface110" clip-path="url(#clip36)">
<path style=" stroke:none;fill-rule:nonzero;fill:rgb(100%,100%,100%);fill-opacity:1;" d="M 709.730469 233.527344 C 709.519531 233.796875 709.304688 234.054688 709.085938 234.3125 C 708.167969 230.953125 706.695312 227.722656 704.714844 224.710938 C 704.609375 224.558594 704.480469 224.421875 704.332031 224.304688 C 704.113281 224.136719 703.867188 223.996094 703.601562 223.886719 C 699.394531 222.125 686.832031 225.078125 677.492188 229.339844 C 670.300781 232.625 660.898438 233.207031 655.75 233.242188 L 655.257812 232.585938 L 655.257812 232.542969 C 660.175781 232.542969 669.832031 232.042969 677.109375 228.722656 C 685.847656 224.753906 698.847656 221.34375 703.851562 223.1875 C 704.117188 223.285156 704.371094 223.40625 704.605469 223.546875 C 704.949219 223.753906 705.238281 224.019531 705.457031 224.320312 C 707.351562 227.21875 708.785156 230.316406 709.730469 233.527344 Z M 709.730469 233.527344 "/>
</g>
<mask id="mask36">
  <g filter="url(#alpha)">
<rect x="0" y="0" width="1099" height="726" style="fill:rgb(0%,0%,0%);fill-opacity:0.101961;stroke:none;"/>
  </g>
</mask>
<clipPath id="clip37">
  <rect x="0" y="0" width="1099" height="726"/>
</clipPath>
<g id="surface113" clip-path="url(#clip37)">
<path style=" stroke:none;fill-rule:nonzero;fill:rgb(0%,0%,0%);fill-opacity:1;" d="M 283.183594 686.832031 L 331.25 686.832031 L 331.25 691.445312 L 283.183594 691.445312 Z M 283.183594 686.832031 "/>
</g>
<mask id="mask37">
  <g filter="url(#alpha)">
<rect x="0" y="0" width="1099" height="726" style="fill:rgb(0%,0%,0%);fill-opacity:0.301961;stroke:none;"/>
  </g>
</mask>
<clipPath id="clip38">
  <rect x="0" y="0" width="1099" height="726"/>
</clipPath>
<g id="surface116" clip-path="url(#clip38)">
<path style=" stroke:none;fill-rule:nonzero;fill:rgb(100%,100%,100%);fill-opacity:1;" d="M 198.695312 88.164062 L 86.542969 183.613281 L 86.542969 206.214844 L 213.8125 84.039062 Z M 198.695312 88.164062 "/>
</g>
<mask id="mask38">
  <g filter="url(#alpha)">
<rect x="0" y="0" width="1099" height="726" style="fill:rgb(0%,0%,0%);fill-opacity:0.301961;stroke:none;"/>
  </g>
</mask>
<clipPath id="clip39">
  <rect x="0" y="0" width="1099" height="726"/>
</clipPath>
<g id="surface119" clip-path="url(#clip39)">
<path style=" stroke:none;fill-rule:nonzero;fill:rgb(100%,100%,100%);fill-opacity:1;" d="M 237.398438 78.984375 L 86.542969 240.34375 L 86.542969 264.265625 L 275.035156 74.242188 Z M 237.398438 78.984375 "/>
</g>
</defs>
<g id="surface1">
<path style=" stroke:none;fill-rule:nonzero;fill:rgb(29.411765%,50.196078%,52.156863%);fill-opacity:1;" d="M 256.964844 585.476562 C 256.964844 585.476562 279.339844 604.371094 266.710938 632.402344 C 254.082031 660.4375 288.363281 707.070312 288.363281 707.070312 L 287.269531 706.921875 C 241.308594 700.078125 218.445312 655.6875 244.03125 622.71875 C 253.621094 610.46875 261.410156 596.085938 256.964844 585.476562 Z M 256.964844 585.476562 "/>
<path style="fill:none;stroke-width:1;stroke-linecap:butt;stroke-linejoin:miter;stroke:rgb(32.54902%,32.941176%,38.039216%);stroke-opacity:1;stroke-miterlimit:10;" d="M 331.999866 691.269497 C 331.999866 691.269497 343.560084 716.379851 331.999866 736.861939 C 320.439648 757.339793 330.001053 814.860713 360.741293 823.079802 " transform="matrix(1.092445,0,0,0.92249,-105.726859,-52.212961)"/>
<path style=" stroke:none;fill-rule:nonzero;fill:rgb(29.411765%,50.196078%,52.156863%);fill-opacity:1;" d="M 217.15625 661.90625 C 217.15625 661.90625 242.6875 658.472656 245.011719 677.789062 C 247.339844 697.109375 294.109375 699.792969 294.109375 699.792969 L 293.234375 700.28125 C 254.617188 721.691406 217.703125 713.914062 223.316406 685.519531 C 225.285156 674.929688 225.164062 664.3125 217.15625 661.90625 Z M 217.15625 661.90625 "/>
<use xlink:href="#surface5" mask="url(#mask0)"/>
<path style="fill:none;stroke-width:1;stroke-linecap:butt;stroke-linejoin:miter;stroke:rgb(32.54902%,32.941176%,38.039216%);stroke-opacity:1;stroke-miterlimit:10;" d="M 295.55997 774.120962 C 295.55997 774.120962 313.699465 778.118294 312.208401 794.598816 C 310.720912 811.079339 339.151254 830.87121 366.001139 815.199469 " transform="matrix(1.092445,0,0,0.92249,-105.726859,-52.212961)"/>
<use xlink:href="#surface8" mask="url(#mask1)"/>
<path style=" stroke:none;fill-rule:nonzero;fill:url(#linear0);" d="M 283.324219 329.125 L 332.3125 329.125 L 332.3125 707.015625 L 283.324219 707.015625 Z M 283.324219 329.125 "/>
<path style=" stroke:none;fill-rule:nonzero;fill:url(#linear1);" d="M 385.742188 723.933594 L 232.113281 723.933594 L 286.667969 694.792969 L 327.855469 694.792969 Z M 385.742188 723.933594 "/>
<path style=" stroke:none;fill-rule:nonzero;fill:url(#linear2);" d="M 67.359375 135.484375 C 67.359375 135.484375 274.445312 -37.453125 542.703125 135.484375 L 542.703125 284.929688 C 542.703125 284.929688 332.3125 392.09375 67.371094 284.929688 Z M 67.359375 135.484375 "/>
<path style=" stroke:none;fill-rule:nonzero;fill:url(#linear3);" d="M 82.390625 139.285156 C 82.390625 139.285156 276.355469 -22.738281 527.671875 139.285156 L 527.671875 279.300781 C 527.671875 279.300781 330.585938 379.6875 82.390625 279.300781 Z M 82.390625 139.285156 "/>
<path style=" stroke:none;fill-rule:nonzero;fill:url(#linear4);" d="M 245.472656 221.96875 L 363.46875 221.96875 L 363.46875 306.570312 L 245.472656 306.570312 Z M 245.472656 221.96875 "/>
<path style=" stroke:none;fill-rule:nonzero;fill:url(#linear5);" d="M 255.488281 229.148438 L 353.449219 229.148438 L 353.449219 299.386719 L 255.488281 299.386719 Z M 255.488281 229.148438 "/>
<use xlink:href="#surface11" mask="url(#mask2)"/>
<use xlink:href="#surface14" mask="url(#mask3)"/>
<use xlink:href="#surface17" mask="url(#mask4)"/>
<path style=" stroke:none;fill-rule:nonzero;fill:url(#linear9);" d="M 306.703125 305.628906 C 254.441406 305.628906 212.085938 311.523438 212.085938 318.792969 C 212.085938 326.0625 254.453125 331.957031 306.703125 331.957031 C 358.957031 331.957031 401.320312 326.0625 401.320312 318.792969 C 401.320312 311.523438 358.957031 305.628906 306.703125 305.628906 Z M 306.703125 326.3125 C 258.746094 326.3125 219.875 322.519531 219.875 317.851562 C 219.875 313.183594 258.746094 309.402344 306.703125 309.402344 C 354.664062 309.402344 393.519531 313.175781 393.519531 317.851562 C 393.519531 322.53125 354.652344 326.3125 306.703125 326.3125 Z M 306.703125 326.3125 "/>
<use xlink:href="#surface20" mask="url(#mask5)"/>
<path style=" stroke:none;fill-rule:nonzero;fill:url(#linear11);" d="M 306.703125 302.816406 C 254.441406 302.816406 212.085938 308.710938 212.085938 315.980469 C 212.085938 323.25 254.453125 329.144531 306.703125 329.144531 C 358.957031 329.144531 401.320312 323.25 401.320312 315.980469 C 401.320312 308.710938 358.957031 302.816406 306.703125 302.816406 Z M 306.703125 323.5 C 258.746094 323.5 219.875 319.707031 219.875 315.039062 C 219.875 310.371094 258.757812 306.582031 306.703125 306.582031 C 354.652344 306.582031 393.519531 310.324219 393.519531 315.03125 C 393.519531 319.734375 354.652344 323.488281 306.703125 323.488281 Z M 306.703125 323.5 "/>
<path style=" stroke:none;fill-rule:nonzero;fill:rgb(90.980392%,91.764706%,94.509804%);fill-opacity:1;" d="M 283.730469 330.289062 L 331.796875 330.289062 L 331.796875 701.128906 L 283.730469 701.128906 Z M 283.730469 330.289062 "/>
<path style=" stroke:none;fill-rule:nonzero;fill:rgb(90.980392%,91.764706%,94.509804%);fill-opacity:1;" d="M 384.234375 717.734375 L 233.476562 717.734375 L 287.007812 689.136719 L 327.425781 689.136719 Z M 384.234375 717.734375 "/>
<path style=" stroke:none;fill-rule:nonzero;fill:rgb(90.980392%,91.764706%,94.509804%);fill-opacity:1;" d="M 71.796875 140.253906 C 71.796875 140.253906 274.992188 -29.484375 538.269531 140.253906 L 538.269531 286.929688 C 538.269531 286.929688 331.796875 392.09375 71.796875 286.929688 Z M 71.796875 140.253906 "/>
<path style=" stroke:none;fill-rule:nonzero;fill:rgb(95.294118%,96.078431%,96.862745%);fill-opacity:1;" d="M 86.542969 143.992188 C 86.542969 143.992188 276.890625 -15.019531 523.523438 143.992188 L 523.523438 281.386719 C 523.523438 281.386719 330.160156 379.898438 86.542969 281.386719 Z M 86.542969 143.992188 "/>
<path style=" stroke:none;fill-rule:nonzero;fill:rgb(100%,100%,100%);fill-opacity:1;" d="M 246.585938 225.125 L 362.386719 225.125 L 362.386719 308.148438 L 246.585938 308.148438 Z M 246.585938 225.125 "/>
<path style=" stroke:none;fill-rule:nonzero;fill:rgb(95.294118%,96.078431%,96.862745%);fill-opacity:1;" d="M 256.417969 232.171875 L 352.554688 232.171875 L 352.554688 301.101562 L 256.417969 301.101562 Z M 256.417969 232.171875 "/>
<use xlink:href="#surface23" mask="url(#mask6)"/>
<use xlink:href="#surface26" mask="url(#mask7)"/>
<use xlink:href="#surface29" mask="url(#mask8)"/>
<path style=" stroke:none;fill-rule:nonzero;fill:rgb(37.254902%,32.941176%,43.529412%);fill-opacity:1;" d="M 306.671875 307.226562 C 255.390625 307.226562 213.8125 313.011719 213.8125 320.140625 C 213.8125 327.273438 255.390625 333.054688 306.671875 333.054688 C 357.949219 333.054688 399.527344 327.273438 399.527344 320.140625 C 399.527344 313.011719 357.949219 307.226562 306.671875 307.226562 Z M 306.671875 327.519531 C 259.609375 327.519531 221.460938 323.832031 221.460938 319.21875 C 221.460938 314.605469 259.609375 310.917969 306.671875 310.917969 C 353.734375 310.917969 391.882812 314.605469 391.882812 319.21875 C 391.882812 323.832031 353.734375 327.519531 306.671875 327.519531 Z M 306.671875 327.519531 "/>
<use xlink:href="#surface32" mask="url(#mask9)"/>
<path style=" stroke:none;fill-rule:nonzero;fill:rgb(37.254902%,32.941176%,43.529412%);fill-opacity:1;" d="M 306.671875 304.457031 C 255.390625 304.457031 213.8125 310.242188 213.8125 317.375 C 213.8125 324.503906 255.390625 330.289062 306.671875 330.289062 C 357.949219 330.289062 399.527344 324.503906 399.527344 317.375 C 399.527344 310.242188 357.949219 304.457031 306.671875 304.457031 Z M 306.671875 324.753906 C 259.609375 324.753906 221.460938 321.0625 221.460938 316.449219 C 221.460938 311.839844 259.609375 308.148438 306.671875 308.148438 C 353.734375 308.148438 391.882812 311.839844 391.882812 316.449219 C 391.882812 321.0625 353.734375 324.753906 306.671875 324.753906 Z M 306.671875 324.753906 "/>
<use xlink:href="#surface35" mask="url(#mask10)"/>
<path style=" stroke:none;fill-rule:nonzero;fill:url(#linear12);" d="M 817.390625 541.871094 C 809.742188 540.949219 795.605469 530.800781 795.605469 530.800781 C 793.523438 528.171875 789.96875 526.644531 786.222656 526.769531 L 772.183594 510.101562 C 766.742188 502.203125 760.289062 494.839844 752.933594 488.136719 C 751.734375 487.011719 750.492188 485.917969 749.210938 484.859375 C 745.421875 481.683594 741.355469 478.753906 737.039062 476.097656 C 734.199219 474.308594 731.519531 472.347656 729.023438 470.230469 C 726.710938 468.289062 724.523438 466.242188 722.46875 464.105469 L 712.699219 452.554688 L 712.046875 451.769531 C 712.292969 450.644531 712.359375 449.492188 712.242188 448.347656 C 712.242188 448.082031 712.175781 447.8125 712.132812 447.546875 L 671.820312 407.527344 L 659.804688 386.828125 C 659.664062 386.929688 659.179688 387.269531 658.425781 387.75 L 658.210938 387.222656 L 658.210938 385.242188 C 658.148438 370.914062 662.359375 356.800781 670.457031 344.207031 C 673.175781 339.980469 674.597656 335.246094 674.597656 330.4375 C 674.597656 330.046875 674.597656 329.660156 674.597656 329.273438 L 674.386719 329.078125 C 674.007812 328.71875 673.132812 327.890625 672.007812 326.664062 C 672.148438 326.421875 672.300781 326.175781 672.445312 325.945312 C 677.445312 318.175781 684.40625 316.847656 684.40625 316.847656 C 707.828125 314.082031 724.71875 300.75 724.71875 300.75 C 742.195312 292.449219 738.917969 285.066406 738.917969 285.066406 L 723.121094 252.875 L 713.289062 235.851562 L 710.570312 228.03125 C 709.679688 222.828125 708.421875 217.671875 706.800781 212.597656 C 704.472656 205.105469 692.882812 202.976562 687.289062 209.109375 C 687.160156 209.257812 687.015625 209.414062 686.886719 209.582031 C 681.753906 215.84375 683.109375 224.375 690.011719 229.277344 C 695.472656 233.207031 700.226562 237.238281 700.226562 237.238281 C 710.058594 239.535156 716.613281 282.308594 716.613281 282.308594 L 710.058594 286 C 699.894531 286.445312 690.414062 290.457031 683.914062 297.070312 L 663.355469 297.070312 C 663.355469 296.996094 663.410156 296.921875 663.441406 296.839844 L 660.035156 296.191406 L 650.203125 294.347656 L 646.5625 293.65625 L 646.507812 293.851562 L 645.480469 293.65625 L 645.480469 293.777344 C 644.101562 291.929688 642.859375 290.007812 641.769531 288.027344 C 642.0625 288.066406 642.359375 288.066406 642.652344 288.027344 C 642.730469 287.890625 642.792969 287.753906 642.847656 287.613281 L 643.199219 287.613281 C 644.71875 284.847656 643.40625 281.386719 644.871094 278.5625 C 645.660156 277.375 646.535156 276.222656 647.492188 275.125 C 649.675781 271.941406 649.414062 267.957031 648.769531 264.304688 C 648.070312 260.371094 647 256.359375 644.324219 253.085938 C 641.648438 249.808594 637.027344 247.410156 632.308594 247.929688 C 628.59375 248.34375 625.335938 250.492188 621.601562 250.695312 C 618.957031 250.824219 616.421875 249.949219 613.953125 249.265625 C 611.25 248.53125 608.476562 247.996094 605.664062 247.671875 C 603.792969 247.449219 601.597656 247.421875 600.34375 248.59375 L 600.234375 248.710938 C 600.074219 248.816406 599.929688 248.929688 599.796875 249.054688 C 599.304688 249.574219 598.933594 250.167969 598.703125 250.808594 L 596.289062 256.425781 C 596.035156 256.8125 596.035156 257.28125 596.289062 257.671875 C 596.507812 257.902344 596.890625 257.964844 597.183594 258.121094 C 599.097656 259.164062 596.53125 261.738281 598.113281 263.003906 C 599.0625 263.757812 601.097656 263.839844 603.105469 263.832031 C 599.394531 268.769531 598.769531 274.929688 601.429688 280.328125 C 604.089844 285.730469 609.703125 289.695312 616.46875 290.953125 C 616.46875 291.257812 616.46875 291.5625 616.46875 291.875 C 616.519531 294.308594 616.292969 296.738281 615.789062 299.136719 L 614.195312 299.257812 C 611.539062 299.375 606.175781 299.550781 601.488281 299.367188 C 599.921875 299.3125 598.355469 299.1875 596.804688 298.988281 C 596.804688 298.988281 596.617188 300.667969 596.257812 303.242188 L 595.164062 303.5 C 584.976562 305.972656 576.128906 311.367188 570.148438 318.757812 L 545.632812 330.75 C 545.632812 330.75 534.707031 328.453125 503.148438 351.449219 L 480.273438 361.597656 C 480.273438 361.597656 445.324219 370.289062 451.855469 379.015625 C 458.390625 387.742188 491.074219 368.441406 491.074219 368.441406 L 504.183594 363.386719 L 543.949219 348.628906 C 543.949219 348.628906 557.058594 341.246094 566.828125 338.480469 C 576.59375 335.710938 586.4375 327.410156 586.4375 327.410156 L 588.894531 327.300781 L 589.984375 327.246094 C 589.824219 327.492188 589.644531 327.730469 589.449219 327.964844 C 589.351562 328.09375 589.242188 328.210938 589.132812 328.324219 L 589.132812 402.371094 L 588.960938 404.429688 L 589.035156 404.429688 L 586.414062 434.546875 C 586.414062 434.546875 586.960938 448.386719 584.773438 456.164062 C 582.589844 463.9375 586.414062 495.71875 586.414062 495.71875 C 586.414062 495.71875 587.84375 495.71875 590.171875 495.582031 L 590.105469 496.503906 L 589.144531 509.519531 C 589.144531 509.519531 587.308594 514.539062 597.882812 517.148438 C 600.304688 517.742188 602.609375 518.632812 604.722656 519.796875 L 616.914062 526.539062 L 629.445312 532.996094 L 631.980469 537.488281 L 632.101562 537.710938 L 629.433594 536.335938 C 629.433594 536.335938 627.25 540.949219 634.339844 546.917969 C 639.722656 550.984375 642.546875 556.933594 641.988281 563.015625 C 641.988281 563.015625 643.078125 574.085938 649.632812 571.316406 C 649.632812 571.316406 659.980469 569.472656 659.464844 554.296875 C 659.464844 554.296875 655.335938 541.660156 660.144531 536.316406 C 660.273438 536.167969 660.414062 536.027344 660.558594 535.894531 C 666.019531 530.839844 658.917969 522.976562 658.917969 522.976562 C 658.917969 522.976562 646.300781 518.679688 645.589844 525.820312 L 645.066406 525.625 C 642.792969 524.703125 638.71875 522.460938 634.40625 517 C 634.40625 517 627.324219 501.824219 616.433594 500.441406 L 618.257812 491.707031 L 618.464844 490.699219 C 622.214844 489.207031 625.25 487.277344 626.78125 484.796875 L 626.84375 484.6875 L 626.84375 484.445312 L 626.898438 484.355469 L 626.898438 484.28125 L 626.953125 484.179688 L 627.019531 484.066406 L 627.019531 483.976562 L 627.097656 483.847656 L 627.304688 483.753906 L 627.378906 483.617188 L 627.445312 483.496094 L 627.535156 483.339844 L 627.609375 483.210938 L 627.695312 483.054688 L 627.796875 482.886719 L 627.871094 482.757812 L 627.980469 482.5625 L 628.058594 482.433594 L 628.527344 481.578125 L 628.59375 481.464844 L 628.722656 481.226562 L 628.824219 481.050781 L 628.964844 480.785156 L 629.050781 480.625 L 629.214844 480.3125 L 629.28125 480.183594 L 629.457031 479.859375 L 629.542969 479.703125 L 629.71875 479.371094 L 629.792969 479.222656 L 629.980469 478.875 L 630.058594 478.734375 L 630.253906 478.367188 L 630.320312 478.226562 L 630.515625 477.839844 L 630.582031 477.710938 L 630.800781 477.296875 L 630.800781 477.222656 C 634.285156 470.378906 638.664062 460.535156 638.445312 454.703125 C 638.476562 454.242188 638.476562 453.777344 638.445312 453.3125 L 638.316406 453.3125 L 638.316406 453.21875 C 638.316406 453.027344 638.226562 452.839844 638.164062 452.667969 L 667.570312 458.199219 L 685.050781 474.296875 L 685.445312 474.296875 L 685.554688 474.253906 L 685.652344 474.253906 L 685.792969 474.195312 L 685.902344 474.152344 L 686.054688 474.085938 L 686.1875 474.03125 L 686.371094 473.949219 L 686.492188 473.894531 L 686.699219 473.800781 L 686.832031 473.734375 L 687.050781 473.644531 L 687.203125 473.570312 L 687.441406 473.460938 L 687.597656 473.394531 L 687.847656 473.273438 L 688.023438 473.191406 L 688.296875 473.0625 L 688.480469 472.683594 L 688.785156 472.535156 L 688.949219 472.460938 L 689.265625 472.316406 L 689.453125 472.222656 L 689.78125 472.066406 L 689.957031 471.972656 L 690.304688 471.796875 L 690.492188 471.707031 L 690.851562 471.523438 L 691.027344 471.429688 L 691.410156 471.234375 L 691.472656 471.234375 L 692.085938 471.835938 L 699.734375 479.324219 C 707.378906 482.09375 724.792969 495.882812 724.792969 495.882812 C 726.804688 499.953125 735.3125 505.765625 739.660156 508.550781 C 740.90625 509.328125 742.222656 510.011719 743.605469 510.597656 C 745.988281 511.640625 749.339844 514.121094 752.410156 516.632812 C 756.417969 519.976562 760.714844 523.058594 765.269531 525.855469 C 769.480469 528.566406 773.226562 531.757812 776.402344 535.339844 L 776.773438 535.746094 C 774.171875 543.125 789.050781 550.625 789.050781 550.625 C 794.511719 549.703125 811.382812 562.617188 811.382812 562.617188 C 811.382812 562.617188 827.179688 573.199219 833.710938 561.695312 C 840.242188 550.191406 817.390625 541.871094 817.390625 541.871094 Z M 788.527344 529.546875 L 786.34375 526.9375 C 787.550781 527.414062 788.367188 528.398438 788.496094 529.519531 Z M 788.527344 529.546875 "/>
<path style=" stroke:none;fill-rule:nonzero;fill:rgb(85.882353%,54.509804%,54.509804%);fill-opacity:1;" d="M 652.679688 303.730469 C 652.679688 303.730469 597.566406 330.84375 609.34375 315.472656 C 614.4375 309 617.101562 301.382812 616.992188 293.609375 C 616.988281 291.074219 616.585938 288.546875 615.789062 286.101562 L 638.796875 277.0625 C 638.398438 279.722656 638.679688 282.425781 639.625 284.984375 C 642.847656 294.597656 652.679688 303.730469 652.679688 303.730469 Z M 652.679688 303.730469 "/>
<use xlink:href="#surface38" mask="url(#mask11)"/>
<path style=" stroke:none;fill-rule:nonzero;fill:rgb(85.882353%,54.509804%,54.509804%);fill-opacity:1;" d="M 642.25 275.492188 C 642.25 285.222656 632.90625 293.113281 621.382812 293.113281 C 609.859375 293.113281 600.515625 285.222656 600.515625 275.492188 C 600.515625 265.761719 609.859375 257.871094 621.382812 257.871094 C 632.90625 257.871094 642.25 265.761719 642.25 275.492188 Z M 642.25 275.492188 "/>
<use xlink:href="#surface41" mask="url(#mask12)"/>
<path style=" stroke:none;fill-rule:nonzero;fill:rgb(27.843137%,15.294118%,15.294118%);fill-opacity:1;" d="M 608.578125 265.667969 C 610.597656 266.015625 612.375 267.007812 613.550781 268.433594 C 614.925781 270.28125 614.894531 272.808594 616.828125 274.246094 C 618.285156 275.15625 620.109375 275.546875 621.90625 275.335938 C 623.683594 275.117188 625.480469 275.066406 627.269531 275.179688 C 630.167969 275.574219 632.535156 277.382812 634.144531 279.449219 C 635.601562 281.59375 636.902344 283.8125 638.03125 286.09375 C 638.492188 286.996094 639.152344 287.820312 639.976562 288.519531 C 640.820312 289.21875 642.007812 289.542969 643.175781 289.386719 C 644.675781 286.617188 643.382812 283.261719 644.816406 280.5 C 645.589844 279.332031 646.445312 278.207031 647.382812 277.125 C 649.566406 274 649.273438 270.085938 648.628906 266.5 C 647.941406 262.632812 646.890625 258.695312 644.257812 255.484375 C 641.625 252.273438 637.09375 249.949219 632.503906 250.417969 C 628.855469 250.824219 625.65625 252.9375 621.984375 253.121094 C 619.394531 253.25 616.894531 252.394531 614.425781 251.71875 C 611.769531 250.996094 609.046875 250.472656 606.285156 250.152344 C 604.449219 249.941406 602.296875 249.902344 601.0625 251.074219 C 600.574219 251.582031 600.203125 252.164062 599.972656 252.789062 L 597.601562 258.324219 C 597.351562 258.707031 597.351562 259.171875 597.601562 259.550781 C 597.820312 259.773438 598.191406 259.839844 598.472656 260.003906 C 600.351562 261.027344 597.828125 263.554688 599.382812 264.800781 C 600.933594 266.046875 606.40625 265.234375 608.578125 265.667969 Z M 608.578125 265.667969 "/>
<path style=" stroke:none;fill-rule:nonzero;fill:rgb(85.882353%,54.509804%,54.509804%);fill-opacity:1;" d="M 723.308594 302.375 C 723.308594 302.375 706.726562 315.472656 683.71875 318.183594 C 683.71875 318.183594 676.878906 319.496094 671.964844 327.125 C 670.171875 329.992188 668.902344 333.070312 668.195312 336.257812 L 643.503906 300.933594 L 641.976562 298.75 L 683.171875 298.75 C 689.566406 292.265625 698.878906 288.335938 708.855469 287.910156 L 715.277344 284.292969 C 715.277344 284.292969 708.855469 242.273438 699.230469 240.011719 C 699.230469 240.011719 694.53125 236.046875 689.191406 232.191406 C 682.394531 227.375 681.0625 218.976562 686.121094 212.820312 C 686.253906 212.660156 686.382812 212.503906 686.527344 212.355469 C 691.988281 206.332031 703.402344 208.425781 705.699219 215.789062 C 707.289062 220.789062 708.527344 225.867188 709.402344 230.992188 L 712.078125 238.675781 L 721.714844 255.390625 L 737.226562 287.015625 C 737.226562 287.015625 740.425781 294.246094 723.308594 302.375 Z M 723.308594 302.375 "/>
<path style=" stroke:none;fill-rule:nonzero;fill:rgb(85.882353%,54.509804%,54.509804%);fill-opacity:1;" d="M 600.242188 304.183594 L 597.03125 328.167969 L 589.8125 328.507812 L 587.398438 328.617188 C 587.398438 328.617188 577.761719 336.753906 568.136719 339.457031 C 558.511719 342.160156 545.664062 349.402344 545.664062 349.402344 L 506.609375 363.832031 L 493.773438 368.800781 C 493.773438 368.800781 461.667969 387.816406 455.242188 379.191406 C 448.820312 370.5625 483.101562 361.984375 483.101562 361.984375 L 505.574219 352.039062 C 536.609375 329.449219 547.304688 331.746094 547.304688 331.746094 L 571.339844 320.003906 C 577.210938 312.742188 585.902344 307.441406 595.90625 305.011719 C 597.328125 304.644531 598.777344 304.367188 600.242188 304.183594 Z M 600.242188 304.183594 "/>
<use xlink:href="#surface44" mask="url(#mask13)"/>
<use xlink:href="#surface47" mask="url(#mask14)"/>
<path style=" stroke:none;fill-rule:nonzero;fill:rgb(29.411765%,50.196078%,52.156863%);fill-opacity:1;" d="M 670.019531 344.613281 C 661.992188 357.101562 657.855469 371.105469 658 385.316406 L 658 387.316406 C 658 387.316406 663.890625 400.867188 658 400.867188 C 652.113281 400.867188 652.648438 407.648438 645.164062 409.003906 C 637.683594 410.359375 611.453125 419.84375 603.433594 415.785156 C 595.414062 411.726562 590.0625 403.136719 590.0625 403.136719 L 590.0625 329.484375 C 590.171875 329.375 590.28125 329.253906 590.378906 329.125 C 595 323.589844 597.558594 300.527344 597.558594 300.527344 C 599.082031 300.726562 600.621094 300.851562 602.167969 300.90625 C 606.765625 301.089844 612 300.90625 614.640625 300.796875 L 616.28125 300.714844 C 620.902344 303.765625 627.207031 304.210938 630.328125 304.210938 C 631.425781 304.214844 632.523438 304.28125 633.605469 304.414062 C 642.640625 305.484375 645.394531 295.34375 645.394531 295.34375 L 648.96875 296.027344 L 658.636719 297.871094 L 661.988281 298.507812 C 655.96875 312.910156 671.820312 328.304688 673.820312 330.167969 L 674.027344 330.363281 C 674.199219 335.328125 672.816406 340.242188 670.019531 344.613281 Z M 670.019531 344.613281 "/>
<use xlink:href="#surface50" mask="url(#mask15)"/>
<use xlink:href="#surface53" mask="url(#mask16)"/>
<use xlink:href="#surface56" mask="url(#mask17)"/>
<path style=" stroke:none;fill-rule:nonzero;fill:rgb(85.882353%,54.509804%,54.509804%);fill-opacity:1;" d="M 786.441406 527.832031 L 780.027344 540.027344 C 778.195312 537.484375 776.191406 535.035156 774.019531 532.691406 C 770.902344 529.179688 767.226562 526.046875 763.09375 523.382812 C 758.621094 520.636719 754.402344 517.609375 750.464844 514.324219 C 747.449219 511.863281 744.152344 509.417969 741.8125 508.394531 C 740.457031 507.816406 739.160156 507.144531 737.9375 506.382812 C 733.675781 503.613281 725.308594 497.941406 723.328125 493.949219 C 723.328125 493.949219 706.210938 480.394531 698.71875 477.683594 L 691.246094 470.304688 L 682.65625 461.84375 L 704.59375 443.320312 L 711.050781 450.949219 L 720.652344 462.296875 C 724.996094 466.855469 729.964844 470.960938 735.457031 474.527344 C 740.925781 477.878906 745.976562 481.691406 750.53125 485.902344 C 757.714844 492.5 764.015625 499.742188 769.320312 507.5 L 783.121094 523.875 L 783.21875 524.003906 L 785.402344 526.574219 Z M 786.441406 527.832031 "/>
<path style=" stroke:none;fill-rule:nonzero;fill:rgb(85.882353%,54.509804%,54.509804%);fill-opacity:1;" d="M 650.539062 529.1875 L 641.976562 546.355469 L 635.027344 540.027344 L 632.164062 534.953125 L 629.675781 530.535156 L 617.363281 524.207031 L 605.347656 517.582031 C 603.269531 516.441406 601.007812 515.5625 598.628906 514.980469 C 588.238281 512.414062 590.03125 507.488281 590.03125 507.488281 L 590.980469 494.703125 L 591.636719 485.800781 L 620.039062 483.089844 L 618.617188 489.871094 L 616.828125 498.449219 C 627.535156 499.804688 634.480469 514.710938 634.480469 514.710938 C 638.710938 520.074219 642.71875 522.296875 644.957031 523.179688 C 645.539062 523.429688 646.15625 523.617188 646.792969 523.742188 Z M 650.539062 529.1875 "/>
<use xlink:href="#surface59" mask="url(#mask18)"/>
<use xlink:href="#surface62" mask="url(#mask19)"/>
<use xlink:href="#surface65" mask="url(#mask20)"/>
<use xlink:href="#surface68" mask="url(#mask21)"/>
<path style=" stroke:none;fill-rule:nonzero;fill:rgb(32.54902%,32.941176%,38.039216%);fill-opacity:1;" d="M 645.460938 523.542969 C 645.460938 523.542969 649.46875 535.535156 640.914062 540.035156 L 629.675781 533.707031 C 629.675781 533.707031 627.488281 538.226562 634.492188 544.101562 C 639.773438 548.097656 642.542969 553.945312 641.988281 559.914062 C 641.988281 559.914062 643.078125 570.753906 649.480469 568.050781 C 649.480469 568.050781 659.652344 566.207031 659.117188 551.335938 C 659.117188 551.335938 655.0625 538.929688 659.78125 533.679688 C 659.914062 533.539062 660.046875 533.398438 660.1875 533.265625 C 665.539062 528.292969 658.582031 520.617188 658.582031 520.617188 C 658.582031 520.617188 645.996094 516.316406 645.460938 523.542969 Z M 645.460938 523.542969 "/>
<use xlink:href="#surface71" mask="url(#mask22)"/>
<use xlink:href="#surface74" mask="url(#mask23)"/>
<use xlink:href="#surface77" mask="url(#mask24)"/>
<path style=" stroke:none;fill-rule:nonzero;fill:rgb(29.411765%,50.196078%,52.156863%);fill-opacity:1;" d="M 620.039062 403.128906 C 620.039062 403.128906 603.457031 409.003906 590.074219 403.128906 L 587.398438 433.855469 C 587.398438 433.855469 587.933594 447.40625 585.792969 455.074219 C 583.648438 462.738281 587.398438 493.929688 587.398438 493.929688 C 587.398438 493.929688 620.574219 493.476562 626.988281 483.089844 C 626.988281 483.089844 640.894531 459.59375 638.226562 451.46875 L 667.125 456.890625 L 684.253906 472.683594 C 684.253906 472.683594 713.683594 460.941406 711.007812 446.476562 L 671.40625 407.1875 L 659.640625 386.890625 C 659.640625 386.890625 633.957031 405.386719 620.039062 403.128906 Z M 620.039062 403.128906 "/>
<use xlink:href="#surface80" mask="url(#mask25)"/>
<use xlink:href="#surface83" mask="url(#mask26)"/>
<path style=" stroke:none;fill-rule:nonzero;fill:rgb(32.54902%,32.941176%,38.039216%);fill-opacity:1;" d="M 783.523438 524.34375 C 787.253906 524.167969 790.8125 525.667969 792.886719 528.292969 C 792.886719 528.292969 806.78125 538.179688 814.265625 539.101562 C 814.265625 539.101562 836.738281 547.238281 830.3125 558.53125 C 823.890625 569.824219 808.375 559.453125 808.375 559.453125 C 808.375 559.453125 791.792969 546.804688 786.441406 547.710938 C 786.441406 547.710938 771.726562 540.257812 774.421875 533.023438 C 774.421875 533.023438 780.867188 538.558594 782.8125 534.304688 C 783.484375 532.734375 784.257812 531.195312 785.128906 529.695312 C 786.167969 527.960938 786.703125 525.699219 783.523438 524.34375 Z M 783.523438 524.34375 "/>
<use xlink:href="#surface86" mask="url(#mask27)"/>
<use xlink:href="#surface89" mask="url(#mask28)"/>
<use xlink:href="#surface92" mask="url(#mask29)"/>
<use xlink:href="#surface95" mask="url(#mask30)"/>
<use xlink:href="#surface98" mask="url(#mask31)"/>
<path style=" stroke:none;fill-rule:nonzero;fill:rgb(97.254902%,52.941176%,52.941176%);fill-opacity:1;" d="M 715.355469 217.828125 C 715.355469 218.363281 715.355469 218.890625 715.355469 219.414062 C 715.355469 219.699219 715.355469 219.984375 715.277344 220.261719 C 714.820312 225 712.941406 229.5625 709.816406 233.519531 C 709.609375 233.785156 709.390625 234.046875 709.171875 234.304688 C 703.128906 241.460938 693.363281 245.714844 682.953125 245.722656 C 682.222656 245.722656 681.488281 245.722656 680.769531 245.660156 C 680.046875 245.59375 679.425781 245.566406 678.757812 245.492188 C 669.386719 244.421875 661.035156 239.941406 655.902344 233.234375 C 655.730469 233.019531 655.566406 232.789062 655.414062 232.578125 L 655.414062 232.53125 C 652.207031 228.105469 650.519531 223.015625 650.53125 217.828125 C 650.527344 216.445312 650.644531 215.0625 650.878906 213.695312 L 651.054688 212.773438 C 652.851562 204.21875 659.261719 196.859375 668.402344 192.863281 L 669.582031 192.375 C 677.324219 189.359375 686.175781 189.070312 694.171875 191.574219 C 695.203125 191.898438 696.214844 192.265625 697.199219 192.679688 C 704.457031 195.734375 710.125 200.9375 713.117188 207.300781 C 713.226562 207.515625 713.3125 207.71875 713.398438 207.929688 C 714.746094 211.105469 715.40625 214.457031 715.355469 217.828125 Z M 715.355469 217.828125 "/>
<use xlink:href="#surface101" mask="url(#mask32)"/>
<use xlink:href="#surface104" mask="url(#mask33)"/>
<use xlink:href="#surface107" mask="url(#mask34)"/>
<use xlink:href="#surface110" mask="url(#mask35)"/>
<use xlink:href="#surface113" mask="url(#mask36)"/>
<use xlink:href="#surface116" mask="url(#mask37)"/>
<use xlink:href="#surface119" mask="url(#mask38)"/>
</g>
</svg>
