<?xml version="1.0" encoding="UTF-8"?>
<svg xmlns="http://www.w3.org/2000/svg" xmlns:xlink="http://www.w3.org/1999/xlink" width="1099px" height="726px" viewBox="0 0 1099 726" version="1.1">
<g id="surface1">
<path style=" stroke:none;fill-rule:nonzero;fill:rgb(94.901961%,94.901961%,94.901961%);fill-opacity:1;" d="M 173.355469 439.097656 C 171.382812 439.25 169.5625 437.316406 168.800781 434.253906 C 168.039062 431.191406 168.5 427.65625 169.949219 425.40625 C 170.066406 424.613281 170.152344 424.042969 170.269531 423.253906 C 168.386719 415.203125 163.785156 409.882812 158.640625 409.800781 C 153.496094 409.71875 148.835938 414.894531 146.863281 422.878906 C 141.292969 444.800781 134.085938 467.492188 137.671875 491.632812 C 113.992188 407.257812 122.042969 302.300781 157.039062 230.140625 C 166.710938 221.183594 174.550781 205.265625 176.589844 186.785156 C 171.804688 189.511719 165.835938 182.964844 169.433594 174.488281 C 170.996094 171.246094 172.570312 168.03125 174.128906 164.792969 C 155.945312 132.230469 134.28125 183.40625 154.296875 227.351562 C 147.746094 241.15625 142.074219 256.070312 137.371094 271.855469 C 138.460938 255.09375 137.164062 238.140625 133.589844 222.382812 C 129.96875 207.699219 123.183594 195.332031 117.210938 182.640625 C 109.945312 167.171875 94.992188 174.308594 94.015625 193.9375 C 100.71875 197.640625 101.589844 213.925781 93.921875 216.152344 C 95.929688 252.667969 110.117188 286.222656 129.660156 302.238281 C 122.441406 336.28125 119.625 372.519531 121.394531 408.539062 C 117.945312 366.445312 91.070312 356.230469 72.285156 339.5 C 69.839844 336.863281 66.703125 336.90625 64.285156 339.605469 C 61.867188 342.304688 60.628906 347.152344 61.125 351.960938 C 63.71875 353.730469 66.199219 355.933594 68.53125 358.53125 C 70.773438 361.0625 71.824219 365.691406 71.160156 370.089844 C 70.492188 374.492188 68.253906 377.710938 65.566406 378.136719 C 75.035156 417.535156 99.515625 443.996094 124.65625 443.84375 C 127.074219 461.5 130.574219 478.683594 135.101562 495.117188 L 172.417969 495.117188 C 172.550781 494.421875 172.671875 493.699219 172.792969 493.003906 C 169.339844 493.367188 165.871094 493.023438 162.46875 491.96875 C 171.605469 473.777344 178.671875 464.496094 173.355469 439.101562 Z M 173.355469 439.097656 "/>
<path style=" stroke:none;fill-rule:nonzero;fill:rgb(94.901961%,94.901961%,94.901961%);fill-opacity:1;" d="M 940.832031 439.097656 C 942.804688 439.25 944.625 437.316406 945.382812 434.253906 C 946.144531 431.191406 945.6875 427.65625 944.238281 425.40625 C 944.121094 424.613281 944.035156 424.042969 943.917969 423.253906 C 945.800781 415.203125 950.402344 409.882812 955.546875 409.800781 C 960.691406 409.71875 965.347656 414.894531 967.324219 422.878906 C 972.894531 444.800781 980.101562 467.492188 976.515625 491.632812 C 1000.195312 407.257812 992.140625 302.300781 957.148438 230.140625 C 947.476562 221.183594 939.636719 205.265625 937.59375 186.785156 C 942.382812 189.511719 948.351562 182.964844 944.75 174.488281 C 943.191406 171.246094 941.617188 168.03125 940.054688 164.792969 C 958.242188 132.230469 979.90625 183.40625 959.890625 227.351562 C 966.4375 241.15625 972.109375 256.070312 976.8125 271.855469 C 975.726562 255.09375 977.023438 238.140625 980.597656 222.382812 C 984.214844 207.699219 991 195.332031 996.976562 182.640625 C 1004.242188 167.171875 1019.195312 174.308594 1020.171875 193.9375 C 1013.46875 197.640625 1012.597656 213.925781 1020.265625 216.152344 C 1018.257812 252.667969 1004.070312 286.222656 984.527344 302.238281 C 991.746094 336.28125 994.5625 372.519531 992.792969 408.539062 C 996.242188 366.445312 1023.117188 356.230469 1041.902344 339.5 C 1044.34375 336.863281 1047.484375 336.90625 1049.902344 339.605469 C 1052.316406 342.304688 1053.558594 347.152344 1053.0625 351.960938 C 1050.46875 353.730469 1047.988281 355.933594 1045.652344 358.53125 C 1043.414062 361.0625 1042.363281 365.691406 1043.027344 370.089844 C 1043.691406 374.492188 1045.933594 377.710938 1048.621094 378.136719 C 1039.152344 417.535156 1014.671875 443.996094 989.53125 443.84375 C 987.113281 461.5 983.613281 478.683594 979.085938 495.117188 L 941.769531 495.117188 C 941.632812 494.421875 941.515625 493.699219 941.394531 493.003906 C 944.847656 493.367188 948.316406 493.023438 951.71875 491.96875 C 942.582031 473.777344 935.511719 464.496094 940.832031 439.101562 Z M 940.832031 439.097656 "/>
<path style=" stroke:none;fill-rule:nonzero;fill:rgb(80%,80%,80%);fill-opacity:1;" d="M 0 496.75 C 0 497.441406 0.160156 498.101562 0.453125 498.589844 C 0.742188 499.078125 1.136719 499.351562 1.546875 499.351562 L 1097.023438 499.351562 C 1097.878906 499.351562 1098.570312 498.1875 1098.570312 496.75 C 1098.570312 495.3125 1097.878906 494.144531 1097.023438 494.144531 L 1.546875 494.144531 C 1.136719 494.144531 0.742188 494.417969 0.453125 494.90625 C 0.160156 495.394531 0 496.058594 0 496.75 Z M 0 496.75 "/>
<path style=" stroke:none;fill-rule:nonzero;fill:rgb(18.431373%,18.039216%,25.490196%);fill-opacity:1;" d="M 193.144531 460.617188 C 192.625 447.832031 192.621094 435.625 192.472656 426.214844 C 192.171875 407.042969 216.757812 408.410156 229.980469 407.820312 L 277.988281 403.992188 C 291.210938 403.402344 302.214844 418.519531 302.519531 437.6875 C 302.820312 456.855469 292.3125 472.933594 279.089844 473.527344 C 259.667969 501.867188 244.605469 503.246094 217.964844 501.351562 C 204.722656 500.402344 194.03125 482.851562 193.144531 460.617188 Z M 193.144531 460.617188 "/>
<path style=" stroke:none;fill-rule:nonzero;fill:rgb(100%,71.372549%,71.372549%);fill-opacity:1;" d="M 303.535156 680.800781 L 317.289062 684.578125 L 332.503906 597.171875 L 312.203125 591.597656 Z M 303.535156 680.800781 "/>
<path style=" stroke:none;fill-rule:nonzero;fill:rgb(18.431373%,18.039216%,25.490196%);fill-opacity:1;" d="M 309 498.539062 C 283.355469 509.144531 264.417969 497.203125 248.820312 498.75 C 239.953125 473.597656 211.652344 441.644531 227.09375 428.199219 C 235.695312 420.707031 323.113281 403.441406 334.589844 423.367188 C 350.75 451.425781 348.492188 502.460938 343.140625 542.894531 C 343 543.972656 342.855469 545.042969 342.707031 546.109375 C 342.4375 548.070312 342.160156 550.003906 341.875 551.910156 C 341.519531 554.308594 339.058594 554.269531 338.691406 556.558594 C 338.175781 559.789062 339.746094 565.292969 339.222656 568.265625 C 338.328125 573.363281 335.617188 578.152344 336.613281 582.210938 C 339.355469 593.40625 333.691406 602.105469 332.1875 602.480469 L 311.378906 593.734375 C 309.910156 593.152344 306.460938 587.011719 311.972656 581.621094 C 313.535156 580.09375 312.21875 575.097656 312.320312 571.265625 C 312.382812 568.910156 312.4375 566.425781 312.480469 563.847656 C 312.535156 560.414062 312.574219 556.808594 312.578125 553.097656 C 312.597656 534.785156 311.835938 513.882812 309 498.539062 Z M 309 498.539062 "/>
<path style=" stroke:none;fill-rule:nonzero;fill:rgb(18.431373%,18.039216%,25.490196%);fill-opacity:1;" d="M 304.738281 648.328125 L 325.136719 655.347656 L 322.832031 669.8125 L 338.390625 700.566406 C 339.96875 703.683594 340.15625 708.164062 338.855469 711.625 C 337.554688 715.082031 335.066406 716.71875 332.714844 715.660156 L 308.8125 704.898438 L 306.972656 688.742188 L 303.085938 702.320312 L 294.074219 698.265625 Z M 304.738281 648.328125 "/>
<path style=" stroke:none;fill-rule:nonzero;fill:rgb(100%,71.372549%,71.372549%);fill-opacity:1;" d="M 151.191406 528.601562 L 152.382812 551.949219 L 206.511719 555.34375 L 204.753906 520.882812 Z M 151.191406 528.601562 "/>
<path style=" stroke:none;fill-rule:nonzero;fill:rgb(18.431373%,18.039216%,25.490196%);fill-opacity:1;" d="M 282.875 482.152344 C 259.21875 467.585938 250.375 432.082031 242.769531 394.820312 C 255.101562 374.207031 272.082031 343.300781 283.621094 365.179688 C 290.042969 377.363281 341.171875 481.867188 332.492188 505.453125 C 319.136719 541.746094 275.558594 552.90625 242.707031 556.011719 C 240.695312 556.203125 238.730469 556.363281 236.808594 556.496094 C 235.042969 556.621094 233.320312 556.722656 231.644531 556.800781 C 224.859375 557.132812 217.707031 551.839844 214.191406 557.054688 C 207.859375 566.453125 203.640625 561.921875 203.429688 556.558594 L 202.128906 519.382812 C 201.183594 513.402344 211.152344 508.390625 215.136719 515.011719 C 217.996094 519.765625 216.777344 514.359375 224.289062 511.480469 C 242.445312 504.527344 267.558594 493.722656 282.875 482.152344 Z M 282.875 482.152344 "/>
<path style=" stroke:none;fill-rule:nonzero;fill:rgb(18.431373%,18.039216%,25.490196%);fill-opacity:1;" d="M 170.214844 522.613281 L 171.160156 557.582031 L 162.253906 557.371094 L 148.332031 590.261719 C 146.917969 593.597656 144.382812 595 142.070312 593.726562 C 139.753906 592.453125 138.203125 588.800781 138.238281 584.707031 L 138.589844 543.109375 L 147.457031 536.148438 L 138.671875 533.140625 L 138.804688 517.457031 Z M 170.214844 522.613281 "/>
<path style=" stroke:none;fill-rule:nonzero;fill:rgb(24.705882%,23.921569%,33.72549%);fill-opacity:1;" d="M 201.625 436.226562 C 201.507812 435.871094 201.515625 435.433594 201.648438 435.089844 C 193.65625 434.59375 185.726562 437.667969 187.824219 425.351562 C 188.121094 423.59375 195.3125 410.730469 195.730469 408.800781 C 196.09375 407.125 193.886719 398.714844 194.328125 396.925781 C 195.1875 393.417969 198.789062 396.378906 199.859375 392.496094 C 200.234375 391.132812 197.835938 387.398438 198.226562 385.992188 C 198.597656 384.671875 201.761719 385.679688 202.140625 384.328125 C 209.296875 358.90625 218.074219 328.238281 215.765625 302.902344 C 212.839844 270.796875 213.285156 225.234375 212.71875 196.421875 C 212.496094 184.652344 217.050781 174.132812 223.785156 170.882812 C 229.003906 168.332031 235.257812 163.832031 239.414062 156.050781 C 240.5 154.011719 240.628906 157.664062 240.769531 152.699219 C 240.9375 146.652344 241.113281 140.398438 243.03125 137.171875 L 243.117188 137.03125 L 243.226562 136.96875 C 251.3125 132.441406 264.960938 135.367188 269.019531 136.945312 L 269.195312 137.015625 L 269.304688 137.257812 C 270.984375 140.980469 270.890625 146.933594 270.800781 152.695312 C 270.722656 157.875 270.644531 154.429688 272.011719 155.90625 C 273.066406 157.046875 274.082031 158.140625 275.058594 159.183594 C 287.070312 172.066406 293.101562 178.535156 297.523438 199.582031 C 298.917969 205.699219 299.445312 212.28125 299.054688 218.800781 C 297.480469 239.863281 290.785156 394.246094 288.105469 399.628906 C 287.410156 401.023438 289.214844 403.453125 289.964844 405.265625 C 291.039062 407.863281 287.625 410.109375 287.09375 411.828125 C 286.726562 413 285.789062 413.542969 284.132812 413.542969 C 277.890625 413.542969 203.441406 441.933594 201.625 436.226562 Z M 202.484375 436.011719 Z M 202.484375 436.011719 "/>
<path style=" stroke:none;fill-rule:nonzero;fill:rgb(29.411765%,50.196078%,52.156863%);fill-opacity:1;" d="M 253.726562 349.804688 C 256.050781 352.261719 251.5 358.164062 248.753906 358.164062 C 246.007812 358.164062 243.78125 354.421875 243.78125 349.804688 C 243.78125 345.1875 246.863281 334.21875 248.132812 338.3125 C 248.480469 339.429688 250.691406 346.601562 253.726562 349.804688 Z M 253.726562 349.804688 "/>
<path style=" stroke:none;fill-rule:nonzero;fill:rgb(29.411765%,50.196078%,52.156863%);fill-opacity:1;" d="M 261.804688 349.804688 C 264.132812 352.261719 259.578125 358.164062 256.832031 358.164062 C 254.085938 358.164062 251.863281 354.421875 251.863281 349.804688 C 251.863281 345.1875 254.941406 334.21875 256.210938 338.3125 C 256.558594 339.429688 258.769531 346.601562 261.804688 349.804688 Z M 261.804688 349.804688 "/>
<path style=" stroke:none;fill-rule:nonzero;fill:rgb(29.411765%,50.196078%,52.156863%);fill-opacity:1;" d="M 257.945312 347.929688 C 255.3125 346.605469 258.765625 338.875 261.410156 337.644531 C 264.058594 336.414062 266.796875 339.023438 267.527344 343.476562 C 268.261719 347.925781 267.027344 359.878906 265.15625 356.503906 C 264.644531 355.582031 261.375 349.65625 257.945312 347.929688 Z M 257.945312 347.929688 "/>
<path style=" stroke:none;fill-rule:nonzero;fill:rgb(29.411765%,50.196078%,52.156863%);fill-opacity:1;" d="M 289.152344 349.804688 C 291.476562 352.261719 286.925781 358.164062 284.179688 358.164062 C 281.433594 358.164062 279.207031 354.421875 279.207031 349.804688 C 279.207031 345.1875 282.289062 334.21875 283.558594 338.3125 C 283.90625 339.429688 286.117188 346.601562 289.152344 349.804688 Z M 289.152344 349.804688 "/>
<path style=" stroke:none;fill-rule:nonzero;fill:rgb(29.411765%,50.196078%,52.156863%);fill-opacity:1;" d="M 297.230469 349.804688 C 299.554688 352.261719 295.003906 358.164062 292.257812 358.164062 C 289.511719 358.164062 287.285156 354.421875 287.285156 349.804688 C 287.285156 345.1875 290.367188 334.21875 291.636719 338.3125 C 291.984375 339.429688 294.195312 346.601562 297.230469 349.804688 Z M 297.230469 349.804688 "/>
<path style=" stroke:none;fill-rule:nonzero;fill:rgb(29.411765%,50.196078%,52.156863%);fill-opacity:1;" d="M 293.367188 347.929688 C 290.738281 346.605469 294.191406 338.875 296.835938 337.644531 C 299.484375 336.414062 302.222656 339.023438 302.953125 343.476562 C 303.683594 347.925781 302.453125 359.878906 300.582031 356.503906 C 300.070312 355.582031 296.800781 349.65625 293.367188 347.929688 Z M 293.367188 347.929688 "/>
<path style=" stroke:none;fill-rule:nonzero;fill:rgb(29.411765%,50.196078%,52.156863%);fill-opacity:1;" d="M 236.191406 347.929688 C 233.5625 346.605469 237.011719 338.875 239.660156 337.644531 C 242.304688 336.414062 245.042969 339.023438 245.777344 343.476562 C 246.507812 347.925781 245.277344 359.878906 243.402344 356.503906 C 242.894531 355.582031 239.625 349.65625 236.191406 347.929688 Z M 236.191406 347.929688 "/>
<path style=" stroke:none;fill-rule:nonzero;fill:rgb(29.411765%,50.196078%,52.156863%);fill-opacity:1;" d="M 271.546875 356.863281 C 270.4375 361.085938 266.308594 354.355469 265.917969 349.785156 C 265.523438 345.21875 267.40625 340.976562 270.125 340.316406 C 272.84375 339.65625 279.742188 343.210938 277.515625 345.910156 C 276.90625 346.648438 273 351.355469 271.546875 356.863281 Z M 271.546875 356.863281 "/>
<path style=" stroke:none;fill-rule:nonzero;fill:rgb(29.411765%,50.196078%,52.156863%);fill-opacity:1;" d="M 281.082031 342.863281 C 281.742188 338.382812 286.5 343.8125 287.355469 348.199219 C 288.210938 352.585938 286.789062 357.308594 284.179688 358.75 C 281.570312 360.1875 274.410156 358.6875 276.328125 355.382812 C 276.851562 354.480469 280.21875 348.710938 281.082031 342.863281 Z M 281.082031 342.863281 "/>
<path style=" stroke:none;fill-rule:nonzero;fill:rgb(29.411765%,50.196078%,52.156863%);fill-opacity:1;" d="M 277.351562 336.59375 C 278.015625 332.113281 282.769531 337.542969 283.625 341.929688 C 284.480469 346.316406 283.0625 351.039062 280.453125 352.480469 C 277.84375 353.917969 270.683594 352.417969 272.601562 349.113281 C 273.125 348.210938 276.488281 342.441406 277.351562 336.59375 Z M 277.351562 336.59375 "/>
<path style=" stroke:none;fill-rule:nonzero;fill:rgb(80%,80%,80%);fill-opacity:1;" d="M 230.066406 378.503906 L 235.90625 410.523438 C 237.167969 421.964844 243.105469 430.265625 250.027344 430.265625 L 291.351562 430.265625 C 298.390625 430.300781 304.398438 421.726562 305.523438 410.046875 L 305.535156 409.941406 L 310.710938 378.066406 C 311.34375 371.539062 310.238281 364.875 307.6875 359.835938 C 305.140625 354.796875 301.40625 351.894531 297.472656 351.894531 L 243.257812 351.894531 C 239.277344 351.894531 235.503906 354.867188 232.957031 360.003906 C 230.40625 365.144531 229.347656 371.921875 230.066406 378.503906 Z M 230.066406 378.503906 "/>
<path style=" stroke:none;fill-rule:nonzero;fill:rgb(100%,71.372549%,71.372549%);fill-opacity:1;" d="M 266.734375 319.816406 L 302.5625 304.539062 L 308.132812 335.535156 C 308.132812 335.535156 269.585938 340.332031 268.144531 340.355469 C 265.9375 345.605469 262.035156 348.019531 258.332031 346.429688 C 254.628906 344.839844 251.894531 339.574219 251.453125 333.1875 C 251.015625 326.804688 252.964844 320.628906 256.355469 317.660156 C 259.746094 314.691406 263.875 315.550781 266.734375 319.816406 Z M 266.734375 319.816406 "/>
<path style=" stroke:none;fill-rule:nonzero;fill:rgb(24.705882%,23.921569%,33.72549%);fill-opacity:1;" d="M 290.644531 179.25 C 316.191406 202.203125 319.582031 253.371094 335.257812 298.34375 C 336.628906 319.136719 334.871094 337.410156 322.429688 337.78125 L 316.582031 340.070312 L 312.328125 338.171875 L 310.078125 342.257812 L 305.316406 338.441406 L 299.820312 340.210938 L 288.417969 340.652344 L 295.609375 307.15625 L 305.867188 297.359375 L 293.742188 248.050781 Z M 290.644531 179.25 "/>
<path style=" stroke:none;fill-rule:nonzero;fill:rgb(18.431373%,18.039216%,25.490196%);fill-opacity:1;" d="M 212.570312 95.375 C 216.738281 86.261719 213.785156 73.222656 213.652344 61.667969 C 213.398438 40.109375 224.726562 21.136719 237.023438 18.332031 C 249.324219 15.523438 261.585938 26.359375 269.6875 42.421875 C 277.632812 58.171875 283.59375 66.425781 287.894531 86.070312 C 289.335938 92.660156 289.296875 111.410156 288.796875 118.460938 C 288.296875 125.515625 285.121094 132.613281 281.054688 132.671875 C 281.472656 135.460938 280.9375 138.414062 279.660156 140.332031 C 278.378906 142.25 276.574219 142.8125 274.972656 141.792969 C 267.890625 136.601562 253.414062 138.089844 253.414062 138.089844 C 240.574219 134.535156 227.738281 130.984375 214.898438 127.429688 C 211.609375 126.519531 208.199219 125.535156 205.683594 121.417969 C 204.265625 119.195312 203.492188 116.039062 203.574219 112.78125 C 203.90625 104.429688 209.695312 101.660156 212.570312 95.375 Z M 212.570312 95.375 "/>
<path style=" stroke:none;fill-rule:nonzero;fill:rgb(100%,71.372549%,71.372549%);fill-opacity:1;" d="M 280.316406 92.96875 C 280.316406 116.5625 268.941406 135.691406 254.90625 135.691406 C 240.875 135.691406 229.5 116.5625 229.5 92.96875 C 229.5 69.375 240.875 50.246094 254.90625 50.246094 C 268.941406 50.246094 280.316406 69.375 280.316406 92.96875 Z M 280.316406 92.96875 "/>
<path style=" stroke:none;fill-rule:nonzero;fill:rgb(18.431373%,18.039216%,25.490196%);fill-opacity:1;" d="M 270.25 85.003906 L 237.007812 71.472656 C 234.03125 70.285156 232.15625 65.324219 232.78125 60.289062 C 234.183594 49.59375 238.058594 40.28125 243.550781 34.398438 C 249.042969 28.515625 255.703125 26.546875 262.058594 28.925781 L 271.902344 32.632812 C 285.222656 37.648438 293.601562 59.871094 290.617188 82.265625 L 290.410156 82.410156 C 284.210938 86.726562 277.363281 87.710938 270.816406 85.226562 C 270.628906 85.15625 270.4375 85.082031 270.25 85.003906 Z M 270.25 85.003906 "/>
<path style=" stroke:none;fill-rule:nonzero;fill:rgb(18.431373%,18.039216%,25.490196%);fill-opacity:1;" d="M 237.378906 126.769531 L 231.191406 105.53125 C 230.472656 103.601562 230.140625 101.339844 230.242188 99.074219 C 230.488281 96.855469 232.039062 94.964844 233.191406 96.125 C 234.257812 97.199219 244.644531 71.675781 245.859375 72.140625 C 247.121094 72.621094 247.90625 69.949219 248.207031 67.839844 C 249.335938 59.832031 244.304688 66.992188 244.050781 58.777344 C 243.800781 50.558594 237.914062 55.324219 234.0625 50.25 C 230.210938 45.171875 224.144531 44.535156 220.59375 50.195312 C 217.960938 54.390625 217.179688 60.835938 216.648438 66.871094 C 215.421875 80.875 214.835938 95.015625 214.886719 109.171875 C 214.902344 112.648438 215.082031 116.597656 216.695312 118.773438 C 217.605469 119.8125 218.644531 120.488281 219.734375 120.746094 L 232.964844 125.613281 "/>
<path style=" stroke:none;fill-rule:nonzero;fill:rgb(18.431373%,18.039216%,25.490196%);fill-opacity:1;" d="M 242.351562 21.058594 C 242.351562 32.683594 236.746094 42.109375 229.828125 42.109375 C 222.914062 42.109375 217.308594 32.683594 217.308594 21.058594 C 217.308594 9.429688 222.914062 0.00390625 229.828125 0.00390625 C 236.746094 0.00390625 242.351562 9.429688 242.351562 21.058594 Z M 242.351562 21.058594 "/>
<path style=" stroke:none;fill-rule:nonzero;fill:rgb(24.705882%,23.921569%,33.72549%);fill-opacity:1;" d="M 433.035156 302.738281 L 433.035156 490.152344 C 433.035156 495.125 435.433594 499.15625 438.390625 499.160156 L 603.574219 499.160156 C 606.53125 499.15625 608.925781 495.125 608.929688 490.152344 L 608.929688 302.738281 C 608.921875 297.769531 606.527344 293.746094 603.574219 293.742188 L 438.390625 293.742188 C 435.4375 293.746094 433.042969 297.769531 433.035156 302.738281 Z M 433.035156 302.738281 "/>
<path style=" stroke:none;fill-rule:nonzero;fill:rgb(29.411765%,50.196078%,52.156863%);fill-opacity:1;" d="M 436.910156 305.070312 L 436.910156 487.839844 C 436.910156 490.496094 438.191406 492.648438 439.773438 492.652344 L 602.199219 492.652344 C 603.777344 492.648438 605.058594 490.496094 605.058594 487.839844 L 605.058594 305.070312 C 605.058594 302.410156 603.78125 300.253906 602.199219 300.246094 L 439.773438 300.246094 C 438.191406 300.253906 436.910156 302.410156 436.910156 305.070312 Z M 436.910156 305.070312 "/>
<path style=" stroke:none;fill-rule:nonzero;fill:rgb(18.431373%,18.039216%,25.490196%);fill-opacity:1;" d="M 429.578125 526.703125 C 430.191406 527.996094 431.125 528.742188 432.105469 528.734375 L 608.976562 528.734375 C 609.957031 528.734375 610.882812 527.988281 611.5 526.710938 C 612.117188 525.429688 612.359375 523.753906 612.160156 522.140625 L 609.414062 500.214844 C 609.183594 498.398438 608.417969 496.902344 607.386719 496.238281 C 607.019531 495.996094 606.625 495.871094 606.230469 495.871094 L 434.84375 495.871094 C 434.445312 495.871094 434.054688 495.996094 433.6875 496.238281 C 432.65625 496.902344 431.890625 498.398438 431.660156 500.214844 L 428.914062 522.140625 C 428.71875 523.753906 428.960938 525.425781 429.578125 526.703125 Z M 429.578125 526.703125 "/>
<path style=" stroke:none;fill-rule:nonzero;fill:rgb(24.705882%,23.921569%,33.72549%);fill-opacity:1;" d="M 604.339844 505.316406 L 600.164062 505.316406 C 599.8125 505.316406 599.527344 504.839844 599.527344 504.25 L 599.527344 500.890625 C 599.527344 500.300781 599.8125 499.820312 600.164062 499.820312 L 604.339844 499.820312 C 604.691406 499.820312 604.976562 500.300781 604.976562 500.890625 L 604.976562 504.25 C 604.976562 504.839844 604.691406 505.316406 604.339844 505.316406 Z M 604.339844 505.316406 "/>
<path style=" stroke:none;fill-rule:nonzero;fill:rgb(24.705882%,23.921569%,33.72549%);fill-opacity:1;" d="M 593.445312 505.316406 L 589.269531 505.316406 C 588.917969 505.316406 588.632812 504.839844 588.632812 504.25 L 588.632812 500.890625 C 588.632812 500.300781 588.917969 499.820312 589.269531 499.820312 L 593.445312 499.820312 C 593.796875 499.820312 594.082031 500.300781 594.082031 500.890625 L 594.082031 504.25 C 594.082031 504.839844 593.796875 505.316406 593.445312 505.316406 Z M 593.445312 505.316406 "/>
<path style=" stroke:none;fill-rule:nonzero;fill:rgb(24.705882%,23.921569%,33.72549%);fill-opacity:1;" d="M 582.550781 505.316406 L 578.371094 505.316406 C 578.023438 505.316406 577.738281 504.839844 577.738281 504.25 L 577.738281 500.890625 C 577.738281 500.300781 578.023438 499.820312 578.371094 499.820312 L 582.550781 499.820312 C 582.902344 499.820312 583.183594 500.300781 583.183594 500.890625 L 583.183594 504.25 C 583.183594 504.839844 582.902344 505.316406 582.550781 505.316406 Z M 582.550781 505.316406 "/>
<path style=" stroke:none;fill-rule:nonzero;fill:rgb(24.705882%,23.921569%,33.72549%);fill-opacity:1;" d="M 571.65625 505.316406 L 567.476562 505.316406 C 567.128906 505.316406 566.84375 504.839844 566.84375 504.25 L 566.84375 500.890625 C 566.84375 500.300781 567.128906 499.820312 567.476562 499.820312 L 571.65625 499.820312 C 572.007812 499.820312 572.289062 500.300781 572.289062 500.890625 L 572.289062 504.25 C 572.289062 504.839844 572.007812 505.316406 571.65625 505.316406 Z M 571.65625 505.316406 "/>
<path style=" stroke:none;fill-rule:nonzero;fill:rgb(24.705882%,23.921569%,33.72549%);fill-opacity:1;" d="M 560.761719 505.316406 L 556.582031 505.316406 C 556.230469 505.316406 555.949219 504.839844 555.949219 504.25 L 555.949219 500.890625 C 555.949219 500.300781 556.230469 499.820312 556.582031 499.820312 L 560.761719 499.820312 C 561.109375 499.820312 561.394531 500.300781 561.394531 500.890625 L 561.394531 504.25 C 561.394531 504.839844 561.109375 505.316406 560.761719 505.316406 Z M 560.761719 505.316406 "/>
<path style=" stroke:none;fill-rule:nonzero;fill:rgb(24.705882%,23.921569%,33.72549%);fill-opacity:1;" d="M 549.867188 505.316406 L 545.6875 505.316406 C 545.335938 505.316406 545.050781 504.839844 545.050781 504.25 L 545.050781 500.890625 C 545.050781 500.300781 545.335938 499.820312 545.6875 499.820312 L 549.867188 499.820312 C 550.214844 499.820312 550.5 500.300781 550.5 500.890625 L 550.5 504.25 C 550.5 504.839844 550.214844 505.316406 549.867188 505.316406 Z M 549.867188 505.316406 "/>
<path style=" stroke:none;fill-rule:nonzero;fill:rgb(24.705882%,23.921569%,33.72549%);fill-opacity:1;" d="M 538.96875 505.316406 L 534.792969 505.316406 C 534.441406 505.316406 534.15625 504.839844 534.15625 504.25 L 534.15625 500.890625 C 534.15625 500.300781 534.441406 499.820312 534.792969 499.820312 L 538.96875 499.820312 C 539.320312 499.820312 539.605469 500.300781 539.605469 500.890625 L 539.605469 504.25 C 539.605469 504.839844 539.320312 505.316406 538.96875 505.316406 Z M 538.96875 505.316406 "/>
<path style=" stroke:none;fill-rule:nonzero;fill:rgb(24.705882%,23.921569%,33.72549%);fill-opacity:1;" d="M 528.074219 505.316406 L 523.898438 505.316406 C 523.546875 505.316406 523.261719 504.839844 523.261719 504.25 L 523.261719 500.890625 C 523.261719 500.300781 523.546875 499.820312 523.898438 499.820312 L 528.074219 499.820312 C 528.425781 499.820312 528.710938 500.300781 528.710938 500.890625 L 528.710938 504.25 C 528.710938 504.839844 528.425781 505.316406 528.074219 505.316406 Z M 528.074219 505.316406 "/>
<path style=" stroke:none;fill-rule:nonzero;fill:rgb(24.705882%,23.921569%,33.72549%);fill-opacity:1;" d="M 517.179688 505.316406 L 513.003906 505.316406 C 512.652344 505.316406 512.367188 504.839844 512.367188 504.25 L 512.367188 500.890625 C 512.367188 500.300781 512.652344 499.820312 513.003906 499.820312 L 517.179688 499.820312 C 517.53125 499.820312 517.816406 500.300781 517.816406 500.890625 L 517.816406 504.25 C 517.816406 504.839844 517.53125 505.316406 517.179688 505.316406 Z M 517.179688 505.316406 "/>
<path style=" stroke:none;fill-rule:nonzero;fill:rgb(24.705882%,23.921569%,33.72549%);fill-opacity:1;" d="M 506.285156 505.316406 L 502.109375 505.316406 C 501.757812 505.316406 501.472656 504.839844 501.472656 504.25 L 501.472656 500.890625 C 501.472656 500.300781 501.757812 499.820312 502.109375 499.820312 L 506.285156 499.820312 C 506.636719 499.820312 506.921875 500.300781 506.921875 500.890625 L 506.921875 504.25 C 506.921875 504.839844 506.636719 505.316406 506.285156 505.316406 Z M 506.285156 505.316406 "/>
<path style=" stroke:none;fill-rule:nonzero;fill:rgb(24.705882%,23.921569%,33.72549%);fill-opacity:1;" d="M 495.390625 505.316406 L 491.210938 505.316406 C 490.863281 505.316406 490.578125 504.839844 490.578125 504.25 L 490.578125 500.890625 C 490.578125 500.300781 490.863281 499.820312 491.210938 499.820312 L 495.390625 499.820312 C 495.742188 499.820312 496.023438 500.300781 496.023438 500.890625 L 496.023438 504.25 C 496.023438 504.839844 495.742188 505.316406 495.390625 505.316406 Z M 495.390625 505.316406 "/>
<path style=" stroke:none;fill-rule:nonzero;fill:rgb(24.705882%,23.921569%,33.72549%);fill-opacity:1;" d="M 484.496094 505.316406 L 480.316406 505.316406 C 479.964844 505.316406 479.683594 504.839844 479.683594 504.25 L 479.683594 500.890625 C 479.683594 500.300781 479.964844 499.820312 480.316406 499.820312 L 484.496094 499.820312 C 484.847656 499.820312 485.128906 500.300781 485.128906 500.890625 L 485.128906 504.25 C 485.128906 504.839844 484.847656 505.316406 484.496094 505.316406 Z M 484.496094 505.316406 "/>
<path style=" stroke:none;fill-rule:nonzero;fill:rgb(24.705882%,23.921569%,33.72549%);fill-opacity:1;" d="M 473.601562 505.316406 L 469.421875 505.316406 C 469.070312 505.316406 468.789062 504.839844 468.789062 504.25 L 468.789062 500.890625 C 468.789062 500.300781 469.070312 499.820312 469.421875 499.820312 L 473.601562 499.820312 C 473.949219 499.820312 474.234375 500.300781 474.234375 500.890625 L 474.234375 504.25 C 474.234375 504.839844 473.949219 505.316406 473.601562 505.316406 Z M 473.601562 505.316406 "/>
<path style=" stroke:none;fill-rule:nonzero;fill:rgb(24.705882%,23.921569%,33.72549%);fill-opacity:1;" d="M 462.703125 505.316406 L 458.527344 505.316406 C 458.175781 505.316406 457.890625 504.839844 457.890625 504.25 L 457.890625 500.890625 C 457.890625 500.300781 458.175781 499.820312 458.527344 499.820312 L 462.703125 499.820312 C 463.054688 499.820312 463.339844 500.300781 463.339844 500.890625 L 463.339844 504.25 C 463.339844 504.839844 463.054688 505.316406 462.703125 505.316406 Z M 462.703125 505.316406 "/>
<path style=" stroke:none;fill-rule:nonzero;fill:rgb(24.705882%,23.921569%,33.72549%);fill-opacity:1;" d="M 451.808594 505.316406 L 447.632812 505.316406 C 447.28125 505.316406 446.996094 504.839844 446.996094 504.25 L 446.996094 500.890625 C 446.996094 500.300781 447.28125 499.820312 447.632812 499.820312 L 451.808594 499.820312 C 452.160156 499.820312 452.445312 500.300781 452.445312 500.890625 L 452.445312 504.25 C 452.445312 504.839844 452.160156 505.316406 451.808594 505.316406 Z M 451.808594 505.316406 "/>
<path style=" stroke:none;fill-rule:nonzero;fill:rgb(24.705882%,23.921569%,33.72549%);fill-opacity:1;" d="M 440.914062 505.316406 L 436.738281 505.316406 C 436.386719 505.316406 436.101562 504.839844 436.101562 504.25 L 436.101562 500.890625 C 436.101562 500.300781 436.386719 499.820312 436.738281 499.820312 L 440.914062 499.820312 C 441.265625 499.820312 441.550781 500.300781 441.550781 500.890625 L 441.550781 504.25 C 441.550781 504.839844 441.265625 505.316406 440.914062 505.316406 Z M 440.914062 505.316406 "/>
<path style=" stroke:none;fill-rule:nonzero;fill:rgb(24.705882%,23.921569%,33.72549%);fill-opacity:1;" d="M 604.46875 514.476562 L 600.292969 514.476562 C 599.941406 514.476562 599.65625 514 599.65625 513.410156 L 599.65625 510.046875 C 599.65625 509.457031 599.941406 508.980469 600.292969 508.980469 L 604.46875 508.980469 C 604.820312 508.980469 605.105469 509.457031 605.105469 510.046875 L 605.105469 513.410156 C 605.105469 514 604.820312 514.476562 604.46875 514.476562 Z M 604.46875 514.476562 "/>
<path style=" stroke:none;fill-rule:nonzero;fill:rgb(24.705882%,23.921569%,33.72549%);fill-opacity:1;" d="M 593.574219 514.476562 L 589.398438 514.476562 C 589.046875 514.476562 588.761719 514 588.761719 513.410156 L 588.761719 510.046875 C 588.761719 509.457031 589.046875 508.980469 589.398438 508.980469 L 593.574219 508.980469 C 593.925781 508.980469 594.210938 509.457031 594.210938 510.046875 L 594.210938 513.410156 C 594.210938 514 593.925781 514.476562 593.574219 514.476562 Z M 593.574219 514.476562 "/>
<path style=" stroke:none;fill-rule:nonzero;fill:rgb(24.705882%,23.921569%,33.72549%);fill-opacity:1;" d="M 582.679688 514.476562 L 578.5 514.476562 C 578.152344 514.476562 577.867188 514 577.867188 513.410156 L 577.867188 510.046875 C 577.867188 509.457031 578.152344 508.980469 578.5 508.980469 L 582.679688 508.980469 C 583.03125 508.980469 583.3125 509.457031 583.3125 510.046875 L 583.3125 513.410156 C 583.3125 514 583.03125 514.476562 582.679688 514.476562 Z M 582.679688 514.476562 "/>
<path style=" stroke:none;fill-rule:nonzero;fill:rgb(24.705882%,23.921569%,33.72549%);fill-opacity:1;" d="M 571.785156 514.476562 L 567.605469 514.476562 C 567.253906 514.476562 566.972656 514 566.972656 513.410156 L 566.972656 510.046875 C 566.972656 509.457031 567.253906 508.980469 567.605469 508.980469 L 571.785156 508.980469 C 572.132812 508.980469 572.417969 509.457031 572.417969 510.046875 L 572.417969 513.410156 C 572.417969 514 572.132812 514.476562 571.785156 514.476562 Z M 571.785156 514.476562 "/>
<path style=" stroke:none;fill-rule:nonzero;fill:rgb(24.705882%,23.921569%,33.72549%);fill-opacity:1;" d="M 560.890625 514.476562 L 556.710938 514.476562 C 556.359375 514.476562 556.078125 514 556.078125 513.410156 L 556.078125 510.046875 C 556.078125 509.457031 556.359375 508.980469 556.710938 508.980469 L 560.890625 508.980469 C 561.238281 508.980469 561.523438 509.457031 561.523438 510.046875 L 561.523438 513.410156 C 561.523438 514 561.238281 514.476562 560.890625 514.476562 Z M 560.890625 514.476562 "/>
<path style=" stroke:none;fill-rule:nonzero;fill:rgb(24.705882%,23.921569%,33.72549%);fill-opacity:1;" d="M 549.992188 514.476562 L 545.816406 514.476562 C 545.464844 514.476562 545.179688 514 545.179688 513.410156 L 545.179688 510.046875 C 545.179688 509.457031 545.464844 508.980469 545.816406 508.980469 L 549.992188 508.980469 C 550.34375 508.980469 550.628906 509.457031 550.628906 510.046875 L 550.628906 513.410156 C 550.628906 514 550.34375 514.476562 549.992188 514.476562 Z M 549.992188 514.476562 "/>
<path style=" stroke:none;fill-rule:nonzero;fill:rgb(24.705882%,23.921569%,33.72549%);fill-opacity:1;" d="M 539.097656 514.476562 L 534.921875 514.476562 C 534.570312 514.476562 534.285156 514 534.285156 513.410156 L 534.285156 510.046875 C 534.285156 509.457031 534.570312 508.980469 534.921875 508.980469 L 539.097656 508.980469 C 539.449219 508.980469 539.734375 509.457031 539.734375 510.046875 L 539.734375 513.410156 C 539.734375 514 539.449219 514.476562 539.097656 514.476562 Z M 539.097656 514.476562 "/>
<path style=" stroke:none;fill-rule:nonzero;fill:rgb(24.705882%,23.921569%,33.72549%);fill-opacity:1;" d="M 528.203125 514.476562 L 524.027344 514.476562 C 523.675781 514.476562 523.390625 514 523.390625 513.410156 L 523.390625 510.046875 C 523.390625 509.457031 523.675781 508.980469 524.027344 508.980469 L 528.203125 508.980469 C 528.554688 508.980469 528.839844 509.457031 528.839844 510.046875 L 528.839844 513.410156 C 528.839844 514 528.554688 514.476562 528.203125 514.476562 Z M 528.203125 514.476562 "/>
<path style=" stroke:none;fill-rule:nonzero;fill:rgb(24.705882%,23.921569%,33.72549%);fill-opacity:1;" d="M 517.308594 514.476562 L 513.132812 514.476562 C 512.78125 514.476562 512.496094 514 512.496094 513.410156 L 512.496094 510.046875 C 512.496094 509.457031 512.78125 508.980469 513.132812 508.980469 L 517.308594 508.980469 C 517.660156 508.980469 517.945312 509.457031 517.945312 510.046875 L 517.945312 513.410156 C 517.945312 514 517.660156 514.476562 517.308594 514.476562 Z M 517.308594 514.476562 "/>
<path style=" stroke:none;fill-rule:nonzero;fill:rgb(24.705882%,23.921569%,33.72549%);fill-opacity:1;" d="M 506.414062 514.476562 L 502.234375 514.476562 C 501.886719 514.476562 501.601562 514 501.601562 513.410156 L 501.601562 510.046875 C 501.601562 509.457031 501.886719 508.980469 502.234375 508.980469 L 506.414062 508.980469 C 506.765625 508.980469 507.046875 509.457031 507.046875 510.046875 L 507.046875 513.410156 C 507.046875 514 506.765625 514.476562 506.414062 514.476562 Z M 506.414062 514.476562 "/>
<path style=" stroke:none;fill-rule:nonzero;fill:rgb(24.705882%,23.921569%,33.72549%);fill-opacity:1;" d="M 495.519531 514.476562 L 491.339844 514.476562 C 490.992188 514.476562 490.707031 514 490.707031 513.410156 L 490.707031 510.046875 C 490.707031 509.457031 490.992188 508.980469 491.339844 508.980469 L 495.519531 508.980469 C 495.871094 508.980469 496.152344 509.457031 496.152344 510.046875 L 496.152344 513.410156 C 496.152344 514 495.871094 514.476562 495.519531 514.476562 Z M 495.519531 514.476562 "/>
<path style=" stroke:none;fill-rule:nonzero;fill:rgb(24.705882%,23.921569%,33.72549%);fill-opacity:1;" d="M 484.625 514.476562 L 480.445312 514.476562 C 480.09375 514.476562 479.8125 514 479.8125 513.410156 L 479.8125 510.046875 C 479.8125 509.457031 480.09375 508.980469 480.445312 508.980469 L 484.625 508.980469 C 484.972656 508.980469 485.257812 509.457031 485.257812 510.046875 L 485.257812 513.410156 C 485.257812 514 484.972656 514.476562 484.625 514.476562 Z M 484.625 514.476562 "/>
<path style=" stroke:none;fill-rule:nonzero;fill:rgb(24.705882%,23.921569%,33.72549%);fill-opacity:1;" d="M 473.730469 514.476562 L 469.550781 514.476562 C 469.199219 514.476562 468.917969 514 468.917969 513.410156 L 468.917969 510.046875 C 468.917969 509.457031 469.199219 508.980469 469.550781 508.980469 L 473.730469 508.980469 C 474.078125 508.980469 474.363281 509.457031 474.363281 510.046875 L 474.363281 513.410156 C 474.363281 514 474.078125 514.476562 473.730469 514.476562 Z M 473.730469 514.476562 "/>
<path style=" stroke:none;fill-rule:nonzero;fill:rgb(24.705882%,23.921569%,33.72549%);fill-opacity:1;" d="M 462.832031 514.476562 L 458.65625 514.476562 C 458.304688 514.476562 458.019531 514 458.019531 513.410156 L 458.019531 510.046875 C 458.019531 509.457031 458.304688 508.980469 458.65625 508.980469 L 462.832031 508.980469 C 463.183594 508.980469 463.46875 509.457031 463.46875 510.046875 L 463.46875 513.410156 C 463.46875 514 463.183594 514.476562 462.832031 514.476562 Z M 462.832031 514.476562 "/>
<path style=" stroke:none;fill-rule:nonzero;fill:rgb(24.705882%,23.921569%,33.72549%);fill-opacity:1;" d="M 451.9375 514.476562 L 447.761719 514.476562 C 447.410156 514.476562 447.125 514 447.125 513.410156 L 447.125 510.046875 C 447.125 509.457031 447.410156 508.980469 447.761719 508.980469 L 451.9375 508.980469 C 452.289062 508.980469 452.574219 509.457031 452.574219 510.046875 L 452.574219 513.410156 C 452.574219 514 452.289062 514.476562 451.9375 514.476562 Z M 451.9375 514.476562 "/>
<path style=" stroke:none;fill-rule:nonzero;fill:rgb(24.705882%,23.921569%,33.72549%);fill-opacity:1;" d="M 441.042969 514.476562 L 436.867188 514.476562 C 436.515625 514.476562 436.230469 514 436.230469 513.410156 L 436.230469 510.046875 C 436.230469 509.457031 436.515625 508.980469 436.867188 508.980469 L 441.042969 508.980469 C 441.394531 508.980469 441.679688 509.457031 441.679688 510.046875 L 441.679688 513.410156 C 441.679688 514 441.394531 514.476562 441.042969 514.476562 Z M 441.042969 514.476562 "/>
<path style=" stroke:none;fill-rule:nonzero;fill:rgb(24.705882%,23.921569%,33.72549%);fill-opacity:1;" d="M 552.171875 525.46875 L 509.863281 525.46875 C 509.511719 525.46875 509.226562 524.988281 509.226562 524.398438 L 509.226562 521.039062 C 509.226562 520.449219 509.511719 519.972656 509.863281 519.972656 L 552.171875 519.972656 C 552.523438 519.972656 552.808594 520.449219 552.808594 521.039062 L 552.808594 524.398438 C 552.808594 524.988281 552.523438 525.46875 552.171875 525.46875 Z M 552.171875 525.46875 "/>
<path style=" stroke:none;fill-rule:nonzero;fill:rgb(100%,100%,100%);fill-opacity:1;" d="M 560.34375 398.902344 C 560.34375 435.132812 542.875 464.503906 521.328125 464.503906 C 499.777344 464.503906 482.308594 435.132812 482.308594 398.902344 C 482.308594 362.671875 499.777344 333.296875 521.328125 333.296875 C 542.875 333.296875 560.34375 362.671875 560.34375 398.902344 Z M 560.34375 398.902344 "/>
<path style=" stroke:none;fill-rule:nonzero;fill:rgb(29.411765%,50.196078%,52.156863%);fill-opacity:1;" d="M 512.566406 424.921875 C 512.058594 424.941406 511.554688 424.742188 511.101562 424.347656 C 510.117188 423.507812 509.492188 421.824219 509.472656 419.972656 L 508.828125 378.09375 C 508.800781 376.242188 509.371094 374.515625 510.324219 373.582031 C 511.273438 372.648438 512.449219 372.660156 513.394531 373.613281 L 537.34375 393.527344 C 538.226562 394.417969 538.78125 396.011719 538.808594 397.746094 C 538.832031 399.480469 538.332031 401.117188 537.476562 402.085938 L 514.167969 424.050781 C 513.695312 424.589844 513.140625 424.894531 512.566406 424.921875 Z M 512.566406 424.921875 "/>
<path style=" stroke:none;fill-rule:nonzero;fill:rgb(100%,72.156863%,72.156863%);fill-opacity:1;" d="M 666.585938 686.261719 L 654.152344 676.941406 L 669.648438 589.90625 L 688 603.667969 Z M 666.585938 686.261719 "/>
<path style=" stroke:none;fill-rule:nonzero;fill:rgb(18.431373%,18.039216%,25.490196%);fill-opacity:1;" d="M 670.285156 671.996094 L 656.832031 661.890625 L 654.722656 660.300781 L 651.613281 674.183594 L 628.519531 683.824219 C 626.175781 684.796875 624.480469 688.222656 624.339844 692.273438 C 624.195312 696.328125 625.636719 700.0625 627.898438 701.496094 L 650.839844 716.050781 L 657.871094 704.824219 L 656.335938 719.535156 L 664.980469 725.019531 L 673.554688 674.460938 Z M 670.285156 671.996094 "/>
<path style=" stroke:none;fill-rule:nonzero;fill:rgb(100%,71.372549%,71.372549%);fill-opacity:1;" d="M 689.40625 375.855469 C 692.558594 379.511719 696.511719 380.632812 700.203125 378.914062 C 703.890625 377.199219 706.941406 372.824219 708.527344 366.964844 L 754.304688 374.164062 L 743.066406 338.714844 L 701.316406 337.3125 C 695.152344 333.394531 688.21875 337.855469 685.179688 347.6875 C 682.140625 357.523438 683.957031 369.625 689.40625 375.855469 Z M 689.40625 375.855469 "/>
<path style=" stroke:none;fill-rule:nonzero;fill:rgb(29.411765%,50.196078%,52.156863%);fill-opacity:1;" d="M 735.824219 373.429688 L 799.171875 385.371094 L 799.390625 384.902344 C 799.808594 384.003906 841.261719 294.792969 848.222656 273.554688 C 852.507812 260.796875 854.070312 245.957031 852.644531 231.503906 L 852.597656 231.148438 L 852.433594 230.914062 C 845.476562 221.113281 835.40625 220.742188 828.203125 230.023438 C 811.382812 251.921875 797.820312 280.097656 788.589844 312.320312 L 783.347656 330.660156 L 735.824219 338.539062 Z M 735.824219 373.429688 "/>
<path style=" stroke:none;fill-rule:nonzero;fill:rgb(18.431373%,18.039216%,25.490196%);fill-opacity:1;" d="M 877.867188 428.929688 L 879.695312 435.871094 C 880.265625 442.261719 882.484375 435.902344 882.289062 441.324219 C 891.714844 454.375 865.878906 541.628906 846.464844 538.078125 C 837.464844 542.832031 826.855469 544.773438 815.769531 544.902344 C 814.691406 544.917969 813.609375 544.914062 812.523438 544.894531 C 811.832031 544.882812 809.707031 540.566406 809.011719 540.539062 C 806.925781 540.460938 806.261719 544.621094 804.160156 544.433594 C 802.5 544.289062 799.441406 546.667969 799.175781 543.902344 C 798.597656 537.945312 797.527344 539.296875 796.257812 543.507812 C 795.378906 546.433594 792.382812 542.914062 790.457031 542.566406 C 779.339844 540.554688 768.582031 537.492188 759.28125 534.347656 C 755.816406 533.191406 752.5625 532.015625 749.566406 530.871094 C 743.894531 528.722656 739.144531 526.714844 735.710938 525.191406 C 731.839844 523.488281 729.632812 522.386719 729.632812 522.386719 L 702.015625 560.164062 L 680.617188 638.664062 C 678.96875 638.917969 661.164062 631.035156 661.164062 631.035156 C 657.277344 625.082031 655.941406 615.75 657.789062 607.472656 C 658.878906 601.992188 666.597656 561.441406 674.667969 526.039062 C 677.0625 515.53125 679.539062 504.867188 682.089844 494.257812 C 684.175781 485.546875 686.304688 476.867188 688.457031 468.308594 C 692.199219 453.472656 710.277344 445.46875 731.566406 441.269531 C 732.648438 441.0625 733.738281 440.855469 734.832031 440.660156 C 745.683594 438.742188 757.191406 437.75 767.957031 437.292969 C 773.347656 437.0625 778.546875 436.976562 783.382812 436.964844 C 784.945312 436.964844 786.464844 436.972656 787.941406 436.984375 L 787.949219 436.984375 C 791.9375 437.019531 795.609375 437.117188 798.835938 437.226562 C 799.464844 437.246094 800.074219 437.28125 800.671875 437.300781 L 800.679688 437.300781 C 801.082031 437.3125 801.476562 437.335938 801.867188 437.34375 C 808.925781 437.652344 813.257812 438.023438 813.257812 438.023438 L 812.902344 417.335938 L 815.28125 411.398438 L 815.605469 407.144531 L 815.605469 407.132812 L 815.644531 406.597656 L 815.910156 406.589844 L 820.582031 406.4375 L 859.824219 405.148438 L 876.539062 403.957031 Z M 877.867188 428.929688 "/>
<path style=" stroke:none;fill-rule:nonzero;fill:rgb(100%,72.156863%,72.156863%);fill-opacity:1;" d="M 818.1875 570.941406 L 813.855469 592.636719 L 760.851562 574.980469 L 767.25 542.957031 Z M 818.1875 570.941406 "/>
<path style=" stroke:none;fill-rule:nonzero;fill:rgb(18.431373%,18.039216%,25.490196%);fill-opacity:1;" d="M 809.394531 566.105469 L 804.6875 589.585938 L 803.949219 593.265625 L 812.464844 597.152344 L 820.367188 634.882812 C 821.167969 638.714844 823.355469 641.222656 825.769531 641.078125 C 828.179688 640.929688 830.257812 638.160156 830.890625 634.246094 L 837.324219 594.457031 L 830.007812 583.757812 L 838.863281 584.925781 L 841.289062 569.941406 L 810.539062 560.402344 Z M 809.394531 566.105469 "/>
<path style=" stroke:none;fill-rule:nonzero;fill:rgb(18.431373%,18.039216%,25.490196%);fill-opacity:1;" d="M 783.742188 547.425781 C 783.140625 550.273438 784.914062 546.355469 784.273438 549.179688 C 781.800781 560.125 777.210938 578.777344 776.308594 581.792969 C 775.957031 581.675781 709.304688 566.085938 700.316406 561.6875 L 714.175781 502.609375 L 715.730469 495.984375 L 738.6875 509.746094 L 746.550781 521.054688 L 763.722656 524.753906 Z M 783.742188 547.425781 "/>
<path style=" stroke:none;fill-rule:nonzero;fill:rgb(100%,71.372549%,71.372549%);fill-opacity:1;" d="M 858.417969 115.0625 C 858.417969 144.34375 844.300781 168.078125 826.882812 168.078125 C 809.46875 168.078125 795.351562 144.34375 795.351562 115.0625 C 795.351562 85.78125 809.46875 62.046875 826.882812 62.046875 C 844.300781 62.046875 858.417969 85.78125 858.417969 115.0625 Z M 858.417969 115.0625 "/>
<path style=" stroke:none;fill-rule:nonzero;fill:rgb(29.411765%,50.196078%,52.156863%);fill-opacity:1;" d="M 707.328125 397.160156 C 709.644531 399.605469 705.109375 405.488281 702.375 405.488281 C 699.636719 405.488281 697.421875 401.757812 697.421875 397.160156 C 697.421875 392.558594 700.488281 381.632812 701.753906 385.710938 C 702.097656 386.824219 704.304688 393.96875 707.328125 397.160156 Z M 707.328125 397.160156 "/>
<path style=" stroke:none;fill-rule:nonzero;fill:rgb(29.411765%,50.196078%,52.156863%);fill-opacity:1;" d="M 715.375 397.160156 C 717.691406 399.605469 713.15625 405.488281 710.421875 405.488281 C 707.6875 405.488281 705.46875 401.757812 705.46875 397.160156 C 705.46875 392.558594 708.539062 381.632812 709.804688 385.710938 C 710.148438 386.824219 712.351562 393.96875 715.375 397.160156 Z M 715.375 397.160156 "/>
<path style=" stroke:none;fill-rule:nonzero;fill:rgb(29.411765%,50.196078%,52.156863%);fill-opacity:1;" d="M 711.527344 395.289062 C 708.90625 393.972656 712.347656 386.269531 714.984375 385.046875 C 717.621094 383.820312 720.347656 386.421875 721.078125 390.855469 C 721.804688 395.285156 720.578125 407.195312 718.714844 403.832031 C 718.203125 402.914062 714.949219 397.011719 711.527344 395.289062 Z M 711.527344 395.289062 "/>
<path style=" stroke:none;fill-rule:nonzero;fill:rgb(29.411765%,50.196078%,52.156863%);fill-opacity:1;" d="M 742.617188 397.160156 C 744.933594 399.605469 740.398438 405.488281 737.664062 405.488281 C 734.929688 405.488281 732.710938 401.757812 732.710938 397.160156 C 732.710938 392.558594 735.78125 381.632812 737.042969 385.710938 C 737.390625 386.824219 739.59375 393.96875 742.617188 397.160156 Z M 742.617188 397.160156 "/>
<path style=" stroke:none;fill-rule:nonzero;fill:rgb(29.411765%,50.196078%,52.156863%);fill-opacity:1;" d="M 750.664062 397.160156 C 752.984375 399.605469 748.449219 405.488281 745.710938 405.488281 C 742.976562 405.488281 740.757812 401.757812 740.757812 397.160156 C 740.757812 392.558594 743.828125 381.632812 745.09375 385.710938 C 745.4375 386.824219 747.640625 393.96875 750.664062 397.160156 Z M 750.664062 397.160156 "/>
<path style=" stroke:none;fill-rule:nonzero;fill:rgb(29.411765%,50.196078%,52.156863%);fill-opacity:1;" d="M 746.820312 395.289062 C 744.199219 393.972656 747.636719 386.269531 750.273438 385.046875 C 752.910156 383.820312 755.636719 386.421875 756.367188 390.855469 C 757.097656 395.285156 755.871094 407.195312 754.003906 403.832031 C 753.496094 402.914062 750.238281 397.011719 746.820312 395.289062 Z M 746.820312 395.289062 "/>
<path style=" stroke:none;fill-rule:nonzero;fill:rgb(29.411765%,50.196078%,52.156863%);fill-opacity:1;" d="M 689.859375 395.289062 C 687.238281 393.972656 690.675781 386.269531 693.3125 385.046875 C 695.949219 383.820312 698.679688 386.421875 699.40625 390.855469 C 700.136719 395.285156 698.910156 407.195312 697.042969 403.832031 C 696.535156 402.914062 693.277344 397.011719 689.859375 395.289062 Z M 689.859375 395.289062 "/>
<path style=" stroke:none;fill-rule:nonzero;fill:rgb(29.411765%,50.196078%,52.156863%);fill-opacity:1;" d="M 725.082031 404.191406 C 723.972656 408.394531 719.863281 401.691406 719.46875 397.140625 C 719.078125 392.589844 720.957031 388.367188 723.664062 387.707031 C 726.371094 387.046875 733.242188 390.589844 731.023438 393.277344 C 730.417969 394.011719 726.527344 398.703125 725.082031 404.191406 Z M 725.082031 404.191406 "/>
<path style=" stroke:none;fill-rule:nonzero;fill:rgb(29.411765%,50.196078%,52.156863%);fill-opacity:1;" d="M 734.578125 390.246094 C 735.238281 385.78125 739.976562 391.191406 740.828125 395.5625 C 741.679688 399.929688 740.265625 404.636719 737.664062 406.070312 C 735.066406 407.503906 727.933594 406.007812 729.84375 402.714844 C 730.367188 401.816406 733.71875 396.070312 734.578125 390.246094 Z M 734.578125 390.246094 "/>
<path style=" stroke:none;fill-rule:nonzero;fill:rgb(29.411765%,50.196078%,52.156863%);fill-opacity:1;" d="M 730.863281 384 C 731.523438 379.535156 736.261719 384.945312 737.113281 389.316406 C 737.964844 393.683594 736.550781 398.390625 733.949219 399.824219 C 731.351562 401.257812 724.21875 399.761719 726.128906 396.472656 C 726.652344 395.570312 730.003906 389.824219 730.863281 384 Z M 730.863281 384 "/>
<path style=" stroke:none;fill-rule:nonzero;fill:rgb(29.411765%,50.196078%,52.156863%);fill-opacity:1;" d="M 707.820312 364.332031 C 706.714844 368.539062 702.601562 361.835938 702.210938 357.285156 C 701.816406 352.730469 703.695312 348.507812 706.402344 347.847656 C 709.109375 347.191406 715.984375 350.730469 713.765625 353.421875 C 713.15625 354.15625 709.265625 358.84375 707.820312 364.332031 Z M 707.820312 364.332031 "/>
<path style=" stroke:none;fill-rule:nonzero;fill:rgb(90.196078%,90.196078%,90.196078%);fill-opacity:1;" d="M 683.753906 425.75 L 689.574219 457.648438 C 690.832031 469.046875 696.746094 477.3125 703.640625 477.316406 L 744.808594 477.316406 C 751.820312 477.351562 757.804688 468.808594 758.925781 457.171875 L 758.941406 457.066406 L 764.09375 425.3125 C 764.722656 418.808594 763.621094 412.171875 761.085938 407.152344 C 758.546875 402.132812 754.824219 399.242188 750.90625 399.242188 L 696.898438 399.242188 C 692.933594 399.242188 689.175781 402.203125 686.636719 407.320312 C 684.097656 412.441406 683.042969 419.191406 683.753906 425.75 Z M 683.753906 425.75 "/>
<path style=" stroke:none;fill-rule:nonzero;fill:rgb(29.411765%,50.196078%,52.156863%);fill-opacity:1;" d="M 818.523438 183.804688 C 818.523438 183.804688 841.265625 178.859375 848.195312 183.519531 C 850.660156 185.175781 853.125 200.402344 857.75 204.9375 C 857.832031 205.019531 857.917969 205.097656 858 205.179688 C 866.792969 213.578125 872.0625 229.527344 871.65625 246.515625 C 870.539062 284.015625 872.25 321.601562 876.757812 358.375 C 877.082031 361.101562 877.429688 363.859375 877.792969 366.652344 C 878.21875 369.9375 878.671875 373.269531 879.148438 376.65625 C 880.039062 382.976562 881.019531 389.492188 882.097656 396.207031 C 882.65625 399.703125 879.355469 408.707031 879.96875 412.324219 C 880.378906 414.753906 880.804688 417.210938 881.242188 419.699219 C 882.554688 427.164062 887.875 429.441406 889.421875 437.464844 C 889.457031 442.683594 887.878906 447.558594 885.25 450.335938 C 882.625 453.113281 879.328125 453.394531 876.546875 451.074219 L 796.179688 440.539062 L 803.824219 420.609375 L 798.636719 408.613281 L 802.527344 404.253906 L 804.472656 392.261719 L 798.324219 351.863281 L 789.511719 317.902344 C 783.226562 293.679688 788.566406 265.371094 802.007812 251.671875 L 812.101562 206.722656 Z M 818.523438 183.804688 "/>
<path style=" stroke:none;fill-rule:nonzero;fill:rgb(100%,71.372549%,71.372549%);fill-opacity:1;" d="M 759.984375 460.730469 C 761.167969 454.605469 763.90625 449.679688 767.457031 447.273438 C 771.007812 444.871094 775.011719 445.234375 778.390625 448.265625 L 812.15625 395.800781 L 816.03125 435.4375 L 783.371094 479.1875 C 779.890625 488.59375 772.769531 492.132812 766.804688 487.421875 C 760.835938 482.714844 757.90625 471.246094 759.984375 460.730469 Z M 759.984375 460.730469 "/>
<path style=" stroke:none;fill-rule:nonzero;fill:rgb(29.411765%,50.196078%,52.156863%);fill-opacity:1;" d="M 813.5 441.484375 L 862.835938 380.265625 L 863 380.269531 C 862.945312 379.132812 857.296875 266.328125 853.820312 242.789062 C 851.808594 228.535156 846.953125 215.867188 840.066406 206.886719 L 839.890625 206.683594 L 839.675781 206.699219 C 830.609375 207.457031 823.070312 218.691406 821.535156 233.730469 C 818.050781 269.015625 819.488281 305.179688 825.738281 339.367188 L 829.308594 358.808594 L 807.070312 392.644531 Z M 813.5 441.484375 "/>
<path style=" stroke:none;fill-rule:nonzero;fill:rgb(18.431373%,18.039216%,25.490196%);fill-opacity:1;" d="M 928.082031 193.074219 C 924.441406 201.746094 919.128906 208.03125 913.050781 210.867188 C 910.617188 212.085938 908.101562 212.804688 905.566406 213.003906 C 905.253906 208.183594 904.503906 203.46875 903.34375 199.027344 C 903.460938 203.753906 903.070312 208.480469 902.1875 212.972656 C 898.378906 212.609375 894.65625 210.929688 891.246094 208.042969 C 884.464844 202.304688 879.683594 191.527344 878.351562 178.953125 C 877.015625 164.453125 880.925781 150.214844 882.339844 135.734375 C 883.757812 121.257812 881.09375 102.917969 872.664062 99.113281 C 866.242188 96.210938 866.964844 97.464844 861.625 104.128906 C 867.175781 117.929688 846.671875 168.503906 838.28125 164.09375 C 833.539062 161.601562 830.5 154.28125 829.519531 154.28125 C 822.925781 173.382812 835.34375 205.570312 822.828125 212.253906 L 823.859375 210.519531 C 831.414062 194.894531 815.625 161.828125 823.179688 146.203125 C 825.285156 141.832031 827.53125 136.652344 826.90625 131.125 C 826.316406 125.867188 821.355469 123.089844 819.902344 127.40625 C 822.515625 117.34375 818.660156 103.910156 812.273438 101.328125 C 806.597656 99.027344 806.703125 101.859375 801.007812 103.09375 C 800.636719 98.957031 799.941406 94.917969 798.9375 91.089844 C 799.042969 95.214844 798.757812 99.34375 798.089844 103.320312 C 796.078125 103.253906 794.136719 102.074219 792.566406 99.964844 C 787.921875 93.671875 788.863281 80.457031 793.003906 73.25 C 797.15625 66.042969 803.324219 63.449219 809.203125 61.769531 C 810.914062 41.75 843.765625 39.664062 848.117188 59.667969 C 849.972656 44.730469 861.09375 36.976562 869.738281 41.609375 C 878.382812 46.246094 884.378906 59.820312 887.539062 74.125 C 890.695312 88.417969 891.578125 103.800781 893.523438 118.695312 C 895.46875 133.589844 898.757812 148.753906 905.527344 158.90625 C 912.296875 169.042969 923.328125 172.402344 930.460938 162.980469 C 932.5625 173.078125 931.679688 184.253906 928.082031 193.074219 Z M 928.082031 193.074219 "/>
<path style=" stroke:none;fill-rule:nonzero;fill:rgb(29.411765%,50.196078%,52.156863%);fill-opacity:1;" d="M 260.230469 149.925781 C 259.117188 154.148438 254.988281 147.421875 254.597656 142.851562 C 254.203125 138.28125 256.085938 134.042969 258.804688 133.378906 C 261.523438 132.71875 268.421875 136.273438 266.195312 138.972656 C 265.585938 139.710938 261.679688 144.417969 260.230469 149.925781 Z M 260.230469 149.925781 "/>
<path style=" stroke:none;fill-rule:nonzero;fill:rgb(100%,71.372549%,71.372549%);fill-opacity:1;" d="M 262.34375 171.222656 L 266.285156 235.535156 L 284.765625 242.351562 C 284.765625 242.351562 274.679688 167.527344 274.125 165.292969 C 276.121094 159.8125 275.898438 152.828125 273.570312 147.734375 C 271.238281 142.644531 267.277344 140.496094 263.617188 142.339844 C 259.957031 144.183594 257.351562 149.636719 257.066406 156.042969 C 256.785156 162.453125 258.882812 168.492188 262.34375 171.222656 Z M 262.34375 171.222656 "/>
<path style=" stroke:none;fill-rule:nonzero;fill:rgb(24.705882%,23.921569%,33.72549%);fill-opacity:1;" d="M 215.953125 181.316406 C 207.867188 185.332031 237.511719 285.390625 278.890625 300.539062 C 284.578125 297.628906 289.273438 290.824219 291.824219 281.792969 C 294.371094 272.765625 294.542969 262.347656 292.292969 253.097656 L 280.101562 205.164062 L 262.640625 220.574219 L 263.664062 243.472656 L 249.960938 217.78125 L 221.738281 196.171875 Z M 215.953125 181.316406 "/>
</g>
</svg>
